<?xml version="1.0" encoding="UTF-8" standalone="no"?>
<!-- Created with Inkscape (http://www.inkscape.org/) -->

<svg
   width="63.551922mm"
   height="39.720402mm"
   viewBox="0 0 63.551923 39.720402"
   version="1.1"
   id="svg1"
   inkscape:version="1.3.2 (091e20e, 2023-11-25, custom)"
   sodipodi:docname="icon.svg"
   xmlns:inkscape="http://www.inkscape.org/namespaces/inkscape"
   xmlns:sodipodi="http://sodipodi.sourceforge.net/DTD/sodipodi-0.dtd"
   xmlns="http://www.w3.org/2000/svg"
   xmlns:svg="http://www.w3.org/2000/svg">
  <sodipodi:namedview
     id="namedview1"
     pagecolor="#000000"
     bordercolor="#000000"
     borderopacity="0.25"
     inkscape:showpageshadow="2"
     inkscape:pageopacity="0.0"
     inkscape:pagecheckerboard="0"
     inkscape:deskcolor="#d1d1d1"
     inkscape:document-units="mm"
     inkscape:zoom="0.72426347"
     inkscape:cx="256.81262"
     inkscape:cy="171.89877"
     inkscape:window-width="1920"
     inkscape:window-height="1009"
     inkscape:window-x="-8"
     inkscape:window-y="-8"
     inkscape:window-maximized="1"
     inkscape:current-layer="layer1" />
  <defs
     id="defs1">
    <clipPath
       clipPathUnits="userSpaceOnUse"
       id="clipPath648">
      <path
         d="M 0,841.89 H 595.276 V 0 H 0 Z"
         transform="translate(-169.836,-386.64611)"
         id="path648" />
    </clipPath>
    <clipPath
       clipPathUnits="userSpaceOnUse"
       id="clipPath650">
      <path
         d="M 0,841.89 H 595.276 V 0 H 0 Z"
         transform="translate(-181.4974,-386.64611)"
         id="path650" />
    </clipPath>
    <clipPath
       clipPathUnits="userSpaceOnUse"
       id="clipPath652">
      <path
         d="M 0,841.89 H 595.276 V 0 H 0 Z"
         transform="translate(-193.91061,-386.64611)"
         id="path652" />
    </clipPath>
    <clipPath
       clipPathUnits="userSpaceOnUse"
       id="clipPath654">
      <path
         d="M 0,841.89 H 595.276 V 0 H 0 Z"
         id="path654" />
    </clipPath>
    <clipPath
       clipPathUnits="userSpaceOnUse"
       id="clipPath656">
      <path
         d="M 0,841.89 H 595.276 V 0 H 0 Z"
         transform="translate(-222.51591,-386.64611)"
         id="path656" />
    </clipPath>
    <clipPath
       clipPathUnits="userSpaceOnUse"
       id="clipPath658">
      <path
         d="M 0,841.89 H 595.276 V 0 H 0 Z"
         transform="translate(-169.8084,-365.70171)"
         id="path658" />
    </clipPath>
    <clipPath
       clipPathUnits="userSpaceOnUse"
       id="clipPath660">
      <path
         d="M 0,841.89 H 595.276 V 0 H 0 Z"
         transform="translate(-202.72051,-368.01791)"
         id="path660" />
    </clipPath>
    <clipPath
       clipPathUnits="userSpaceOnUse"
       id="clipPath662">
      <path
         d="M 0,841.89 H 595.276 V 0 H 0 Z"
         transform="translate(-238.53781,-364.92971)"
         id="path662" />
    </clipPath>
    <clipPath
       clipPathUnits="userSpaceOnUse"
       id="clipPath664">
      <path
         d="M 0,841.89 H 595.276 V 0 H 0 Z"
         transform="translate(-250.19931,-364.92971)"
         id="path664" />
    </clipPath>
    <clipPath
       clipPathUnits="userSpaceOnUse"
       id="clipPath666">
      <path
         d="M 0,841.89 H 595.276 V 0 H 0 Z"
         transform="translate(-256.7206,-360.92771)"
         id="path666" />
    </clipPath>
    <clipPath
       clipPathUnits="userSpaceOnUse"
       id="clipPath668">
      <path
         d="M 0,841.89 H 595.276 V 0 H 0 Z"
         transform="translate(-278.78421,-364.92971)"
         id="path668" />
    </clipPath>
    <clipPath
       clipPathUnits="userSpaceOnUse"
       id="clipPath670">
      <path
         d="M 0,841.89 H 595.276 V 0 H 0 Z"
         transform="translate(-197.84481,-368.01791)"
         id="path670" />
    </clipPath>
    <clipPath
       clipPathUnits="userSpaceOnUse"
       id="clipPath672">
      <path
         d="M 0,841.89 H 595.276 V 0 H 0 Z"
         transform="translate(-223.6792,-368.01791)"
         id="path672" />
    </clipPath>
    <clipPath
       clipPathUnits="userSpaceOnUse"
       id="clipPath674">
      <path
         d="M 0,841.89 H 595.276 V 0 H 0 Z"
         transform="translate(-161.67621,-386.64611)"
         id="path674" />
    </clipPath>
    <clipPath
       clipPathUnits="userSpaceOnUse"
       id="clipPath676">
      <path
         d="M 0,841.89 H 595.276 V 0 H 0 Z"
         transform="translate(-219.80361,-384.48231)"
         id="path676" />
    </clipPath>
    <clipPath
       clipPathUnits="userSpaceOnUse"
       id="clipPath678">
      <path
         d="M 0,841.89 H 595.276 V 0 H 0 Z"
         transform="translate(-185.5536,-359.99321)"
         id="path678" />
    </clipPath>
  </defs>
  <g
     inkscape:label="Camada 1"
     inkscape:groupmode="layer"
     id="layer1"
     transform="translate(-106.36251,-114.50076)">
    <path
       id="path673"
       d="m 0,0 h -19.812 -3.302 V -3.302 -18.43 l -6.605,-6.604 v 11.826 3.302 h -15.147 l 6.604,6.604 h 11.845 V 0 H -39.625 V -0.005 L -39.63,0 l -9.901,-9.901 0.005,-0.005 h -0.005 l -3.302,-3.302 h 19.812 v -19.813 l 3.302,3.302 v 0.015 l 9.892,9.892 h 0.015 v 16.51 h 11.826 l -8.524,-8.524 v -4.684 l 13.193,13.208 h 0.015 z"
       style="fill:#ffffff;fill-opacity:1;fill-rule:nonzero;stroke:none"
       transform="matrix(1.2028831,0,0,-1.2028831,169.91443,114.50076)"
       clip-path="url(#clipPath674)" />
  </g>
</svg>
