<?xml version="1.0" encoding="UTF-8" standalone="no"?>
<!-- Created with Inkscape (http://www.inkscape.org/) -->

<svg
   width="206.76479mm"
   height="40.149349mm"
   viewBox="0 0 206.76479 40.149349"
   version="1.1"
   id="svg1"
   inkscape:version="1.3.2 (091e20e, 2023-11-25, custom)"
   sodipodi:docname="logo_blue.svg"
   xmlns:inkscape="http://www.inkscape.org/namespaces/inkscape"
   xmlns:sodipodi="http://sodipodi.sourceforge.net/DTD/sodipodi-0.dtd"
   xmlns="http://www.w3.org/2000/svg"
   xmlns:svg="http://www.w3.org/2000/svg">
  <sodipodi:namedview
     id="namedview1"
     pagecolor="#ffffff"
     bordercolor="#000000"
     borderopacity="0.25"
     inkscape:showpageshadow="2"
     inkscape:pageopacity="0.0"
     inkscape:pagecheckerboard="0"
     inkscape:deskcolor="#d1d1d1"
     inkscape:document-units="mm"
     inkscape:zoom="0.72426347"
     inkscape:cx="256.81262"
     inkscape:cy="61.441729"
     inkscape:window-width="1920"
     inkscape:window-height="1009"
     inkscape:window-x="-8"
     inkscape:window-y="-8"
     inkscape:window-maximized="1"
     inkscape:current-layer="layer1" />
  <defs
     id="defs1">
    <clipPath
       clipPathUnits="userSpaceOnUse"
       id="clipPath648">
      <path
         d="M 0,841.89 H 595.276 V 0 H 0 Z"
         transform="translate(-169.836,-386.64611)"
         id="path648" />
    </clipPath>
    <clipPath
       clipPathUnits="userSpaceOnUse"
       id="clipPath650">
      <path
         d="M 0,841.89 H 595.276 V 0 H 0 Z"
         transform="translate(-181.4974,-386.64611)"
         id="path650" />
    </clipPath>
    <clipPath
       clipPathUnits="userSpaceOnUse"
       id="clipPath652">
      <path
         d="M 0,841.89 H 595.276 V 0 H 0 Z"
         transform="translate(-193.91061,-386.64611)"
         id="path652" />
    </clipPath>
    <clipPath
       clipPathUnits="userSpaceOnUse"
       id="clipPath654">
      <path
         d="M 0,841.89 H 595.276 V 0 H 0 Z"
         id="path654" />
    </clipPath>
    <clipPath
       clipPathUnits="userSpaceOnUse"
       id="clipPath656">
      <path
         d="M 0,841.89 H 595.276 V 0 H 0 Z"
         transform="translate(-222.51591,-386.64611)"
         id="path656" />
    </clipPath>
    <clipPath
       clipPathUnits="userSpaceOnUse"
       id="clipPath658">
      <path
         d="M 0,841.89 H 595.276 V 0 H 0 Z"
         transform="translate(-169.8084,-365.70171)"
         id="path658" />
    </clipPath>
    <clipPath
       clipPathUnits="userSpaceOnUse"
       id="clipPath660">
      <path
         d="M 0,841.89 H 595.276 V 0 H 0 Z"
         transform="translate(-202.72051,-368.01791)"
         id="path660" />
    </clipPath>
    <clipPath
       clipPathUnits="userSpaceOnUse"
       id="clipPath662">
      <path
         d="M 0,841.89 H 595.276 V 0 H 0 Z"
         transform="translate(-238.53781,-364.92971)"
         id="path662" />
    </clipPath>
    <clipPath
       clipPathUnits="userSpaceOnUse"
       id="clipPath664">
      <path
         d="M 0,841.89 H 595.276 V 0 H 0 Z"
         transform="translate(-250.19931,-364.92971)"
         id="path664" />
    </clipPath>
    <clipPath
       clipPathUnits="userSpaceOnUse"
       id="clipPath666">
      <path
         d="M 0,841.89 H 595.276 V 0 H 0 Z"
         transform="translate(-256.7206,-360.92771)"
         id="path666" />
    </clipPath>
    <clipPath
       clipPathUnits="userSpaceOnUse"
       id="clipPath668">
      <path
         d="M 0,841.89 H 595.276 V 0 H 0 Z"
         transform="translate(-278.78421,-364.92971)"
         id="path668" />
    </clipPath>
    <clipPath
       clipPathUnits="userSpaceOnUse"
       id="clipPath670">
      <path
         d="M 0,841.89 H 595.276 V 0 H 0 Z"
         transform="translate(-197.84481,-368.01791)"
         id="path670" />
    </clipPath>
    <clipPath
       clipPathUnits="userSpaceOnUse"
       id="clipPath672">
      <path
         d="M 0,841.89 H 595.276 V 0 H 0 Z"
         transform="translate(-223.6792,-368.01791)"
         id="path672" />
    </clipPath>
    <clipPath
       clipPathUnits="userSpaceOnUse"
       id="clipPath674">
      <path
         d="M 0,841.89 H 595.276 V 0 H 0 Z"
         transform="translate(-161.67621,-386.64611)"
         id="path674" />
    </clipPath>
    <clipPath
       clipPathUnits="userSpaceOnUse"
       id="clipPath676">
      <path
         d="M 0,841.89 H 595.276 V 0 H 0 Z"
         transform="translate(-219.80361,-384.48231)"
         id="path676" />
    </clipPath>
    <clipPath
       clipPathUnits="userSpaceOnUse"
       id="clipPath678">
      <path
         d="M 0,841.89 H 595.276 V 0 H 0 Z"
         transform="translate(-185.5536,-359.99321)"
         id="path678" />
    </clipPath>
  </defs>
  <g
     inkscape:label="Camada 1"
     inkscape:groupmode="layer"
     id="layer1"
     transform="translate(-106.36251,-114.50052)">
    <path
       id="path647"
       d="M 0,0 H 9.284 V -2.316 H 2.56 V -6.095 H 7.598 V -8.411 H 2.56 v -5.973 H 0 Z"
       style="fill:#34325f;fill-opacity:1;fill-rule:nonzero;stroke:none"
       transform="matrix(1.2028831,0,0,-1.2028831,179.72969,114.50076)"
       clip-path="url(#clipPath648)" />
    <path
       id="path649"
       d="M 0,0 H 9.528 V -2.316 H 2.56 V -5.851 H 7.862 V -8.167 H 2.56 v -3.901 h 7.334 v -2.316 H 0 Z"
       style="fill:#34325f;fill-opacity:1;fill-rule:nonzero;stroke:none"
       transform="matrix(1.2028831,0,0,-1.2028831,193.75698,114.50076)"
       clip-path="url(#clipPath650)" />
    <path
       id="path651"
       d="m 0,0 h 2.56 v -12.068 h 6.115 v -2.316 H 0 Z"
       style="fill:#34325f;fill-opacity:1;fill-rule:nonzero;stroke:none"
       transform="matrix(1.2028831,0,0,-1.2028831,208.68865,114.50076)"
       clip-path="url(#clipPath652)" />
    <path
       id="path653"
       d="m 204.394,386.646 h 2.56 v -14.384 h -2.56 z"
       style="fill:#34325f;fill-opacity:1;fill-rule:nonzero;stroke:none"
       transform="matrix(1.2028831,0,0,-1.2028831,-24.563163,579.59083)"
       clip-path="url(#clipPath654)" />
    <path
       id="path655"
       d="M 0,0 H 9.528 V -2.316 H 2.56 V -5.851 H 7.862 V -8.167 H 2.56 v -3.901 h 7.334 v -2.316 H 0 Z"
       style="fill:#34325f;fill-opacity:1;fill-rule:nonzero;stroke:none"
       transform="matrix(1.2028831,0,0,-1.2028831,243.09745,114.50076)"
       clip-path="url(#clipPath656)" />
    <path
       id="path657"
       d="M 0,0 H -4.409 V 2.316 H 6.968 V 0 H 2.56 V -12.068 H 0 Z"
       style="fill:#34325f;fill-opacity:1;fill-rule:nonzero;stroke:none"
       transform="matrix(1.2028831,0,0,-1.2028831,179.69652,139.69443)"
       clip-path="url(#clipPath658)" />
    <path
       id="path659"
       d="M 0,0 H 2.946 L 6.867,-10.869 10.91,0 h 2.763 L 7.863,-14.384 H 5.648 Z"
       style="fill:#34325f;fill-opacity:1;fill-rule:nonzero;stroke:none"
       transform="matrix(1.2028831,0,0,-1.2028831,219.2859,136.90833)"
       clip-path="url(#clipPath660)" />
    <path
       id="path661"
       d="M 0,0 C -0.271,0.393 -0.634,0.681 -1.087,0.863 -1.541,1.046 -2.019,1.138 -2.519,1.138 -2.818,1.138 -3.106,1.104 -3.383,1.036 -3.661,0.968 -3.911,0.86 -4.134,0.711 -4.358,0.562 -4.538,0.369 -4.673,0.132 c -0.135,-0.237 -0.203,-0.518 -0.203,-0.843 0,-0.488 0.169,-0.86 0.508,-1.117 0.338,-0.258 0.758,-0.481 1.26,-0.671 0.5,-0.19 1.049,-0.372 1.645,-0.548 0.596,-0.177 1.144,-0.42 1.646,-0.732 0.501,-0.311 0.92,-0.725 1.259,-1.239 0.339,-0.515 0.508,-1.199 0.508,-2.052 0,-0.772 -0.142,-1.446 -0.427,-2.021 -0.284,-0.576 -0.667,-1.054 -1.147,-1.433 -0.481,-0.379 -1.04,-0.663 -1.676,-0.853 -0.637,-0.19 -1.308,-0.284 -2.012,-0.284 -0.894,0 -1.754,0.149 -2.58,0.447 -0.826,0.297 -1.537,0.799 -2.133,1.503 l 1.93,1.869 c 0.311,-0.474 0.721,-0.843 1.229,-1.107 0.508,-0.264 1.046,-0.396 1.615,-0.396 0.298,0 0.596,0.04 0.894,0.122 0.298,0.081 0.569,0.203 0.813,0.365 0.244,0.163 0.44,0.369 0.589,0.62 0.149,0.251 0.224,0.538 0.224,0.863 0,0.529 -0.17,0.935 -0.508,1.219 -0.339,0.285 -0.759,0.525 -1.26,0.722 -0.502,0.196 -1.05,0.382 -1.646,0.558 -0.596,0.176 -1.145,0.417 -1.645,0.722 -0.501,0.304 -0.922,0.711 -1.26,1.219 -0.339,0.508 -0.508,1.188 -0.508,2.041 0,0.745 0.152,1.388 0.457,1.93 0.305,0.542 0.704,0.992 1.199,1.351 0.494,0.359 1.059,0.627 1.696,0.803 0.637,0.176 1.287,0.264 1.951,0.264 0.758,0 1.493,-0.115 2.204,-0.346 C 0.66,2.878 1.3,2.499 1.869,1.971 Z"
       style="fill:#34325f;fill-opacity:1;fill-rule:nonzero;stroke:none"
       transform="matrix(1.2028831,0,0,-1.2028831,262.36992,140.62305)"
       clip-path="url(#clipPath662)" />
    <path
       id="path663"
       d="M 0,0 C -0.271,0.393 -0.634,0.681 -1.087,0.863 -1.541,1.046 -2.019,1.138 -2.519,1.138 -2.818,1.138 -3.106,1.104 -3.383,1.036 -3.661,0.968 -3.911,0.86 -4.134,0.711 -4.358,0.562 -4.538,0.369 -4.673,0.132 c -0.135,-0.237 -0.203,-0.518 -0.203,-0.843 0,-0.488 0.169,-0.86 0.508,-1.117 0.338,-0.258 0.758,-0.481 1.26,-0.671 0.5,-0.19 1.049,-0.372 1.645,-0.548 0.596,-0.177 1.144,-0.42 1.646,-0.732 0.501,-0.311 0.92,-0.725 1.259,-1.239 0.339,-0.515 0.508,-1.199 0.508,-2.052 0,-0.772 -0.142,-1.446 -0.427,-2.021 -0.284,-0.576 -0.667,-1.054 -1.147,-1.433 -0.481,-0.379 -1.04,-0.663 -1.676,-0.853 -0.637,-0.19 -1.308,-0.284 -2.012,-0.284 -0.894,0 -1.754,0.149 -2.58,0.447 -0.826,0.297 -1.537,0.799 -2.133,1.503 l 1.93,1.869 c 0.311,-0.474 0.721,-0.843 1.229,-1.107 0.508,-0.264 1.046,-0.396 1.615,-0.396 0.298,0 0.596,0.04 0.894,0.122 0.298,0.081 0.569,0.203 0.813,0.365 0.244,0.163 0.44,0.369 0.589,0.62 0.149,0.251 0.224,0.538 0.224,0.863 0,0.529 -0.17,0.935 -0.508,1.219 -0.339,0.285 -0.759,0.525 -1.26,0.722 -0.502,0.196 -1.05,0.382 -1.646,0.558 -0.596,0.176 -1.145,0.417 -1.645,0.722 -0.501,0.304 -0.922,0.711 -1.26,1.219 -0.339,0.508 -0.508,1.188 -0.508,2.041 0,0.745 0.152,1.388 0.457,1.93 0.305,0.542 0.704,0.992 1.199,1.351 0.494,0.359 1.059,0.627 1.696,0.803 0.637,0.176 1.287,0.264 1.951,0.264 0.758,0 1.493,-0.115 2.204,-0.346 C 0.66,2.878 1.3,2.499 1.869,1.971 Z"
       style="fill:#34325f;fill-opacity:1;fill-rule:nonzero;stroke:none"
       transform="matrix(1.2028831,0,0,-1.2028831,276.39736,140.62305)"
       clip-path="url(#clipPath664)" />
    <path
       id="path665"
       d="m 0,0 c 0,-0.772 0.119,-1.483 0.356,-2.133 0.236,-0.65 0.571,-1.213 1.005,-1.687 0.433,-0.474 0.951,-0.846 1.554,-1.117 0.603,-0.271 1.277,-0.406 2.022,-0.406 0.745,0 1.422,0.135 2.031,0.406 0.61,0.271 1.131,0.643 1.565,1.117 0.433,0.474 0.768,1.037 1.005,1.687 0.237,0.65 0.356,1.361 0.356,2.133 0,0.717 -0.119,1.388 -0.356,2.011 C 9.301,2.634 8.966,3.179 8.533,3.646 8.099,4.114 7.578,4.479 6.968,4.744 6.359,5.008 5.682,5.14 4.937,5.14 4.192,5.14 3.518,5.008 2.915,4.744 2.312,4.479 1.794,4.114 1.361,3.646 0.927,3.179 0.592,2.634 0.356,2.011 0.119,1.388 0,0.717 0,0 m -2.682,-0.163 c 0,1.151 0.19,2.198 0.569,3.139 0.379,0.941 0.904,1.744 1.575,2.408 0.67,0.663 1.469,1.175 2.397,1.533 C 2.786,7.276 3.806,7.456 4.917,7.456 6.04,7.469 7.07,7.303 8.004,6.958 8.939,6.613 9.745,6.108 10.422,5.444 c 0.677,-0.663 1.206,-1.462 1.585,-2.397 0.379,-0.934 0.569,-1.977 0.569,-3.128 0,-1.125 -0.19,-2.148 -0.569,-3.068 C 11.628,-4.071 11.099,-4.863 10.422,-5.526 9.745,-6.19 8.939,-6.708 8.004,-7.08 7.07,-7.453 6.04,-7.646 4.917,-7.659 c -1.111,0 -2.131,0.179 -3.058,0.538 -0.928,0.358 -1.727,0.866 -2.397,1.524 -0.671,0.657 -1.196,1.445 -1.575,2.367 -0.379,0.92 -0.569,1.943 -0.569,3.067"
       style="fill:#34325f;fill-opacity:1;fill-rule:nonzero;stroke:none"
       transform="matrix(1.2028831,0,0,-1.2028831,284.24173,145.43699)"
       clip-path="url(#clipPath666)" />
    <path
       id="path667"
       d="M 0,0 C -0.271,0.393 -0.634,0.681 -1.087,0.863 -1.541,1.046 -2.019,1.138 -2.519,1.138 -2.818,1.138 -3.105,1.104 -3.383,1.036 -3.661,0.968 -3.911,0.86 -4.134,0.711 -4.358,0.562 -4.538,0.369 -4.673,0.132 c -0.135,-0.237 -0.203,-0.518 -0.203,-0.843 0,-0.488 0.169,-0.86 0.508,-1.117 0.338,-0.258 0.758,-0.481 1.26,-0.671 0.5,-0.19 1.049,-0.372 1.645,-0.548 0.596,-0.177 1.144,-0.42 1.646,-0.732 0.501,-0.311 0.92,-0.725 1.259,-1.239 0.339,-0.515 0.508,-1.199 0.508,-2.052 0,-0.772 -0.142,-1.446 -0.427,-2.021 -0.284,-0.576 -0.667,-1.054 -1.147,-1.433 -0.481,-0.379 -1.04,-0.663 -1.676,-0.853 -0.637,-0.19 -1.308,-0.284 -2.012,-0.284 -0.894,0 -1.754,0.149 -2.58,0.447 -0.826,0.297 -1.537,0.799 -2.133,1.503 l 1.93,1.869 c 0.311,-0.474 0.721,-0.843 1.229,-1.107 0.508,-0.264 1.046,-0.396 1.615,-0.396 0.298,0 0.596,0.04 0.894,0.122 0.298,0.081 0.569,0.203 0.813,0.365 0.244,0.163 0.44,0.369 0.589,0.62 0.149,0.251 0.224,0.538 0.224,0.863 0,0.529 -0.17,0.935 -0.508,1.219 -0.339,0.285 -0.759,0.525 -1.26,0.722 -0.502,0.196 -1.05,0.382 -1.646,0.558 -0.596,0.176 -1.145,0.417 -1.645,0.722 -0.501,0.304 -0.922,0.711 -1.26,1.219 -0.339,0.508 -0.508,1.188 -0.508,2.041 0,0.745 0.153,1.388 0.457,1.93 0.305,0.542 0.704,0.992 1.199,1.351 0.494,0.359 1.059,0.627 1.696,0.803 0.637,0.176 1.287,0.264 1.951,0.264 0.758,0 1.493,-0.115 2.204,-0.346 C 0.66,2.878 1.3,2.499 1.869,1.971 Z"
       style="fill:#34325f;fill-opacity:1;fill-rule:nonzero;stroke:none"
       transform="matrix(1.2028831,0,0,-1.2028831,310.78167,140.62305)"
       clip-path="url(#clipPath668)" />
    <path
       id="path669"
       d="m 0,0 h -2.215 l -6.257,-14.384 h 2.865 l 4.429,11.336 4.449,-11.336 h 2.925 z"
       style="fill:#34325f;fill-opacity:1;fill-rule:nonzero;stroke:none"
       transform="matrix(1.2028831,0,0,-1.2028831,213.42102,136.90833)"
       clip-path="url(#clipPath670)" />
    <path
       id="path671"
       d="m 0,0 h -2.215 l -6.257,-14.384 h 2.865 l 4.429,11.336 4.449,-11.336 h 2.925 z"
       style="fill:#34325f;fill-opacity:1;fill-rule:nonzero;stroke:none"
       transform="matrix(1.2028831,0,0,-1.2028831,244.49679,136.90833)"
       clip-path="url(#clipPath672)" />
    <path
       id="path673"
       d="m 0,0 h -19.812 -3.302 V -3.302 -18.43 l -6.605,-6.604 v 11.826 3.302 h -15.147 l 6.604,6.604 h 11.845 V 0 H -39.625 V -0.005 L -39.63,0 l -9.901,-9.901 0.005,-0.005 h -0.005 l -3.302,-3.302 h 19.812 v -19.813 l 3.302,3.302 v 0.015 l 9.892,9.892 h 0.015 v 16.51 h 11.826 l -8.524,-8.524 v -4.684 l 13.193,13.208 h 0.015 z"
       style="fill:#34325f;fill-opacity:1;fill-rule:nonzero;stroke:none"
       transform="matrix(1.2028831,0,0,-1.2028831,169.91443,114.50076)"
       clip-path="url(#clipPath674)" />
    <path
       id="path675"
       d="M 0,0 C -0.291,0.535 -0.681,0.962 -1.168,1.28 -1.655,1.598 -2.221,1.825 -2.864,1.961 -3.508,2.096 -4.175,2.164 -4.865,2.164 H -9.701 V -12.22 h 2.56 v 5.513 0.44 2.194 0.175 3.868 h 1.829 c 0.338,0 0.69,-0.021 1.056,-0.061 0.366,-0.041 0.697,-0.132 0.996,-0.275 0.297,-0.142 0.541,-0.345 0.731,-0.609 0.189,-0.264 0.284,-0.62 0.284,-1.067 0,-0.487 -0.105,-0.867 -0.314,-1.137 -0.211,-0.271 -0.482,-0.475 -0.813,-0.61 -0.332,-0.136 -0.695,-0.217 -1.087,-0.243 -0.393,-0.028 -0.772,-0.041 -1.138,-0.041 h -0.569 v -2.194 h 0.854 c 0.758,0 1.486,0.053 2.184,0.162 0.697,0.108 1.31,0.315 1.838,0.62 0.528,0.305 0.948,0.734 1.26,1.29 0.311,0.555 0.467,1.286 0.467,2.194 C 0.437,-1.202 0.291,-0.535 0,0"
       style="fill:#34325f;fill-opacity:1;fill-rule:nonzero;stroke:none"
       transform="matrix(1.2028831,0,0,-1.2028831,239.83488,117.10356)"
       clip-path="url(#clipPath676)" />
    <path
       id="path677"
       d="M 0,0 C 1.07,0.148 1.892,0.575 2.468,1.28 3.044,1.984 3.332,2.857 3.332,3.9 3.332,4.713 3.183,5.383 2.885,5.912 2.587,6.44 2.187,6.86 1.686,7.171 1.185,7.483 0.612,7.703 -0.03,7.832 -0.674,7.96 -1.341,8.025 -2.032,8.025 H -7.03 V -6.359 h 2.56 v 5.682 0.413 2.194 0.202 3.698 h 2.215 c 0.325,0 0.66,-0.02 1.006,-0.06 0.345,-0.041 0.66,-0.126 0.944,-0.255 C -0.02,5.387 0.21,5.194 0.386,4.937 0.562,4.679 0.65,4.34 0.65,3.921 0.65,3.447 0.555,3.078 0.366,2.814 0.176,2.55 -0.071,2.353 -0.376,2.225 -0.681,2.096 -1.016,2.014 -1.381,1.981 -1.747,1.947 -2.113,1.93 -2.479,1.93 H -3.76 l 4.491,-8.289 h 3.088 z"
       style="fill:#34325f;fill-opacity:1;fill-rule:nonzero;stroke:none"
       transform="matrix(1.2028831,0,0,-1.2028831,198.63613,146.56108)"
       clip-path="url(#clipPath678)" />
  </g>
</svg>
