<?xml version="1.0" encoding="UTF-8" standalone="no"?>
<!-- Created with Inkscape (http://www.inkscape.org/) -->

<svg
   width="800"
   height="800"
   viewBox="0 0 211.66667 211.66667"
   version="1.1"
   id="svg1"
   xml:space="preserve"
   inkscape:version="1.3.2 (091e20e, 2023-11-25, custom)"
   sodipodi:docname="abdaex.svg"
   xmlns:inkscape="http://www.inkscape.org/namespaces/inkscape"
   xmlns:sodipodi="http://sodipodi.sourceforge.net/DTD/sodipodi-0.dtd"
   xmlns="http://www.w3.org/2000/svg"
   xmlns:svg="http://www.w3.org/2000/svg"><sodipodi:namedview
     id="namedview1"
     pagecolor="#000000"
     bordercolor="#000000"
     borderopacity="0.25"
     inkscape:showpageshadow="2"
     inkscape:pageopacity="0.0"
     inkscape:pagecheckerboard="0"
     inkscape:deskcolor="#d1d1d1"
     inkscape:document-units="mm"
     inkscape:export-bgcolor="#00000000"
     inkscape:zoom="0.36213173"
     inkscape:cx="502.57954"
     inkscape:cy="357.60467"
     inkscape:window-width="1920"
     inkscape:window-height="1009"
     inkscape:window-x="-8"
     inkscape:window-y="-8"
     inkscape:window-maximized="1"
     inkscape:current-layer="layer1" /><defs
     id="defs1" /><g
     inkscape:label="Camada 1"
     inkscape:groupmode="layer"
     id="layer1"
     transform="translate(-67.583023,162.56458)"><g
       id="g1"
       transform="matrix(0.19446495,0,0,0.19446495,94.463587,-79.391365)"><path
         d="m 0,0 c 33.66,0 67.32,0 102,0 0,10.23 0,20.46 0,31 -22.11,0 -44.22,0 -67,0 0,8.58 0,17.16 0,26 37.29,0 74.58,0 113,0 -17.75,-27.17 -17.75,-27.17 -36,-54 0,-0.66 0,-1.32 0,-2 5.69,-0.27 11.38,-0.47 17.08,-0.6 1.93,-0.06 3.87,-0.13 5.8,-0.23 15.92,-0.77 15.92,-0.77 20.91,2.86 2.12,2.87 3.64,5.76 5.21,8.97 1.4,2.15 2.82,4.28 4.27,6.4 0.75,1.13 1.49,2.27 2.23,3.41 0.37,0.58 0.75,1.16 1.14,1.76 0.39,0.6 0.77,1.19 1.17,1.81 1.66,2.55 3.31,5.09 4.97,7.64 0.42,0.65 0.85,1.3 1.28,1.97 2.66,4.08 5.36,8.12 8.09,12.14 1.8,2.65 3.58,5.3 5.37,7.96 0.86,1.27 1.72,2.53 2.6,3.79 1.21,1.76 2.4,3.53 3.59,5.31 1.03,1.5 1.03,1.5 2.07,3.04 1.22,2.77 1.22,2.77 0.61,5.33 -1.4,2.47 -2.83,4.87 -4.39,7.24 -0.63,0.96 -1.26,1.92 -1.9,2.91 -0.69,1.04 -1.39,2.09 -2.1,3.17 -0.72,1.09 -1.45,2.19 -2.19,3.32 -2.6,3.94 -5.2,7.87 -7.81,11.8 -0.8,1.21 -0.8,1.21 -1.62,2.45 -4.12,6.21 -8.25,12.41 -12.38,18.61 -0.88,1.33 -0.88,1.33 -1.78,2.68 -1.68,2.51 -3.35,5.03 -5.03,7.55 -0.51,0.76 -1.02,1.53 -1.55,2.31 -3.52,5.28 -3.52,5.28 -4.64,6.4 -3.03,0.09 -6.04,0.12 -9.07,0.1 -0.91,0 -1.81,-0.01 -2.75,-0.01 -2.91,0 -5.83,-0.01 -8.74,-0.03 -1.97,0 -3.94,-0.01 -5.91,-0.01 -4.85,-0.01 -9.69,-0.03 -14.53,-0.05 1.27,-3.44 2.75,-6.36 4.81,-9.39 0.56,-0.83 1.13,-1.67 1.71,-2.53 0.61,-0.89 1.22,-1.78 1.84,-2.69 0.63,-0.93 1.26,-1.86 1.91,-2.82 2.01,-2.96 4.03,-5.92 6.04,-8.88 2.01,-2.95 4.01,-5.9 6.01,-8.86 1.25,-1.83 2.49,-3.66 3.74,-5.5 0.58,-0.84 1.15,-1.68 1.74,-2.55 0.5,-0.73 1,-1.47 1.51,-2.22 2.3,-3.48 4.48,-7.03 6.69,-10.56 -37.29,0 -74.58,0 -113,0 0,8.25 0,16.5 0,25 22.11,0 44.22,0 67,0 0,10.23 0,20.46 0,31 -33.66,0 -67.32,0 -102,0 C 0,94.47 0,47.94 0,0 Z"
         fill="#000000"
         transform="translate(565,3)"
         id="path1"
         style="fill:#ffffff" /><path
         d="m 0,0 c 12.15,-0.08 24.3,-0.17 36.81,-0.25 5.73,-0.05 5.73,-0.05 11.56,-0.11 4.72,-0.02 4.72,-0.02 6.93,-0.02 1.53,-0.01 3.05,-0.02 4.58,-0.04 14.4,-0.19 26.13,2.17 37.06,12.2 9.49,10 11.54,21.39 11.35,34.65 -0.35,8.49 -3.87,15.47 -8.29,22.57 0.52,0.52 1.04,1.04 1.57,1.58 10.22,10.78 12.94,21.39 12.71,35.86 -0.46,11.06 -6.03,20.78 -13.97,28.31 -8.05,6.67 -16.94,9.41 -27.2,9.36 -0.8,0 -1.61,0 -2.43,0 -2.6,0 -5.19,0 -7.79,-0.01 -1.6,0 -3.21,0 -4.81,-0.01 -5.94,0 -11.89,-0.01 -17.83,-0.03 C 26.97,144.04 13.69,144.02 0,144 0,96.48 0,48.96 0,0 Z m 36,29 c 0,8.58 0,17.16 0,26 3.98,0.06 7.96,0.12 12.06,0.19 1.24,0.02 2.49,0.05 3.76,0.08 7.46,0.06 12.99,-0.17 18.56,-5.58 C 72.27,46.56 72.93,44.66 73,41 71.4,35.85 69.61,32.85 65,30 61.38,29.06 57.99,28.88 54.26,28.9 c -0.96,0 -1.92,0.01 -2.91,0.01 -1.81,0.01 -1.81,0.01 -3.66,0.03 C 43.83,28.96 39.97,28.98 36,29 Z m 0,60 c 0,8.58 0,17.16 0,26 4.29,0.07 8.57,0.13 12.86,0.16 1.46,0.02 2.91,0.04 4.37,0.07 2.1,0.03 4.2,0.05 6.31,0.06 1.89,0.03 1.89,0.03 3.82,0.05 5.25,-0.49 9.16,-1.9 13.02,-5.65 1.89,-3.13 2.55,-5.03 2.62,-8.69 -1.6,-5.15 -3.39,-8.15 -8,-11 -4.04,-1.08 -7.89,-1.12 -12.05,-1.1 -0.99,0 -0.99,0 -2,0.01 -2.09,0 -4.17,0.01 -6.26,0.03 -1.43,0 -2.85,0.01 -4.27,0.01 C 42.95,88.96 39.47,88.98 36,89 Z"
         fill="#000000"
         transform="translate(156)"
         id="path2"
         style="fill:#ffffff" /><path
         d="m 0,0 c 80.42,0 80.42,0 101,18 0.62,0.52 1.23,1.04 1.87,1.58 11.02,10.05 19.31,26.15 20.31,41.06 0.54,25.11 0.54,25.11 -4.18,36.36 -0.65,1.56 -0.65,1.56 -1.32,3.15 -3.28,7.11 -7.5,13.01 -12.68,18.85 -0.52,0.61 -1.04,1.23 -1.57,1.86 C 93.13,132.17 79.47,137.38 65,141 43.55,141 22.1,141 0,141 0,94.47 0,47.94 0,0 Z m 36,36 c 0,22.77 0,45.54 0,69 20.91,1.6 20.91,1.6 38,-6 0.67,-0.51 1.35,-1.01 2.04,-1.54 C 82.57,91.8 86.74,84.01 87.58,75.42 88.22,63.52 85.92,54.26 77.88,45.12 76.62,44.04 75.33,43 74,42 73.27,41.42 72.55,40.84 71.8,40.25 60.37,32.88 50.53,36 36,36 Z"
         fill="#000000"
         transform="translate(289,3)"
         id="path3"
         style="fill:#ffffff" /><path
         d="m 0,0 c 10.56,0 21.12,0 32,0 9.52,23.24 19.04,46.48 28.42,69.77 3.52,8.72 7.07,17.44 10.67,26.13 1.87,4.51 3.74,9.02 5.6,13.54 0.91,2.19 1.82,4.38 2.74,6.57 1.27,3.05 2.53,6.11 3.79,9.16 0.39,0.91 0.77,1.82 1.16,2.75 0.35,0.85 0.7,1.69 1.05,2.57 0.31,0.73 0.61,1.46 0.93,2.21 C 87,135 87,135 87,141 c -10.89,0 -21.78,0 -33,0 -1.09,-2.33 -2.19,-4.66 -3.31,-7.06 -0.34,-0.72 -0.68,-1.44 -1.03,-2.18 -0.27,-0.59 -0.55,-1.19 -0.84,-1.8 -0.27,-0.59 -0.55,-1.18 -0.84,-1.79 -1.37,-3.03 -2.67,-6.11 -3.98,-9.17 -15.51,-0.33 -31.02,-0.66 -47,-1 3.38,-11.26 3.38,-11.26 5.01,-15.32 0.34,-0.86 0.69,-1.73 1.05,-2.62 0.35,-0.87 0.7,-1.73 1.06,-2.62 0.36,-0.9 0.72,-1.8 1.09,-2.73 C 7.86,88.14 7.86,88.14 9,87 c 1.63,-0.09 3.27,-0.11 4.91,-0.1 0.99,0.01 1.98,0.01 3,0.01 1.04,0.01 2.08,0.02 3.15,0.03 1.57,0 1.57,0 3.17,0.01 C 25.82,86.96 28.41,86.98 31,87 30.58,85.95 30.15,84.9 29.71,83.82 28.15,79.93 26.58,76.04 25.02,72.16 24.34,70.47 23.66,68.79 22.98,67.1 22.01,64.69 21.03,62.27 20.06,59.85 19.76,59.1 19.45,58.34 19.13,57.56 17,52.23 17,52.23 17,50 c -0.66,0 -1.32,0 -2,0 -0.34,1.27 -0.68,2.54 -1.04,3.86 -2.51,8.37 -6.04,16.38 -9.4,24.45 -0.72,1.74 -1.44,3.48 -2.15,5.22 -1.45,3.5 -2.9,6.99 -4.35,10.49 -1.86,4.5 -3.72,9.02 -5.57,13.53 -0.54,1.3 -1.07,2.61 -1.61,3.91 -0.97,2.35 -1.93,4.71 -2.9,7.06 -3.14,7.61 -6.53,15 -9.98,22.48 -10.89,0 -21.78,0 -33,0 0,-6.75 0,-6.75 1.38,-10.05 0.46,-1.12 0.46,-1.12 0.93,-2.27 0.34,-0.79 0.68,-1.59 1.03,-2.41 0.35,-0.86 0.71,-1.71 1.07,-2.59 1.17,-2.81 2.35,-5.62 3.53,-8.43 0.82,-1.99 1.65,-3.97 2.47,-5.96 1.27,-3.07 2.55,-6.14 3.82,-9.21 C -37,91.03 -33.31,81.94 -29.64,72.84 -19.84,48.53 -9.92,24.27 0,0 Z"
         fill="#000000"
         transform="translate(461,3)"
         id="path4"
         style="fill:#ffffff" /><path
         d="m 0,0 c 10.56,0 21.12,0 32,0 9.52,23.24 19.04,46.48 28.42,69.77 3.52,8.72 7.07,17.44 10.67,26.13 1.87,4.51 3.74,9.02 5.6,13.54 0.91,2.19 1.82,4.38 2.74,6.57 1.27,3.05 2.53,6.11 3.79,9.16 0.39,0.91 0.77,1.82 1.16,2.75 0.35,0.85 0.7,1.69 1.05,2.57 0.31,0.73 0.61,1.46 0.93,2.21 C 87,135 87,135 87,141 c -10.89,0 -21.78,0 -33,0 -1.09,-2.33 -2.19,-4.66 -3.31,-7.06 -0.34,-0.72 -0.68,-1.44 -1.03,-2.18 -0.27,-0.59 -0.55,-1.19 -0.84,-1.8 -0.27,-0.59 -0.55,-1.18 -0.84,-1.79 -1.37,-3.03 -2.67,-6.11 -3.98,-9.17 -15.51,-0.33 -31.02,-0.66 -47,-1 3.38,-11.26 3.38,-11.26 5.01,-15.32 0.34,-0.86 0.69,-1.73 1.05,-2.62 0.35,-0.87 0.7,-1.73 1.06,-2.62 0.36,-0.9 0.72,-1.8 1.09,-2.73 C 7.86,88.14 7.86,88.14 9,87 c 1.63,-0.09 3.27,-0.11 4.91,-0.1 0.99,0.01 1.98,0.01 3,0.01 1.04,0.01 2.08,0.02 3.15,0.03 1.57,0 1.57,0 3.17,0.01 C 25.82,86.96 28.41,86.98 31,87 30.58,85.95 30.15,84.9 29.71,83.82 28.15,79.93 26.58,76.04 25.02,72.16 24.34,70.47 23.66,68.79 22.98,67.1 22.01,64.69 21.03,62.27 20.06,59.85 19.76,59.1 19.45,58.34 19.13,57.56 17,52.23 17,52.23 17,50 c -0.66,0 -1.32,0 -2,0 -0.34,1.27 -0.68,2.54 -1.04,3.86 -2.51,8.37 -6.04,16.38 -9.4,24.45 -0.72,1.74 -1.44,3.48 -2.15,5.22 -1.45,3.5 -2.9,6.99 -4.35,10.49 -1.86,4.5 -3.72,9.02 -5.57,13.53 -0.54,1.3 -1.07,2.61 -1.61,3.91 -0.97,2.35 -1.93,4.71 -2.9,7.06 -3.14,7.61 -6.53,15 -9.98,22.48 -10.89,0 -21.78,0 -33,0 0,-6.75 0,-6.75 1.38,-10.05 0.46,-1.12 0.46,-1.12 0.93,-2.27 0.34,-0.79 0.68,-1.59 1.03,-2.41 0.35,-0.86 0.71,-1.71 1.07,-2.59 1.17,-2.81 2.35,-5.62 3.53,-8.43 0.82,-1.99 1.65,-3.97 2.47,-5.96 1.27,-3.07 2.55,-6.14 3.82,-9.21 C -37,91.03 -33.31,81.94 -29.64,72.84 -19.84,48.53 -9.92,24.27 0,0 Z"
         fill="#000000"
         transform="translate(55,3)"
         id="path5"
         style="fill:#ffffff" /><path
         d="m 0,0 c 3.81,4.56 7.08,9.44 10.38,14.37 0.62,0.91 1.23,1.82 1.86,2.76 1.97,2.91 3.93,5.83 5.88,8.75 1.3,1.92 2.59,3.84 3.89,5.76 2.51,3.72 5.01,7.45 7.51,11.18 2.2,3.28 4.42,6.56 6.64,9.84 0.92,1.36 1.85,2.73 2.77,4.1 0.42,0.61 0.84,1.22 1.27,1.86 2.8,4.15 2.8,4.15 2.8,6.38 -5.69,0.27 -11.38,0.47 -17.08,0.6 -1.93,0.06 -3.87,0.13 -5.8,0.23 C 4.14,66.6 4.14,66.6 -0.83,62.89 -2.92,60.03 -4.45,57.18 -6,54 c -1.26,-1.86 -2.56,-3.71 -3.88,-5.53 -1.23,-1.8 -2.46,-3.6 -3.68,-5.41 -0.64,-0.92 -1.28,-1.83 -1.94,-2.78 -0.6,-0.89 -1.2,-1.77 -1.82,-2.68 -0.54,-0.79 -1.08,-1.58 -1.64,-2.39 C -20,33 -20,33 -19.93,31.13 c 1.39,-3.17 3.26,-5.99 5.18,-8.86 0.42,-0.64 0.84,-1.28 1.28,-1.94 1.34,-2.03 2.68,-4.05 4.03,-6.08 0.91,-1.38 1.82,-2.76 2.73,-4.14 C -4.48,6.74 -2.24,3.37 0,0 Z"
         fill="#000000"
         transform="translate(769,79)"
         id="path6"
         style="fill:#ffffff" /><path
         d="m 0,0 c 1.73,0 3.46,0.01 5.19,0.02 0.91,0 1.82,0 2.75,0 2.92,0.01 5.83,0.02 8.75,0.03 1.97,0.01 3.94,0.01 5.91,0.01 4.84,0.02 9.68,0.03 14.52,0.05 -1.25,3.39 -2.68,6.27 -4.71,9.25 -0.55,0.8 -1.09,1.61 -1.65,2.44 -0.59,0.86 -1.18,1.72 -1.79,2.61 -0.92,1.36 -0.92,1.36 -1.86,2.75 -1.97,2.9 -3.95,5.8 -5.92,8.7 -2.58,3.79 -5.15,7.57 -7.72,11.36 -0.62,0.92 -1.25,1.84 -1.89,2.79 C 5.97,48.3 0.51,56.68 -4.88,65.11 -9.03,60.02 -12.77,54.68 -16.5,49.27 c -0.8,-1.15 -1.6,-2.3 -2.41,-3.45 -1.17,-1.66 -2.33,-3.34 -3.49,-5.02 -0.69,-1 -1.38,-1.99 -2.09,-3.02 -1.39,-2.67 -1.39,-2.67 -1.38,-4.59 1.52,-3.19 3.45,-6.08 5.43,-8.99 0.44,-0.66 0.88,-1.32 1.33,-2 1.41,-2.09 2.82,-4.18 4.23,-6.27 0.95,-1.42 1.9,-2.84 2.85,-4.26 C -4.28,0.13 -4.28,0.13 0,0 Z"
         fill="#000000"
         transform="translate(774.8772,3.8864746)"
         id="path7"
         style="fill:#ffffff" /><path
         d="M 0,0 C 2.36,-0.18 2.36,-0.18 5,0 7.19,2.94 7.19,2.94 9,6 9.66,6.33 10.32,6.66 11,7 11.29,6.4 11.58,5.8 11.88,5.19 13,3 13,3 15,0 c 2.25,-0.34 2.25,-0.34 5.01,-0.29 0.98,0.01 1.97,0.02 2.99,0.03 1.03,0.02 2.06,0.05 3.12,0.07 1.57,0.02 1.57,0.02 3.16,0.04 2.57,0.04 5.15,0.09 7.72,0.15 0,0.99 0,1.98 0,3 -2.31,0 -4.62,0 -7,0 0,6.27 0,12.54 0,19 -1.32,0 -2.64,0 -4,0 C 26,15.73 26,9.46 26,3 18.55,2.09 18.55,2.09 16.12,4.75 15.57,5.86 15.57,5.86 15,7 14.61,7.74 14.22,8.49 13.81,9.25 13.54,9.83 13.28,10.41 13,11 c 0.51,0.71 1.01,1.42 1.53,2.15 0.65,0.92 1.3,1.84 1.97,2.79 0.65,0.91 1.3,1.83 1.97,2.77 C 20,21 20,21 20,22 c -2.19,0.44 -2.19,0.44 -5,0 -1.98,-2.14 -3.5,-4.5 -5,-7 -0.38,0.51 -0.75,1.01 -1.14,1.53 -0.51,0.65 -1.02,1.3 -1.55,1.97 -0.5,0.65 -1,1.3 -1.51,1.97 C 4,22 4,22 1.29,22.22 0.54,22.15 -0.22,22.07 -1,22 -0.37,21.08 -0.37,21.08 0.28,20.14 0.83,19.33 1.37,18.52 1.94,17.69 2.48,16.89 3.03,16.09 3.59,15.26 5.14,12.97 5.14,12.97 6,10 4.8,7.43 4.8,7.43 3.06,4.81 2.21,3.46 2.21,3.46 1.35,2.08 0.9,1.39 0.46,0.71 0,0 Z"
         fill="#000000"
         transform="translate(569,211)"
         id="path8"
         style="fill:#ffffff" /><path
         d="m 0,0 c 5,1 5,1 7.02,3.72 0.89,1.66 0.89,1.66 1.79,3.34 0.61,1.11 1.21,2.21 1.83,3.35 0.45,0.85 0.9,1.71 1.36,2.59 0.53,-0.94 1.06,-1.88 1.61,-2.84 C 14.32,8.94 15.04,7.72 15.75,6.5 16.1,5.88 16.45,5.26 16.8,4.62 17.86,2.84 17.86,2.84 20,0 c 1.32,0 2.64,0 4,0 0,7.26 0,14.52 0,22 -1.32,0 -2.64,0 -4,0 -0.33,-3.63 -0.66,-7.26 -1,-11 -2.97,4.46 -2.97,4.46 -6,9 C 8.18,18.39 7.29,14.4 5,10 4.67,13.96 4.34,17.92 4,22 2.68,22 1.36,22 0,22 0,14.74 0,7.48 0,0 Z"
         fill="#000000"
         transform="translate(182,211)"
         id="path9"
         style="fill:#ffffff" /><path
         d="M 0,0 C 1.32,0 2.64,0 4,0 5.89,2.59 5.89,2.59 7.69,5.94 9.53,9.69 9.53,9.69 12,13 12.53,12.06 13.06,11.12 13.61,10.16 14.32,8.94 15.04,7.72 15.75,6.5 16.1,5.88 16.45,5.26 16.8,4.62 17.86,2.84 17.86,2.84 20,0 c 1.32,0 2.64,0 4,0 0,7.26 0,14.52 0,22 -1.32,0 -2.64,0 -4,0 -0.33,-3.96 -0.66,-7.92 -1,-12 -1.39,2.47 -1.39,2.47 -2.81,5 -1.58,2.81 -1.58,2.81 -3.19,5 -0.99,0 -1.98,0 -3,0 C 8.35,17.03 6.7,14.06 5,11 4.67,14.63 4.34,18.26 4,22 2.68,22 1.36,22 0,22 0,14.74 0,7.48 0,0 Z"
         fill="#000000"
         transform="translate(413,211)"
         id="path10"
         style="fill:#ffffff" /><path
         d="m 0,0 c 2.41,-0.04 4.83,-0.08 7.31,-0.12 0.76,-0.02 1.51,-0.04 2.29,-0.06 3.71,-0.03 5.24,0.07 8.4,2.18 1.05,2.54 1.03,3.86 0.44,6.56 -0.78,2.69 -0.78,2.69 1.56,5.44 -0.19,3.06 -0.19,3.06 -1,6 -3.79,2.53 -6.81,2.22 -11.19,2.12 C 3.95,22.06 3.95,22.06 0,22 0,14.74 0,7.48 0,0 Z M 4,3 C 4,4.98 4,6.96 4,9 6.97,9 9.94,9 13,9 13.66,7.68 14.32,6.36 15,5 13.21,2.79 13.21,2.79 10.84,2.8 10.02,2.83 9.21,2.85 8.38,2.88 7.15,2.9 7.15,2.9 5.9,2.93 4.96,2.96 4.96,2.96 4,3 Z m 0,9 c 0,2.31 0,4.62 0,7 3.3,0 6.6,0 10,0 0.66,-1.32 1.32,-2.64 2,-4 -1.71,-2.11 -2.52,-2.94 -5.26,-3.29 -1.2,0.05 -1.2,0.05 -2.43,0.1 C 7.5,11.84 6.7,11.87 5.86,11.89 5.25,11.93 4.63,11.96 4,12 Z"
         fill="#000000"
         transform="translate(221,173)"
         id="path11"
         style="fill:#ffffff" /><path
         d="m 0,0 c 5.78,1.16 7.11,3.06 10.31,7.56 0.46,0.62 0.91,1.23 1.38,1.87 1.12,1.51 2.21,3.04 3.31,4.57 0.33,-4.62 0.66,-9.24 1,-14 1.32,0 2.64,0 4,0 0,7.26 0,14.52 0,22 C 14.4,20.88 12.96,19.18 9.69,14.94 9.23,14.37 8.78,13.8 8.31,13.22 7.2,11.82 6.1,10.41 5,9 4.67,13.29 4.34,17.58 4,22 2.68,22 1.36,22 0,22 0,14.74 0,7.48 0,0 Z"
         fill="#000000"
         transform="translate(232,211)"
         id="path12"
         style="fill:#ffffff" /><path
         d="m 0,0 c 5.62,1.12 6.79,2.66 9.81,7.06 0.41,0.57 0.82,1.14 1.23,1.72 1,1.4 1.98,2.81 2.96,4.22 0.33,-4.29 0.66,-8.58 1,-13 1.32,0 2.64,0 4,0 0,7.26 0,14.52 0,22 C 13.38,20.88 12.21,19.34 9.19,14.94 8.78,14.37 8.37,13.8 7.96,13.22 6.96,11.82 5.98,10.41 5,9 4.67,13.29 4.34,17.58 4,22 2.68,22 1.36,22 0,22 0,14.74 0,7.48 0,0 Z"
         fill="#000000"
         transform="translate(712,173)"
         id="path13"
         style="fill:#ffffff" /><path
         d="m 0,0 c 14.2,-0.54 14.2,-0.54 17.81,1.88 3.07,2.98 3.4,4.75 3.57,8.93 -0.03,4.04 -0.17,4.92 -2.76,8.25 C 12.83,23.34 7.08,22.06 0,22 0,14.74 0,7.48 0,0 Z m 4,3 c 0,5.28 0,10.56 0,16 7.37,0.6 7.37,0.6 11,-1.5 2.42,-3.03 2.75,-4.79 2.48,-8.59 C 17.08,6.74 17.08,6.74 15,4.5 11.37,2.4 11.37,2.4 4,3 Z"
         fill="#000000"
         transform="translate(640,173)"
         id="path14"
         style="fill:#ffffff" /><path
         d="m 0,0 c 14.2,-0.54 14.2,-0.54 17.81,1.88 3.07,2.98 3.4,4.75 3.57,8.93 -0.03,4.04 -0.17,4.92 -2.76,8.25 C 12.83,23.34 7.08,22.06 0,22 0,14.74 0,7.48 0,0 Z m 4,3 c 0,5.28 0,10.56 0,16 7.37,0.6 7.37,0.6 11,-1.5 2.42,-3.03 2.75,-4.79 2.48,-8.59 C 17.08,6.74 17.08,6.74 15,4.5 11.37,2.4 11.37,2.4 4,3 Z"
         fill="#000000"
         transform="translate(474,173)"
         id="path15"
         style="fill:#ffffff" /><path
         d="m 0,0 c 15.27,-0.67 15.27,-0.67 18.88,1.94 2.77,4 3.51,7.22 3.12,12.06 -1.56,3.77 -3.49,5.96 -7,8 -2.69,0.21 -5.08,0.29 -7.75,0.19 C 4.86,22.13 2.46,22.06 0,22 0,14.74 0,7.48 0,0 Z m 4,3 c 0,5.28 0,10.56 0,16 6.46,0.62 6.46,0.62 12.06,-2.12 C 18.17,14.14 18.17,14.14 18.62,11 17.75,6.82 16.5,5.43 13,3 9.87,2.59 7.18,2.76 4,3 Z"
         fill="#000000"
         transform="translate(419,173)"
         id="path16"
         style="fill:#ffffff" /><path
         d="m 0,0 c 13.35,-0.37 13.35,-0.37 16.4,1.36 2.14,2.2 2.45,3.59 2.6,6.64 -0.94,3.1 -1.7,4.7 -4,7 1.32,2.31 2.64,4.62 4,7 -2.25,0.38 -2.25,0.38 -5,0 C 13.04,20.55 13.04,20.55 12.06,19.06 10.28,15.69 10.28,15.69 6.75,15.12 5.39,15.06 5.39,15.06 4,15 4,17.31 4,19.62 4,22 2.68,22 1.36,22 0,22 0,14.74 0,7.48 0,0 Z m 4,3 c 0,2.97 0,5.94 0,9 4.03,0.35 4.03,0.35 8,0 C 14.08,9.65 14.08,9.65 15,7 14.05,4.84 14.05,4.84 12,3 9.25,2.63 6.8,2.82 4,3 Z"
         fill="#000000"
         transform="translate(687,211)"
         id="path17"
         style="fill:#ffffff" /><path
         d="m 0,0 c 13.35,-0.37 13.35,-0.37 16.4,1.36 2.14,2.2 2.45,3.59 2.6,6.64 -0.94,3.1 -1.7,4.7 -4,7 1.32,2.31 2.64,4.62 4,7 -2.25,0.38 -2.25,0.38 -5,0 C 13.04,20.55 13.04,20.55 12.06,19.06 10.28,15.69 10.28,15.69 6.75,15.12 5.39,15.06 5.39,15.06 4,15 4,17.31 4,19.62 4,22 2.68,22 1.36,22 0,22 0,14.74 0,7.48 0,0 Z m 4,3 c 0,2.97 0,5.94 0,9 4.03,0.35 4.03,0.35 8,0 C 14.08,9.65 14.08,9.65 15,7 14.05,4.84 14.05,4.84 12,3 9.25,2.63 6.8,2.82 4,3 Z"
         fill="#000000"
         transform="translate(629,211)"
         id="path18"
         style="fill:#ffffff" /><path
         d="m 0,0 c 13.35,-0.37 13.35,-0.37 16.4,1.36 2.14,2.2 2.45,3.59 2.6,6.64 -0.94,3.1 -1.7,4.7 -4,7 1.32,2.31 2.64,4.62 4,7 -2.25,0.38 -2.25,0.38 -5,0 C 13.04,20.55 13.04,20.55 12.06,19.06 10.28,15.69 10.28,15.69 6.75,15.12 5.39,15.06 5.39,15.06 4,15 4,17.31 4,19.62 4,22 2.68,22 1.36,22 0,22 0,14.74 0,7.48 0,0 Z m 4,3 c 0,2.97 0,5.94 0,9 4.03,0.35 4.03,0.35 8,0 C 14.08,9.65 14.08,9.65 15,7 14.05,4.84 14.05,4.84 12,3 9.25,2.63 6.8,2.82 4,3 Z"
         fill="#000000"
         transform="translate(508,173)"
         id="path19"
         style="fill:#ffffff" /><path
         d="m 0,0 c 13.35,-0.37 13.35,-0.37 16.4,1.36 2.14,2.2 2.45,3.59 2.6,6.64 -0.94,3.1 -1.7,4.7 -4,7 1.32,2.31 2.64,4.62 4,7 -2.25,0.38 -2.25,0.38 -5,0 C 13.04,20.55 13.04,20.55 12.06,19.06 10.28,15.69 10.28,15.69 6.75,15.12 5.39,15.06 5.39,15.06 4,15 4,17.31 4,19.62 4,22 2.68,22 1.36,22 0,22 0,14.74 0,7.48 0,0 Z m 4,3 c 0,2.97 0,5.94 0,9 4.03,0.35 4.03,0.35 8,0 C 14.08,9.65 14.08,9.65 15,7 14.05,4.84 14.05,4.84 12,3 9.25,2.63 6.8,2.82 4,3 Z"
         fill="#000000"
         transform="translate(366,173)"
         id="path20"
         style="fill:#ffffff" /><path
         d="m 0,0 c 13.35,-0.37 13.35,-0.37 16.4,1.36 2.14,2.2 2.45,3.59 2.6,6.64 -0.94,3.1 -1.7,4.7 -4,7 1.32,2.31 2.64,4.62 4,7 -2.25,0.38 -2.25,0.38 -5,0 C 13.04,20.55 13.04,20.55 12.06,19.06 10.28,15.69 10.28,15.69 6.75,15.12 5.39,15.06 5.39,15.06 4,15 4,17.31 4,19.62 4,22 2.68,22 1.36,22 0,22 0,14.74 0,7.48 0,0 Z m 4,3 c 0,2.97 0,5.94 0,9 4.03,0.35 4.03,0.35 8,0 C 14.08,9.65 14.08,9.65 15,7 14.05,4.84 14.05,4.84 12,3 9.25,2.63 6.8,2.82 4,3 Z"
         fill="#000000"
         transform="translate(244,173)"
         id="path21"
         style="fill:#ffffff" /><path
         d="m 0,0 c 2.9,1.23 4.4,2.22 6.31,4.69 1.4,4.69 1.37,8.76 -0.56,13.19 -2.29,2.77 -4.34,3.9 -7.9,4.46 C -7.6,22.43 -10.69,21.67 -15,18 c -1.86,-3.71 -1.59,-7.96 -1,-12 4.67,-6.02 8.75,-6.7 16,-6 z m -12,7 c -0.72,2.82 -0.71,5.18 0,8 1.91,2.75 1.91,2.75 5,4 3.47,-0.06 5.89,-0.39 8.94,-2.06 C 3.7,13.73 3.75,10.5 3,7 0.61,4.26 -0.94,3.21 -4.5,2.5 -8.06,3.21 -9.61,4.26 -12,7 Z"
         fill="#000000"
         transform="translate(676,211)"
         id="path22"
         style="fill:#ffffff" /><path
         d="m 0,0 c 3.07,1.26 3.81,2.25 6,5 1.36,4.29 1.54,7.7 -0.19,11.88 -2.43,2.85 -4.42,4.85 -8.18,5.59 -4.45,0.05 -7.64,0.06 -11.19,-2.85 -3.3,-3.55 -3.83,-5.63 -3.8,-10.51 C -16.72,5.38 -14.66,3.6 -12,1 -8.26,-0.87 -4.07,-0.53 0,0 Z m -10.88,5.12 c -2.3,2.71 -2.3,2.71 -2.74,5.88 0.84,4.07 2.3,5.54 5.62,8 3.04,0.75 3.04,0.75 6,0 C 0.94,16.93 1.84,15.49 2.94,12.06 3.01,8.4 2.21,6.87 0,4 -4.21,1.9 -7.16,2.38 -10.88,5.12 Z"
         fill="#000000"
         transform="translate(532,211)"
         id="path23"
         style="fill:#ffffff" /><path
         d="m 0,0 c 3.07,1.26 3.81,2.25 6,5 1.36,4.29 1.54,7.7 -0.19,11.88 -2.43,2.85 -4.42,4.85 -8.18,5.59 -4.45,0.05 -7.64,0.06 -11.19,-2.85 -3.3,-3.55 -3.83,-5.63 -3.8,-10.51 C -16.72,5.38 -14.66,3.6 -12,1 -8.26,-0.87 -4.07,-0.53 0,0 Z m -10.88,5.12 c -2.3,2.71 -2.3,2.71 -2.74,5.88 0.84,4.07 2.3,5.54 5.62,8 3.04,0.75 3.04,0.75 6,0 C 0.94,16.93 1.84,15.49 2.94,12.06 3.01,8.4 2.21,6.87 0,4 -4.21,1.9 -7.16,2.38 -10.88,5.12 Z"
         fill="#000000"
         transform="translate(402,211)"
         id="path24"
         style="fill:#ffffff" /><path
         d="m 0,0 c 2.9,1.23 4.4,2.22 6.31,4.69 1.4,4.69 1.37,8.76 -0.56,13.19 -2.29,2.77 -4.34,3.9 -7.9,4.46 C -7.6,22.43 -10.69,21.67 -15,18 c -1.86,-3.71 -1.59,-7.96 -1,-12 4.67,-6.02 8.75,-6.7 16,-6 z m -12,7 c -0.72,2.82 -0.71,5.18 0,8 1.91,2.75 1.91,2.75 5,4 3.47,-0.06 5.89,-0.39 8.94,-2.06 C 3.7,13.73 3.75,10.5 3,7 0.61,4.26 -0.94,3.21 -4.5,2.5 -8.06,3.21 -9.61,4.26 -12,7 Z"
         fill="#000000"
         transform="translate(346,211)"
         id="path25"
         style="fill:#ffffff" /><path
         d="m 0,0 c 3.07,1.26 3.81,2.25 6,5 1.36,4.29 1.54,7.7 -0.19,11.88 -2.43,2.85 -4.42,4.85 -8.18,5.59 -4.45,0.05 -7.64,0.06 -11.19,-2.85 -3.3,-3.55 -3.83,-5.63 -3.8,-10.51 C -16.72,5.38 -14.66,3.6 -12,1 -8.26,-0.87 -4.07,-0.53 0,0 Z m -10.88,5.12 c -2.3,2.71 -2.3,2.71 -2.74,5.88 0.84,4.07 2.3,5.54 5.62,8 3.04,0.75 3.04,0.75 6,0 C 0.94,16.93 1.84,15.49 2.94,12.06 3.01,8.4 2.21,6.87 0,4 -4.21,1.9 -7.16,2.38 -10.88,5.12 Z"
         fill="#000000"
         transform="translate(290,211)"
         id="path26"
         style="fill:#ffffff" /><path
         d="m 0,0 c 2.9,1.23 4.4,2.22 6.31,4.69 1.4,4.69 1.37,8.76 -0.56,13.19 -2.29,2.77 -4.34,3.9 -7.9,4.46 C -7.6,22.43 -10.69,21.67 -15,18 c -1.86,-3.71 -1.59,-7.96 -1,-12 4.67,-6.02 8.75,-6.7 16,-6 z m -12,7 c -0.72,2.82 -0.71,5.18 0,8 1.91,2.75 1.91,2.75 5,4 3.47,-0.06 5.89,-0.39 8.94,-2.06 C 3.7,13.73 3.75,10.5 3,7 0.61,4.26 -0.94,3.21 -4.5,2.5 -8.06,3.21 -9.61,4.26 -12,7 Z"
         fill="#000000"
         transform="translate(171,211)"
         id="path27"
         style="fill:#ffffff" /><path
         d="m 0,0 c 3.07,1.26 3.81,2.25 6,5 1.36,4.29 1.54,7.7 -0.19,11.88 -2.43,2.85 -4.42,4.85 -8.18,5.59 -4.45,0.05 -7.64,0.06 -11.19,-2.85 -3.3,-3.55 -3.83,-5.63 -3.8,-10.51 C -16.72,5.38 -14.66,3.6 -12,1 -8.26,-0.87 -4.07,-0.53 0,0 Z m -10.88,5.12 c -2.3,2.71 -2.3,2.71 -2.74,5.88 0.84,4.07 2.3,5.54 5.62,8 3.04,0.75 3.04,0.75 6,0 C 0.94,16.93 1.84,15.49 2.94,12.06 3.01,8.4 2.21,6.87 0,4 -4.21,1.9 -7.16,2.38 -10.88,5.12 Z"
         fill="#000000"
         transform="translate(804,173)"
         id="path28"
         style="fill:#ffffff" /><path
         d="m 0,0 c 2.9,1.23 4.4,2.22 6.31,4.69 1.4,4.69 1.37,8.76 -0.56,13.19 -2.29,2.77 -4.34,3.9 -7.9,4.46 C -7.6,22.43 -10.69,21.67 -15,18 c -1.86,-3.71 -1.59,-7.96 -1,-12 4.67,-6.02 8.75,-6.7 16,-6 z m -12,7 c -0.72,2.82 -0.71,5.18 0,8 1.91,2.75 1.91,2.75 5,4 3.47,-0.06 5.89,-0.39 8.94,-2.06 C 3.7,13.73 3.75,10.5 3,7 0.61,4.26 -0.94,3.21 -4.5,2.5 -8.06,3.21 -9.61,4.26 -12,7 Z"
         fill="#000000"
         transform="translate(598,173)"
         id="path29"
         style="fill:#ffffff" /><path
         d="m 0,0 c 2.9,1.23 4.4,2.22 6.31,4.69 1.4,4.69 1.37,8.76 -0.56,13.19 -2.29,2.77 -4.34,3.9 -7.9,4.46 C -7.6,22.43 -10.69,21.67 -15,18 c -1.86,-3.71 -1.59,-7.96 -1,-12 4.67,-6.02 8.75,-6.7 16,-6 z m -12,7 c -0.72,2.82 -0.71,5.18 0,8 1.91,2.75 1.91,2.75 5,4 3.47,-0.06 5.89,-0.39 8.94,-2.06 C 3.7,13.73 3.75,10.5 3,7 0.61,4.26 -0.94,3.21 -4.5,2.5 -8.06,3.21 -9.61,4.26 -12,7 Z"
         fill="#000000"
         transform="translate(202,173)"
         id="path30"
         style="fill:#ffffff" /><path
         d="m 0,0 c 3.07,1.26 3.81,2.25 6,5 1.36,4.29 1.54,7.7 -0.19,11.88 -2.43,2.85 -4.42,4.85 -8.18,5.59 -4.45,0.05 -7.64,0.06 -11.19,-2.85 -3.3,-3.55 -3.83,-5.63 -3.8,-10.51 C -16.72,5.38 -14.66,3.6 -12,1 -8.26,-0.87 -4.07,-0.53 0,0 Z m -10.88,5.12 c -2.3,2.71 -2.3,2.71 -2.74,5.88 0.84,4.07 2.3,5.54 5.62,8 3.04,0.75 3.04,0.75 6,0 C 0.94,16.93 1.84,15.49 2.94,12.06 3.01,8.4 2.21,6.87 0,4 -4.21,1.9 -7.16,2.38 -10.88,5.12 Z"
         fill="#000000"
         transform="translate(79,173)"
         id="path31"
         style="fill:#ffffff" /><path
         d="M 0,0 C 13.33,-0.49 13.33,-0.49 16.43,1.79 18.69,4.97 18.48,7.2 18,11 c -1.5,1.94 -1.5,1.94 -3,3 0.31,0.76 0.62,1.53 0.94,2.31 C 16.68,18.19 17.36,20.09 18,22 14.85,21.66 13.39,21.42 11.19,19.06 10,17 10,17 10,15 8.02,15 6.04,15 4,15 4,17.31 4,19.62 4,22 2.68,22 1.36,22 0,22 0,14.74 0,7.48 0,0 Z m 4,3 c 0,2.97 0,5.94 0,9 5.32,0.3 5.32,0.3 10,-2 C 14.5,7.5 14.5,7.5 14,5 10.36,2.57 8.29,2.84 4,3 Z"
         fill="#000000"
         transform="translate(463,211)"
         id="path32"
         style="fill:#ffffff" /><path
         d="M 0,0 C 13.33,-0.49 13.33,-0.49 16.43,1.79 18.69,4.97 18.48,7.2 18,11 c -1.5,1.94 -1.5,1.94 -3,3 0.31,0.76 0.62,1.53 0.94,2.31 C 16.68,18.19 17.36,20.09 18,22 14.85,21.66 13.39,21.42 11.19,19.06 10,17 10,17 10,15 8.02,15 6.04,15 4,15 4,17.31 4,19.62 4,22 2.68,22 1.36,22 0,22 0,14.74 0,7.48 0,0 Z m 4,3 c 0,2.97 0,5.94 0,9 5.32,0.3 5.32,0.3 10,-2 C 14.5,7.5 14.5,7.5 14,5 10.36,2.57 8.29,2.84 4,3 Z"
         fill="#000000"
         transform="translate(767,173)"
         id="path33"
         style="fill:#ffffff" /><path
         d="M 0,0 C 13.33,-0.49 13.33,-0.49 16.43,1.79 18.69,4.97 18.48,7.2 18,11 c -1.5,1.94 -1.5,1.94 -3,3 0.31,0.76 0.62,1.53 0.94,2.31 C 16.68,18.19 17.36,20.09 18,22 14.85,21.66 13.39,21.42 11.19,19.06 10,17 10,17 10,15 8.02,15 6.04,15 4,15 4,17.31 4,19.62 4,22 2.68,22 1.36,22 0,22 0,14.74 0,7.48 0,0 Z m 4,3 c 0,2.97 0,5.94 0,9 5.32,0.3 5.32,0.3 10,-2 C 14.5,7.5 14.5,7.5 14,5 10.36,2.57 8.29,2.84 4,3 Z"
         fill="#000000"
         transform="translate(561,173)"
         id="path34"
         style="fill:#ffffff" /><path
         d="M 0,0 C 2.56,2 2.56,2 4,4 3.01,4.66 2.02,5.32 1,6 0.01,5.34 -0.98,4.68 -2,4 c -5.04,0.23 -5.04,0.23 -9,3 -0.67,5.42 -0.67,5.42 1.56,10.06 3.41,1.31 5.9,0.65 9.44,-0.06 0.99,0 1.98,0 3,0 0,0.99 0,1.98 0,3 -1.98,0.99 -3.96,1.98 -6,3 0.19,0.8 0.37,1.61 0.56,2.44 0.15,0.84 0.29,1.69 0.44,2.56 -1,1 -1,1 -4.06,1.06 C -7.03,29.04 -8,29.02 -9,29 c 0.33,-0.99 0.66,-1.98 1,-3 0.99,0.33 1.98,0.66 3,1 0,-0.66 0,-1.32 0,-2 -0.66,0 -1.32,0 -2,0 0,-0.99 0,-1.98 0,-3 C -7.93,21.75 -8.86,21.5 -9.81,21.25 -13.3,19.88 -14.12,19.14 -16,16 -16.66,12.6 -16.61,9.41 -16,6 -11.45,0.14 -7.16,-0.98 0,0 Z"
         fill="#000000"
         transform="translate(158,173)"
         id="path35"
         style="fill:#ffffff" /><path
         d="m 0,0 c 1.65,0 3.3,0 5,0 2.97,6.93 5.94,13.86 9,21 -1.32,0.33 -2.64,0.66 -4,1 C 9.34,20.35 8.68,18.7 8,17 6.21,17.06 4.42,17.15 2.62,17.25 1.63,17.3 0.63,17.34 -0.4,17.39 -3.15,17.72 -3.15,17.72 -4.35,20.05 -4.57,20.69 -4.78,21.34 -5,22 -6.32,22 -7.64,22 -9,22 -6.66,14.33 -3.45,7.23 0,0 Z M 2,5 C 0.02,9.46 0.02,9.46 -2,14 0.64,14 3.28,14 6,14 5.01,11.03 4.02,8.06 3,5 2.67,5 2.34,5 2,5 Z"
         fill="#000000"
         transform="translate(315,211)"
         id="path36"
         style="fill:#ffffff" /><path
         d="m 0,0 c 1.65,0 3.3,0 5,0 2.97,6.93 5.94,13.86 9,21 -1.32,0.33 -2.64,0.66 -4,1 C 9.34,20.35 8.68,18.7 8,17 6.21,17.06 4.42,17.15 2.62,17.25 1.63,17.3 0.63,17.34 -0.4,17.39 -3.15,17.72 -3.15,17.72 -4.35,20.05 -4.57,20.69 -4.78,21.34 -5,22 -6.32,22 -7.64,22 -9,22 -6.66,14.33 -3.45,7.23 0,0 Z M 2,5 C 0.02,9.46 0.02,9.46 -2,14 0.64,14 3.28,14 6,14 5.01,11.03 4.02,8.06 3,5 2.67,5 2.34,5 2,5 Z"
         fill="#000000"
         transform="translate(395,173)"
         id="path37"
         style="fill:#ffffff" /><path
         d="m 0,0 c 1.65,0 3.3,0 5,0 2.97,6.93 5.94,13.86 9,21 -1.32,0.33 -2.64,0.66 -4,1 C 9.34,20.35 8.68,18.7 8,17 6.21,17.06 4.42,17.15 2.62,17.25 1.63,17.3 0.63,17.34 -0.4,17.39 -3.15,17.72 -3.15,17.72 -4.35,20.05 -4.57,20.69 -4.78,21.34 -5,22 -6.32,22 -7.64,22 -9,22 -6.66,14.33 -3.45,7.23 0,0 Z M 2,5 C 0.02,9.46 0.02,9.46 -2,14 0.64,14 3.28,14 6,14 5.01,11.03 4.02,8.06 3,5 2.67,5 2.34,5 2,5 Z"
         fill="#000000"
         transform="translate(273,173)"
         id="path38"
         style="fill:#ffffff" /><path
         d="m 0,0 c 1.65,0 3.3,0 5,0 2.97,6.93 5.94,13.86 9,21 -1.32,0.33 -2.64,0.66 -4,1 C 9.34,20.35 8.68,18.7 8,17 6.21,17.06 4.42,17.15 2.62,17.25 1.63,17.3 0.63,17.34 -0.4,17.39 -3.15,17.72 -3.15,17.72 -4.35,20.05 -4.57,20.69 -4.78,21.34 -5,22 -6.32,22 -7.64,22 -9,22 -6.66,14.33 -3.45,7.23 0,0 Z M 2,5 C 0.02,9.46 0.02,9.46 -2,14 0.64,14 3.28,14 6,14 5.01,11.03 4.02,8.06 3,5 2.67,5 2.34,5 2,5 Z"
         fill="#000000"
         transform="translate(171,173)"
         id="path39"
         style="fill:#ffffff" /><path
         d="m 0,0 c 1.65,0 3.3,0 5,0 2.97,6.93 5.94,13.86 9,21 -1.32,0.33 -2.64,0.66 -4,1 C 9.34,20.35 8.68,18.7 8,17 6.21,17.06 4.42,17.15 2.62,17.25 1.63,17.3 0.63,17.34 -0.4,17.39 -3.15,17.72 -3.15,17.72 -4.35,20.05 -4.57,20.69 -4.78,21.34 -5,22 -6.32,22 -7.64,22 -9,22 -6.66,14.33 -3.45,7.23 0,0 Z M 2,5 C 0.02,9.46 0.02,9.46 -2,14 0.64,14 3.28,14 6,14 5.01,11.03 4.02,8.06 3,5 2.67,5 2.34,5 2,5 Z"
         fill="#000000"
         transform="translate(9,173)"
         id="path40"
         style="fill:#ffffff" /><path
         d="m 0,0 c 1.65,0 3.3,0 5,0 1.51,3.29 3,6.58 4.5,9.88 0.43,0.93 0.86,1.87 1.3,2.83 0.61,1.35 0.61,1.35 1.23,2.72 0.38,0.83 0.76,1.65 1.14,2.51 C 14,20 14,20 14,22 12.68,22 11.36,22 10,22 9.79,21.36 9.57,20.71 9.35,20.05 8.15,17.72 8.15,17.72 5.4,17.39 3.9,17.32 3.9,17.32 2.38,17.25 1.37,17.19 0.37,17.14 -0.66,17.08 -1.82,17.04 -1.82,17.04 -3,17 -3.99,19.47 -3.99,19.47 -5,22 -6.32,21.67 -7.64,21.34 -9,21 -6.03,14.07 -3.06,7.14 0,0 Z m 2,5 c -0.99,2.97 -1.98,5.94 -3,9 2.64,0 5.28,0 8,0 C 5.68,11.03 4.36,8.06 3,5 2.67,5 2.34,5 2,5 Z"
         fill="#000000"
         transform="translate(695,173)"
         id="path41"
         style="fill:#ffffff" /><path
         d="m 0,0 c 1.65,0 3.3,0 5,0 1.51,3.29 3,6.58 4.5,9.88 0.43,0.93 0.86,1.87 1.3,2.83 0.61,1.35 0.61,1.35 1.23,2.72 0.38,0.83 0.76,1.65 1.14,2.51 C 14,20 14,20 14,22 12.68,22 11.36,22 10,22 9.79,21.36 9.57,20.71 9.35,20.05 8.15,17.72 8.15,17.72 5.4,17.39 3.9,17.32 3.9,17.32 2.38,17.25 1.37,17.19 0.37,17.14 -0.66,17.08 -1.82,17.04 -1.82,17.04 -3,17 -3.99,19.47 -3.99,19.47 -5,22 -6.32,21.67 -7.64,21.34 -9,21 -6.03,14.07 -3.06,7.14 0,0 Z m 2,5 c -0.99,2.97 -1.98,5.94 -3,9 2.64,0 5.28,0 8,0 C 5.68,11.03 4.36,8.06 3,5 2.67,5 2.34,5 2,5 Z"
         fill="#000000"
         transform="translate(623,173)"
         id="path42"
         style="fill:#ffffff" /><path
         d="m 0,0 c 1.65,0 3.3,0 5,0 1.51,3.29 3,6.58 4.5,9.88 0.43,0.93 0.86,1.87 1.3,2.83 0.61,1.35 0.61,1.35 1.23,2.72 0.38,0.83 0.76,1.65 1.14,2.51 C 14,20 14,20 14,22 12.68,22 11.36,22 10,22 9.79,21.36 9.57,20.71 9.35,20.05 8.15,17.72 8.15,17.72 5.4,17.39 3.9,17.32 3.9,17.32 2.38,17.25 1.37,17.19 0.37,17.14 -0.66,17.08 -1.82,17.04 -1.82,17.04 -3,17 -3.99,19.47 -3.99,19.47 -5,22 -6.32,21.67 -7.64,21.34 -9,21 -6.03,14.07 -3.06,7.14 0,0 Z m 2,5 c -0.99,2.97 -1.98,5.94 -3,9 2.64,0 5.28,0 8,0 C 5.68,11.03 4.36,8.06 3,5 2.67,5 2.34,5 2,5 Z"
         fill="#000000"
         transform="translate(127,173)"
         id="path43"
         style="fill:#ffffff" /><path
         d="m 0,0 c 5.28,0 10.56,0 16,0 0,0.99 0,1.98 0,3 -3.96,0 -7.92,0 -12,0 0,1.98 0,3.96 0,6 3.63,0 7.26,0 11,0 0,0.99 0,1.98 0,3 -3.63,0 -7.26,0 -11,0 0,2.31 0,4.62 0,7 4.29,0 8.58,0 13,0 0,0.99 0,1.98 0,3 C 11.39,22 5.78,22 0,22 0,14.74 0,7.48 0,0 Z"
         fill="#000000"
         transform="translate(211,211)"
         id="path44"
         style="fill:#ffffff" /><path
         d="m 0,0 c 5.28,0 10.56,0 16,0 0,0.99 0,1.98 0,3 -3.96,0 -7.92,0 -12,0 0,1.98 0,3.96 0,6 3.63,0 7.26,0 11,0 0,0.99 0,1.98 0,3 -3.63,0 -7.26,0 -11,0 0,2.31 0,4.62 0,7 4.29,0 8.58,0 13,0 0,0.99 0,1.98 0,3 C 11.39,22 5.78,22 0,22 0,14.74 0,7.48 0,0 Z"
         fill="#000000"
         transform="translate(108,211)"
         id="path45"
         style="fill:#ffffff" /><path
         d="m 0,0 c 5.28,0 10.56,0 16,0 0,0.99 0,1.98 0,3 -3.96,0 -7.92,0 -12,0 0,1.98 0,3.96 0,6 3.63,0 7.26,0 11,0 0,0.99 0,1.98 0,3 -3.63,0 -7.26,0 -11,0 0,2.31 0,4.62 0,7 4.29,0 8.58,0 13,0 0,0.99 0,1.98 0,3 C 11.39,22 5.78,22 0,22 0,14.74 0,7.48 0,0 Z"
         fill="#000000"
         transform="translate(736,173)"
         id="path46"
         style="fill:#ffffff" /><path
         d="m 0,0 c 5.28,0 10.56,0 16,0 0,0.99 0,1.98 0,3 -3.96,0 -7.92,0 -12,0 0,1.98 0,3.96 0,6 3.63,0 7.26,0 11,0 0,0.99 0,1.98 0,3 -3.63,0 -7.26,0 -11,0 0,2.31 0,4.62 0,7 4.29,0 8.58,0 13,0 0,0.99 0,1.98 0,3 C 11.39,22 5.78,22 0,22 0,14.74 0,7.48 0,0 Z"
         fill="#000000"
         transform="translate(336,173)"
         id="path47"
         style="fill:#ffffff" /><path
         d="M 0,0 C 1.32,0 2.64,0 4,0 4.05,1.05 4.1,2.1 4.15,3.18 4.22,4.55 4.3,5.93 4.38,7.31 4.41,8 4.44,8.69 4.47,9.4 4.68,13.07 4.92,14.88 7,18 c 2.31,0 4.62,0 7,0 0.5,-8.91 0.5,-8.91 1,-18 1.32,0 2.64,0 4,0 0.14,2.73 0.23,5.45 0.31,8.19 0.04,0.77 0.09,1.54 0.13,2.33 0.09,4.24 -0.06,5.97 -2.67,9.5 -3.57,2.55 -5.44,2.65 -9.68,2.41 C 4.07,21.81 2.75,20.48 1,18 -0.59,14.81 -0.1,11.37 -0.06,7.88 -0.06,7.12 -0.05,6.37 -0.05,5.59 -0.04,3.73 -0.02,1.86 0,0 Z"
         fill="#000000"
         transform="translate(665,173)"
         id="path48"
         style="fill:#ffffff" /><path
         d="m 0,0 c 5.28,0 10.56,0 16,0 0,0.99 0,1.98 0,3 -3.96,0 -7.92,0 -12,0 0,1.98 0,3.96 0,6 3.63,0 7.26,0 11,0 0,0.99 0,1.98 0,3 -3.63,0 -7.26,0 -11,0 0,2.31 0,4.62 0,7 3.96,0 7.92,0 12,0 0,0.99 0,1.98 0,3 C 10.72,22 5.44,22 0,22 0,14.74 0,7.48 0,0 Z"
         fill="#000000"
         transform="translate(609,211)"
         id="path49"
         style="fill:#ffffff" /><path
         d="m 0,0 c 5.28,0 10.56,0 16,0 0,0.99 0,1.98 0,3 -3.96,0 -7.92,0 -12,0 0,1.98 0,3.96 0,6 3.63,0 7.26,0 11,0 0,0.99 0,1.98 0,3 -3.63,0 -7.26,0 -11,0 0,2.31 0,4.62 0,7 3.96,0 7.92,0 12,0 0,0.99 0,1.98 0,3 C 10.72,22 5.44,22 0,22 0,14.74 0,7.48 0,0 Z"
         fill="#000000"
         transform="translate(551,211)"
         id="path50"
         style="fill:#ffffff" /><path
         d="m 0,0 c 5.28,0 10.56,0 16,0 0,0.99 0,1.98 0,3 -3.96,0 -7.92,0 -12,0 0,1.98 0,3.96 0,6 3.63,0 7.26,0 11,0 0,0.99 0,1.98 0,3 -3.63,0 -7.26,0 -11,0 0,2.31 0,4.62 0,7 3.96,0 7.92,0 12,0 0,0.99 0,1.98 0,3 C 10.72,22 5.44,22 0,22 0,14.74 0,7.48 0,0 Z"
         fill="#000000"
         transform="translate(442,211)"
         id="path51"
         style="fill:#ffffff" /><path
         d="m 0,0 c 5.28,0 10.56,0 16,0 0,0.99 0,1.98 0,3 -3.96,0 -7.92,0 -12,0 0,1.98 0,3.96 0,6 3.63,0 7.26,0 11,0 0,0.99 0,1.98 0,3 -3.63,0 -7.26,0 -11,0 0,2.31 0,4.62 0,7 3.96,0 7.92,0 12,0 0,0.99 0,1.98 0,3 C 10.72,22 5.44,22 0,22 0,14.74 0,7.48 0,0 Z"
         fill="#000000"
         transform="translate(531,173)"
         id="path52"
         style="fill:#ffffff" /><path
         d="m 0,0 c 5.28,0 10.56,0 16,0 0,0.99 0,1.98 0,3 -3.96,0 -7.92,0 -12,0 0,1.98 0,3.96 0,6 3.63,0 7.26,0 11,0 0,0.99 0,1.98 0,3 -3.63,0 -7.26,0 -11,0 0,2.31 0,4.62 0,7 3.96,0 7.92,0 12,0 0,0.99 0,1.98 0,3 C 10.72,22 5.44,22 0,22 0,14.74 0,7.48 0,0 Z"
         fill="#000000"
         transform="translate(445,173)"
         id="path53"
         style="fill:#ffffff" /><path
         d="m 0,0 c 0.87,0.02 1.74,0.03 2.63,0.05 2.25,0.2 2.25,0.2 4.25,1.2 -0.67,1.32 -1.32,2.64 -2,4 C 2.86,4.99 0.84,4.73 -1.18,4.47 -3.13,4.21 -3.13,4.21 -5.12,4.25 c 0,1.32 0,2.64 0,4 0.77,0.18 1.54,0.36 2.33,0.55 1,0.25 2.01,0.5 3.04,0.76 1,0.25 2,0.49 3.02,0.74 2.61,0.95 2.61,0.95 4.61,3.95 -0.19,3.06 -0.19,3.06 -1,6 -3.21,2.14 -4.23,2.3 -7.94,2.31 -0.86,0.02 -1.71,0.04 -2.59,0.05 -2.92,-0.42 -4.29,-1.44 -6.47,-3.36 0.32,-0.66 0.66,-1.32 1,-2 3.62,0.33 7.25,0.66 11,1 0,-1.32 0,-2.64 0,-4 C 1.25,14.06 0.62,13.86 -0.02,13.66 -0.84,13.4 -1.66,13.14 -2.5,12.88 -3.72,12.49 -3.72,12.49 -4.96,12.1 -7.12,11.25 -7.12,11.25 -9.12,9.25 -9.5,6.31 -9.5,6.31 -9.12,3.25 -6.18,0.35 -4.06,-0.12 0,0 Z"
         fill="#000000"
         transform="translate(297.125,172.75)"
         id="path54"
         style="fill:#ffffff" /><path
         d="m 0,0 c 0.87,0.02 1.74,0.03 2.63,0.05 2.25,0.2 2.25,0.2 4.25,1.2 -0.66,1.32 -1.33,2.64 -2,4 C 2.86,4.99 0.84,4.73 -1.18,4.47 -3.13,4.21 -3.13,4.21 -5.12,4.25 c 0,1.32 0,2.64 0,4 0.77,0.18 1.54,0.36 2.33,0.55 1,0.25 2.01,0.5 3.04,0.76 1,0.25 2,0.49 3.02,0.74 2.61,0.95 2.61,0.95 4.61,3.95 -0.19,3.06 -0.19,3.06 -1,6 -3.21,2.14 -4.23,2.3 -7.94,2.31 -0.86,0.02 -1.71,0.04 -2.59,0.05 -2.92,-0.42 -4.29,-1.44 -6.47,-3.36 0.32,-0.66 0.65,-1.32 1,-2 3.63,0.33 7.26,0.66 11,1 0,-1.32 0,-2.64 0,-4 C 1.25,14.06 0.62,13.86 -0.02,13.66 -0.84,13.4 -1.66,13.14 -2.5,12.88 -3.72,12.49 -3.72,12.49 -4.96,12.1 -7.12,11.25 -7.12,11.25 -9.12,9.25 -9.5,6.31 -9.5,6.31 -9.12,3.25 -6.18,0.35 -4.06,-0.12 0,0 Z"
         fill="#000000"
         transform="translate(52.125,172.75)"
         id="path55"
         style="fill:#ffffff" /><path
         d="m 0,0 c 0.87,0.02 1.74,0.03 2.63,0.05 2.25,0.2 2.25,0.2 4.25,1.2 -0.66,1.32 -1.33,2.64 -2,4 C 2.86,4.99 0.84,4.73 -1.18,4.47 -3.13,4.21 -3.13,4.21 -5.12,4.25 c 0,1.32 0,2.64 0,4 0.77,0.18 1.54,0.36 2.33,0.55 1,0.25 2.01,0.5 3.04,0.76 1,0.25 2,0.49 3.02,0.74 2.61,0.95 2.61,0.95 4.61,3.95 -0.19,3.06 -0.19,3.06 -1,6 -3.21,2.14 -4.23,2.3 -7.94,2.31 -0.86,0.02 -1.71,0.04 -2.59,0.05 -2.92,-0.42 -4.29,-1.44 -6.47,-3.36 0.32,-0.66 0.66,-1.32 1,-2 3.63,0.33 7.26,0.66 11,1 0,-1.32 0,-2.64 0,-4 C 1.25,14.06 0.62,13.86 -0.02,13.66 -0.84,13.4 -1.66,13.14 -2.5,12.88 -3.72,12.49 -3.72,12.49 -4.96,12.1 -7.13,11.25 -7.13,11.25 -9.12,9.25 -9.5,6.31 -9.5,6.31 -9.12,3.25 -6.18,0.35 -4.06,-0.12 0,0 Z"
         fill="#000000"
         transform="translate(33.125,172.75)"
         id="path56"
         style="fill:#ffffff" /><path
         d="M 0,0 C 0.88,-0.01 1.75,-0.03 2.65,-0.04 5.06,0.19 5.06,0.19 8.06,2.19 7.73,3.51 7.4,4.83 7.06,6.19 6.53,5.86 5.99,5.53 5.44,5.19 2.39,3.9 0.34,3.78 -2.94,4.19 c -2.5,1.5 -2.5,1.5 -4,4 -0.61,3.67 -0.48,5.29 1.63,8.37 3.05,2.09 4.73,2.08 8.37,1.63 2.3,-0.9 2.3,-0.9 4,-2 0.33,1.32 0.66,2.64 1,4 -4.24,2.83 -8.02,2.78 -13,2 -3.12,-1.68 -5.39,-3.79 -7,-7 -0.68,-6.82 -0.68,-6.82 1.05,-9.83 C -7.39,1.12 -5.34,0.04 0,0 Z"
         fill="#000000"
         transform="translate(494.9375,210.8125)"
         id="path57"
         style="fill:#ffffff" /><path
         d="M 0,0 C 2.56,2 2.56,2 4,4 3.01,4.66 2.02,5.32 1,6 0.01,5.34 -0.98,4.68 -2,4 c -5.04,0.23 -5.04,0.23 -9,3 -0.67,5.42 -0.67,5.42 1.56,10.06 3.41,1.31 5.9,0.65 9.44,-0.06 0.99,0 1.98,0 3,0 0,0.99 0,1.98 0,3 -4.04,2.69 -7.26,2.68 -12,2 -5.46,-2.93 -5.46,-2.93 -7,-6 -0.65,-5.21 -0.92,-8.82 2.38,-13.06 C -9.15,-0.36 -5.48,-0.75 0,0 Z"
         fill="#000000"
         transform="translate(380,211)"
         id="path58"
         style="fill:#ffffff" /><path
         d="M 0,0 C 2.56,2 2.56,2 4,4 3.01,4.66 2.02,5.32 1,6 0.01,5.34 -0.98,4.68 -2,4 c -5.04,0.23 -5.04,0.23 -9,3 -0.67,5.42 -0.67,5.42 1.56,10.06 3.41,1.31 5.9,0.65 9.44,-0.06 0.99,0 1.98,0 3,0 0,0.99 0,1.98 0,3 -4.04,2.69 -7.26,2.68 -12,2 -5.46,-2.93 -5.46,-2.93 -7,-6 -0.65,-5.21 -0.92,-8.82 2.38,-13.06 C -9.15,-0.36 -5.48,-0.75 0,0 Z"
         fill="#000000"
         transform="translate(104,173)"
         id="path59"
         style="fill:#ffffff" /><path
         d="m 0,0 c 5.28,0 10.56,0 16,0 0,0.99 0,1.98 0,3 -3.96,0 -7.92,0 -12,0 0,2.31 0,4.62 0,7 3.63,0 7.26,0 11,0 0,0.99 0,1.98 0,3 -3.63,0 -7.26,0 -11,0 0,2.97 0,5.94 0,9 C 2.68,22 1.36,22 0,22 0,14.74 0,7.48 0,0 Z"
         fill="#000000"
         transform="translate(137,211)"
         id="path60"
         style="fill:#ffffff" /><path
         d="m 0,0 c 1.32,0 2.64,0 4,0 0,6.27 0,12.54 0,19 3.63,0 7.26,0 11,0 0,0.99 0,1.98 0,3 C 10.05,22 5.1,22 0,22 0,14.74 0,7.48 0,0 Z"
         fill="#000000"
         transform="translate(318,173)"
         id="path61"
         style="fill:#ffffff" /><path
         d="m 0,0 c 6.27,0 12.54,0 19,0 0,0.99 0,1.98 0,3 -2.64,0 -5.28,0 -8,0 0,6.27 0,12.54 0,19 -0.99,0 -1.98,0 -3,0 C 8,15.73 8,9.46 8,3 5.36,3 2.72,3 0,3 0,2.01 0,1.02 0,0 Z"
         fill="#000000"
         transform="translate(254,211)"
         id="path62"
         style="fill:#ffffff" /><path
         d="M 0,0 C 1.32,0 2.64,0 4,0 4,7.26 4,14.52 4,22 2.68,22 1.36,22 0,22 0,14.74 0,7.48 0,0 Z"
         fill="#000000"
         transform="translate(652,211)"
         id="path63"
         style="fill:#ffffff" /><path
         d="M 0,0 C 1.32,0 2.64,0 4,0 4,7.26 4,14.52 4,22 2.68,22 1.36,22 0,22 0,14.74 0,7.48 0,0 Z"
         fill="#000000"
         transform="translate(507,211)"
         id="path64"
         style="fill:#ffffff" /><path
         d="M 0,0 C 1.32,0 2.64,0 4,0 4,7.26 4,14.52 4,22 2.68,22 1.36,22 0,22 0,14.74 0,7.48 0,0 Z"
         fill="#000000"
         transform="translate(757,173)"
         id="path65"
         style="fill:#ffffff" /><path
         d="M 0,0 C 1.32,0 2.64,0 4,0 4,7.26 4,14.52 4,22 2.68,22 1.36,22 0,22 0,14.74 0,7.48 0,0 Z"
         fill="#000000"
         transform="translate(551,173)"
         id="path66"
         style="fill:#ffffff" /><path
         d="M 0,0 C 1.32,0 2.64,0 4,0 4,7.26 4,14.52 4,22 2.68,22 1.36,22 0,22 0,14.74 0,7.48 0,0 Z"
         fill="#000000"
         transform="translate(499,173)"
         id="path67"
         style="fill:#ffffff" /><path
         d="M 0,0 C 1.32,0 2.64,0 4,0 4,7.26 4,14.52 4,22 2.68,22 1.36,22 0,22 0,14.74 0,7.48 0,0 Z"
         fill="#000000"
         transform="translate(357,173)"
         id="path68"
         style="fill:#ffffff" /><path
         d="M 0,0 C 1.32,0 2.64,0 4,0 4,7.26 4,14.52 4,22 2.68,22 1.36,22 0,22 0,14.74 0,7.48 0,0 Z"
         fill="#000000"
         transform="translate(308,173)"
         id="path69"
         style="fill:#ffffff" /><path
         d="M 0,0 C 1.32,0 2.64,0 4,0 4,7.26 4,14.52 4,22 2.68,22 1.36,22 0,22 0,14.74 0,7.48 0,0 Z"
         fill="#000000"
         transform="translate(112,173)"
         id="path70"
         style="fill:#ffffff" /><path
         d="M 0,0 C 0.91,0.19 1.81,0.37 2.75,0.56 5.68,0.96 7.26,0.95 10,0 9.67,1.32 9.34,2.64 9,4 5.67,4 2.33,4 -1,4 -0.67,2.68 -0.34,1.36 0,0 Z"
         fill="#000000"
         transform="translate(169,167)"
         id="path71"
         style="fill:#ffffff" /><path
         d="M 0,0 C 0.93,0.08 1.86,0.16 2.81,0.25 -0.51,4.19 -0.51,4.19 -3.94,4.5 -4.68,4.42 -5.42,4.34 -6.19,4.25 -4.36,1.01 -3.83,0.3 0,0 Z"
         fill="#000000"
         transform="translate(453.1875,204.75)"
         id="path72"
         style="fill:#ffffff" /></g></g></svg>
