<?xml version="1.0" encoding="UTF-8" standalone="no"?>
<!-- Created with Inkscape (http://www.inkscape.org/) -->

<svg
   width="800"
   height="800"
   viewBox="0 0 211.66667 211.66667"
   version="1.1"
   id="svg1"
   xml:space="preserve"
   inkscape:version="1.3.2 (091e20e, 2023-11-25, custom)"
   sodipodi:docname="accenture.svg"
   xmlns:inkscape="http://www.inkscape.org/namespaces/inkscape"
   xmlns:sodipodi="http://sodipodi.sourceforge.net/DTD/sodipodi-0.dtd"
   xmlns="http://www.w3.org/2000/svg"
   xmlns:svg="http://www.w3.org/2000/svg"><sodipodi:namedview
     id="namedview1"
     pagecolor="#000000"
     bordercolor="#000000"
     borderopacity="0.25"
     inkscape:showpageshadow="2"
     inkscape:pageopacity="0.0"
     inkscape:pagecheckerboard="0"
     inkscape:deskcolor="#d1d1d1"
     inkscape:document-units="mm"
     inkscape:export-bgcolor="#00000000"
     inkscape:zoom="0.51213161"
     inkscape:cx="568.21332"
     inkscape:cy="403.21667"
     inkscape:window-width="1920"
     inkscape:window-height="1009"
     inkscape:window-x="-8"
     inkscape:window-y="-8"
     inkscape:window-maximized="1"
     inkscape:current-layer="layer1" /><defs
     id="defs1" /><g
     inkscape:label="Camada 1"
     inkscape:groupmode="layer"
     id="layer1"
     transform="translate(-67.583023,162.56458)"><g
       id="g1"
       transform="matrix(1.9985484,0,0,1.9985484,77.257199,-84.56603)"><path
         d="m 56.355,3.66 5.763,2.27 -5.763,2.146 v 3.066 l 9.87,-3.985 V 4.705 L 56.355,0.72 Z"
         fill="#008fff"
         id="path1"
         style="fill:#ffffff" /><path
         d="m 3.443,15.065 c -2.76,0 -4.782,1.226 -4.966,3.8 h 3.066 v -0.06 c 0.06,-0.858 0.858,-1.47 1.717,-1.4 1.165,0 1.717,0.674 1.717,1.84 v 0.552 h -1.4 c -3.004,0 -5.457,0.92 -5.457,3.8 v 0.123 c 0,2.33 1.717,3.372 3.8,3.372 1.288,0.06 2.452,-0.552 3.188,-1.533 v 1.35 H 8.235 V 19.184 C 8.175,16.241 6.15,15.076 3.453,15.076 Z m -0.674,9.75 c -1.104,0 -1.594,-0.552 -1.594,-1.35 v -0.123 c 0,-1.042 0.797,-1.47 2.4,-1.47 h 1.288 v 1.104 c 0.06,1.226 -0.98,1.84 -2.085,1.84 z M 15.583,24.69 c -1.533,0 -2.33,-1.042 -2.33,-3.372 V 20.95 c 0,-2.27 0.92,-3.372 2.33,-3.372 1.104,0 1.717,0.736 1.9,1.84 h 3.066 c -0.245,-3.004 -2.452,-4.353 -5.028,-4.353 -3.066,0 -5.518,2.085 -5.518,6 v 0.123 c 0,3.924 2.33,5.886 5.518,5.886 3.127,0 4.905,-1.9 5.15,-4.476 h -2.942 c -0.245,1.288 -1.042,2.085 -2.146,2.085 z m 11.956,0 c -1.533,0 -2.33,-1.042 -2.33,-3.372 V 20.95 c 0,-2.27 0.92,-3.372 2.33,-3.372 1.104,0 1.717,0.736 1.9,1.84 h 3.066 c -0.245,-3.004 -2.452,-4.353 -5.028,-4.353 -3.066,0 -5.518,2.085 -5.518,6 v 0.123 c 0,3.924 2.33,5.886 5.518,5.886 3.127,0 4.905,-1.9 5.1,-4.476 h -2.882 c -0.184,1.288 -1.042,2.085 -2.146,2.085 z m 12.078,0.062 c -1.4,0 -2.27,-0.797 -2.4,-2.882 h 7.48 v -1.36 c 0,-3.8 -2.4,-5.457 -5.273,-5.457 -3.127,0 -5.518,2.146 -5.518,6 v 0.245 c 0,3.863 2.27,5.825 5.58,5.825 3.004,0 4.844,-1.655 5.15,-3.863 h -3.004 c -0.123,0.92 -1.042,1.594 -2.023,1.47 z m -0.184,-7.48 c 1.288,0 2.085,0.736 2.146,2.452 h -4.292 c 0.245,-1.84 1.165,-2.4 2.146,-2.452 z"
         id="path2"
         style="fill:#ffffff" /><path
         d="m 37.287,19.724 h -0.06 z"
         fill="#008fff"
         id="path3"
         style="fill:#ffffff" /><path
         d="m 53.412,15.065 c -1.47,-0.06 -2.82,0.674 -3.495,1.962 V 15.31 h -3.188 v 11.527 h 3.188 V 19.48 c 0.06,-1.042 0.98,-1.9 2.023,-1.84 1.165,0 1.717,0.613 1.717,1.962 v 7.235 h 3.25 V 19.11 c 0,-2.82 -1.4,-4.047 -3.495,-4.047 z m 9.504,8.093 V 17.71 h 2.207 v -2.4 h -2.207 v -3.495 l -3.188,1.35 v 2.145 h -1.4 v 2.4 h 1.35 v 5.825 c 0,2.33 1.165,3.495 3.68,3.495 0.613,0 1.226,-0.06 1.84,-0.245 V 24.26 a 3.47,3.47 0 0 1 -1.104,0.184 c -0.736,0 -1.165,-0.43 -1.165,-1.288 z m 11.097,-0.675 v 0.307 c -0.06,1.042 -0.98,1.9 -2.023,1.84 -1.165,0 -1.655,-0.613 -1.655,-1.962 V 15.31 h -3.25 v 7.787 c 0,2.698 1.533,3.985 3.617,3.985 a 3.59,3.59 0 0 0 3.372,-1.962 v 1.717 h 3.25 V 15.31 h -3.25 z m 8.83,-5.1 v -2.146 h -3.188 v 11.527 h 3.188 v -5.947 c 0,-1.9 1.288,-2.575 3.495,-2.575 v -3.188 c -1.594,0 -3.004,0.92 -3.495,2.33 z m 15.266,3.077 c 0,-3.8 -2.4,-5.395 -5.273,-5.395 -3.127,0 -5.518,2.146 -5.518,6 v 0.245 c 0,3.863 2.27,5.825 5.58,5.825 3.004,0 4.782,-1.655 5.15,-3.863 h -3.004 c -0.245,0.98 -1.165,1.594 -2.146,1.533 -1.4,0 -2.27,-0.797 -2.4,-2.882 h 7.491 v -1.47 z m -7.48,-0.736 c 0.245,-1.9 1.165,-2.452 2.207,-2.452 1.288,0 2.085,0.736 2.146,2.452 z"
         id="path4"
         style="fill:#ffffff" /><path
         d="M 90.629,19.724 Z"
         fill="#008fff"
         id="path5"
         style="fill:#ffffff" /></g></g></svg>
