<?xml version="1.0" encoding="UTF-8" standalone="no"?>
<!-- Created with Inkscape (http://www.inkscape.org/) -->

<svg
   width="800"
   height="800"
   viewBox="0 0 211.66667 211.66667"
   version="1.1"
   id="svg1"
   xml:space="preserve"
   inkscape:version="1.3.2 (091e20e, 2023-11-25, custom)"
   sodipodi:docname="acp.svg"
   xmlns:inkscape="http://www.inkscape.org/namespaces/inkscape"
   xmlns:sodipodi="http://sodipodi.sourceforge.net/DTD/sodipodi-0.dtd"
   xmlns="http://www.w3.org/2000/svg"
   xmlns:svg="http://www.w3.org/2000/svg"><sodipodi:namedview
     id="namedview1"
     pagecolor="#000000"
     bordercolor="#000000"
     borderopacity="0.25"
     inkscape:showpageshadow="2"
     inkscape:pageopacity="0.0"
     inkscape:pagecheckerboard="0"
     inkscape:deskcolor="#d1d1d1"
     inkscape:document-units="mm"
     inkscape:export-bgcolor="#00000000"
     inkscape:zoom="0.51213161"
     inkscape:cx="568.21332"
     inkscape:cy="559.42651"
     inkscape:window-width="1920"
     inkscape:window-height="1009"
     inkscape:window-x="-8"
     inkscape:window-y="-8"
     inkscape:window-maximized="1"
     inkscape:current-layer="layer1" /><defs
     id="defs1" /><g
     inkscape:label="Camada 1"
     inkscape:groupmode="layer"
     id="layer1"
     transform="translate(-67.583023,162.56458)"><g
       id="g1"
       transform="matrix(0.13718862,0,0,0.13718862,121.79894,-146.32965)"><path
         d="m 0,0 c 4.84,2.66 9.65,5.33 14.32,8.28 1.4,0.88 1.4,0.88 2.83,1.78 0.98,0.62 1.96,1.24 2.97,1.88 8.09,5.08 16.21,10.11 24.38,15.06 8.89,5.39 17.71,10.87 26.52,16.39 6.79,4.26 13.62,8.45 20.48,12.61 8.87,5.38 17.68,10.85 26.47,16.37 8.23,5.15 16.51,10.21 24.81,15.24 0.9,0.55 1.81,1.1 2.74,1.66 1.19,0.72 1.19,0.72 2.41,1.46 1.71,1.05 3.4,2.15 5.07,3.27 2,0.3 2,0.3 4.22,0.25 0.87,0.01 1.73,0.02 2.63,0.02 0.95,0 1.91,0 2.89,-0.01 1.02,0.01 2.03,0.01 3.08,0.01 3.44,0.01 6.88,0.01 10.32,0.01 2.48,0 4.95,0.01 7.43,0.02 5.41,0.01 10.81,0.01 16.21,0.02 8.04,0 16.07,0.01 24.11,0.03 13.51,0.02 27.03,0.04 40.54,0.05 13.39,0.01 26.78,0.02 40.16,0.04 1.25,0 1.25,0 2.52,0.01 4.23,0 8.45,0.01 12.67,0.01 29.93,0.05 59.86,0.09 89.79,0.12 29.09,0.03 58.17,0.06 87.25,0.1 0.89,0 1.79,0.01 2.71,0.01 9,0.01 18,0.02 27,0.03 18.33,0.03 36.66,0.05 54.99,0.08 0.84,0 1.69,0 2.55,0 56.31,0.08 112.62,0.14 168.93,0.2 0,26.4 0,52.8 0,80 -57.06,0.2 -114.11,0.4 -171.17,0.51 -0.85,0 -1.69,0 -2.56,0 -18.37,0.04 -36.73,0.07 -55.09,0.1 -9.01,0.02 -18.02,0.03 -27.02,0.05 -0.9,0 -1.79,0 -2.72,0 -29.03,0.06 -58.06,0.15 -87.09,0.26 -29.84,0.11 -59.68,0.18 -89.52,0.21 -4.22,0 -8.44,0 -12.66,0.01 -0.83,0 -1.66,0 -2.51,0 -13.35,0.02 -26.69,0.07 -40.04,0.14 -13.42,0.07 -26.85,0.1 -40.28,0.08 -7.97,-0.01 -15.94,0.02 -23.91,0.09 -5.96,0.05 -11.93,0.04 -17.89,0 -2.4,0 -4.81,0.01 -7.21,0.05 -15.39,0.23 -25.04,-1.78 -36.74,-12.11 -2.06,-1.8 -4.26,-3.36 -6.52,-4.91 -1.32,-0.95 -2.63,-1.9 -3.95,-2.86 -0.73,-0.52 -1.46,-1.05 -2.22,-1.6 -6.29,-4.56 -12.54,-9.17 -18.79,-13.79 -7.59,-5.59 -15.23,-11.11 -22.88,-16.62 -3.74,-2.7 -7.49,-5.41 -11.23,-8.11 -1.5,-1.08 -3,-2.17 -4.5,-3.25 -9,-6.5 -18,-13 -27,-19.5 -0.74,-0.54 -1.49,-1.07 -2.25,-1.63 -1.49,-1.07 -2.99,-2.15 -4.48,-3.23 -3.87,-2.8 -7.75,-5.59 -11.62,-8.39 -0.8,-0.57 -1.6,-1.15 -2.42,-1.74 -1.52,-1.09 -3.03,-2.18 -4.54,-3.27 -1.04,-0.75 -1.04,-0.75 -2.1,-1.52 -0.6,-0.43 -1.2,-0.86 -1.82,-1.3 C 9.15,71.84 9.15,71.84 8,71 7.01,70.5 7.01,70.5 5.99,70 3.45,68.54 1.82,67.31 0,65 -1.13,60.08 -0.93,55.21 -0.78,50.2 c 0.01,-1.45 0.03,-2.9 0.03,-4.35 0.03,-3.8 0.11,-7.6 0.2,-11.39 0.08,-3.88 0.12,-7.77 0.16,-11.65 C -0.31,15.21 -0.17,7.6 0,0 Z"
         fill="#000000"
         transform="translate(0,746)"
         id="path1"
         style="fill:#ffffff" /><path
         d="m 0,0 c 1.28,0.17 2.56,0.33 3.88,0.5 15.27,2.01 30.51,4.2 45.62,7.19 1.03,0.2 2.06,0.4 3.13,0.61 6.98,1.44 6.98,1.44 10.37,3.7 0.4,2.31 0.4,2.31 0.38,5 0,0.89 0.01,1.77 0.02,2.69 -0.13,0.76 -0.26,1.52 -0.4,2.31 -3.65,2.44 -4.45,2.06 -8.64,1.31 -1.17,-0.2 -2.33,-0.4 -3.53,-0.61 -1.9,-0.35 -1.9,-0.35 -3.83,-0.7 -1.98,-0.35 -3.96,-0.69 -5.95,-1.04 -2.1,-0.37 -4.21,-0.74 -6.31,-1.12 -43.49,-7.7 -82.25,-8.64 -125.55,0.52 -4.71,0.94 -9.46,1.78 -14.19,2.64 0.33,62.04 0.66,124.08 1,188 6.6,-1.65 13.2,-3.3 20,-5 5.54,-1 11.06,-1.94 16.62,-2.75 1.37,-0.21 2.74,-0.42 4.1,-0.63 21.28,-3.24 41.94,-3.4 63.28,-0.62 1.28,0.17 2.56,0.33 3.88,0.5 15.27,2.01 30.51,4.2 45.62,7.19 1.03,0.2 2.06,0.4 3.13,0.61 6.98,1.44 6.98,1.44 10.37,3.7 0.4,2.31 0.4,2.31 0.38,5 0,0.89 0.01,1.77 0.02,2.69 -0.2,1.14 -0.2,1.14 -0.4,2.31 -3.65,2.44 -4.45,2.06 -8.64,1.31 -1.17,-0.2 -2.33,-0.4 -3.53,-0.61 -1.27,-0.23 -2.53,-0.46 -3.83,-0.7 -1.98,-0.35 -3.96,-0.69 -5.95,-1.04 -2.1,-0.37 -4.21,-0.74 -6.31,-1.12 -43.49,-7.7 -82.25,-8.64 -125.55,0.52 -4.71,0.94 -9.46,1.78 -14.19,2.64 0,123.09 0,246.18 0,373 -3.63,0 -7.26,0 -11,0 0,-122.43 0,-244.86 0,-371 -82.17,0 -164.34,0 -249,0 0,122.43 0,244.86 0,371 -3.63,0 -7.26,0 -11,0 0,-122.76 0,-245.52 0,-372 -14.58,-3.45 -14.58,-3.45 -29.25,-6.12 -0.94,-0.16 -1.88,-0.32 -2.85,-0.48 -16.96,-2.69 -33.88,-3.74 -51.04,-3.66 -2.92,0.01 -5.85,0 -8.78,-0.01 -10.19,-0.01 -20.22,0.36 -30.35,1.57 -4.6,0.54 -9.06,0.75 -13.7,0.7 -4.54,0 -9.03,0.72 -13.53,1.31 -0.98,0.12 -1.96,0.24 -2.97,0.36 -8.52,1.11 -15.85,3.33 -23.44,7.3 -3.08,1.52 -6.26,2.72 -9.46,3.96 -2.73,1.11 -5.39,2.32 -8.07,3.57 -3.62,1.67 -7.23,3.13 -11,4.44 -5.16,1.82 -9.94,4.16 -14.81,6.67 -3.2,1.62 -6.43,3.03 -9.75,4.39 0,-4.95 0,-9.9 0,-15 8.53,-4.37 17.17,-8.27 26,-12 3.86,-1.68 7.71,-3.4 11.54,-5.18 18.23,-8.45 35.58,-12.08 55.46,-13.82 1.39,-0.13 2.78,-0.25 4.18,-0.38 19.26,-1.72 38.46,-3.42 57.82,-2.62 1.06,0.04 2.11,0.09 3.2,0.13 14.01,0.64 27.83,2.12 41.68,4.25 1.3,0.19 2.6,0.39 3.93,0.59 1.26,0.2 2.51,0.41 3.81,0.62 1.09,0.17 2.18,0.35 3.3,0.53 6.1,1.32 12.08,3.16 18.08,4.88 0,-62.04 0,-124.08 0,-188 -14.58,-3.45 -14.58,-3.45 -29.25,-6.12 -0.94,-0.16 -1.88,-0.32 -2.85,-0.48 -16.91,-2.68 -33.81,-3.75 -50.93,-3.72 -2.9,0.01 -5.81,-0.02 -8.71,-0.04 -25.14,-0.08 -56.1,2.23 -78.26,15.36 -1.08,0.64 -2.17,1.28 -3.28,1.93 -3.26,1.94 -6.5,3.9 -9.73,5.86 -3.16,1.92 -6.32,3.81 -9.49,5.71 -1.25,0.75 -2.5,1.5 -3.75,2.25 -36.25,21.75 -72.5,43.5 -108.75,65.25 -0.88,0.58 -1.77,1.16 -2.68,1.76 C -686,113 -686,113 -690,113 c -0.59,-4.79 -0.82,-9.22 0,-14 2.68,-3.15 6.27,-4.34 10,-6 2.66,-1.48 5.26,-3.06 7.88,-4.62 1.47,-0.87 2.94,-1.74 4.42,-2.6 7.48,-4.41 14.92,-8.9 22.37,-13.38 3.38,-2.03 6.76,-4.06 10.14,-6.09 1.2,-0.72 2.41,-1.44 3.61,-2.16 2.46,-1.48 4.92,-2.95 7.38,-4.42 1.28,-0.77 2.55,-1.53 3.82,-2.29 0.62,-0.37 1.24,-0.74 1.88,-1.13 4.15,-2.48 8.27,-5.01 12.38,-7.56 4.34,-2.69 8.73,-5.23 13.21,-7.67 1.68,-0.95 3.3,-2.01 4.91,-3.08 3.19,-2.13 6.49,-3.95 9.85,-5.79 2.31,-1.26 2.31,-1.26 5.03,-3.15 3.69,-2.44 7.53,-4.51 11.44,-6.6 3.22,-1.76 6.38,-3.59 9.43,-5.64 5.11,-3.37 10.19,-5.51 16,-7.38 0.91,-0.3 1.82,-0.6 2.76,-0.9 41.06,-12.99 86.21,-11.65 128.3,-5.16 1.29,0.19 2.59,0.39 3.92,0.59 6.06,0.98 11.79,2.18 17.63,4.08 11.18,3.21 22.84,2.53 34.36,2.5 2.59,0.01 5.17,0.02 7.75,0.03 6.26,0.03 12.51,0.03 18.77,0.02 5.1,0 10.19,0 15.29,0.01 0.73,0 1.46,0.01 2.21,0.01 1.48,0 2.96,0 4.44,0 13.87,0.03 27.73,0.02 41.59,0.01 12.63,-0.01 25.25,0.01 37.87,0.05 13.02,0.04 26.04,0.05 39.06,0.05 7.28,-0.01 14.57,0 21.85,0.03 6.87,0.02 13.73,0.02 20.59,-0.01 2.5,0 5,0 7.5,0.02 16.03,0.1 30.27,-1.82 45.72,-6.09 6.43,-1.66 13.01,-2.54 19.58,-3.49 1.34,-0.21 2.68,-0.41 4.03,-0.62 C -41.83,-2.62 -21.26,-2.77 0,0 Z m -365,25 c 0,62.04 0,124.08 0,188 82.17,0 164.34,0 249,0 0,-62.04 0,-124.08 0,-188 -82.17,0 -164.34,0 -249,0 z"
         fill="#000000"
         transform="translate(690,211)"
         id="path2"
         style="fill:#ffffff" /><path
         d="M 0,0 C 0.76,0.18 1.51,0.37 2.3,0.55 23.59,5.81 42.72,15.59 60,29 c 1.43,1.07 1.43,1.07 2.89,2.15 4.722324,5.373323 5.680824,6.271354 8.11,9.85 5.35,7.19 5.72,13.24 5,22 -1.54,6.07 -5.09,9.34 -10.1,12.87 -5.8,3.45 -13.76,3.05 -20.18,1.62 C 39.17,74.73 34.26,68.5 30,63 26.695778,59.313061 23.330284,58.077411 19.68,55.93 2.89,46.02 -13.08,41.63 -32.59,41.68 c -2.21,0.01 -4.42,-0.02 -6.63,-0.04 -12.29,-0.06 -23.92,1.6 -35.28,6.55 -0.71,0.3 -1.42,0.6 -2.15,0.91 -12.68,5.55 -23.17,12.6 -33.35,21.9 -0.68,0.61 -1.35,1.21 -2.05,1.84 -19.89,18.74 -29.79,45.7 -30.85,72.46 -0.85,30.51 9.37,57.22 29.9,79.7 0.61,0.68 1.21,1.35 1.84,2.05 15.57,16.53 40.25,28.95 63,30.15 3.58,0.11 7.16,0.13 10.75,0.12 2.21,-0.01 4.42,0.02 6.63,0.04 12.29,0.06 23.92,-1.61 35.28,-6.55 0.7,-0.29 1.4,-0.59 2.13,-0.89 6.14,-2.66 11.88,-5.87 17.61,-9.32 3.313399,-2.00072 5.104337,-3.27452 7.76,-6.6 4.29,-5.73 8.85,-11.19 16,-13 6.73,-0.8 13.31,-0.94 19.28,2.59 4.06,3.33 7.07,7.45 8.72,12.41 0.65,7.73 0.74,14.56 -4,21 -4.090636,4.93546 -8.096137,9.47569 -12.81,13.88 -0.58,0.42 -1.17,0.85 -1.77,1.29 C 39.92,284.88 20.98,293.79 0,299 c -0.69,0.18 -1.37,0.36 -2.08,0.54 -20.82,5.16 -47.19,4.78 -67.92,-0.54 -1.14,-0.27 -1.14,-0.27 -2.3,-0.55 -26.83,-6.62 -50.03,-20.24 -69.7,-39.45 -0.85,-0.79 -1.7,-1.57 -2.57,-2.38 -17.31,-16.45 -29.71,-38.79 -36.68,-61.5 -0.23,-0.75 -0.47,-1.5 -0.71,-2.28 -4.13,-14.14 -5.63,-28.16 -5.54,-42.84 0,-0.8 0,-1.6 0.01,-2.42 0.19,-40.42 15.53,-76.61 43.49,-105.58 0.79,-0.85 1.58,-1.7 2.39,-2.58 C -122.51,19.34 -96.55,6.77 -70,0 c 0.69,-0.18 1.39,-0.36 2.1,-0.55 C -47.09,-5.71 -20.72,-5.32 0,0 Z"
         fill="#000000"
         transform="translate(443,1003)"
         id="path3"
         style="fill:#ffffff"
         sodipodi:nodetypes="ccccccccccccccccccccccccccccccccccccccscccccccc" /><path
         d="m 0,0 c 12.28,-0.12 24.57,-0.21 36.85,-0.26 5.71,-0.02 11.42,-0.06 17.12,-0.12 5.53,-0.05 11.05,-0.08 16.58,-0.09 2.09,-0.01 4.18,-0.03 6.27,-0.06 31.02222,-2.3901958 44.19746,5.2881523 68.43,19.28 48.81662,40.983572 50.92815,61.895153 48.75,110.25 -1.25,13.49 -5.96,26.92 -12,39 -42.95209,67.57526 -90.531476,57.09197 -91.46,56.88 -5.66,-1.96 -9.92,-5.31 -13.04,-10.44 -2.66,-6.18 -2.55,-13.4 -0.88,-19.84 2.32,-5.39 6.41,-8.65 11.38,-11.6 8.316805,-2.78235 8.317177,-2.1295 11,-3 0.94,-0.34 1.89,-0.68 2.86,-1.03 16.39,-6.11 30.18,-14.94 38.14,-30.97 1.25,-2.16 2.52,-4.32 3.79,-6.47 3.38,-7.06 4.75,-13.73 5.02,-21.53 0.04,-0.91 0.07,-1.83 0.1,-2.77 C 149.32,101.46 147.24,89.6 139,76 138.39,74.98 137.78,73.96 137.15,72.91 130.44,62.76 120.75,56.16 110.19,50.5 109.61,50.17 109.03,49.85 108.44,49.51 95.56,43.06 78.03,44.61 64,44.38 L 58.15,44.26 C 53.43,44.16 48.72,44.08 44,44 c 0.01,1.38 0.01,1.38 0.02,2.78 0.12,22.57 0.25,45.15 0.37,67.72 l 0.18,32.76 c 0.13,22.59 0.25,45.19 0.35,67.78 0.05,9.03 0.09,18.05 0.15,27.08 0.03,5.53 0.05,11.06 0.07,16.6 0.01,2.09 0.02,4.18 0.04,6.27 0.19,25.42 0.19,25.42 -5.59,32.47 -5.27,5.11 -10.27,6.87 -17.59,7.16 -6.38,-0.25 -11.09,-1.44 -16,-5.62 -4.14,-4.56 -6.13,-8.73 -6.12,-14.88 -0.01,-1.02 -0.01,-2.03 -0.01,-3.07 0,-1.12 0.01,-2.23 0.01,-3.38 v -3.59 -9.86 c 0.01,-3.55 0.01,-7.09 0.01,-10.63 v -18.43 c 0.01,-8.88 0.02,-17.76 0.02,-26.64 0,-14.41 0.01,-28.81 0.01,-43.22 0.01,-14 0.02,-27.99 0.03,-41.99 V 120.7 107.72 C -0.04,71.81 -0.02,35.91 0,0 Z"
         fill="#000000"
         transform="translate(552,1000)"
         id="path4"
         style="fill:#ffffff"
         sodipodi:nodetypes="ccccccccccccccccccccccccccccccccccccssccscsccccc" /><path
         d="m 0,0 c 14.2,11.46 21.05,38.84 27.8,55.28 1.44,3.5 2.88,6.99 4.32,10.49 0.77,1.87 1.54,3.73 2.31,5.6 4.48,10.84 8.99,21.67 13.51,32.51 0.42,1 0.84,2.01 1.27,3.05 6.28,15.08 12.59,30.15 18.9,45.21 5.93,14.18 11.86,28.36 17.77,42.55 0.41,0.98 0.82,1.97 1.24,2.98 2.52,6.06 5.04,12.11 7.56,18.16 3.68,8.85 7.37,17.69 11.05,26.53 1.3,3.13 2.61,6.27 3.91,9.4 0.8,1.91 1.6,3.83 2.4,5.74 0.35,0.87 0.71,1.73 1.08,2.61 0.34,0.81 0.67,1.62 1.02,2.45 0.32,0.76 0.63,1.51 0.95,2.29 0.86,2.02 1.74,4.02 2.63,6.03 2.49,6.07 2.53,13.39 0.44,19.63 -3.36,5.96 -8.78,9.36 -15.16,11.49 -14.69,1.13 -14.69,1.13 -21,-4 -0.52,-0.42 -1.04,-0.83 -1.57,-1.26 -4.29,-4.11 -5.55,-8.85 -7.13,-14.45 -2.09,-7.18 -5.01,-13.94 -7.99,-20.79 -0.52,-1.19 -1.03,-2.38 -1.57,-3.61 -1.05,-2.42 -2.11,-4.85 -3.17,-7.27 -2.49,-5.73 -4.91,-11.48 -7.32,-17.24 -0.43,-1.02 -0.86,-2.04 -1.3,-3.09 -0.39,-0.94 -0.78,-1.87 -1.18,-2.83 -0.35,-0.82 -0.69,-1.63 -1.04,-2.47 C 49,223 49,223 49,221 c -0.8,0.01 -1.6,0.02 -2.43,0.03 -7.56,0.08 -15.12,0.14 -22.68,0.18 -3.89,0.02 -7.78,0.05 -11.67,0.09 -3.75,0.05 -7.5,0.07 -11.26,0.08 -1.43,0.01 -2.86,0.02 -4.29,0.04 -2.01,0.03 -4.01,0.03 -6.02,0.03 -1.71,0.02 -1.71,0.02 -3.46,0.03 -5.04,-0.76 -8.12,-3.35 -11.57,-6.98 -2.39,-5.17 -2.37,-9.9 -1.62,-15.5 2.16,-4.65 5.24,-8 10,-10 3.92,-0.54 7.79,-0.47 11.74,-0.39 1.13,0.01 2.25,0.01 3.41,0.02 3.57,0.02 7.15,0.07 10.73,0.12 2.42,0.02 4.85,0.04 7.28,0.05 5.95,0.05 11.89,0.12 17.84,0.2 -0.42,-0.97 -0.83,-1.94 -1.26,-2.94 C 24.93,165.46 16.23,144.83 7.69,124.12 7.08,122.65 7.08,122.65 6.45,121.14 5.28,118.3 4.12,115.47 2.95,112.63 2.44,111.39 2.44,111.39 1.92,110.12 0.94,107.75 -0.03,105.38 -1,103 -1.37,102.09 -1.75,101.18 -2.13,100.25 -2.5,99.35 -2.87,98.45 -3.25,97.52 -3.58,96.7 -3.92,95.89 -4.26,95.04 -5,93 -5,93 -5,91 c -0.66,0 -1.32,0 -2,0 -0.19,0.77 -0.19,0.77 -0.39,1.56 -2.25,8.2 -5.64,15.87 -9.01,23.66 -1.93,4.44 -3.83,8.89 -5.73,13.34 -0.4,0.93 -0.8,1.87 -1.21,2.83 -4.45,10.44 -8.78,20.93 -13.1,31.42 -6.16,14.98 -12.36,29.94 -18.62,44.88 -0.55,1.3 -0.55,1.3 -1.11,2.63 -2.22,5.31 -4.44,10.61 -6.67,15.91 -3.28,7.83 -6.56,15.66 -9.84,23.49 -1.16,2.76 -2.32,5.53 -3.48,8.3 -1.96,4.66 -3.9,9.32 -5.84,13.98 -0.45,1.07 -0.89,2.14 -1.35,3.25 -0.36,0.87 -0.72,1.74 -1.08,2.64 -0.29,0.7 -0.57,1.39 -0.86,2.11 -0.83,2.34 -1.37,4.7 -1.9,7.12 -1.69,5.99 -5.81,9.41 -10.81,12.88 -7.24,2.41 -15.73,2.09 -22.62,-1.19 -5.03,-2.91 -8.12,-6.47 -10.38,-11.81 -2.1,-12.45 2.8,-22.3 7.75,-33.38 0.82,-1.88 1.63,-3.76 2.45,-5.64 1.71,-3.97 3.43,-7.94 5.17,-11.9 3.9,-8.97 7.64,-18.02 11.38,-27.06 2.1,-5.06 4.2,-10.12 6.31,-15.18 0.42,-0.99 0.83,-1.99 1.26,-3.01 4.21,-10.12 8.45,-20.22 12.68,-30.33 6.31,-15.06 12.6,-30.12 18.88,-45.19 0.41,-0.99 0.82,-1.98 1.24,-3 2.96,-7.1 5.92,-14.2 8.88,-21.31 3.15,-7.57 6.3,-15.14 9.46,-22.7 1.24,-3 2.49,-6 3.74,-9 2.27,-5.44 4.53,-10.87 6.8,-16.3 0.37,-0.9 0.75,-1.79 1.13,-2.71 1.09,-2.61 2.19,-5.22 3.28,-7.83 0.32,-0.77 0.65,-1.55 0.98,-2.35 1.99,-4.73 4.09,-9.37 6.47,-13.91 0.82,-1.58 1.58,-3.18 2.31,-4.81 C -18.2,6.62 -15.41,2.47 -10,-1 -5.87,-2.38 -4.02,-1.63 0,0 Z"
         fill="#000000"
         transform="translate(136,1002)"
         id="path5"
         style="fill:#ffffff" /><path
         d="m 0,0 c 46.53,0 93.06,0 141,0 0,54.12 0,108.24 0,164 -46.53,0 -93.06,0 -141,0 C 0,109.88 0,55.76 0,0 Z"
         fill="#000000"
         transform="translate(377,642)"
         id="path6"
         style="fill:#ffffff" /><path
         d="M 0,0 C 0.94,0.38 1.87,0.77 2.84,1.16 9.33,4.11 14.66,8.33 20,13 c 0.62,0.52 1.23,1.04 1.87,1.58 C 32.53,24.31 39.71,38.85 42,53 c 0.09,2.59 0.13,5.14 0.11,7.73 0,0.77 0,1.55 0,2.34 0,2.5 0,4.99 -0.01,7.48 0,1.54 0,3.09 -0.01,4.63 0,5.71 -0.01,11.42 -0.03,17.13 -0.02,12.77 -0.04,25.54 -0.06,38.69 -46.53,0 -93.06,0 -141,0 -0.1,-12.54 -0.21,-25.08 -0.31,-38 -0.05,-3.93 -0.09,-7.85 -0.14,-11.9 -0.02,-4.88 -0.02,-4.88 -0.03,-7.18 0,-1.57 -0.02,-3.14 -0.05,-4.71 C -99.84,49.16 -94.36,32.28 -81,17 c 0.52,-0.62 1.04,-1.23 1.58,-1.87 C -70.15,4.97 -57.99,-0.42 -45,-4 c 0.62,-0.18 1.23,-0.35 1.87,-0.54 C -28.99,-7.6 -13.17,-5.63 0,0 Z"
         fill="#000000"
         transform="translate(476,473)"
         id="path7"
         style="fill:#ffffff" /><path
         d="M 0,0 C 13.96,3.79 24.91,25.18 31.84,36.96 46.1,61.89 55.07,89.01 61,117 c 0.18,0.85 0.36,1.7 0.55,2.57 3.21,15.65 2.8,31.59 2.65,47.49 0,0.71 -0.01,1.42 -0.01,2.16 -0.06,4.02 -0.42,7.83 -1.19,11.78 -5.93,-1.03 -11.81,-2.17 -17.69,-3.5 -30.16,-6.46 -62.19,-5.93 -92.31,0.5 -1.38,0.29 -2.76,0.57 -4.14,0.86 -3.29,0.69 -6.58,1.41 -9.86,2.14 -0.89,-4.6 -1.19,-9.09 -1.24,-13.77 -0.01,-0.74 -0.02,-1.48 -0.03,-2.24 -0.19,-18.01 0.42,-35.32 4.27,-52.99 0.24,-1.09 0.47,-2.18 0.72,-3.3 5.14,-22.97 13.13,-44.97 24.28,-65.7 0.46,-0.93 0.93,-1.86 1.41,-2.81 C -24.34,26.02 -13.46,8.97 0,0 Z"
         fill="#000000"
         transform="translate(669)"
         id="path8"
         style="fill:#ffffff" /><path
         d="M 0,0 C 13.96,3.79 24.91,25.18 31.84,36.96 46.1,61.89 55.07,89.01 61,117 c 0.18,0.85 0.36,1.7 0.55,2.57 3.21,15.65 2.8,31.59 2.65,47.49 0,0.71 -0.01,1.42 -0.01,2.16 -0.06,4.02 -0.42,7.83 -1.19,11.78 -5.93,-1.03 -11.81,-2.17 -17.69,-3.5 -30.16,-6.46 -62.19,-5.93 -92.31,0.5 -1.38,0.29 -2.76,0.57 -4.14,0.86 -3.29,0.69 -6.58,1.41 -9.86,2.14 -0.89,-4.6 -1.19,-9.09 -1.24,-13.77 -0.01,-0.74 -0.02,-1.48 -0.03,-2.24 -0.19,-18.01 0.42,-35.32 4.27,-52.99 0.24,-1.09 0.47,-2.18 0.72,-3.3 5.14,-22.97 13.13,-44.97 24.28,-65.7 0.46,-0.93 0.93,-1.86 1.41,-2.81 C -24.34,26.02 -13.46,8.97 0,0 Z"
         fill="#000000"
         transform="translate(226)"
         id="path9"
         style="fill:#ffffff" /><path
         d="M 0,0 C 13.96,3.79 24.91,25.18 31.84,36.96 38.61,48.81 43.9,61.36 49,74 c 0.47,1.15 0.94,2.29 1.43,3.47 0.37,0.96 0.75,1.92 1.13,2.91 0.31,0.79 0.62,1.58 0.94,2.39 0.63,2.81 0.34,4.48 -0.5,7.23 -1.67,1.58 -1.67,1.58 -3.9,2.96 -0.85,0.54 -1.7,1.08 -2.58,1.64 -0.96,0.59 -1.91,1.17 -2.9,1.78 -2.11,1.33 -4.23,2.68 -6.35,4.02 -0.57,0.36 -1.14,0.72 -1.73,1.09 -6.76,4.26 -13.42,8.66 -20.08,13.05 -2.98,1.97 -5.97,3.93 -8.95,5.89 -5.39,3.55 -10.79,7.09 -16.18,10.64 -10.11,6.65 -20.22,13.29 -30.33,19.93 -0.87,0.57 -0.87,0.57 -1.77,1.16 -3.45,2.26 -6.9,4.52 -10.35,6.78 -0.82,0.53 -1.63,1.06 -2.46,1.61 -5.3,3.45 -5.3,3.45 -6.42,3.45 -1.36,-42.4 8.9,-83.62 29,-121 0.46,-0.93 0.93,-1.86 1.41,-2.81 C -24.34,26.02 -13.46,8.97 0,0 Z"
         fill="#000000"
         transform="translate(63,113)"
         id="path10"
         style="fill:#ffffff" /><path
         d="m 0,0 c 3.5,0.25 3.5,0.25 5.5,2.25 0.24,2.02 0.24,2.02 0.23,4.54 0,0.94 0,1.88 0,2.85 -0.01,1.02 -0.02,2.04 -0.03,3.09 -0.01,1.04 -0.01,2.08 -0.01,3.15 -0.01,3.33 -0.04,6.66 -0.07,10 -0.01,2.25 -0.01,4.51 -0.02,6.76 -0.02,5.54 -0.06,11.07 -0.1,16.61 1.12,-0.01 1.12,-0.01 2.25,-0.03 0.98,0 1.97,-0.01 2.98,-0.02 0.97,0 1.94,-0.01 2.94,-0.02 3.88,0.1 7.4,0.82 11.14,1.82 0.67,0.16 1.33,0.31 2.01,0.48 4.54,1.16 7.97,2.92 11.68,5.77 0.7,1.32 1.37,2.65 2,4 1.33,0.68 2.66,1.34 4,2 1.13,0.87 2.22,1.78 3.29,2.72 0.6,0.54 1.21,1.07 1.84,1.62 0.64,0.57 1.27,1.14 1.93,1.72 1.35,1.18 2.7,2.36 4.05,3.53 1.84,1.61 3.67,3.21 5.49,4.84 14.22,12.7 30.11,13.78 48.52,14.61 1.12,0.06 2.23,0.13 3.38,0.2 1.52,0.08 1.52,0.08 3.06,0.15 0.81,0.2 1.61,0.4 2.44,0.61 0.66,1.32 1.32,2.64 2,4 -79.53,0 -159.06,0 -241,0 0.66,-1.32 1.32,-2.64 2,-4 2.38,-0.59 2.38,-0.59 5.36,-0.72 1.09,-0.06 2.18,-0.13 3.3,-0.19 1.16,-0.05 2.33,-0.1 3.53,-0.15 19.29,-1.18 33.47,-3.39 47.77,-17.08 5.5,-5.25 11.22,-10.45 18.04,-13.86 0.29,-0.62 0.58,-1.24 0.88,-1.87 2.24,-4.24 6.45,-5.9 10.82,-7.4 1.33,-0.34 2.66,-0.66 3.99,-0.98 0.64,-0.17 1.29,-0.35 1.95,-0.52 4.1,-1.01 7.91,-1.31 12.13,-1.28 0.98,0.01 1.97,0.02 2.98,0.02 0.74,0.01 1.48,0.02 2.25,0.03 0,-0.58 -0.01,-1.17 -0.01,-1.77 -0.05,-6.07 -0.08,-12.13 -0.1,-18.2 -0.01,-2.27 -0.02,-4.53 -0.04,-6.8 -0.03,-3.25 -0.04,-6.5 -0.05,-9.75 -0.01,-1.02 -0.02,-2.04 -0.03,-3.09 0,-0.94 0,-1.88 0,-2.85 0,-0.83 -0.01,-1.66 -0.01,-2.52 C -5.28,0.41 -3.64,0.26 0,0 Z"
         fill="#000000"
         transform="translate(448.5,81.75)"
         id="path11"
         style="fill:#ffffff" /><path
         d="m 0,0 c 7.59,0 15.18,0 23,0 0,47.52 0,95.04 0,144 -7.59,0 -15.18,0 -23,0 C 0,96.48 0,48.96 0,0 Z"
         fill="#000000"
         transform="translate(689,659)"
         id="path12"
         style="fill:#ffffff" /><path
         d="m 0,0 c 7.59,0 15.18,0 23,0 0,47.52 0,95.04 0,144 -7.59,0 -15.18,0 -23,0 C 0,96.48 0,48.96 0,0 Z"
         fill="#000000"
         transform="translate(629,659)"
         id="path13"
         style="fill:#ffffff" /><path
         d="m 0,0 c 7.59,0 15.18,0 23,0 0,47.52 0,95.04 0,144 -7.59,0 -15.18,0 -23,0 C 0,96.48 0,48.96 0,0 Z"
         fill="#000000"
         transform="translate(246,659)"
         id="path14"
         style="fill:#ffffff" /><path
         d="m 0,0 c 7.59,0 15.18,0 23,0 0,47.52 0,95.04 0,144 -7.59,0 -15.18,0 -23,0 C 0,96.48 0,48.96 0,0 Z"
         fill="#000000"
         transform="translate(186,659)"
         id="path15"
         style="fill:#ffffff" /><path
         d="m 0,0 c 4.3,0.02 5.37,0.08 8.88,2.81 0.61,0.85 1.23,1.69 1.87,2.57 0.33,0.32 0.66,0.66 1,1 0.1,3.1 0.13,6.18 0.11,9.29 0,0.97 0,1.95 0,2.95 0,3.25 0,6.49 -0.01,9.73 0,2.24 -0.01,4.48 -0.01,6.72 0,5.91 -0.01,11.82 -0.02,17.73 -0.01,6.03 -0.02,12.05 -0.02,18.08 -0.01,11.83 -0.03,23.66 -0.05,35.5 -7.59,0 -15.18,0 -23,0 -0.11,-12.96 -0.2,-25.91 -0.26,-38.86 -0.03,-6.02 -0.06,-12.03 -0.12,-18.04 -0.05,-5.81 -0.08,-11.61 -0.09,-17.41 -0.01,-2.22 -0.03,-4.43 -0.06,-6.65 -0.03,-3.1 -0.04,-6.2 -0.04,-9.3 -0.02,-0.91 -0.03,-1.83 -0.05,-2.78 0.03,-4.56 0.12,-6.35 3.09,-10.01 C -7.94,2.68 -7.11,2.04 -6.25,1.38 -4.53,-0.34 -2.35,0.08 0,0 Z"
         fill="#000000"
         transform="translate(700.25,269.625)"
         id="path16"
         style="fill:#ffffff" /><path
         d="m 0,0 c 4.3,0.02 5.37,0.08 8.88,2.81 0.61,0.85 1.23,1.69 1.87,2.57 0.33,0.32 0.66,0.66 1,1 0.1,3.1 0.13,6.18 0.11,9.29 0,0.97 0,1.95 0,2.95 0,3.25 0,6.49 -0.01,9.73 0,2.24 -0.01,4.48 -0.01,6.72 0,5.91 -0.01,11.82 -0.02,17.73 -0.01,6.03 -0.02,12.05 -0.02,18.08 -0.01,11.83 -0.03,23.66 -0.05,35.5 -7.59,0 -15.18,0 -23,0 -0.11,-12.96 -0.2,-25.91 -0.26,-38.86 -0.03,-6.02 -0.06,-12.03 -0.12,-18.04 -0.05,-5.81 -0.08,-11.61 -0.09,-17.41 -0.01,-2.22 -0.03,-4.43 -0.06,-6.65 -0.03,-3.1 -0.04,-6.2 -0.04,-9.3 -0.02,-0.91 -0.03,-1.83 -0.05,-2.78 0.03,-4.56 0.12,-6.35 3.09,-10.01 C -7.94,2.68 -7.11,2.04 -6.25,1.38 -4.53,-0.34 -2.35,0.08 0,0 Z"
         fill="#000000"
         transform="translate(640.25,269.625)"
         id="path17"
         style="fill:#ffffff" /><path
         d="m 0,0 c 4.3,0.02 5.37,0.08 8.88,2.81 0.61,0.85 1.23,1.69 1.87,2.57 0.33,0.32 0.66,0.66 1,1 0.1,3.1 0.13,6.18 0.11,9.29 0,0.97 0,1.95 0,2.95 0,3.25 0,6.49 -0.01,9.73 0,2.24 -0.01,4.48 -0.01,6.72 0,5.91 -0.01,11.82 -0.02,17.73 -0.01,6.03 -0.02,12.05 -0.02,18.08 -0.01,11.83 -0.03,23.66 -0.05,35.5 -7.59,0 -15.18,0 -23,0 -0.11,-12.96 -0.2,-25.91 -0.26,-38.86 -0.03,-6.02 -0.06,-12.03 -0.12,-18.04 -0.05,-5.81 -0.08,-11.61 -0.09,-17.41 -0.01,-2.22 -0.03,-4.43 -0.06,-6.65 -0.03,-3.1 -0.04,-6.2 -0.04,-9.3 -0.02,-0.91 -0.03,-1.83 -0.05,-2.78 0.03,-4.56 0.12,-6.35 3.09,-10.01 C -7.94,2.68 -7.11,2.04 -6.25,1.38 -4.53,-0.34 -2.35,0.08 0,0 Z"
         fill="#000000"
         transform="translate(508.25,269.625)"
         id="path18"
         style="fill:#ffffff" /><path
         d="m 0,0 c 4.3,0.02 5.37,0.08 8.88,2.81 0.61,0.85 1.23,1.69 1.87,2.57 0.33,0.32 0.66,0.66 1,1 0.1,3.1 0.13,6.18 0.11,9.29 0,0.97 0,1.95 0,2.95 0,3.25 0,6.49 -0.01,9.73 0,2.24 -0.01,4.48 -0.01,6.72 0,5.91 -0.01,11.82 -0.02,17.73 -0.01,6.03 -0.02,12.05 -0.02,18.08 -0.01,11.83 -0.03,23.66 -0.05,35.5 -7.59,0 -15.18,0 -23,0 -0.11,-12.96 -0.2,-25.91 -0.26,-38.86 -0.03,-6.02 -0.06,-12.03 -0.12,-18.04 -0.05,-5.81 -0.08,-11.61 -0.09,-17.41 -0.01,-2.22 -0.03,-4.43 -0.06,-6.65 -0.03,-3.1 -0.04,-6.2 -0.04,-9.3 -0.02,-0.91 -0.03,-1.83 -0.05,-2.78 0.03,-4.56 0.12,-6.35 3.09,-10.01 C -7.94,2.68 -7.11,2.04 -6.25,1.38 -4.53,-0.34 -2.35,0.08 0,0 Z"
         fill="#000000"
         transform="translate(448.25,269.625)"
         id="path19"
         style="fill:#ffffff" /><path
         d="m 0,0 c 4.3,0.02 5.37,0.08 8.88,2.81 0.61,0.85 1.23,1.69 1.87,2.57 0.33,0.32 0.66,0.66 1,1 0.1,3.1 0.13,6.18 0.11,9.29 0,0.97 0,1.95 0,2.95 0,3.25 0,6.49 -0.01,9.73 0,2.24 -0.01,4.48 -0.01,6.72 0,5.91 -0.01,11.82 -0.02,17.73 -0.01,6.03 -0.02,12.05 -0.02,18.08 -0.01,11.83 -0.03,23.66 -0.05,35.5 -7.59,0 -15.18,0 -23,0 -0.11,-12.96 -0.2,-25.91 -0.26,-38.86 -0.03,-6.02 -0.06,-12.03 -0.12,-18.04 -0.05,-5.81 -0.08,-11.61 -0.09,-17.41 -0.01,-2.22 -0.03,-4.43 -0.06,-6.65 -0.03,-3.1 -0.04,-6.2 -0.04,-9.3 -0.02,-0.91 -0.03,-1.83 -0.05,-2.78 0.03,-4.56 0.12,-6.35 3.09,-10.01 C -7.94,2.68 -7.11,2.04 -6.25,1.38 -4.53,-0.34 -2.35,0.08 0,0 Z"
         fill="#000000"
         transform="translate(386.25,269.625)"
         id="path20"
         style="fill:#ffffff" /><path
         d="m 0,0 c 4.3,0.02 5.37,0.08 8.88,2.81 0.61,0.85 1.23,1.69 1.87,2.57 0.33,0.32 0.66,0.66 1,1 0.1,3.1 0.13,6.18 0.11,9.29 0,0.97 0,1.95 0,2.95 0,3.25 0,6.49 -0.01,9.73 0,2.24 -0.01,4.48 -0.01,6.72 0,5.91 -0.01,11.82 -0.02,17.73 -0.01,6.03 -0.02,12.05 -0.02,18.08 -0.01,11.83 -0.03,23.66 -0.05,35.5 -7.59,0 -15.18,0 -23,0 -0.11,-12.96 -0.2,-25.91 -0.26,-38.86 -0.03,-6.02 -0.06,-12.03 -0.12,-18.04 -0.05,-5.81 -0.08,-11.61 -0.09,-17.41 -0.01,-2.22 -0.03,-4.43 -0.06,-6.65 -0.03,-3.1 -0.04,-6.2 -0.04,-9.3 -0.02,-0.91 -0.03,-1.83 -0.05,-2.78 0.03,-4.56 0.12,-6.35 3.09,-10.01 C -7.94,2.68 -7.11,2.04 -6.25,1.38 -4.53,-0.34 -2.35,0.08 0,0 Z"
         fill="#000000"
         transform="translate(257.25,269.625)"
         id="path21"
         style="fill:#ffffff" /><path
         d="m 0,0 c 4.3,0.02 5.37,0.08 8.88,2.81 0.61,0.85 1.23,1.69 1.87,2.57 0.33,0.32 0.66,0.66 1,1 0.1,3.1 0.13,6.18 0.11,9.29 0,0.97 0,1.95 0,2.95 0,3.25 0,6.49 -0.01,9.73 0,2.24 -0.01,4.48 -0.01,6.72 0,5.91 -0.01,11.82 -0.02,17.73 -0.01,6.03 -0.02,12.05 -0.02,18.08 -0.01,11.83 -0.03,23.66 -0.05,35.5 -7.59,0 -15.18,0 -23,0 -0.11,-12.96 -0.2,-25.91 -0.26,-38.86 -0.03,-6.02 -0.06,-12.03 -0.12,-18.04 -0.05,-5.81 -0.08,-11.61 -0.09,-17.41 -0.01,-2.22 -0.03,-4.43 -0.06,-6.65 -0.03,-3.1 -0.04,-6.2 -0.04,-9.3 -0.02,-0.91 -0.03,-1.83 -0.05,-2.78 0.03,-4.56 0.12,-6.35 3.09,-10.01 C -7.94,2.68 -7.11,2.04 -6.25,1.38 -4.53,-0.34 -2.35,0.08 0,0 Z"
         fill="#000000"
         transform="translate(197.25,269.625)"
         id="path22"
         style="fill:#ffffff" /><path
         d="m 0,0 c 7.59,0 15.18,0 23,0 0,31.68 0,63.36 0,96 C 15.41,96 7.82,96 0,96 0,64.32 0,32.64 0,0 Z"
         fill="#000000"
         transform="translate(689,486)"
         id="path23"
         style="fill:#ffffff" /><path
         d="m 0,0 c 7.59,0 15.18,0 23,0 0,31.68 0,63.36 0,96 C 15.41,96 7.82,96 0,96 0,64.32 0,32.64 0,0 Z"
         fill="#000000"
         transform="translate(629,486)"
         id="path24"
         style="fill:#ffffff" /><path
         d="m 0,0 c 7.59,0 15.18,0 23,0 0,31.68 0,63.36 0,96 C 15.41,96 7.82,96 0,96 0,64.32 0,32.64 0,0 Z"
         fill="#000000"
         transform="translate(246,486)"
         id="path25"
         style="fill:#ffffff" /><path
         d="m 0,0 c 7.59,0 15.18,0 23,0 0,31.68 0,63.36 0,96 C 15.41,96 7.82,96 0,96 0,64.32 0,32.64 0,0 Z"
         fill="#000000"
         transform="translate(186,486)"
         id="path26"
         style="fill:#ffffff" /><path
         d="m 0,0 c 4.32,3.19 7.91,6.8 9.62,11.94 0.64,7.71 0.91,13.8 -4,20 -4.61,4.6 -8.31,6.15 -14.81,6.25 -7.48,-0.07 -11.56,-2.45 -17.19,-7.25 -0.92,0.66 -1.85,1.32 -2.81,2 -4.9,2.78 -9.7,2.78 -15.19,2 -4.2,-1.31 -6.65,-3.58 -9.43,-7 -2.75,-5.53 -2.67,-12.36 -0.9,-18.19 1.84,-3.7 4.51,-6.31 8.21,-8.15 4.92,-1.53 10.51,-1.87 15.25,0.31 0.9,0.57 0.9,0.57 1.81,1.15 1.01,0.62 2.02,1.24 3.06,1.88 2.27,-0.43 2.27,-0.43 4,-2 C -15.75,-2.08 -7.92,-2.49 0,0 Z m -19.38,9.94 c -2.97,4.46 -2.75,8.77 -2,14 1.66,3.17 3.76,5.37 7,7 4.86,0.52 8.75,0.75 13,-1.82 4.15,-4.53 4.49,-7.5 4.4,-13.44 -0.61,-4.26 -2.25,-5.9 -5.4,-8.74 -5.82,-2.91 -12.69,-1.72 -17,3 z m -26.5,-0.13 c -2.79,3.97 -2.87,7.38 -2.5,12.13 1.18,3.42 1.88,3.91 5,6 3.05,0.48 5.96,0.46 9,0 2.51,-1.88 3.62,-3.24 5,-6 0.47,-6.35 0.47,-6.35 -2,-12 -4.6,-3.07 -9.95,-3.54 -14.5,-0.13 z"
         fill="#000000"
         transform="translate(55.375,573.0625)"
         id="path27"
         style="fill:#ffffff" /><path
         d="m 0,0 c 12.33,0.51 24.3,2.47 33.82,11.02 4.56,5.46 7.53,11.01 8.38,18.12 -0.47,3.56 -1.64,4.66 -4.38,6.88 -2.4,-0.64 -2.4,-0.64 -5,-2 -1,-2.64 -1,-2.64 -1.56,-5.81 -1.35,-6.32 -1.35,-6.32 -5.44,-11.19 -4.48,-2.81 -8.68,-4.47 -14,-5 0.5,1.48 0.5,1.48 1,3 0.95,12.65 0.95,12.65 -3,18 -5.02,5.02 -8.56,7.14 -15.81,7.25 -5.82,-0.08 -9.59,-0.66 -13.84,-4.9 -5.07,-5.65 -5.65,-9.88 -5.55,-17.41 0.38,-5.37 2.51,-8.49 6.2,-12.19 3.89,-3.2 7.84,-3.8 12.75,-4.43 C -3.25,0.89 -3.57,0.02 0,0 Z m -17.18,14.02 c -1.86,3.72 -1.57,7.94 -1,12 1.68,3.13 3.79,5.39 7,7 4.1,0.51 8.24,0.94 11.96,-1.05 2.9,-2.4 4.84,-4.35 5.32,-8.12 0.25,-6.12 0.25,-6.12 -2.53,-11.39 -3,-2.79 -3,-2.79 -6.75,-3.44 -1.91,-0.19 -1.91,-0.19 -3.87,-0.38 -4.82,0.04 -6.83,2.01 -10.13,5.38 z"
         fill="#000000"
         transform="translate(25.175781,374.98047)"
         id="path28"
         style="fill:#ffffff" /><path
         d="m 0,0 c 4.32,3.19 7.91,6.8 9.62,11.94 0.64,7.71 0.91,13.8 -4,20 -5.12,5 -5.12,5 -7,5 -0.08,-1.42 -0.13,-2.84 -0.18,-4.25 -0.04,-0.79 -0.07,-1.58 -0.11,-2.39 0.29,-2.36 0.29,-2.36 1.78,-4.32 2.82,-3.8 2.14,-8.53 1.51,-13.04 -1.8,-3 -2.9,-4.45 -6,-6 -5.1,-0.64 -8.78,-0.91 -13,2.25 -1.61,2.22 -2.96,4.21 -4,6.75 -2.64,0 -5.28,0 -8,0 -0.26,-0.97 -0.53,-1.94 -0.81,-2.94 -0.39,-1.01 -0.78,-2.02 -1.19,-3.06 -2.81,-0.94 -4.58,-1.14 -7.5,-1.13 -0.77,0 -1.54,0 -2.34,-0.01 -2.34,0.06 -2.34,0.06 -5.16,1.14 -1.89,4.3 -1.17,9.79 -0.81,14.37 0.76,1.92 0.76,1.92 3.38,2.88 0.8,0.25 1.61,0.49 2.43,0.75 0,2.31 0,4.62 0,7 -4.87,-0.46 -7.52,-1.52 -11,-5 -3.94,-5.44 -3.76,-11.55 -3,-18 1.29,-4.28 3.57,-6.66 7.07,-9.44 4.74,-2.35 9.78,-2.37 14.93,-1.56 2.13,0.97 2.13,0.97 3.94,2.12 1.01,0.62 2.02,1.24 3.06,1.88 2.27,-0.43 2.27,-0.43 4,-2 C -15.75,-2.08 -7.92,-2.49 0,0 Z"
         fill="#000000"
         transform="translate(55.375,483.0625)"
         id="path29"
         style="fill:#ffffff" /><path
         d="m 0,0 c 1.05,-0.01 2.1,-0.02 3.19,-0.03 1.13,0.01 2.26,0.01 3.43,0.02 1.75,0 1.75,0 3.53,-0.01 2.47,0 4.93,0 7.4,0.02 3.78,0.01 7.56,0 11.33,-0.02 2.4,0 4.79,0 7.18,0.01 1.13,-0.01 2.27,-0.01 3.44,-0.02 1.57,0.02 1.57,0.02 3.18,0.03 0.93,0 1.86,0 2.81,0.01 2.35,0.38 2.35,0.38 4.15,1.68 2.01,2.84 1.56,5.35 1.2,8.7 -1.2,1.69 -1.2,1.69 -3,3 -2.35,0.38 -2.35,0.38 -5.16,0.39 -1.05,0.01 -2.1,0.02 -3.18,0.03 -1.14,-0.01 -2.27,-0.02 -3.44,-0.02 -1.16,0 -2.33,0 -3.53,0.01 -2.46,0 -4.93,-0.01 -7.39,-0.02 -3.78,-0.02 -7.56,0 -11.34,0.02 -2.39,0 -4.79,-0.01 -7.18,-0.01 -1.13,0 -2.27,0.01 -3.43,0.02 C 1.61,13.79 1.61,13.79 0,13.78 -0.93,13.77 -1.85,13.77 -2.81,13.77 -5.16,13.39 -5.16,13.39 -6.96,12.08 -8.97,9.25 -8.52,6.73 -8.16,3.39 -5.85,0.13 -3.86,0.01 0,0 Z"
         fill="#000000"
         transform="translate(649.1582,612.61182)"
         id="path30"
         style="fill:#ffffff" /><path
         d="m 0,0 c 1.05,-0.01 2.1,-0.02 3.19,-0.03 1.13,0.01 2.26,0.01 3.43,0.02 1.75,0 1.75,0 3.53,-0.01 2.47,0 4.93,0 7.4,0.02 3.78,0.01 7.56,0 11.33,-0.02 2.4,0 4.79,0 7.18,0.01 1.13,-0.01 2.27,-0.01 3.44,-0.02 1.57,0.02 1.57,0.02 3.18,0.03 0.93,0 1.86,0 2.81,0.01 2.35,0.38 2.35,0.38 4.15,1.68 2.01,2.84 1.56,5.35 1.2,8.7 -1.2,1.69 -1.2,1.69 -3,3 -2.35,0.38 -2.35,0.38 -5.16,0.39 -1.05,0.01 -2.1,0.02 -3.18,0.03 -1.14,-0.01 -2.27,-0.02 -3.44,-0.02 -1.16,0 -2.33,0 -3.53,0.01 -2.46,0 -4.93,-0.01 -7.39,-0.02 -3.78,-0.02 -7.56,0 -11.34,0.02 -2.39,0 -4.79,-0.01 -7.18,-0.01 -1.13,0 -2.27,0.01 -3.43,0.02 C 1.61,13.79 1.61,13.79 0,13.78 -0.93,13.77 -1.85,13.77 -2.81,13.77 -5.16,13.39 -5.16,13.39 -6.96,12.08 -8.97,9.25 -8.52,6.73 -8.16,3.39 -5.85,0.13 -3.86,0.01 0,0 Z"
         fill="#000000"
         transform="translate(206.1582,612.61182)"
         id="path31"
         style="fill:#ffffff" /><path
         d="m 0,0 c 21.45,0 42.9,0 65,0 0,1.98 0,3.96 0,6 C 45.53,6 26.06,6 6,6 6,9.3 6,12.6 6,16 4.02,16 2.04,16 0,16 0,10.72 0,5.44 0,0 Z"
         fill="#000000"
         transform="translate(0,676)"
         id="path32"
         style="fill:#ffffff" /></g></g></svg>
