<?xml version="1.0" encoding="UTF-8" standalone="no"?>
<!-- Created with Inkscape (http://www.inkscape.org/) -->

<svg
   width="800"
   height="800"
   viewBox="0 0 211.66667 211.66667"
   version="1.1"
   id="svg1"
   xml:space="preserve"
   inkscape:version="1.3.2 (091e20e, 2023-11-25, custom)"
   sodipodi:docname="buildbox.svg"
   xmlns:inkscape="http://www.inkscape.org/namespaces/inkscape"
   xmlns:sodipodi="http://sodipodi.sourceforge.net/DTD/sodipodi-0.dtd"
   xmlns="http://www.w3.org/2000/svg"
   xmlns:svg="http://www.w3.org/2000/svg"><sodipodi:namedview
     id="namedview1"
     pagecolor="#000000"
     bordercolor="#000000"
     borderopacity="0.25"
     inkscape:showpageshadow="2"
     inkscape:pageopacity="0.0"
     inkscape:pagecheckerboard="0"
     inkscape:deskcolor="#d1d1d1"
     inkscape:document-units="mm"
     inkscape:export-bgcolor="#00000000"
     inkscape:zoom="0.36213173"
     inkscape:cx="832.56995"
     inkscape:cy="457.01601"
     inkscape:window-width="1920"
     inkscape:window-height="991"
     inkscape:window-x="-9"
     inkscape:window-y="-9"
     inkscape:window-maximized="1"
     inkscape:current-layer="layer1" /><defs
     id="defs1"><clipPath
       clipPathUnits="userSpaceOnUse"
       id="clipPath3011"><path
         inkscape:connector-curvature="0"
         d="M -2.2e-8,1.2207e-4 H 720 V 540.00012 H -2.2e-8 Z"
         clip-rule="evenodd"
         id="path3013" /></clipPath><clipPath
       clipPathUnits="userSpaceOnUse"
       id="clipPath3021"><path
         inkscape:connector-curvature="0"
         d="M 0,0 H 843.56 V 87.998 H 0 Z"
         id="path3023" /></clipPath><clipPath
       clipPathUnits="userSpaceOnUse"
       id="clipPath3945"><path
         inkscape:connector-curvature="0"
         d="M 0,1.2207e-4 H 720 V 540.00012 H 0 Z"
         clip-rule="evenodd"
         id="path3947" /></clipPath></defs><g
     inkscape:label="Camada 1"
     inkscape:groupmode="layer"
     id="layer1"
     transform="translate(-67.583023,162.56458)"><g
       id="svg-buildbox"
       transform="matrix(0.88761419,0,0,0.88761419,91.445186,-81.584444)">
	<polygon
   style="fill:#ffffff"
   points="10.9,20 0,14.5 0,27.5 10.9,33.1 "
   id="polygon1">
	
		<animate
   accumulate="none"
   additive="replace"
   attributeName="opacity"
   begin="0.1s;animation2.end+5s"
   calcMode="linear"
   dur="0.10s"
   fill="remove"
   from="1"
   id="animation1"
   keySplines="0.25 0.1 0.25 1"
   restart="always"
   to="0.2">
		</animate>
	
		<animate
   accumulate="none"
   additive="replace"
   attributeName="opacity"
   begin="animation1.end"
   calcMode="linear"
   dur="0.50s"
   fill="remove"
   from="0.2"
   id="animation2"
   keySplines="0.25 0.1 0.25 1"
   restart="always"
   to="1">
		</animate>
	</polygon>
	<polygon
   style="fill:#ffffff"
   points="10.9,36 0,30.4 0,43.4 10.9,49 "
   id="polygon2">
	
		<animate
   accumulate="none"
   additive="replace"
   attributeName="opacity"
   begin="0s;animation4.end+5s"
   calcMode="linear"
   dur="0.10s"
   fill="remove"
   from="1"
   id="animation3"
   keySplines="0.25 0.1 0.25 1"
   restart="always"
   to="0.2">
		</animate>
	
		<animate
   accumulate="none"
   additive="replace"
   attributeName="opacity"
   begin="animation3.end"
   calcMode="linear"
   dur="0.50s"
   fill="remove"
   from="0.2"
   id="animation4"
   keySplines="0.25 0.1 0.25 1"
   restart="always"
   to="1">
		</animate>
	</polygon>
	<polygon
   style="fill:#ffffff"
   points="24.4,43 13.5,37.4 13.5,50.4 24.4,56 "
   id="polygon3">
	
		<animate
   accumulate="none"
   additive="replace"
   attributeName="opacity"
   begin="0.1s;animation6.end+5s"
   calcMode="linear"
   dur="0.10s"
   fill="remove"
   from="1"
   id="animation5"
   keySplines="0.25 0.1 0.25 1"
   restart="always"
   to="0.2">
		</animate>
	
		<animate
   accumulate="none"
   additive="replace"
   attributeName="opacity"
   begin="animation5.end"
   calcMode="linear"
   dur="0.50s"
   fill="remove"
   from="0.2"
   id="animation6"
   keySplines="0.25 0.1 0.25 1"
   restart="always"
   to="1">
		</animate>
	</polygon>
	<polygon
   style="fill:#ffffff"
   points="37.9,37.4 27,43 27,56 37.9,50.4 "
   id="polygon4">
	
		<animate
   accumulate="none"
   additive="replace"
   attributeName="opacity"
   begin="0.2s;animation8.end+5s"
   calcMode="linear"
   dur="0.10s"
   fill="remove"
   from="1"
   id="animation7"
   keySplines="0.25 0.1 0.25 1"
   restart="always"
   to="0.2">
		</animate>
	
		<animate
   accumulate="none"
   additive="replace"
   attributeName="opacity"
   begin="animation7.end"
   calcMode="linear"
   dur="0.50s"
   fill="remove"
   from="0.2"
   id="animation8"
   keySplines="0.25 0.1 0.25 1"
   restart="always"
   to="1">
		</animate>
	</polygon>
	<polygon
   style="fill:#ffffff"
   points="51.5,30.5 40.6,36.1 40.6,48.9 51.5,43.4 "
   id="polygon5">
	
		<animate
   accumulate="none"
   additive="replace"
   attributeName="opacity"
   begin="0.5s;animation10.end+5s"
   calcMode="linear"
   dur="0.10s"
   fill="remove"
   from="1"
   id="animation9"
   keySplines="0.25 0.1 0.25 1"
   restart="always"
   to="0.2">
		</animate>
	
		<animate
   accumulate="none"
   additive="replace"
   attributeName="opacity"
   begin="animation9.end"
   calcMode="linear"
   dur="0.50s"
   fill="remove"
   from="0.2"
   id="animation10"
   keySplines="0.25 0.1 0.25 1"
   restart="always"
   to="1">
		</animate>
	</polygon>
	<polygon
   style="fill:#ffffff"
   points="40.6,20.2 40.6,33.2 51.5,27.7 51.5,14.6 50,15.3 "
   id="polygon6">
	
		<animate
   accumulate="none"
   additive="replace"
   attributeName="opacity"
   begin="0.6s;animation12.end+5s"
   calcMode="linear"
   dur="0.10s"
   fill="remove"
   from="1"
   id="animation11"
   keySplines="0.25 0.1 0.25 1"
   restart="always"
   to="0.2">
		</animate>
	
		<animate
   accumulate="none"
   additive="replace"
   attributeName="opacity"
   begin="animation11.end"
   calcMode="linear"
   dur="0.50s"
   fill="remove"
   from="0.2"
   id="animation12"
   keySplines="0.25 0.1 0.25 1"
   restart="always"
   to="1">
		</animate>
	</polygon>
	<polygon
   style="fill:#ffffff"
   points="25.7,40.7 36.2,35.3 25.7,29.8 15.3,35.3 "
   id="polygon7">
	
		<animate
   accumulate="none"
   additive="replace"
   attributeName="opacity"
   begin="0.3s;animation14.end+5s"
   calcMode="linear"
   dur="0.10s"
   fill="remove"
   from="1"
   id="animation13"
   keySplines="0.25 0.1 0.25 1"
   restart="always"
   to="0.2">
		</animate>
	
		<animate
   accumulate="none"
   additive="replace"
   attributeName="opacity"
   begin="animation13.end"
   calcMode="linear"
   dur="0.50s"
   fill="remove"
   from="0.2"
   id="animation14"
   keySplines="0.25 0.1 0.25 1"
   restart="always"
   to="1">
		</animate>
	</polygon>
	<polygon
   style="fill:#ffffff"
   points="24.4,14.5 13.5,20 13.5,33 24.4,27.3 "
   id="polygon8">
	
		<animate
   accumulate="none"
   additive="replace"
   attributeName="opacity"
   begin="0.3s;animation16.end+5s"
   calcMode="linear"
   dur="0.10s"
   fill="remove"
   from="1"
   id="animation15"
   keySplines="0.25 0.1 0.25 1"
   restart="always"
   to="0.2">
		</animate>
	
		<animate
   accumulate="none"
   additive="replace"
   attributeName="opacity"
   begin="animation15.end"
   calcMode="linear"
   dur="0.50s"
   fill="remove"
   from="0.2"
   id="animation16"
   keySplines="0.25 0.1 0.25 1"
   restart="always"
   to="1">
		</animate>
	</polygon>
	<polygon
   style="fill:#ffffff"
   points="37.9,20.2 27,14.6 27,27.5 37.9,33.2 "
   id="polygon9">
	
		<animate
   accumulate="none"
   additive="replace"
   attributeName="opacity"
   begin="0.4s;animation18.end+5s"
   calcMode="linear"
   dur="0.10s"
   fill="remove"
   from="1"
   id="animation17"
   keySplines="0.25 0.1 0.25 1"
   restart="always"
   to="0.2">
		</animate>
	
		<animate
   accumulate="none"
   additive="replace"
   attributeName="opacity"
   begin="animation17.end"
   calcMode="linear"
   dur="0.50s"
   fill="remove"
   from="0.2"
   id="animation18"
   keySplines="0.25 0.1 0.25 1"
   restart="always"
   to="1">
		</animate>
	</polygon>
	<polygon
   style="fill:#ffffff"
   points="39.2,17.8 49.7,12.4 39.2,7 28.8,12.5 "
   id="polygon10">
	
		<animate
   accumulate="none"
   additive="replace"
   attributeName="opacity"
   begin="0.6s;animation20.end+5s"
   calcMode="linear"
   dur="0.10s"
   fill="remove"
   from="1"
   id="animation19"
   keySplines="0.25 0.1 0.25 1"
   restart="always"
   to="0.2">
		</animate>
	
		<animate
   accumulate="none"
   additive="replace"
   attributeName="opacity"
   begin="animation19.end"
   calcMode="linear"
   dur="0.50s"
   fill="remove"
   from="0.2"
   id="animation20"
   keySplines="0.25 0.1 0.25 1"
   restart="always"
   to="1">
		</animate>
	</polygon>
	<polygon
   style="fill:#ffffff"
   points="32.2,7.5 36.1,5.5 25.7,0 15.4,5.4 25.7,10.8 "
   id="polygon11">
	
		<animate
   accumulate="none"
   additive="replace"
   attributeName="opacity"
   begin="0.5s;animation22.end+5s"
   calcMode="linear"
   dur="0.10s"
   fill="remove"
   from="1"
   id="animation21"
   keySplines="0.25 0.1 0.25 1"
   restart="always"
   to="0.2">
		</animate>
	
		<animate
   accumulate="none"
   additive="replace"
   attributeName="opacity"
   begin="animation21.end"
   calcMode="linear"
   dur="0.50s"
   fill="remove"
   from="0.2"
   id="animation22"
   keySplines="0.25 0.1 0.25 1"
   restart="always"
   to="1">
		</animate>
	</polygon>
	<polygon
   style="fill:#ffffff"
   points="12.2,17.7 22.6,12.4 12.2,6.9 1.7,12.4 "
   id="polygon12">
	
		<animate
   accumulate="none"
   additive="replace"
   attributeName="opacity"
   begin="0.2s;animation24.end+5s"
   calcMode="linear"
   dur="0.10s"
   fill="remove"
   from="1"
   id="animation23"
   keySplines="0.25 0.1 0.25 1"
   restart="always"
   to="0.2">
		</animate>
	
		<animate
   accumulate="none"
   additive="replace"
   attributeName="opacity"
   begin="animation23.end"
   calcMode="linear"
   dur="0.50s"
   fill="remove"
   from="0.2"
   id="animation24"
   keySplines="0.25 0.1 0.25 1"
   restart="always"
   to="1">
		</animate>
	</polygon>
	<g
   id="g17">
		<path
   style="fill:#ffffff"
   d="m 74.935,22.593 c -2.341,0 -4.214,1.088 -5.166,2.961 h -0.091 v -9.078 h -3.761 v 22.807 h 3.67 v -2.809 h 0.091 c 0.967,1.903 2.824,2.99 5.241,2.99 4.184,0 6.842,-3.262 6.842,-8.428 0.001,-5.18 -2.673,-8.443 -6.826,-8.443 z m -1.133,13.744 c -2.477,0 -4.138,-2.114 -4.138,-5.301 0,-3.172 1.661,-5.317 4.138,-5.317 2.477,0 4.108,2.084 4.108,5.317 0,3.232 -1.615,5.301 -4.108,5.301 z"
   id="path12" />
		<path
   style="fill:#ffffff"
   d="m 95.034,32.244 c 0,2.447 -1.405,4.063 -3.701,4.063 -2.22,0 -3.383,-1.299 -3.383,-3.7 v -9.833 h -3.761 v 10.588 c 0,3.806 2.251,6.132 5.845,6.132 2.507,0 4.153,-1.087 5.06,-3.096 h 0.091 v 2.885 h 3.61 V 22.774 h -3.761 z"
   id="path13" />
		<rect
   x="102.098"
   y="22.774"
   style="fill:#ffffff"
   width="3.7609999"
   height="16.507999"
   id="rect13" />
		<path
   style="fill:#ffffff"
   d="m 103.971,16.536 c -1.163,0 -2.114,0.891 -2.114,2.07 0,1.163 0.951,2.069 2.114,2.069 1.178,0 2.114,-0.906 2.114,-2.069 0,-1.179 -0.936,-2.07 -2.114,-2.07 z"
   id="path14" />
		<rect
   x="109.286"
   y="16.476"
   style="fill:#ffffff"
   width="3.7609999"
   height="22.806999"
   id="rect14" />
		<path
   style="fill:#ffffff"
   d="m 127.771,25.553 h -0.091 c -0.891,-1.828 -2.749,-2.961 -5.135,-2.961 -4.093,0 -6.857,3.307 -6.857,8.428 0,5.135 2.749,8.443 6.872,8.443 2.417,0 4.319,-1.148 5.21,-2.99 h 0.076 v 2.809 h 3.685 V 16.476 h -3.761 v 9.077 z m -4.108,10.784 c -2.492,0 -4.123,-2.054 -4.123,-5.301 0,-3.232 1.631,-5.317 4.123,-5.317 2.477,0 4.123,2.13 4.123,5.317 0,3.202 -1.631,5.301 -4.123,5.301 z"
   id="path15" />
		<path
   style="fill:#ffffff"
   d="m 143.958,22.593 c -2.341,0 -4.214,1.088 -5.166,2.961 h -0.091 v -9.078 h -3.761 v 22.807 h 3.67 v -2.809 h 0.091 c 0.967,1.903 2.825,2.99 5.241,2.99 4.183,0 6.842,-3.262 6.842,-8.428 0.001,-5.18 -2.673,-8.443 -6.826,-8.443 z m -1.133,13.744 c -2.477,0 -4.138,-2.114 -4.138,-5.301 0,-3.172 1.662,-5.317 4.138,-5.317 2.477,0 4.108,2.084 4.108,5.317 0,3.232 -1.615,5.301 -4.108,5.301 z"
   id="path16" />
		<path
   style="fill:#ffffff"
   d="m 160.538,22.548 c -4.833,0 -7.944,3.263 -7.944,8.473 0,5.271 3.082,8.504 7.944,8.504 4.894,0 7.959,-3.232 7.959,-8.504 10e-4,-5.226 -3.096,-8.473 -7.959,-8.473 z m 0,13.97 c -2.568,0 -4.123,-2.023 -4.123,-5.482 0,-3.444 1.556,-5.482 4.123,-5.482 2.583,0 4.138,2.023 4.138,5.482 0,3.459 -1.54,5.482 -4.138,5.482 z"
   id="path17" />
		<polygon
   style="fill:#ffffff"
   points="177.043,33.317 180.517,39.283 184.64,39.283 179.369,30.945 184.7,22.774 180.577,22.774 177.224,28.619 177.148,28.619 173.75,22.774 169.521,22.774 174.838,31.051 169.46,39.283 173.494,39.283 176.952,33.317 "
   id="polygon17" />
	</g>
</g></g></svg>
