<?xml version="1.0" encoding="UTF-8" standalone="no"?>
<!-- Created with Inkscape (http://www.inkscape.org/) -->

<svg
   width="800"
   height="800"
   viewBox="0 0 211.66667 211.66667"
   version="1.1"
   id="svg1"
   xml:space="preserve"
   inkscape:version="1.3.2 (091e20e, 2023-11-25, custom)"
   sodipodi:docname="buildbox.svg"
   xmlns:inkscape="http://www.inkscape.org/namespaces/inkscape"
   xmlns:sodipodi="http://sodipodi.sourceforge.net/DTD/sodipodi-0.dtd"
   xmlns="http://www.w3.org/2000/svg"
   xmlns:svg="http://www.w3.org/2000/svg"><sodipodi:namedview
     id="namedview1"
     pagecolor="#000000"
     bordercolor="#000000"
     borderopacity="0.25"
     inkscape:showpageshadow="2"
     inkscape:pageopacity="0.0"
     inkscape:pagecheckerboard="0"
     inkscape:deskcolor="#d1d1d1"
     inkscape:document-units="mm"
     inkscape:export-bgcolor="#00000000"
     inkscape:zoom="0.5121316"
     inkscape:cx="488.15578"
     inkscape:cy="207.95436"
     inkscape:window-width="1920"
     inkscape:window-height="1009"
     inkscape:window-x="-8"
     inkscape:window-y="-8"
     inkscape:window-maximized="1"
     inkscape:current-layer="layer1"
     showguides="true" /><defs
     id="defs1"><inkscape:path-effect
   effect="fillet_chamfer"
   id="path-effect85"
   is_visible="true"
   lpeversion="1"
   nodesatellites_param="F,0,0,1,0,0,0,1 @ F,0,0,1,0,0,0,1 @ F,0,0,1,0,0,0,1 @ F,0,0,1,0,0,0,1 @ F,0,0,1,0,0,0,1 @ F,0,0,1,0,0,0,1 @ F,0,0,1,0,0,0,1"
   radius="0"
   unit="px"
   method="auto"
   mode="F"
   chamfer_steps="1"
   flexible="false"
   use_knot_distance="true"
   apply_no_radius="true"
   apply_with_radius="true"
   only_selected="false"
   hide_knots="false" />
	
	
	
	
	
	
	
	
	
	
	
	
	
</defs><g
     inkscape:label="Camada 1"
     inkscape:groupmode="layer"
     id="layer1"
     transform="translate(-67.583023,162.56458)"><g
       id="g136"
       transform="matrix(3.9705738,0,0,3.9705738,-515.1461,-535.00698)"><path
         id="path136"
         style="fill:#ffffff;stroke-width:2.26137;stroke-linecap:round;stroke-linejoin:round;paint-order:stroke fill markers"
         d="m 173.39607,104.84904 -4.11624,2.15843 4.11624,2.15844 2.59791,-1.31927 1.55892,-0.79935 z m -5.39569,2.75796 -4.19664,2.19824 4.19664,2.1186 4.15683,-2.1186 z m 10.79136,0.0399 -4.15604,2.19824 4.15604,2.11862 4.19665,-2.15843 z m -15.66715,2.9976 v 5.19584 l 4.35667,2.23805 v -5.23564 z m 9.75236,0 -4.35667,2.19825 v 5.19584 l 4.35667,-2.27787 z m 1.039,0.0399 v 5.15604 l 4.35667,2.27865 v -5.19585 z m 9.79217,0 -0.59952,0.28025 -3.75715,1.95859 v 5.19585 l 4.35667,-2.19824 z m -10.31205,6.07562 -4.15606,2.19824 4.15606,2.15842 4.19663,-2.15842 z m -10.27148,0.23965 v 5.19584 l 4.35667,2.23805 v -5.19584 z m 20.58353,0.0399 -4.35667,2.23805 v 5.11623 l 4.35667,-2.19824 z m -15.18784,2.75796 v 5.19583 l 4.35667,2.23805 v -5.19584 z m 9.75234,0 -4.35667,2.23804 v 5.19584 l 4.35667,-2.23805 z" /><g
         id="g17"
         transform="matrix(0.26458333,0,0,0.26458333,140.26182,125.60344)"
         style="fill:#ffffff">
		<path
   style="fill:#ffffff"
   d="m 74.935,22.593 c -2.341,0 -4.214,1.088 -5.166,2.961 h -0.091 v -9.078 h -3.761 v 22.807 h 3.67 v -2.809 h 0.091 c 0.967,1.903 2.824,2.99 5.241,2.99 4.184,0 6.842,-3.262 6.842,-8.428 0.001,-5.18 -2.673,-8.443 -6.826,-8.443 z m -1.133,13.744 c -2.477,0 -4.138,-2.114 -4.138,-5.301 0,-3.172 1.661,-5.317 4.138,-5.317 2.477,0 4.108,2.084 4.108,5.317 0,3.232 -1.615,5.301 -4.108,5.301 z"
   id="path12" />
		<path
   style="fill:#ffffff"
   d="m 95.034,32.244 c 0,2.447 -1.405,4.063 -3.701,4.063 -2.22,0 -3.383,-1.299 -3.383,-3.7 v -9.833 h -3.761 v 10.588 c 0,3.806 2.251,6.132 5.845,6.132 2.507,0 4.153,-1.087 5.06,-3.096 h 0.091 v 2.885 h 3.61 V 22.774 h -3.761 z"
   id="path13" />
		<rect
   x="102.098"
   y="22.774"
   style="fill:#ffffff"
   width="3.7609999"
   height="16.507999"
   id="rect13" />
		<path
   style="fill:#ffffff"
   d="m 103.971,16.536 c -1.163,0 -2.114,0.891 -2.114,2.07 0,1.163 0.951,2.069 2.114,2.069 1.178,0 2.114,-0.906 2.114,-2.069 0,-1.179 -0.936,-2.07 -2.114,-2.07 z"
   id="path14" />
		<rect
   x="109.286"
   y="16.476"
   style="fill:#ffffff"
   width="3.7609999"
   height="22.806999"
   id="rect14" />
		<path
   style="fill:#ffffff"
   d="m 127.771,25.553 h -0.091 c -0.891,-1.828 -2.749,-2.961 -5.135,-2.961 -4.093,0 -6.857,3.307 -6.857,8.428 0,5.135 2.749,8.443 6.872,8.443 2.417,0 4.319,-1.148 5.21,-2.99 h 0.076 v 2.809 h 3.685 V 16.476 h -3.761 v 9.077 z m -4.108,10.784 c -2.492,0 -4.123,-2.054 -4.123,-5.301 0,-3.232 1.631,-5.317 4.123,-5.317 2.477,0 4.123,2.13 4.123,5.317 0,3.202 -1.631,5.301 -4.123,5.301 z"
   id="path15" />
		<path
   style="fill:#ffffff"
   d="m 143.958,22.593 c -2.341,0 -4.214,1.088 -5.166,2.961 h -0.091 v -9.078 h -3.761 v 22.807 h 3.67 v -2.809 h 0.091 c 0.967,1.903 2.825,2.99 5.241,2.99 4.183,0 6.842,-3.262 6.842,-8.428 0.001,-5.18 -2.673,-8.443 -6.826,-8.443 z m -1.133,13.744 c -2.477,0 -4.138,-2.114 -4.138,-5.301 0,-3.172 1.662,-5.317 4.138,-5.317 2.477,0 4.108,2.084 4.108,5.317 0,3.232 -1.615,5.301 -4.108,5.301 z"
   id="path16" />
		<path
   style="fill:#ffffff"
   d="m 160.538,22.548 c -4.833,0 -7.944,3.263 -7.944,8.473 0,5.271 3.082,8.504 7.944,8.504 4.894,0 7.959,-3.232 7.959,-8.504 10e-4,-5.226 -3.096,-8.473 -7.959,-8.473 z m 0,13.97 c -2.568,0 -4.123,-2.023 -4.123,-5.482 0,-3.444 1.556,-5.482 4.123,-5.482 2.583,0 4.138,2.023 4.138,5.482 0,3.459 -1.54,5.482 -4.138,5.482 z"
   id="path17" />
		<polygon
   style="fill:#ffffff"
   points="173.75,22.774 169.521,22.774 174.838,31.051 169.46,39.283 173.494,39.283 176.952,33.317 177.043,33.317 180.517,39.283 184.64,39.283 179.369,30.945 184.7,22.774 180.577,22.774 177.224,28.619 177.148,28.619 "
   id="polygon17" />
	</g></g></g></svg>
