<?xml version="1.0" encoding="UTF-8" standalone="no"?>
<!-- Created with Inkscape (http://www.inkscape.org/) -->

<svg
   width="800"
   height="800"
   viewBox="0 0 211.66667 211.66667"
   version="1.1"
   id="svg1"
   xml:space="preserve"
   inkscape:version="1.3.2 (091e20e, 2023-11-25, custom)"
   sodipodi:docname="chubb.svg"
   xmlns:inkscape="http://www.inkscape.org/namespaces/inkscape"
   xmlns:sodipodi="http://sodipodi.sourceforge.net/DTD/sodipodi-0.dtd"
   xmlns="http://www.w3.org/2000/svg"
   xmlns:svg="http://www.w3.org/2000/svg"><sodipodi:namedview
     id="namedview1"
     pagecolor="#000000"
     bordercolor="#000000"
     borderopacity="0.25"
     inkscape:showpageshadow="2"
     inkscape:pageopacity="0.0"
     inkscape:pagecheckerboard="0"
     inkscape:deskcolor="#d1d1d1"
     inkscape:document-units="mm"
     inkscape:export-bgcolor="#00000000"
     inkscape:zoom="0.51213161"
     inkscape:cx="568.21332"
     inkscape:cy="559.42651"
     inkscape:window-width="1920"
     inkscape:window-height="1009"
     inkscape:window-x="-8"
     inkscape:window-y="-8"
     inkscape:window-maximized="1"
     inkscape:current-layer="layer1" /><defs
     id="defs1"><clipPath
       clipPathUnits="userSpaceOnUse"
       id="clipPath3011"><path
         inkscape:connector-curvature="0"
         d="M -2.2e-8,1.2207e-4 H 720 V 540.00012 H -2.2e-8 Z"
         clip-rule="evenodd"
         id="path3013" /></clipPath><clipPath
       clipPathUnits="userSpaceOnUse"
       id="clipPath3021"><path
         inkscape:connector-curvature="0"
         d="M 0,0 H 843.56 V 87.998 H 0 Z"
         id="path3023" /></clipPath><clipPath
       clipPathUnits="userSpaceOnUse"
       id="clipPath3945"><path
         inkscape:connector-curvature="0"
         d="M 0,1.2207e-4 H 720 V 540.00012 H 0 Z"
         clip-rule="evenodd"
         id="path3947" /></clipPath></defs><g
     inkscape:label="Camada 1"
     inkscape:groupmode="layer"
     id="layer1"
     transform="translate(-67.583023,162.56458)"><g
       inkscape:label="Layer 1"
       id="layer1-1"
       transform="matrix(0.63722381,0,0,0.63722381,-16.961521,-356.43763)"><g
         id="g3027"
         style="fill:#000080"
         transform="matrix(0.17851371,0,0,-0.17782554,180.54436,629.0016)"><g
           id="g3029"
           style="fill:#000080" /></g><path
         id="path4091"
         style="fill:#ffffff;fill-opacity:1;fill-rule:nonzero;stroke:none"
         d="m 390.23459,457.3703 v 30.98047 h 35.00781 c 5.52773,0 8.08789,-2.42352 8.08789,-6.5332 v -3.58203 c 0,-1.15907 -0.30815,-1.68622 -1.12695,-2.42383 l -3.68555,-3.16211 3.68555,-3.16016 c 0.8188,-0.73761 1.12695,-1.26443 1.12695,-2.42383 v -3.16211 c 0,-4.10984 -2.56016,-6.5332 -8.08789,-6.5332 z m 5.73047,5.26953 h 31.6289 v 7.48047 h -31.6289 z m 0,12.75 h 31.6289 v 7.69141 h -31.6289 z" /><path
         id="path4085"
         style="fill:#ffffff;fill-opacity:1;fill-rule:nonzero;stroke:none"
         d="m 329.12131,457.3703 v 30.98047 h 34.9043 c 5.63136,0 8.1914,-2.42352 8.1914,-6.5332 v -3.58203 c 0,-1.15907 -0.3062,-1.68622 -1.125,-2.42383 l -3.6875,-3.16211 3.6875,-3.16016 c 0.8188,-0.73761 1.125,-1.26443 1.125,-2.42383 v -3.16211 c 0,-4.10984 -2.56004,-6.5332 -8.1914,-6.5332 z m 5.73242,5.26953 h 31.63281 v 7.48047 h -31.63281 z m 0,12.75 h 31.63281 v 7.69141 h -31.63281 z" /><path
         style="fill:#ffffff;fill-opacity:1;fill-rule:nonzero;stroke:none"
         d="m 303.83592,457.37028 c 0,25.50128 0,25.50128 0,25.50128 -29.89121,0 -29.89121,0 -29.89121,0 0,-25.50128 0,-25.50128 0,-25.50128 -5.73156,0 -5.73156,0 -5.73156,0 0,23.92044 0,23.92044 0,23.92044 0,4.42599 2.66023,7.0604 7.78028,7.0604 25.79723,0 25.79723,0 25.79723,0 5.11661,0 7.77682,-2.63441 7.77682,-7.0604 0,-23.92044 0,-23.92044 0,-23.92044 z"
         id="path4083"
         inkscape:connector-curvature="0" /><path
         style="fill:#ffffff;fill-opacity:1;fill-rule:nonzero;stroke:none"
         d="m 212.62838,470.01564 c 0,-12.64536 0,-12.64536 0,-12.64536 -5.62793,0 -5.62793,0 -5.62793,0 0,30.98084 0,30.98084 0,30.98084 5.62793,0 5.62793,0 5.62793,0 0,-12.85603 0,-12.85603 0,-12.85603 30.40252,0 30.40252,0 30.40252,0 0,12.85603 0,12.85603 0,12.85603 5.63136,0 5.63136,0 5.63136,0 0,-30.98084 0,-30.98084 0,-30.98084 -5.63136,0 -5.63136,0 -5.63136,0 0,12.64536 0,12.64536 0,12.64536 z"
         id="path4081"
         inkscape:connector-curvature="0" /><path
         style="fill:#ffffff;fill-opacity:1;fill-rule:nonzero;stroke:none"
         d="m 190.41726,462.85007 c 0,-5.47979 0,-5.47979 0,-5.47979 -33.37262,0 -33.37262,0 -33.37262,0 -5.11831,0 -7.67744,2.63462 -7.67744,7.06029 0,16.86015 0,16.86015 0,16.86015 0,4.42599 2.55913,7.0604 7.67744,7.0604 33.37262,0 33.37262,0 33.37262,0 0,-5.47956 0,-5.47956 0,-5.47956 -35.3177,0 -35.3177,0 -35.3177,0 0,-20.02149 0,-20.02149 0,-20.02149 z"
         id="path3031"
         inkscape:connector-curvature="0" /><path
         inkscape:connector-curvature="0"
         d="m 446.72534,460.74244 c -1.02259,1.05348 -2.04521,1.4753 -3.48237,1.4753 -1.22986,0 -2.45285,-0.42182 -3.27507,-1.4753 -1.02261,-0.84292 -1.4303,-2.10769 -1.4303,-3.37241 0,-1.4753 0.40769,-2.52952 1.4303,-3.58299 0.82222,-0.84293 2.04521,-1.4753 3.27507,-1.4753 1.43716,0 2.45978,0.63237 3.48237,1.4753 0.81534,1.05347 1.43026,2.10769 1.43026,3.58299 0,1.26472 -0.61492,2.52949 -1.43026,3.37241 z m -6.34979,-6.32303 c -0.81534,0.63235 -1.22299,1.68583 -1.22299,2.95062 0,1.05347 0.40765,2.10767 1.22299,2.95059 0.82222,0.8429 1.84481,1.26473 2.86742,1.26473 1.22987,0 2.2525,-0.42183 3.07472,-1.26473 0.8153,-0.84292 1.02261,-1.89712 1.02261,-2.95059 0,-1.26479 -0.20745,-2.31827 -1.02261,-2.95062 -0.82222,-0.84294 -1.84485,-1.26477 -3.07472,-1.26477 -1.02261,0 -2.0452,0.42183 -2.86742,1.26477 z m 2.86742,0.21041 c 0.61495,0 1.0226,0 1.43716,0.21041 0.61497,0.21121 0.81534,0.6324 0.81534,1.26473 0,0.63239 -0.20049,0.84296 -0.61494,1.05421 -0.2005,0.21042 -0.40769,0.21042 -0.61496,0.42111 0.41456,0 0.61496,0.21119 0.82221,0.42184 0.20748,0.21041 0.20748,0.63235 0.20748,0.84292 0,0.42183 0,0.42183 0,0.42183 0,0.21039 0.20049,0.21039 0.20049,0.42108 0,0.21121 0,0.21121 0,0.21121 0,0.21041 0,0.21041 0,0.21041 -0.81534,0 -0.81534,0 -0.81534,0 0,-0.21041 0,-0.21041 0,-0.21041 0,0 0,0 0,0 -0.20745,-0.21121 -0.20745,-0.21121 -0.20745,-0.21121 0,-0.42108 0,-0.42108 0,-0.42108 0,-0.6324 0,-1.05422 -0.40765,-1.26475 -0.20747,0 -0.61496,-0.21041 -1.02261,-0.21041 -0.82222,0 -0.82222,0 -0.82222,0 0,2.31822 0,2.31822 0,2.31822 -0.81534,0 -0.81534,0 -0.81534,0 0,-5.48011 0,-5.48011 0,-5.48011 h 1.83795 z m 1.0226,0.84297 c -0.2005,-0.21042 -0.61495,-0.21042 -1.22299,-0.21042 -0.82222,0 -0.82222,0 -0.82222,0 0,1.89712 0,1.89712 0,1.89712 1.02261,0 1.02261,0 1.02261,0 0.20746,0 0.61495,0 0.82222,0 0.40765,-0.21121 0.40765,-0.42182 0.40765,-0.84292 0,-0.4218 0,-0.63237 -0.20747,-0.84362 z"
         style="fill:#ffffff;fill-opacity:1;fill-rule:nonzero;stroke:none"
         id="path3033" /></g></g></svg>
