<?xml version="1.0" encoding="UTF-8" standalone="no"?>
<!-- Created with Inkscape (http://www.inkscape.org/) -->

<svg
   width="800"
   height="800"
   viewBox="0 0 211.66667 211.66667"
   version="1.1"
   id="svg1"
   xml:space="preserve"
   inkscape:version="1.3.2 (091e20e, 2023-11-25, custom)"
   sodipodi:docname="dudeli.svg"
   xmlns:inkscape="http://www.inkscape.org/namespaces/inkscape"
   xmlns:sodipodi="http://sodipodi.sourceforge.net/DTD/sodipodi-0.dtd"
   xmlns="http://www.w3.org/2000/svg"
   xmlns:svg="http://www.w3.org/2000/svg"><sodipodi:namedview
     id="namedview1"
     pagecolor="#000000"
     bordercolor="#000000"
     borderopacity="0.25"
     inkscape:showpageshadow="2"
     inkscape:pageopacity="0.0"
     inkscape:pagecheckerboard="0"
     inkscape:deskcolor="#d1d1d1"
     inkscape:document-units="mm"
     inkscape:export-bgcolor="#00000000"
     inkscape:zoom="0.51213161"
     inkscape:cx="568.21332"
     inkscape:cy="559.42651"
     inkscape:window-width="1920"
     inkscape:window-height="1009"
     inkscape:window-x="-8"
     inkscape:window-y="-8"
     inkscape:window-maximized="1"
     inkscape:current-layer="layer1" /><defs
     id="defs1"><clipPath
       clipPathUnits="userSpaceOnUse"
       id="clipPath3011"><path
         inkscape:connector-curvature="0"
         d="M -2.2e-8,1.2207e-4 H 720 V 540.00012 H -2.2e-8 Z"
         clip-rule="evenodd"
         id="path3013" /></clipPath><clipPath
       clipPathUnits="userSpaceOnUse"
       id="clipPath3021"><path
         inkscape:connector-curvature="0"
         d="M 0,0 H 843.56 V 87.998 H 0 Z"
         id="path3023" /></clipPath><clipPath
       clipPathUnits="userSpaceOnUse"
       id="clipPath3945"><path
         inkscape:connector-curvature="0"
         d="M 0,1.2207e-4 H 720 V 540.00012 H 0 Z"
         clip-rule="evenodd"
         id="path3947" /></clipPath></defs><g
     inkscape:label="Camada 1"
     inkscape:groupmode="layer"
     id="layer1"
     transform="translate(-67.583023,162.56458)"><g
       id="g1"
       transform="matrix(0.37065945,0,0,0.37065945,82.347281,-99.906843)"><path
         d="m 0,0 c 1.16,10.42 1.12,20.78 1.06,31.25 0,1.73 -0.01,3.46 -0.01,5.18 C 1.04,40.62 1.02,44.81 1,49 c 0.66,-0.33 1.32,-0.66 2,-1 2.27,-0.1 4.55,-0.13 6.83,-0.13 0.7,0 1.41,0 2.13,0 2.33,-0.01 4.67,-0.01 7,0 1.63,0 3.26,0 4.88,-0.01 3.42,0 6.85,0 10.27,0.01 4.35,0.01 8.71,0 13.06,0 3.37,-0.01 6.74,-0.01 10.11,0 1.6,0 3.2,0 4.81,-0.01 9.02,-0.01 17.92,0.24 26.91,1.14 0.99,7.92 0.99,7.92 2,16 1.32,-1.65 2.64,-3.3 4,-5 9.12,-8.29 20.54,-13.51 33,-13 -0.02,-0.91 -0.02,-0.91 -0.05,-1.83 -0.65,-28.88 -0.65,-28.88 6.69,-37.78 6.07,-6.2 14.16,-8.04 22.61,-8.61 7.28,-0.07 14.51,0.51 21.75,1.22 0.78,8.19 1.19,16.32 1.32,24.55 0.02,1.13 0.04,2.27 0.06,3.44 0.06,3.59 0.12,7.17 0.18,10.76 0.05,2.45 0.09,4.9 0.13,7.35 0.11,5.97 0.21,11.93 0.31,17.9 0.79,-0.79 1.57,-1.57 2.38,-2.38 9.38,-9.37 20.74,-14.95 34.17,-15.69 14.27,0.39 26.69,5.79 37.45,15.07 1.02,1.32 2.02,2.65 3,4 0.01,-1.15 0.03,-2.3 0.04,-3.48 0.06,-4.32 0.14,-8.63 0.22,-12.95 0.04,-1.86 0.06,-3.72 0.09,-5.57 0.36,-28.52 0.36,-28.52 8.65,-37 8.43,-7.4 20.36,-7.56 31,-7 4.01,0.27 8,0.61 12,1 1.16,10.42 1.12,20.78 1.06,31.25 0,1.73 -0.01,3.46 -0.01,5.18 -0.01,4.19 -0.03,8.38 -0.05,12.57 1.5,-0.11 1.5,-0.11 3.03,-0.21 8.75,-0.6 17.45,-0.95 26.22,-0.91 1.07,-0.01 2.13,-0.01 3.23,-0.02 7.22,0.01 14.34,0.45 21.52,1.14 0.75,7.83 1.15,15.58 1.16,23.45 0.01,1.08 0.01,2.15 0.02,3.26 0.01,3.51 0.02,7.03 0.02,10.54 0.01,1.21 0.01,2.42 0.01,3.67 0.02,6.39 0.03,12.78 0.03,19.18 0.01,6.57 0.03,13.15 0.06,19.73 0.02,5.08 0.02,10.17 0.02,15.25 0.01,2.43 0.01,4.85 0.03,7.28 0.01,3.39 0.01,6.79 0.01,10.19 0.01,0.98 0.01,1.97 0.02,2.98 -0.05,9.73 -1.31,20.23 -8.38,27.47 -8.62,7.57 -21.04,7.47 -31.92,7.34 -2.08,-0.03 -4.16,-0.02 -6.24,-0.02 -17.67,-0.03 -33.36,-3.11 -46.84,-15.32 -3.61,-4.25 -6.95,-8.43 -8,-14 -0.66,0 -1.32,0 -2,0 -0.19,0.8 -0.37,1.61 -0.56,2.44 -3.87,9.59 -11.85,17.13 -21.24,21.37 -14.11,5.68 -26.88,6.57 -41.26,1.07 -9.66,-4.34 -16.91,-9.79 -22.6,-18.78 -1.3,-2.2 -1.3,-2.2 -3.34,-4.1 -0.38,0.59 -0.75,1.18 -1.14,1.79 -2.94,4.55 -5.77,8.6 -9.86,12.21 -0.59,0.55 -1.18,1.11 -1.79,1.68 -8.48,7.39 -20.92,11.63 -32.21,11.32 -13.21,-1.03 -25.16,-6.09 -35,-15 -3.61,-4.25 -6.95,-8.43 -8,-14 -0.66,0 -1.32,0 -2,0 -0.19,0.8 -0.37,1.61 -0.56,2.44 -3.87,9.59 -11.85,17.13 -21.24,21.37 -14.11,5.68 -26.88,6.57 -41.26,1.07 -9.66,-4.34 -16.91,-9.79 -22.6,-18.78 -1.3,-2.2 -1.3,-2.2 -3.34,-4.1 -0.38,0.59 -0.75,1.18 -1.14,1.79 -2.94,4.55 -5.77,8.6 -9.86,12.21 -0.88,0.83 -0.88,0.83 -1.79,1.68 -8.48,7.39 -20.92,11.63 -32.21,11.32 -13.97,-1.09 -27.62,-6.73 -37.07,-17.32 -9.97,-13.42 -12.26,-28.12 -12.2,-44.46 0,-1.18 0,-2.35 0,-3.56 0,-2.47 0,-4.94 0.01,-7.4 0.01,-3.75 0,-7.5 -0.01,-11.24 0,-2.41 0,-4.83 0,-7.24 0,-1.1 0,-2.21 -0.01,-3.34 0.1,-16.82 3.82,-31.67 15.28,-44.44 8.04,-7.57 18.8,-12.77 29.95,-13.12 1.01,0.04 2.01,0.08 3.05,0.12 -0.02,-0.6 -0.03,-1.21 -0.05,-1.83 C -51.7,16.29 -51.7,16.29 -44.36,7.39 -33.06,-4.17 -14.59,-1.43 0,0 Z m -34.93,17.49 c -2.76,3.9 -2.2,7.86 -2.17,12.46 0,1.32 0,1.32 0.01,2.68 0,2.83 0.01,5.66 0.03,8.49 0,1.92 0.01,3.84 0.01,5.76 0.01,4.71 0.03,9.41 0.05,14.12 -0.76,-0.16 -1.52,-0.32 -2.3,-0.49 -9.45,-1.8 -19.24,-1.26 -27.7,3.49 -8.89,6.6 -15.58,14.06 -18,25 -0.44,5.06 -0.45,10.11 -0.43,15.18 -0.01,1.47 -0.01,2.93 -0.02,4.4 -0.01,3.06 -0.01,6.12 0,9.18 0.02,3.89 0,7.78 -0.03,11.68 -0.02,3.02 -0.02,6.04 -0.02,9.07 0,1.43 0,2.86 -0.01,4.3 -0.1,13.24 2.57,22.86 11.63,32.75 8.12,7.91 17.33,9.8 28.26,9.73 9.91,-0.79 18.14,-6.24 24.94,-13.22 5.31,-6.54 7.81,-13.66 7.8,-21.98 0,-1.21 0,-2.42 0,-3.66 0,-1.34 0,-2.67 -0.01,-4.01 0,-1.41 0,-2.82 0,-4.23 0,-3.82 0,-7.65 -0.01,-11.47 0,-4 -0.01,-8 -0.01,-11.99 0,-7.57 -0.01,-15.14 -0.02,-22.71 -0.01,-8.61 -0.01,-17.23 -0.02,-25.85 C -12.96,48.45 -12.98,30.72 -13,13 c -2.57,-0.08 -5.15,-0.13 -7.72,-0.18 -0.73,-0.02 -1.45,-0.05 -2.2,-0.07 -5.42,-0.07 -8.35,0.79 -12.01,4.74 z m 179,0 c -2.76,3.9 -2.2,7.86 -2.17,12.46 0,1.32 0,1.32 0.01,2.68 0,2.83 0.01,5.66 0.03,8.49 0,1.92 0.01,3.84 0.01,5.76 0.01,4.71 0.03,9.41 0.05,14.12 -0.76,-0.16 -1.52,-0.32 -2.3,-0.49 -9.45,-1.8 -19.24,-1.26 -27.7,3.49 -8.89,6.6 -15.58,14.06 -18,25 -0.44,5.06 -0.45,10.11 -0.43,15.18 -0.01,1.47 -0.01,2.93 -0.02,4.4 -0.01,3.06 -0.01,6.12 0,9.18 0.02,3.89 0,7.78 -0.03,11.68 -0.02,3.02 -0.02,6.04 -0.02,9.07 0,1.43 0,2.86 -0.01,4.3 -0.1,13.24 2.57,22.86 11.63,32.75 8.12,7.91 17.33,9.8 28.26,9.73 9.91,-0.79 18.14,-6.24 24.94,-13.22 5.31,-6.54 7.81,-13.66 7.8,-21.98 0,-1.21 0,-2.42 0,-3.66 0,-1.34 0,-2.67 -0.01,-4.01 0,-1.41 0,-2.82 0,-4.23 0,-3.82 0,-7.65 -0.01,-11.47 0,-4 -0.01,-8 -0.01,-11.99 0,-7.57 -0.01,-15.14 -0.02,-22.71 -0.01,-8.61 -0.01,-17.23 -0.02,-25.85 C 166.04,48.45 166.02,30.72 166,13 c -2.57,-0.08 -5.15,-0.13 -7.72,-0.18 -0.73,-0.02 -1.45,-0.05 -2.2,-0.07 -5.42,-0.07 -8.35,0.79 -12.01,4.74 z m 131,0 c -2.16,3.05 -2.2,5.11 -2.22,8.81 0,1.12 -0.01,2.25 -0.02,3.41 0,1.23 0,2.47 -0.01,3.75 0,1.3 -0.01,2.6 -0.02,3.94 -0.02,4.33 -0.03,8.65 -0.04,12.98 0,1.48 -0.01,2.97 -0.01,4.46 -0.02,7.01 -0.03,14.02 -0.04,21.02 -0.01,8.07 -0.04,16.15 -0.08,24.22 -0.03,6.25 -0.04,12.49 -0.05,18.74 0,3.73 -0.01,7.46 -0.03,11.18 -0.03,4.17 -0.03,8.34 -0.02,12.5 -0.01,1.23 -0.03,2.45 -0.04,3.71 0.07,11.75 3.67,20.66 11.63,29.35 7.57,7.37 15.62,9.44 25.88,9.44 0,-7.92 0,-15.84 0,-24 -3.3,-0.99 -6.6,-1.98 -10,-3 -2.21,-3.87 -2.25,-7.59 -2.28,-12 -0.01,-1.18 -0.02,-2.35 -0.03,-3.57 0,-1.28 -0.01,-2.55 -0.01,-3.87 -0.01,-1.37 -0.02,-2.74 -0.03,-4.11 -0.03,-3.71 -0.04,-7.42 -0.05,-11.13 -0.02,-3.88 -0.05,-7.76 -0.07,-11.64 C 297.48,104.34 297.44,97 297.41,89.66 297.37,81.3 297.32,72.94 297.27,64.58 297.17,47.39 297.08,30.19 297,13 c -2.57,-0.08 -5.15,-0.13 -7.72,-0.18 -0.73,-0.02 -1.45,-0.05 -2.2,-0.07 -5.42,-0.07 -8.35,0.79 -12.01,4.74 z m -85.7,57.33 c -6.84,8.77 -6.83,18.66 -6.8,29.36 -0.01,1.47 -0.01,2.93 -0.02,4.4 -0.01,3.06 -0.01,6.12 0,9.18 0.02,3.89 0,7.78 -0.03,11.68 -0.02,3.02 -0.02,6.04 -0.02,9.07 0,1.43 0,2.86 -0.01,4.3 -0.1,13.24 2.57,22.86 11.63,32.75 8.12,7.91 17.33,9.8 28.26,9.73 9.91,-0.79 18.14,-6.24 24.94,-13.22 6.12,-7.55 7.68,-14.55 7.68,-24.07 -7.92,0 -15.84,0 -24,0 -0.99,3.3 -1.98,6.6 -3,10 -4.62,2.97 -9.81,1.98 -15,1 -1.49,-0.5 -1.49,-0.5 -3,-1 -2.39,-5.1 -2.43,-10.35 -2.62,-15.88 -0.04,-0.87 -0.08,-1.75 -0.12,-2.66 -0.1,-2.15 -0.18,-4.31 -0.26,-6.46 1.97,0.07 1.97,0.07 3.99,0.14 13.95,0.35 23.85,-0.61 34.85,-9.99 6.36,-6.32 9.37,-13.64 9.54,-22.57 0,-0.77 0,-1.54 0,-2.33 -0.01,-0.8 -0.01,-1.59 -0.01,-2.42 C 255.24,89.55 254.16,84.5 251,79 250.4,77.95 249.8,76.9 249.19,75.81 243.15,68.05 236,61.83 226,60 209.9,58.75 200.09,62.82 189.37,74.82 Z M 4,62 C 3.91,74.08 3.84,86.17 3.79,98.25 c -0.02,5.61 -0.05,11.22 -0.09,16.83 -0.05,5.43 -0.07,10.85 -0.08,16.27 -0.01,2.06 -0.02,4.12 -0.04,6.18 -0.03,2.91 -0.04,5.8 -0.03,8.71 -0.02,0.84 -0.03,1.68 -0.05,2.55 0.07,10.42 4.67,19.18 11.62,26.77 8.12,7.91 17.33,9.8 28.26,9.73 9.91,-0.79 18.14,-6.24 24.94,-13.22 4.65,-5.73 7.81,-12.7 7.8,-20.12 0,-0.8 0,-1.59 0,-2.41 0,-0.87 0,-1.73 -0.01,-2.62 0,-0.92 0,-1.84 0,-2.78 0,-3.03 0,-6.06 -0.01,-9.09 0,-2.1 -0.01,-4.21 -0.01,-6.31 0,-5.53 -0.01,-11.06 -0.02,-16.59 C 76.06,106.51 76.05,100.86 76.05,95.22 76.04,84.15 76.02,73.07 76,62 c -7.92,0 -15.84,0 -24,0 -0.02,2.69 -0.04,5.39 -0.06,8.17 -0.07,8.91 -0.14,17.81 -0.23,26.72 -0.05,5.4 -0.09,10.8 -0.13,16.21 -0.04,5.21 -0.09,10.42 -0.14,15.63 -0.02,1.99 -0.03,3.98 -0.04,5.97 -0.02,2.78 -0.05,5.57 -0.08,8.36 0,0.82 -0.01,1.64 -0.01,2.48 -0.06,4.5 -0.43,8.28 -2.31,12.46 -4.87,2.73 -9.71,2 -15,1 -1.49,-0.5 -1.49,-0.5 -3,-1 -2.29,-4.91 -2.3,-9.64 -2.32,-14.94 -0.01,-0.88 -0.02,-1.76 -0.03,-2.67 -0.03,-2.88 -0.05,-5.77 -0.06,-8.66 -0.02,-2.01 -0.04,-4.02 -0.06,-6.03 C 28.48,120.42 28.44,115.14 28.4,109.87 28.36,104.48 28.31,99.09 28.26,93.7 28.16,83.13 28.08,72.57 28,62 20.08,62 12.16,62 4,62 Z m 324,0 c 0,40.59 0,81.18 0,123 14.64,1.45 14.64,1.45 20.44,-2.88 2.97,-3.21 3.68,-5.38 3.68,-9.73 0,-0.97 0,-1.94 0,-2.94 0,-1.07 0,-2.13 -0.01,-3.23 0,-1.69 0,-1.69 0,-3.4 0,-3.73 0,-7.45 -0.01,-11.17 0,-2.58 -0.01,-5.15 -0.01,-7.73 0,-6.09 -0.01,-12.19 -0.02,-18.28 -0.01,-6.94 -0.01,-13.88 -0.02,-20.82 C 352.04,90.55 352.02,76.27 352,62 c -7.92,0 -15.84,0 -24,0 z"
         fill="#000000"
         id="path1"
         transform="translate(99,34)"
         style="fill:#ffffff" /><path
         d="m 0,0 c 0.88,0.01 1.75,0.01 2.65,0.02 2.76,0.02 5.52,0.07 8.28,0.12 1.89,0.02 3.78,0.04 5.66,0.06 4.6,0.04 9.19,0.11 13.78,0.19 0.15,5.9 0.26,11.81 0.33,17.71 0.03,2.01 0.07,4.01 0.12,6.01 0.6,23.48 0.6,23.48 -8.45,33.49 -6.11,6.02 -13.56,9.25 -22.12,9.24 -0.83,-0.02 -1.65,-0.04 -2.51,-0.06 -0.87,0 -1.75,-0.01 -2.65,-0.02 -2.76,-0.02 -5.52,-0.07 -8.28,-0.12 -1.89,-0.02 -3.77,-0.04 -5.66,-0.05 -4.59,-0.05 -9.19,-0.12 -13.78,-0.2 -0.15,-5.9 -0.26,-11.81 -0.33,-17.71 -0.03,-2.01 -0.07,-4.01 -0.12,-6.01 -0.6,-23.48 -0.6,-23.48 8.45,-33.49 C -17.65,2.3 -9.62,-0.24 0,0 Z"
         fill="#000000"
         transform="translate(460.62891,-0.390625)"
         id="path2"
         style="fill:#ffffff" /><path
         d="m 0,0 c 3.24,2.57 4.7,4.09 6,8 0.1,1.89 0.15,3.77 0.16,5.66 0.01,1.16 0.02,2.32 0.03,3.52 0,1.26 0.01,2.51 0.01,3.81 0.01,1.29 0.01,2.58 0.02,3.91 0.01,2.74 0.02,5.47 0.02,8.2 0.01,3.5 0.03,6.99 0.06,10.48 0.02,3.35 0.02,6.69 0.03,10.03 0.01,1.25 0.02,2.5 0.04,3.79 C 6.34,68.36 6.34,68.36 3,73 c -3.53,2.6 -6.28,3.24 -10.56,3 -4.48,-0.68 -6.66,-2.35 -9.44,-6 -1.05,-3.14 -1.14,-5.37 -1.16,-8.66 -0.01,-1.16 -0.02,-2.32 -0.03,-3.52 0,-1.26 -0.01,-2.51 -0.01,-3.81 -0.01,-1.93 -0.01,-1.93 -0.02,-3.91 -0.01,-2.74 -0.02,-5.47 -0.02,-8.2 -0.01,-3.5 -0.03,-6.99 -0.06,-10.48 -0.02,-3.35 -0.02,-6.69 -0.03,-10.03 -0.01,-1.25 -0.02,-2.5 -0.04,-3.79 C -18.34,6.64 -18.34,6.64 -15,2 -10.21,-1.54 -5.57,-1.7 0,0 Z"
         fill="#000000"
         transform="translate(235,119)"
         id="path3"
         style="fill:#ffffff" /><path
         d="m 0,0 c 3.24,2.57 4.7,4.09 6,8 0.1,1.89 0.15,3.77 0.16,5.66 0.01,1.16 0.02,2.32 0.03,3.52 0,1.26 0.01,2.51 0.01,3.81 0.01,1.29 0.01,2.58 0.02,3.91 0.01,2.74 0.02,5.47 0.02,8.2 0.01,3.5 0.03,6.99 0.06,10.48 0.02,3.35 0.02,6.69 0.03,10.03 0.01,1.25 0.02,2.5 0.04,3.79 C 6.34,68.36 6.34,68.36 3,73 c -3.53,2.6 -6.28,3.24 -10.56,3 -4.48,-0.68 -6.66,-2.35 -9.44,-6 -1.05,-3.14 -1.14,-5.37 -1.16,-8.66 -0.01,-1.16 -0.02,-2.32 -0.03,-3.52 0,-1.26 -0.01,-2.51 -0.01,-3.81 -0.01,-1.93 -0.01,-1.93 -0.02,-3.91 -0.01,-2.74 -0.02,-5.47 -0.02,-8.2 -0.01,-3.5 -0.03,-6.99 -0.06,-10.48 -0.02,-3.35 -0.02,-6.69 -0.03,-10.03 -0.01,-1.25 -0.02,-2.5 -0.04,-3.79 C -18.34,6.64 -18.34,6.64 -15,2 -10.21,-1.54 -5.57,-1.7 0,0 Z"
         fill="#000000"
         transform="translate(56,119)"
         id="path4"
         style="fill:#ffffff" /><path
         d="m 0,0 c 3.24,2.57 4.7,4.09 6,8 0.12,1.81 0.18,3.62 0.19,5.44 0.01,0.94 0.03,1.89 0.04,2.87 C 5.99,19.09 5.5,20.67 4,23 c -5.19,3.79 -10.03,4.13 -16.31,4.06 -1.07,-0.01 -2.14,-0.02 -3.24,-0.02 -0.81,-0.02 -1.62,-0.03 -2.45,-0.04 -0.08,-3.04 -0.14,-6.08 -0.19,-9.12 -0.02,-0.86 -0.05,-1.72 -0.07,-2.6 -0.06,-5.19 0.31,-8.8 3.26,-13.28 4.79,-3.54 9.43,-3.7 15,-2 z"
         fill="#000000"
         transform="translate(324,119)"
         id="path5"
         style="fill:#ffffff" /></g></g></svg>
