<?xml version="1.0" encoding="UTF-8" standalone="no"?>
<!-- Created with Inkscape (http://www.inkscape.org/) -->

<svg
   width="800"
   height="800"
   viewBox="0 0 211.66667 211.66667"
   version="1.1"
   id="svg1"
   xml:space="preserve"
   inkscape:version="1.3.2 (091e20e, 2023-11-25, custom)"
   sodipodi:docname="gerens.svg"
   xmlns:inkscape="http://www.inkscape.org/namespaces/inkscape"
   xmlns:sodipodi="http://sodipodi.sourceforge.net/DTD/sodipodi-0.dtd"
   xmlns="http://www.w3.org/2000/svg"
   xmlns:svg="http://www.w3.org/2000/svg"><sodipodi:namedview
     id="namedview1"
     pagecolor="#000000"
     bordercolor="#000000"
     borderopacity="0.25"
     inkscape:showpageshadow="2"
     inkscape:pageopacity="0.0"
     inkscape:pagecheckerboard="0"
     inkscape:deskcolor="#d1d1d1"
     inkscape:document-units="mm"
     inkscape:export-bgcolor="#00000000"
     inkscape:zoom="0.51213161"
     inkscape:cx="568.21332"
     inkscape:cy="403.21667"
     inkscape:window-width="1920"
     inkscape:window-height="1009"
     inkscape:window-x="-8"
     inkscape:window-y="-8"
     inkscape:window-maximized="1"
     inkscape:current-layer="layer1" /><defs
     id="defs1"><clipPath
       clipPathUnits="userSpaceOnUse"
       id="clipPath3011"><path
         inkscape:connector-curvature="0"
         d="M -2.2e-8,1.2207e-4 H 720 V 540.00012 H -2.2e-8 Z"
         clip-rule="evenodd"
         id="path3013" /></clipPath><clipPath
       clipPathUnits="userSpaceOnUse"
       id="clipPath3021"><path
         inkscape:connector-curvature="0"
         d="M 0,0 H 843.56 V 87.998 H 0 Z"
         id="path3023" /></clipPath><clipPath
       clipPathUnits="userSpaceOnUse"
       id="clipPath3945"><path
         inkscape:connector-curvature="0"
         d="M 0,1.2207e-4 H 720 V 540.00012 H 0 Z"
         clip-rule="evenodd"
         id="path3947" /></clipPath></defs><g
     inkscape:label="Camada 1"
     inkscape:groupmode="layer"
     id="layer1"
     transform="translate(-67.583023,162.56458)"><g
       id="g1"
       transform="matrix(0.13917549,0,0,0.13917549,78.894277,-82.47503)"><path
         d="m 0,0 c 1.57,1.47 3.13,2.95 4.69,4.44 0.68,0.62 1.37,1.24 2.08,1.88 21.18,19.9 31.01,49.85 31.93,78.23 0.11,8.98 -0.84,18.18 -3.01,26.89 -55.77,0.33 -111.54,0.66 -169,1 10.13,16.88 22.3,29.12 41.56,34.87 17,3.72 34.53,1.25 49.44,-7.87 7.94,-5.47 14.96,-11.74 20,-20 6.83,3.2 12.97,7.13 19.25,11.31 7.79,5.14 15.57,10.17 23.75,14.69 -1.47,4.33 -3.77,7.69 -6.57,11.25 -0.44,0.57 -0.89,1.14 -1.35,1.73 -18.68,23.54 -45.95,37.43 -75.47,41.48 -2.87,0.27 -5.73,0.44 -8.61,0.54 -0.77,0.04 -1.54,0.08 -2.33,0.12 -30.04,0.87 -58.57,-10.49 -80.41,-30.95 -1.12,-1.08 -1.12,-1.08 -2.26,-2.17 -1.03,-0.94 -1.03,-0.94 -2.08,-1.89 -20.71,-19.44 -30.49,-48.03 -32.14,-75.73 -0.86,-31.93 11.07,-61.41 32.89,-84.45 17.14,-17.56 40.83,-29.99 65.33,-32.93 0.9,-0.11 1.79,-0.22 2.72,-0.33 32.83,-3.47 64.8,5.96 89.59,27.89 z m -125.73,46.12 c -4.01,4.8 -6.03,8.37 -8.58,14.32 38.28,0 76.56,0 116,0 -4.95,-14.84 -16.42,-24.98 -29.94,-32.19 -4.51,-2.17 -9.24,-3.52 -14.06,-4.81 -0.62,-0.18 -1.25,-0.35 -1.89,-0.53 -23.95,-5.37 -45.92,5.88 -61.53,23.21 z"
         fill="#000000"
         transform="translate(794.3125,47.5625)"
         id="path1"
         style="fill:#ffffff" /><path
         d="m 0,0 c 28.54,-0.69 57.35,8.63 78.51,28.12 1.2,0.97 2.41,1.92 3.62,2.88 4.77,4.13 8.54,9.15 12.38,14.12 0.61,0.79 1.22,1.57 1.85,2.38 18.1,24.45 24.57,55.51 20.21,85.38 -0.85,4.83 -0.85,4.83 -2.06,7.24 -55.77,0 -111.54,0 -169,0 10.12,18.22 22.46,29.41 42.31,36 16.19,3.73 33.9,1.15 48.14,-7.31 8.74,-5.77 15.21,-12.35 21.55,-20.69 10.75,6.04 21.08,12.74 31.47,19.39 3.49,2.23 7.01,4.43 10.53,6.61 -3.22,14.4 -20.73,28.22 -32.53,35.92 -18.8,11.47 -37.34,17.96 -59.47,19.08 -0.81,0.05 -1.62,0.09 -2.46,0.13 -30.48,0.78 -58,-11.21 -80.54,-31.13 -0.7,-0.61 -1.39,-1.22 -2.11,-1.85 -6.31,-5.92 -11.09,-13 -15.89,-20.15 -0.58,-0.85 -1.16,-1.71 -1.76,-2.59 -14.98,-23.49 -19.16,-54.73 -14.05,-81.78 0.55,-2.22 1.15,-4.43 1.81,-6.63 0.35,-1.23 0.7,-2.46 1.06,-3.73 C -97.55,51.91 -77.44,28.02 -50.67,13.2 -34.93,4.91 -17.7,0.89 0,0 Z m -47.73,75.85 c -3.28,4.51 -4.95,7.85 -6.76,13.27 38.28,0 76.56,0 116,0 C 52.45,71.01 40.77,60.24 21.75,53.09 -4.17,45.35 -30.87,55.37 -47.73,75.85 Z"
         fill="#000000"
         transform="translate(354.49219,18.875)"
         id="path2"
         style="fill:#ffffff" /><path
         d="m 0,0 c 17.39,14.98 29.77,35.21 35.73,57.32 0.31,1.17 0.63,2.34 0.96,3.55 6.95,30.37 0.73,61.22 -14.89,87.75 -2.9,4.61 -6.46,8.65 -10.07,12.7 -0.69,0.83 -1.38,1.66 -2.08,2.52 -18.35,21.64 -45.59,34.22 -73.55,37.17 -1.79,0.12 -3.58,0.23 -5.37,0.31 -1.3,0.08 -1.3,0.08 -2.61,0.16 -31.65,1.03 -61.19,-11.41 -84.1,-32.83 -13.55,-13.73 -23.49,-30.44 -29.04,-48.89 -0.3,-0.99 -0.3,-0.99 -0.61,-2 -8.38,-29.53 -4.02,-61.13 10.73,-87.81 3.65,-6.37 7.79,-12.09 12.63,-17.63 0.59,-0.73 1.17,-1.46 1.78,-2.21 18.77,-22.64 47.29,-34.76 75.98,-37.43 C -53.52,-29.97 -23.79,-19.73 0,0 Z m -124.27,45.32 c -11.58,14.45 -16.17,30.96 -14.54,49.3 2.46,16.95 10.77,31.66 23.8,42.76 15.72,11.19 32.98,14.87 51.99,12.55 16.53,-3.47 30.72,-13.14 40.68,-26.61 9.5,-14.68 13.62,-31.61 9.99,-48.89 -4.13,-17.46 -13.25,-31.82 -28.4,-41.65 -28.27,-16.32 -61.32,-11.67 -83.52,12.54 z"
         fill="#000000"
         transform="translate(189.27344,46.675781)"
         id="path3"
         style="fill:#ffffff" /><path
         d="m 0,0 c 3.58,3.06 6.94,6.32 10.29,9.63 0.68,0.63 1.35,1.26 2.05,1.91 12.86,12.11 20.75,29.16 24.95,46.09 0.17,0.69 0.35,1.37 0.53,2.08 1.69,7.41 1.74,14.61 1.7,22.19 0,1.41 0,2.82 0,4.23 0,3.8 -0.01,7.59 -0.03,11.39 -0.01,3.98 -0.01,7.97 -0.01,11.95 -0.01,7.52 -0.03,15.05 -0.05,22.57 -0.02,8.58 -0.03,17.15 -0.04,25.72 -0.02,17.63 -0.06,35.25 -0.1,52.87 -16.5,0 -33,0 -50,0 -0.02,-6.04 -0.02,-6.04 -0.04,-12.2 -0.05,-13.33 -0.12,-26.65 -0.2,-39.98 -0.04,-8.08 -0.08,-16.16 -0.11,-24.23 -0.02,-7.05 -0.05,-14.09 -0.1,-21.14 -0.02,-3.72 -0.04,-7.45 -0.05,-11.18 0,-4.17 -0.03,-8.34 -0.07,-12.51 0,-1.22 0.01,-2.44 0.01,-3.7 -0.17,-15.26 -4.39,-27.53 -14.44,-39.06 0,-0.66 0,-1.32 0,-2 -0.57,-0.27 -1.15,-0.54 -1.74,-0.82 -2.29,-1.19 -4.29,-2.56 -6.38,-4.05 -11.64,-7.76 -24.91,-10.6 -38.72,-7.95 -8.65,2.25 -15.63,5.64 -22.42,11.47 -1.74,1.35 -1.74,1.35 -3.74,1.35 -0.41,0.86 -0.41,0.86 -0.82,1.74 -1.2,2.3 -2.56,4.33 -4.05,6.45 -7.72,11.5 -9.42,22.57 -9.45,36.23 -0.01,1.97 -0.01,1.97 -0.03,3.99 -0.03,3.59 -0.04,7.18 -0.05,10.77 -0.02,3.76 -0.05,7.52 -0.07,11.28 -0.05,7.1 -0.09,14.21 -0.12,21.32 -0.04,8.09 -0.09,16.19 -0.14,24.29 -0.1,16.64 -0.19,33.29 -0.27,49.93 -16.5,0 -33,0 -50,0 -0.07,-18.25 -0.12,-36.51 -0.15,-54.76 -0.02,-8.48 -0.04,-16.96 -0.08,-25.44 -0.03,-7.39 -0.05,-14.79 -0.05,-22.18 -0.01,-3.91 -0.01,-7.82 -0.04,-11.73 -0.02,-3.7 -0.02,-7.39 -0.02,-11.08 0,-1.98 -0.02,-3.95 -0.03,-5.93 0.09,-27.39 11.52,-52.02 30.5,-71.5 C -98.73,-26.44 -38.73,-30.96 0,0 Z"
         fill="#000000"
         transform="translate(1014.7095,37.366699)"
         id="path4"
         style="fill:#ffffff" /><path
         d="m 0,0 c 0,16.83 0,33.66 0,51 -4.62,0.66 -9.24,1.32 -14,2 -17.76,5.02 -31.58,14.2 -41.05,30.26 -5.24,9.58 -7.88,20.14 -8.19,31.01 -0.86,27.63 -9.4,53.75 -27.76,74.73 -0.59,0.73 -1.18,1.46 -1.79,2.22 -18.66,22.51 -46.79,34.35 -75.23,37.45 -3.65,0.3 -7.32,0.33 -10.98,0.33 0,-16.83 0,-33.66 0,-51 7.42,-0.99 7.42,-0.99 15,-2 16.95,-4.62 30.81,-13.76 40.25,-28.76 5.97,-11.04 8.5,-22.68 9.03,-35.12 1.16,-26.76 9.76,-51.96 27.72,-72.12 0.69,-0.83 1.37,-1.66 2.08,-2.51 C -64,12.81 -31.96,0 0,0 Z"
         fill="#000000"
         transform="translate(1251,19)"
         id="path5"
         style="fill:#ffffff" /><path
         d="m 0,0 c 16.5,0 33,0 50,0 1.32,6.6 2.64,13.2 4,20 3.71,8.53 7.14,16.04 13.75,22.62 C 69,44 69,44 69,46 c 0.59,0.27 1.18,0.55 1.79,0.83 2.14,1.13 3.78,2.38 5.65,3.92 C 89.2,60.42 105.16,64.5 121,63 138.23,60.31 153.7,52.71 164.38,38.56 172.59,26.43 175.94,14.41 178,0 c 16.5,0 33,0 50,0 0,28.7 -8.86,52.94 -27,75 -0.52,0.68 -1.04,1.35 -1.58,2.05 -13.29,16.7 -35.11,28.39 -55.42,33.95 -1.16,0.32 -2.32,0.64 -3.52,0.97 C 122.93,116 102.31,116.14 85,111 84.29,110.8 83.58,110.59 82.86,110.38 56.75,102.74 32.31,86.63 18,63 17.15,61.69 17.15,61.69 16.28,60.36 9.03,48.73 4.34,36.08 1.56,22.69 1.4,21.91 1.23,21.14 1.07,20.34 -0.25,13.31 0,7.45 0,0 Z"
         fill="#000000"
         transform="translate(0,255)"
         id="path6"
         style="fill:#ffffff" /><path
         d="m 0,0 c 0,16.83 0,33.66 0,51 -7.42,0.99 -7.42,0.99 -15,2 -16.78,4.23 -29.99,13.87 -39.38,28.38 -5.19,8.88 -8.7,18.56 -8.78,28.93 -0.01,1.57 -0.01,1.57 -0.03,3.18 0,1.14 -0.01,2.28 -0.02,3.46 -0.01,1.21 -0.02,2.42 -0.03,3.67 -0.02,3.31 -0.04,6.62 -0.06,9.93 -0.03,3.46 -0.05,6.92 -0.08,10.38 -0.05,6.55 -0.09,13.11 -0.14,19.66 -0.05,7.46 -0.1,14.92 -0.16,22.38 -0.11,15.34 -0.22,30.69 -0.32,46.03 -16.83,0 -33.66,0 -51,0 -0.05,-15.35 -0.08,-30.7 -0.1,-46.06 -0.01,-7.13 -0.03,-14.26 -0.05,-21.39 -0.02,-6.22 -0.03,-12.44 -0.04,-18.67 0,-3.28 -0.01,-6.57 -0.02,-9.86 -0.14,-34.8 -0.14,-34.8 4.33,-50.02 0.32,-1.1 0.32,-1.1 0.65,-2.23 5.49,-18.08 15.21,-33.16 28.23,-46.77 0.62,-0.69 1.25,-1.37 1.89,-2.08 C -59.9,10.4 -28.92,0 0,0 Z"
         fill="#000000"
         transform="translate(602,19)"
         id="path7"
         style="fill:#ffffff" /><path
         d="m 0,0 c 10.57,8.77 15.71,18.9 17.27,32.52 0.5,11.46 -3.17,21.31 -9.85,30.49 -0.55,0.82 -1.11,1.65 -1.69,2.5 -7,7.57 -17.73,13.14 -28.07,13.7 -12.84,0.23 -21.73,-1.38 -32.24,-9.2 -0.86,-0.58 -1.73,-1.16 -2.62,-1.75 C -66.01,59.91 -70.95,48.88 -71.6,36.81 -71.5,24.5 -67.29,12.57 -58.77,3.51 -42.1,-11.37 -18.14,-13.46 0,0 Z m -52.85,12.63 c -6.33,8.41 -9.74,16.73 -8.33,27.37 2.31,10.66 7.61,18.77 16.6,25.01 8.49,5.07 18.29,5.4 27.83,3.41 C -8.18,65.49 -0.92,59.1 3.42,51.2 7.27,42.35 8.64,33.23 5.42,24.01 0.98,14.24 -5.03,7.18 -15.07,2.96 -28.76,-1.56 -43.22,1.5 -52.85,12.63 Z"
         fill="#000000"
         transform="translate(1341.5781,8.9921875)"
         id="path8"
         style="fill:#ffffff" /><path
         d="m 0,0 c 0.99,-0.02 1.97,-0.04 2.99,-0.06 7.09,-0.04 12.29,0.54 17.76,5.44 2.21,3.91 2.84,7.39 2.63,11.87 -1.36,3.65 -2.91,6.57 -6,9 -0.67,0 -1.32,0 -2,0 0.72,0.91 1.44,1.81 2.18,2.75 3.76,5.27 8.3,12.5 7.45,19.12 -0.21,0.7 -0.42,1.4 -0.63,2.13 -1.44,0.11 -2.88,0.19 -4.32,0.25 -0.8,0.05 -1.6,0.09 -2.42,0.14 C 15.38,50.25 15.38,50.25 13.75,48.68 11.37,44.48 9.9,39.9 8.27,35.37 6.6,31.9 6.6,31.9 2.67,30.82 1.58,30.63 0.5,30.44 -0.62,30.25 c 0,0.57 0.01,1.14 0.01,1.73 0.02,2.57 0.03,5.14 0.05,7.71 0.01,0.9 0.01,1.79 0.02,2.72 0.01,0.85 0.01,1.71 0.01,2.59 0.01,0.79 0.01,1.58 0.02,2.39 -0.11,1.86 -0.11,1.86 -1.11,2.86 -1.5,0.1 -3,0.13 -4.5,0.13 -0.82,0 -1.63,0 -2.47,0 -2.03,-0.13 -2.03,-0.13 -3.03,-1.13 -0.1,-1.5 -0.13,-3 -0.13,-4.5 -0.01,-0.96 -0.01,-1.92 -0.01,-2.91 0,-1.04 0,-2.08 0,-3.15 0,-1.06 0,-2.13 0,-3.22 0,-2.25 0,-4.5 0,-6.75 0.01,-3.46 0,-6.91 0,-10.37 0,-2.18 0,-4.36 0,-6.54 0,-1.04 0,-2.08 0,-3.15 0,-0.96 0,-1.92 0.01,-2.91 0,-0.84 0,-1.69 0,-2.56 C -11.42,-1.88 -3.82,0.02 0,0 Z m -0.62,9.25 c 0,3.96 0,7.92 0,12 1.42,0.06 2.84,0.12 4.31,0.19 0.8,0.03 1.6,0.07 2.42,0.1 2.33,-0.11 2.33,-0.11 4.03,-1.61 1.9,-2.59 1.62,-4.57 1.24,-7.68 -1.18,-1.77 -1.18,-1.77 -3,-3 C 6.09,8.89 6.09,8.89 3.69,9.06 2.26,9.12 0.84,9.19 -0.62,9.25 Z"
         fill="#000000"
         transform="translate(1309.625,18.75)"
         id="path9"
         style="fill:#ffffff" /></g></g></svg>
