<?xml version="1.0" encoding="UTF-8" standalone="no"?>
<!-- Created with Inkscape (http://www.inkscape.org/) -->

<svg
   width="800"
   height="800"
   viewBox="0 0 211.66667 211.66667"
   version="1.1"
   id="svg1"
   xml:space="preserve"
   inkscape:version="1.3.2 (091e20e, 2023-11-25, custom)"
   sodipodi:docname="gruposeg.svg"
   xmlns:inkscape="http://www.inkscape.org/namespaces/inkscape"
   xmlns:sodipodi="http://sodipodi.sourceforge.net/DTD/sodipodi-0.dtd"
   xmlns="http://www.w3.org/2000/svg"
   xmlns:svg="http://www.w3.org/2000/svg"><sodipodi:namedview
     id="namedview1"
     pagecolor="#000000"
     bordercolor="#000000"
     borderopacity="0.25"
     inkscape:showpageshadow="2"
     inkscape:pageopacity="0.0"
     inkscape:pagecheckerboard="0"
     inkscape:deskcolor="#d1d1d1"
     inkscape:document-units="mm"
     inkscape:export-bgcolor="#00000000"
     inkscape:zoom="0.51213161"
     inkscape:cx="568.21332"
     inkscape:cy="403.21667"
     inkscape:window-width="1920"
     inkscape:window-height="1009"
     inkscape:window-x="-8"
     inkscape:window-y="-8"
     inkscape:window-maximized="1"
     inkscape:current-layer="layer1" /><defs
     id="defs1"><clipPath
       clipPathUnits="userSpaceOnUse"
       id="clipPath3011"><path
         inkscape:connector-curvature="0"
         d="M -2.2e-8,1.2207e-4 H 720 V 540.00012 H -2.2e-8 Z"
         clip-rule="evenodd"
         id="path3013" /></clipPath><clipPath
       clipPathUnits="userSpaceOnUse"
       id="clipPath3021"><path
         inkscape:connector-curvature="0"
         d="M 0,0 H 843.56 V 87.998 H 0 Z"
         id="path3023" /></clipPath><clipPath
       clipPathUnits="userSpaceOnUse"
       id="clipPath3945"><path
         inkscape:connector-curvature="0"
         d="M 0,1.2207e-4 H 720 V 540.00012 H 0 Z"
         clip-rule="evenodd"
         id="path3947" /></clipPath></defs><g
     inkscape:label="Camada 1"
     inkscape:groupmode="layer"
     id="layer1"
     transform="translate(-67.583023,162.56458)"><g
       id="g1"
       transform="matrix(0.36669046,0,0,0.36669046,114.58406,-117.02993)"><path
         d="m 0,0 c -0.53,4.55 -2.51,7.58 -5.06,11.25 -3.59,5.37 -6.64,10.84 -9.38,16.69 -0.33,0.69 -0.66,1.39 -1,2.11 -1.94,4.25 -3.39,8.43 -4.56,12.95 0.54,-0.56 1.07,-1.11 1.62,-1.69 C 2.84,20.66 33.05,18.39 61.15,18.74 80.14,19.06 98.94,22.02 117,28 111.54,16.16 111.54,16.16 104.03,5.58 103,4 103,4 103,0 c 17.49,2.86 33.75,18.03 46,30 0.9,0.84 1.8,1.67 2.72,2.54 22.91,21.85 22.91,21.85 23.39,30.41 -0.68,5.89 -2.32,10.71 -4.86,16.05 -0.39,0.85 -0.79,1.7 -1.19,2.57 C 158.04,105 145.52,127.25 130,148 c -0.69,0.95 -1.38,1.9 -2.09,2.88 -0.95,1.05 -0.95,1.05 -1.91,2.12 -0.99,0 -1.98,0 -3,0 0.59,-4.85 1.56,-9.48 2.76,-14.22 7.59,-30 7.21,-60.82 -0.76,-90.78 -1.5,2.25 -2.72,4.33 -3.92,6.73 C 113.33,69.99 113.33,69.99 107,76 102.79,75.47 100.72,74.23 97.56,71.44 84.51,60.61 68.32,52.43 51,54 c -8.21,1.73 -13.31,5.06 -18,12 -2.78,4.51 -2.1,8.99 -1,14 1.34,3.27 1.34,3.27 3,6 0.46,1.11 0.46,1.11 0.94,2.25 1.36,2.25 2.71,2.58 5.06,3.75 1.47,1.08 2.93,2.19 4.38,3.31 5.5,4.07 11.27,7.51 17.18,10.94 47.79,27.86 47.79,27.86 53.44,48.75 0.21,0.63 0.42,1.26 0.64,1.91 0.64,2.61 0.8,4.42 0.36,7.09 -2.59,3.97 -5.91,7.04 -9.38,10.25 -0.96,0.93 -1.93,1.86 -2.9,2.78 -12.4,11.8 -25.77,21.65 -40.72,29.97 -0.85,0.47 -1.7,0.95 -2.57,1.44 -3.47,1.84 -5.42,2.56 -9.43,2.56 0.59,-3.06 1.51,-4.94 3.44,-7.38 3.51,-4.77 5.14,-9.39 4.92,-15.42 C 58.56,177.29 50.25,170.74 41.75,164.64 34.59,159.65 27.1,155.29 19.5,151 1.04,140.58 -14.41,130.17 -26,112 c -0.66,-0.99 -1.32,-1.98 -2,-3 1.41,11.55 3.16,22.75 6.37,33.96 1.01,3.52 1.63,6.34 1.63,10.04 -2.98,-0.3 -3.98,-0.98 -6.09,-3.17 -16.48,-21.74 -30.04,-45.53 -41.22,-70.39 -0.48,-1.04 -0.95,-2.08 -1.44,-3.16 -4.26,-9.75 -4.26,-9.75 -3.25,-15.28 1.32,-2.64 2.99,-4.88 4.81,-7.19 0.5,-0.65 1,-1.3 1.51,-1.97 4.45,-5.74 9.22,-11.17 14.28,-16.39 1.41,-1.46 2.81,-2.95 4.2,-4.44 C -36.62,19.88 -16.28,0 0,0 Z"
         fill="#000000"
         transform="translate(110)"
         id="path1"
         style="fill:#ffffff" /><path
         d="M 0,0 C 0.99,0 1.98,0 3,0 3.4,1.21 3.8,2.42 4.21,3.67 21.19,54.08 51.37,104.17 94,137 c 0.52,0.4 1.03,0.79 1.56,1.2 6.99,5.33 14.27,10.08 21.88,14.49 0.74,0.44 1.49,0.89 2.26,1.35 3.48,1.95 5.72,2.95 9.76,3.04 4.64,-1.42 8.52,-3.53 12.66,-6.02 1.26,-0.74 1.26,-0.74 2.54,-1.5 7.22,-4.34 13.87,-9.15 20.34,-14.56 0.57,-0.47 1.14,-0.94 1.73,-1.43 11.94,-9.87 22.66,-20.37 32.27,-32.57 0.86,-1.06 1.72,-2.12 2.58,-3.17 C 225.08,68.81 241.11,35.85 254,1 c 1.87,0.31 1.87,0.31 4,1 1.61,2.37 2.9,4.59 4.19,7.12 0.38,0.75 0.77,1.5 1.16,2.27 6.46,12.87 11.57,26.48 15.77,40.23 0.22,0.68 0.43,1.36 0.65,2.07 1.33,4.62 1.59,7.68 -0.64,11.98 -1.13,1.98 -2.34,3.91 -3.57,5.83 -0.44,0.7 -0.89,1.41 -1.35,2.13 -4.36,6.77 -9.16,13.1 -14.21,19.37 -0.73,0.92 -1.46,1.84 -2.21,2.79 -11.81,14.76 -25.07,29.29 -40.06,40.87 -1.27,0.98 -2.52,1.97 -3.77,2.96 -19.63,15.52 -40.8,27.91 -63.96,37.38 -0.91,0.37 -1.82,0.75 -2.75,1.13 -2.68,1.08 -5.36,2.11 -8.06,3.12 -0.8,0.31 -1.59,0.63 -2.41,0.95 -5.87,2.09 -9.91,1.74 -15.78,-0.2 -0.77,-0.25 -1.54,-0.5 -2.34,-0.76 C 91.91,171.98 67.13,158.71 45,141 44.1,140.29 43.19,139.57 42.26,138.84 26.82,126.46 12.14,112.66 0,97 -1.02,95.71 -2.04,94.42 -3.05,93.13 -8.74,85.89 -14.22,78.5 -19.38,70.88 c -0.48,-0.69 -0.96,-1.38 -1.46,-2.08 -2.24,-3.41 -3.18,-5.14 -3.08,-9.31 0.3,-1.15 0.61,-2.3 0.92,-3.49 0.45,-1.85 0.45,-1.85 0.91,-3.73 C -17.35,35.32 -10.05,19.6 -2,4 -1.33,2.67 -0.66,1.34 0,0 Z"
         fill="#000000"
         transform="translate(33,69)"
         id="path2"
         style="fill:#ffffff" /><path
         d="M 0,0 C 0.99,0 1.98,0 3,0 3.29,0.54 3.58,1.07 3.88,1.63 14.03,20.26 25.89,37.16 40,53 c 0.47,0.53 0.93,1.06 1.41,1.6 17.19,19.38 37.44,36.57 59.83,49.72 1.1,0.64 1.1,0.64 2.22,1.3 0.68,0.39 1.36,0.77 2.05,1.17 0.49,0.4 0.98,0.8 1.49,1.21 0,0.99 0,1.98 0,3 -6.88,-0.61 -13.37,-1.87 -20.06,-3.56 -1.56,-0.4 -1.56,-0.4 -3.15,-0.8 C 65.9,102 48.67,95.99 32,88 31.32,87.68 30.64,87.36 29.94,87.03 19.53,82.13 9.44,76.6 0,70 -0.88,69.42 -1.77,68.84 -2.68,68.25 -5,66 -5,66 -5.62,63.11 -5.61,62 -5.6,60.89 -5.59,59.74 c 0,-1.25 0,-2.5 0,-3.8 0.03,-1.35 0.06,-2.71 0.09,-4.06 0.02,-1.4 0.03,-2.79 0.05,-4.18 C -5.18,31.67 -3.72,15.62 0,0 Z"
         fill="#000000"
         transform="translate(7,139)"
         id="path4"
         style="fill:#ffffff" /><path
         d="m 315.48864,139.33334 c -0.99,0 -1.98,0 -3,0 -0.29,0.54 -0.58,1.07 -0.88,1.63 -10.15,18.63 -22.01,35.53 -36.12,51.37 -0.47,0.53 -0.93,1.06 -1.41,1.6 -17.19,19.38 -37.44,36.57 -59.83,49.72 -1.1,0.64 -1.1,0.64 -2.22,1.3 -0.68,0.39 -1.36,0.77 -2.05,1.17 -0.49,0.4 -0.98,0.8 -1.49,1.21 0,0.99 0,1.98 0,3 6.88,-0.61 13.37,-1.87 20.06,-3.56 1.56,-0.4 1.56,-0.4 3.15,-0.8 17.89,-4.64 35.12,-10.65 51.79,-18.64 0.68,-0.32 1.36,-0.64 2.06,-0.97 10.41,-4.9 20.5,-10.43 29.94,-17.03 0.88,-0.58 1.77,-1.16 2.68,-1.75 2.32,-2.25 2.32,-2.25 2.94,-5.14 -0.01,-1.11 -0.02,-2.22 -0.03,-3.37 0,-1.25 0,-2.5 0,-3.8 -0.03,-1.35 -0.06,-2.71 -0.09,-4.06 -0.02,-1.4 -0.03,-2.79 -0.05,-4.18 -0.27,-16.03 -1.73,-32.08 -5.45,-47.7 z"
         fill="#000000"
         id="path4-7"
         style="fill:#ffffff" /><path
         d="m 0,0 c 1.2,0 1.2,0 2.42,0.01 0.83,0.01 1.65,0.02 2.5,0.03 0.84,0 1.68,0 2.55,0.01 2.07,0.01 4.13,0.03 6.2,0.05 0,3.3 0,6.6 0,10 -0.97,0.04 -1.95,0.07 -2.96,0.11 -1.9,0.1 -1.9,0.1 -3.85,0.2 -1.9,0.09 -1.9,0.09 -3.83,0.18 -3.27,0.25 -3.27,0.25 -5.24,1.8 -3.46,5.3 -2.3,12.54 -2.31,18.58 -0.01,1.17 -0.02,2.35 -0.03,3.55 0,1.14 -0.01,2.27 -0.01,3.44 0,1.55 0,1.55 -0.01,3.13 0.27,3.3 0.98,5.95 2.24,9.01 2.82,1.59 2.82,1.59 10,1 0,-6.6 0,-13.2 0,-20 4.62,0 9.24,0 14,0 0,9.57 0,19.14 0,29 -7.83,3.92 -22.52,3.48 -30.62,0.81 -5.2,-2.79 -7.61,-6.25 -9.38,-11.81 -1.31,-5.9 -1.18,-11.81 -1.19,-17.81 -0.01,-1.05 -0.02,-2.09 -0.03,-3.16 -0.02,-8.86 0.34,-16.98 6.22,-24.03 C -9.02,0.98 -5.26,-0.04 0,0 Z"
         fill="#000000"
         transform="translate(299.32812,265.90234)"
         id="path5"
         style="fill:#ffffff" /><path
         d="m 0,0 c 10.89,0 21.78,0 33,0 0,3.3 0,6.6 0,10 -6.27,0 -12.54,0 -19,0 0,3.96 0,7.92 0,12 5.94,0 11.88,0 18,0 0,3.3 0,6.6 0,10 -5.94,0 -11.88,0 -18,0 0,5.94 0,11.88 0,18 6.6,0 13.2,0 20,0 0,3.3 0,6.6 0,10 C 22.78,60 11.56,60 0,60 0,40.2 0,20.4 0,0 Z"
         fill="#000000"
         transform="translate(241,267)"
         id="path6"
         style="fill:#ffffff" /><path
         d="m 0,0 c 0.89,0 1.78,0.01 2.7,0.01 1.38,0.01 1.38,0.01 2.78,0.03 0.94,0 1.88,0 2.84,0.01 2.31,0.01 4.61,0.03 6.91,0.05 0,3.63 0,7.26 0,11 C 14.2,11.05 13.16,11 12.09,10.96 10.72,10.92 9.35,10.88 7.98,10.85 6.96,10.8 6.96,10.8 5.92,10.75 c -3.61,-0.07 -5.33,0.06 -8.17,2.36 -0.5,0.66 -1,1.31 -1.52,1.99 0.95,3.86 1.91,4.93 5.27,7.21 1.32,0.73 2.65,1.45 3.98,2.16 6.56,3.7 12.24,7.08 14.75,14.63 0.51,6.23 0.74,11.72 -3,17 -4.71,4.85 -9.9,5.86 -16.41,6.15 -5.67,0.05 -11.01,-0.09 -16.59,-1.15 0,-3.63 0,-7.26 0,-11 1.1,0.1 2.2,0.21 3.33,0.32 1.45,0.12 2.91,0.24 4.36,0.37 1.08,0.1 1.08,0.1 2.19,0.22 4.68,0.36 7.38,-0.04 11.12,-2.91 0.21,-2.8 0.21,-2.8 -1,-6 -2.75,-2.39 -5.86,-4.16 -9,-6 -10.77,-6.58 -10.77,-6.58 -13,-12 -1.33,-13.22 -1.33,-13.22 3,-19 C -9.78,1.28 -6.18,-0.04 0,0 Z"
         fill="#000000"
         transform="translate(213.76562,265.90234)"
         id="path7"
         style="fill:#ffffff" /><path
         d="m 0,0 c 23,0 23,0 28,3 3.78,5.22 3.67,10.81 3,17 -0.71,2.75 -1.54,4.51 -3,7 -0.99,0.33 -1.98,0.66 -3,1 0.48,1.17 0.96,2.34 1.46,3.54 0.64,1.55 1.28,3.1 1.92,4.65 0.31,0.77 0.63,1.54 0.96,2.33 0.61,1.49 1.23,2.99 1.84,4.49 0.67,1.62 1.35,3.24 2.05,4.85 C 34,50 34,50 34,53 31.03,53 28.06,53 25,53 23.49,49.54 22,46.08 20.5,42.62 20.07,41.64 19.64,40.66 19.2,39.64 18.79,38.7 18.39,37.76 17.97,36.79 17.59,35.92 17.21,35.05 16.83,34.15 16,32 16,32 16,30 13.69,30 11.38,30 9,30 9,37.59 9,45.18 9,53 6.03,53 3.06,53 0,53 0,35.51 0,18.02 0,0 Z m 9,6 c 0,5.61 0,11.22 0,17 1.4,0.06 2.8,0.12 4.25,0.19 0.79,0.03 1.58,0.07 2.39,0.1 3,-0.37 4.27,-1.12 6.36,-3.29 0.56,-2.4 0.56,-2.4 0.38,-5 C 22.36,14.13 22.35,13.27 22.34,12.38 22.14,9.74 22.14,9.74 20,7 16.32,5.5 13.15,6 9,6 Z"
         fill="#000000"
         transform="translate(45,274)"
         id="path8"
         style="fill:#ffffff" /><path
         d="m 0,0 c 0.93,0.01 1.85,0.03 2.81,0.04 2.27,0.04 4.54,0.09 6.81,0.15 0,2.64 0,5.28 0,8 C 8.6,8.14 7.58,8.09 6.52,8.05 5.16,8.01 3.8,7.97 2.44,7.94 1.76,7.9 1.09,7.87 0.4,7.84 -3.08,7.77 -5.2,8.09 -8.24,9.83 c -5.37,5.93 -4.47,13.72 -4.45,21.23 -0.01,1.15 -0.03,2.29 -0.05,3.48 0,6.59 0.47,11.68 3.36,17.65 3.22,2.75 6.93,2.22 11,2 1.99,-0.5 1.99,-0.5 4,-1 0.33,-7.26 0.67,-14.52 1,-22 2.97,0 5.94,0 9,0 0,9.57 0,19.14 0,29 -6.11,1.36 -11.09,2.34 -17.18,2.31 -1.01,0.02 -1.01,0.02 -2.04,0.05 -4.67,0 -7.81,-0.93 -11.78,-3.36 -7.63,-8.06 -7.18,-17.85 -7.18,-28.31 -0.01,-1.09 -0.03,-2.18 -0.04,-3.31 -0.02,-8.89 0.2,-17.35 6.22,-24.38 C -11.01,-0.37 -6.2,-0.17 0,0 Z"
         fill="#000000"
         transform="translate(22.375,265.8125)"
         id="path9"
         style="fill:#ffffff" /><path
         d="m 0,0 c 4.11,2.91 6.66,5.83 7.56,10.81 0.25,4.37 0.27,8.74 0.3,13.11 0.01,1.42 0.03,2.84 0.06,4.26 0.17,8.08 0.28,14.72 -4.36,21.63 -4.64,4.5 -10.14,4.29 -16.31,4.22 -4.95,-0.4 -7.68,-2.13 -11,-5.72 -3.86,-5.72 -2.91,-12.37 -2.93,-19.01 -0.01,-2.22 -0.04,-4.43 -0.07,-6.64 -0.01,-1.43 -0.01,-2.85 -0.02,-4.27 0,-1.28 -0.01,-2.57 -0.02,-3.89 C -26.28,9.17 -24.92,5.25 -21,1.44 -14.9,-2.43 -6.68,-2.31 0,0 Z m -15.88,8.06 c -3.34,5.9 -2.78,12.01 -2.81,18.63 -0.02,1.07 -0.04,2.15 -0.06,3.26 -0.03,5.69 0,9.99 3.31,14.86 1.99,2.41 1.99,2.41 5.88,2.44 3.41,-0.08 3.92,-0.25 6.56,-2.69 3.27,-5.75 2.78,-11.6 2.81,-18.06 0.02,-1.02 0.04,-2.04 0.07,-3.09 0.03,-6 -0.38,-10.32 -3.32,-15.6 -1.99,-2.4 -1.99,-2.4 -5.87,-2.43 -3.41,0.08 -3.92,0.24 -6.57,2.68 z"
         fill="#000000"
         transform="translate(183.4375,274.1875)"
         id="path10"
         style="fill:#ffffff" /><path
         d="m 0,0 c 2.64,0 5.28,0 8,0 0.01,1.15 0.03,2.3 0.04,3.48 0.06,4.29 0.14,8.57 0.22,12.85 0.04,1.85 0.06,3.7 0.09,5.55 0.03,2.67 0.08,5.34 0.14,8 0,0.82 0.01,1.65 0.02,2.49 0.12,4.89 0.68,8.45 3.49,12.63 3.4,1.33 3.4,1.33 7,1 2.95,-2.17 3.84,-3.52 5,-7 0.15,-2.95 0.26,-5.87 0.32,-8.82 0.02,-0.87 0.04,-1.73 0.06,-2.61 0.06,-2.76 0.12,-5.51 0.18,-8.26 0.05,-1.86 0.09,-3.73 0.13,-5.59 C 24.8,9.14 24.9,4.57 25,0 c 2.97,0 5.94,0 9,0 0.05,5.25 0.09,10.49 0.11,15.74 0.01,1.78 0.02,3.56 0.04,5.35 0.03,2.57 0.04,5.14 0.05,7.72 0.01,0.78 0.02,1.57 0.03,2.38 0,6.58 -0.56,13.02 -3.98,18.75 -4.84,4.43 -10.28,4.45 -16.56,4.31 C 8.58,53.78 5.31,52.49 1.83,48.53 -0.65,43.75 -0.51,39.88 -0.39,34.57 c 0.01,-0.99 0.01,-1.98 0.02,-3 0.02,-3.15 0.07,-6.3 0.12,-9.45 0.02,-2.14 0.04,-4.28 0.05,-6.42 C -0.15,10.47 -0.08,5.23 0,0 Z"
         fill="#000000"
         transform="translate(83,274)"
         id="path11"
         style="fill:#ffffff" /><path
         d="m 0,0 c 21,0 21,0 26,3 3.58,5.06 3.65,10.03 3,16 -0.56,3 -1.3,5.45 -3,8 -6.13,4.08 -10.06,3 -18,3 0,7.59 0,15.18 0,23 C 5.36,53 2.72,53 0,53 0,35.51 0,18.02 0,0 Z m 8,6 c 0,5.61 0,11.22 0,17 7.26,0.58 7.26,0.58 10.48,-1.19 2,-2.38 2,-3.73 1.9,-6.81 C 20.36,14.13 20.35,13.27 20.34,12.38 20.14,9.74 20.14,9.74 18,7 15.57,6.42 15.57,6.42 12.88,6.31 11.27,6.21 9.66,6.11 8,6 Z"
         fill="#000000"
         transform="translate(124,274)"
         id="path12"
         style="fill:#ffffff" /></g></g></svg>
