<?xml version="1.0" encoding="UTF-8" standalone="no"?>
<!-- Created with Inkscape (http://www.inkscape.org/) -->

<svg
   width="800"
   height="800"
   viewBox="0 0 211.66667 211.66667"
   version="1.1"
   id="svg1"
   xml:space="preserve"
   inkscape:version="1.3.2 (091e20e, 2023-11-25, custom)"
   sodipodi:docname="mais.svg"
   xmlns:inkscape="http://www.inkscape.org/namespaces/inkscape"
   xmlns:sodipodi="http://sodipodi.sourceforge.net/DTD/sodipodi-0.dtd"
   xmlns="http://www.w3.org/2000/svg"
   xmlns:svg="http://www.w3.org/2000/svg"><sodipodi:namedview
     id="namedview1"
     pagecolor="#000000"
     bordercolor="#000000"
     borderopacity="0.25"
     inkscape:showpageshadow="2"
     inkscape:pageopacity="0.0"
     inkscape:pagecheckerboard="0"
     inkscape:deskcolor="#d1d1d1"
     inkscape:document-units="mm"
     inkscape:export-bgcolor="#00000000"
     inkscape:zoom="0.18106587"
     inkscape:cx="1502.2158"
     inkscape:cy="-1245.4032"
     inkscape:window-width="1920"
     inkscape:window-height="1009"
     inkscape:window-x="-8"
     inkscape:window-y="-8"
     inkscape:window-maximized="1"
     inkscape:current-layer="layer1"
     showguides="true" /><defs
     id="defs1"><inkscape:path-effect
       effect="fillet_chamfer"
       id="path-effect85"
       is_visible="true"
       lpeversion="1"
       nodesatellites_param="F,0,0,1,0,0,0,1 @ F,0,0,1,0,0,0,1 @ F,0,0,1,0,0,0,1 @ F,0,0,1,0,0,0,1 @ F,0,0,1,0,0,0,1 @ F,0,0,1,0,0,0,1 @ F,0,0,1,0,0,0,1"
       radius="0"
       unit="px"
       method="auto"
       mode="F"
       chamfer_steps="1"
       flexible="false"
       use_knot_distance="true"
       apply_no_radius="true"
       apply_with_radius="true"
       only_selected="false"
       hide_knots="false" /></defs><g
     inkscape:label="Camada 1"
     inkscape:groupmode="layer"
     id="layer1"
     transform="translate(-67.583023,162.56458)"><path
       id="rect110"
       style="fill:#ffffff;fill-opacity:1;stroke:none;stroke-width:3.06501;stroke-linecap:round;stroke-linejoin:round;paint-order:stroke fill markers"
       d="m 236.86451,-80.451729 c -0.65705,0 -1.186,0.528957 -1.186,1.186004 v 8.678873 h 7.07075 v -8.678873 c 0,-0.657047 -0.52895,-1.186004 -1.186,-1.186004 z m 5.88475,9.864877 v 7.070737 h 8.67886 c 0.65704,0 1.186,-0.528957 1.186,-1.186004 v -4.698729 c 0,-0.657025 -0.52896,-1.186004 -1.186,-1.186004 z m 0,7.070737 h -7.07075 v 8.678874 c 0,0.657046 0.52895,1.186004 1.186,1.186004 h 4.69875 c 0.65705,0 1.186,-0.528958 1.186,-1.186004 z m -7.07075,0 v -7.070737 h -8.67886 c -0.65704,0 -1.186,0.528979 -1.186,1.186004 v 4.698729 c 0,0.657047 0.52896,1.186004 1.186,1.186004 z m -49.31075,-16.265647 c -1.60614,0 -2.89823,1.293223 -2.89823,2.899367 v 1.609253 1.61037 2.899367 h 2.89823 1.91933 1.91935 c 1.60614,0 2.89936,-1.293223 2.89936,-2.899367 v -1.61037 -1.609253 -2.899367 h -2.89936 -1.91935 z m 21.32427,12.842316 c -6.7152,-0.03789 -13.55641,2.990906 -13.55641,10.258694 0.0519,3.106885 1.85707,6.017311 6.94401,7.960245 3.94628,1.507268 6.51085,2.353963 8.02248,2.811091 1.24636,0.37691 1.77674,0.488881 1.77674,0.488881 2.66975,0.924877 3.07708,3.254137 0.68241,4.412439 -0.70046,0.338827 -1.64152,0.577902 -2.83488,0.651834 -2.76263,0.171254 -5.92678,-0.615569 -6.64749,-1.863877 -0.41227,-0.714073 -0.29989,-2.349364 -0.29989,-2.349364 h -5.90058 v 5.099356 c 2.00887,8.542725 26.25046,9.88036 26.25046,-3.800198 -0.0519,-3.10671 -1.857,-6.017311 -6.94398,-7.960245 -3.94629,-1.507268 -6.5109,-2.353964 -8.02248,-2.811091 -1.24636,-0.37691 -1.77674,-0.488882 -1.77674,-0.488882 -2.66976,-0.924876 -3.07708,-3.254158 -0.68241,-4.412416 0.70045,-0.338827 1.64149,-0.577924 2.83485,-0.651857 2.76267,-0.171253 5.92683,0.61557 6.64749,1.863878 0.41228,0.714072 0.29991,2.349364 0.29991,2.349364 h 5.90059 v -5.099356 c -0.94167,-4.004387 -6.7689,-6.425122 -12.69408,-6.458496 z m -24.2225,0.168625 v 24.843783 c 0,0.657069 -0.52895,1.186005 -1.186,1.186005 -0.65705,0 -1.18601,-0.528936 -1.18601,-1.186005 V -44.0195 -62.871047 c -1.62451,-1.377821 -7.42866,-3.220587 -13.62432,-3.267167 -9.05512,-0.06811 -18.94862,3.700358 -17.85904,18.361526 1.06396,14.316385 13.09473,16.740908 19.65389,13.067529 1.62235,-0.908583 3.07457,-2.622668 4.36039,-4.774566 V -38.936 c 0,2.816478 2.26704,5.083523 5.0835,5.083523 h 9.31034 c 2.81648,0 5.08352,-2.267045 5.08352,-5.083523 v -5.0835 -22.751321 z m -46.94441,0.707284 c -0.23217,-0.0046 -0.45962,-0.0022 -0.68015,0.0046 -4.4033,0.135776 -8.73478,2.899695 -9.89089,6.141634 0,0 -0.001,0.0067 -0.001,0.0068 -1.3313,-4.550645 -5.27113,-6.266264 -9.27526,-6.142751 -4.40332,0.135776 -8.87965,2.491141 -10.03576,5.733079 0,0 -0.0328,0.130543 -0.0372,0.149398 -0.38022,-5.185486 -3.55808,-5.815838 -6.33516,-5.825911 -0.20454,-7.45e-4 -0.406565,0.0012 -0.605455,0.0057 -1.740475,0.03867 -3.861692,0.446593 -5.445651,0.809138 v 5.167265 c 0.45693,-0.08906 0.931314,-0.158595 1.379529,-0.177669 1.661724,-0.07071 2.120757,2.581366 2.120757,2.581366 v 4.595758 19.162758 h 9.63741 v -19.717312 c 0,-1.850037 2.0211,-5.025796 6.14618,-5.025796 4.12514,0 4.33885,5.425284 4.33885,5.425284 v 5.400385 13.917421 h 9.63741 v -19.717294 c 0,-1.850037 2.02109,-5.025796 6.14615,-5.025796 4.12516,0 4.33888,5.425284 4.33888,5.425284 v 5.400385 4.088765 c -0.61461,11.192089 6.17739,10.411464 8.47742,10.411464 1.29679,0 3.23088,-0.466872 4.68743,-0.875909 v -6.319326 c -0.95188,0.02251 -1.89445,0.03443 -2.40031,-0.0045 -1.29992,-0.09999 -1.12716,-3.211718 -1.12716,-3.211718 v -13.963827 c 0.14257,-1.446738 -0.12001,-2.519698 -0.86572,-3.770743 -2.05984,-3.215506 -6.72729,-4.57964 -10.21004,-4.647835 z m 30.20911,7.108097 c 2.22055,-0.01881 3.73312,0.762536 4.72589,1.541344 v 12.494904 c 0,0.60105 -1.54452,3.962888 -5.96395,4.178159 -4.41949,0.215358 -7.0002,-4.036142 -6.8942,-9.516306 0.10599,-5.480185 3.96028,-8.662624 8.13226,-8.698101 z" /></g></svg>
