<?xml version="1.0" encoding="UTF-8" standalone="no"?>
<!-- Created with Inkscape (http://www.inkscape.org/) -->

<svg
   width="800"
   height="800"
   viewBox="0 0 211.66667 211.66667"
   version="1.1"
   id="svg1"
   xml:space="preserve"
   inkscape:version="1.3.2 (091e20e, 2023-11-25, custom)"
   sodipodi:docname="oab.svg"
   xmlns:inkscape="http://www.inkscape.org/namespaces/inkscape"
   xmlns:sodipodi="http://sodipodi.sourceforge.net/DTD/sodipodi-0.dtd"
   xmlns="http://www.w3.org/2000/svg"
   xmlns:svg="http://www.w3.org/2000/svg"><sodipodi:namedview
     id="namedview1"
     pagecolor="#000000"
     bordercolor="#000000"
     borderopacity="0.25"
     inkscape:showpageshadow="2"
     inkscape:pageopacity="0.0"
     inkscape:pagecheckerboard="0"
     inkscape:deskcolor="#d1d1d1"
     inkscape:document-units="mm"
     inkscape:export-bgcolor="#00000000"
     inkscape:zoom="0.51213161"
     inkscape:cx="568.21332"
     inkscape:cy="403.21667"
     inkscape:window-width="1920"
     inkscape:window-height="1009"
     inkscape:window-x="-8"
     inkscape:window-y="-8"
     inkscape:window-maximized="1"
     inkscape:current-layer="layer1" /><defs
     id="defs1"><clipPath
       clipPathUnits="userSpaceOnUse"
       id="clipPath3011"><path
         inkscape:connector-curvature="0"
         d="M -2.2e-8,1.2207e-4 H 720 V 540.00012 H -2.2e-8 Z"
         clip-rule="evenodd"
         id="path3013" /></clipPath><clipPath
       clipPathUnits="userSpaceOnUse"
       id="clipPath3021"><path
         inkscape:connector-curvature="0"
         d="M 0,0 H 843.56 V 87.998 H 0 Z"
         id="path3023" /></clipPath><clipPath
       clipPathUnits="userSpaceOnUse"
       id="clipPath3945"><path
         inkscape:connector-curvature="0"
         d="M 0,1.2207e-4 H 720 V 540.00012 H 0 Z"
         clip-rule="evenodd"
         id="path3947" /></clipPath><clipPath
       clipPathUnits="userSpaceOnUse"
       id="clipPath36"><path
         d="M 0,595.276 H 841.89 V 0 H 0 Z"
         transform="translate(-130.8096,-476.27511)"
         id="path36" /></clipPath></defs><g
     inkscape:label="Camada 1"
     inkscape:groupmode="layer"
     id="layer1"
     transform="translate(-67.583023,162.56458)"><g
       id="g1"
       transform="matrix(0.29977392,0,0,0.29977392,106.69662,-105.60134)"><g
         id="g42"
         transform="translate(-94.994596,338.39281)"
         style="fill:#ffffff"><path
           id="text35"
           style="font-weight:bold;font-size:16px;font-family:Lato;-inkscape-font-specification:'Lato, Bold';text-align:center;text-anchor:middle;fill:#ffffff;stroke-width:2.34384"
           d="m 287.05124,-76.838122 v 23.21875 h 2.54492 c 0.26042,0 0.46353,-0.05533 0.60937,-0.169922 0.15633,-0.11459 0.26759,-0.305331 0.33008,-0.576172 l 0.16797,-1.080078 c 0.26042,0.312507 0.53515,0.598949 0.81641,0.859375 0.29169,0.250006 0.60417,0.465486 0.9375,0.642578 0.33337,0.177076 0.70117,0.312496 1.10742,0.40625 0.40626,0.104159 0.8522,0.15625 1.3418,0.15625 1.05209,0 2.00387,-0.210272 2.84765,-0.626953 0.85419,-0.427098 1.57615,-1.017556 2.16992,-1.767578 0.60419,-0.750024 1.06771,-1.633432 1.39063,-2.654297 0.32294,-1.020865 0.48633,-2.130168 0.48633,-3.328125 0,-1.312546 -0.1479,-2.473925 -0.43946,-3.484375 -0.28127,-1.010449 -0.68748,-1.857406 -1.21875,-2.544922 -0.52085,-0.68754 -1.14775,-1.21223 -1.87695,-1.566406 -0.71875,-0.364607 -1.51364,-0.544899 -2.38867,-0.544922 -1.07295,0 -2.00844,0.203024 -2.81055,0.609375 -0.8021,0.395849 -1.52082,0.930312 -2.15625,1.607422 v -9.15625 z m -27.78321,0.375 c -1.17711,0 -2.22393,0.186127 -3.14062,0.550781 -0.91667,0.364582 -1.69464,0.846978 -2.33008,1.451172 -0.62501,0.604193 -1.10415,1.296855 -1.4375,2.078125 -0.32291,0.781269 -0.48437,1.585261 -0.48437,2.408203 0,1.031286 0.14788,1.901021 0.43945,2.609375 0.3021,0.697946 0.69595,1.279281 1.18555,1.748047 0.4896,0.468766 1.04491,0.847005 1.66992,1.138672 0.62503,0.291689 1.26428,0.543609 1.91015,0.751953 0.64584,0.208365 1.27927,0.399095 1.9043,0.576172 0.62501,0.177193 1.18032,0.399733 1.66992,0.660156 0.48959,0.250016 0.88019,0.558583 1.17188,0.933594 0.30208,0.37501 0.45312,0.861309 0.45312,1.455078 0,1.062534 -0.3281,1.880189 -0.98437,2.453125 -0.65627,0.562517 -1.57939,0.84375 -2.77735,0.84375 -0.78129,3e-6 -1.4531,-0.104153 -2.01562,-0.3125 -0.55209,-0.21875 -1.03842,-0.458325 -1.45508,-0.71875 -0.40628,-0.260423 -0.76039,-0.496737 -1.0625,-0.705078 -0.3021,-0.21875 -0.58137,-0.324219 -0.8418,-0.324219 -0.19805,0 -0.38215,0.05207 -0.54882,0.15625 -0.15633,0.09375 -0.2936,0.211579 -0.40821,0.357422 l -1.21679,2.017578 c 0.43751,0.447931 0.93033,0.854155 1.48242,1.21875 0.56249,0.364594 1.16342,0.677077 1.79883,0.9375 0.64586,0.260424 1.31767,0.454424 2.01562,0.589844 0.69794,0.145832 1.40819,0.220703 2.12695,0.220703 1.25004,0 2.35936,-0.187501 3.32813,-0.5625 0.9688,-0.385428 1.78252,-0.90623 2.44922,-1.5625 0.67709,-0.666687 1.19141,-1.444635 1.53515,-2.330078 0.3542,-0.895863 0.5293,-1.854136 0.5293,-2.875 0,-0.937529 -0.15109,-1.732423 -0.45312,-2.388672 -0.29169,-0.656274 -0.68228,-1.208321 -1.17188,-1.65625 -0.48961,-0.458337 -1.04491,-0.835288 -1.66992,-1.126953 -0.62501,-0.302097 -1.26561,-0.560524 -1.92188,-0.779297 -0.64585,-0.229227 -1.28122,-0.442713 -1.90625,-0.640625 -0.625,-0.198054 -1.18423,-0.421883 -1.67382,-0.671875 -0.4896,-0.250017 -0.88348,-0.552074 -1.18555,-0.90625 -0.29167,-0.354176 -0.43945,-0.796849 -0.43945,-1.328125 0,-0.416687 0.0729,-0.796856 0.21875,-1.140625 0.14578,-0.354176 0.3626,-0.656234 0.65429,-0.90625 0.30207,-0.249993 0.66663,-0.444653 1.09375,-0.580078 0.43752,-0.145787 0.9518,-0.214844 1.53516,-0.214844 0.64584,0 1.20116,0.07952 1.66992,0.246094 0.47915,0.156332 0.89583,0.333336 1.25,0.53125 0.35418,0.197818 0.66341,0.382158 0.92383,0.548828 0.26045,0.156332 0.49282,0.234375 0.70117,0.234375 0.20836,0 0.38539,-0.04882 0.53125,-0.142578 0.15633,-0.09375 0.29169,-0.255195 0.40625,-0.484375 l 1.03125,-1.982422 c -0.7917,-0.750027 -1.74997,-1.333314 -2.875,-1.75 -1.125,-0.416686 -2.35219,-0.626953 -3.68555,-0.626953 z m 95.53516,0.330078 c -0.45833,0 -0.88735,0.09169 -1.2832,0.279297 -0.38542,0.187505 -0.72396,0.453129 -1.01563,0.796875 -0.29169,0.33334 -0.52082,0.743459 -0.6875,1.222656 -0.15633,0.468766 -0.23242,0.990862 -0.23242,1.574219 h 2.38867 c 0,-0.4375 0.0814,-0.742823 0.24805,-0.919922 0.1772,-0.187507 0.41665,-0.279297 0.71875,-0.279297 0.20836,0 0.43425,0.06594 0.67383,0.201172 0.24999,0.135472 0.51366,0.279284 0.79492,0.435547 0.28126,0.156333 0.58331,0.304026 0.90625,0.439453 0.32293,0.135472 0.67382,0.201172 1.04883,0.201172 0.46875,0 0.89583,-0.08845 1.28125,-0.265625 0.39585,-0.187506 0.73632,-0.445958 1.01757,-0.779297 0.28126,-0.343747 0.49803,-0.751937 0.6543,-1.220703 0.16664,-0.479173 0.25195,-1.010394 0.25195,-1.59375 h -2.34375 c 0,0.447929 -0.0885,0.760423 -0.26562,0.9375 -0.17696,0.166645 -0.42577,0.251953 -0.73828,0.251953 -0.20836,0 -0.43229,-0.06961 -0.67188,-0.205078 -0.23959,-0.135474 -0.49802,-0.279308 -0.77929,-0.435547 -0.28125,-0.156333 -0.59049,-0.304051 -0.92383,-0.439453 -0.32293,-0.135474 -0.66796,-0.201172 -1.04297,-0.201172 z m 1.9043,6.189453 c -2.60424,0 -4.82611,0.839785 -6.66993,2.527344 l 0.69922,1.236328 c 0.11461,0.197818 0.26563,0.362643 0.45313,0.498047 0.18751,0.135472 0.41341,0.207031 0.67383,0.207031 0.31251,0 0.60088,-0.07492 0.86132,-0.220703 0.26043,-0.145786 0.53971,-0.307275 0.8418,-0.484375 0.31251,-0.187506 0.67706,-0.354168 1.09375,-0.5 0.41666,-0.145787 0.93555,-0.21875 1.56055,-0.21875 0.86462,0 1.52082,0.262333 1.96875,0.783203 0.45834,0.510416 0.6914,1.30204 0.6914,2.375 v 0.933594 c -1.82298,0.04172 -3.3489,0.218676 -4.57812,0.53125 -1.22921,0.312502 -2.21742,0.710271 -2.95703,1.189453 -0.7396,0.468764 -1.27084,0.999982 -1.59375,1.59375 -0.31253,0.583351 -0.4668,1.177064 -0.4668,1.78125 0,0.718771 0.11457,1.348941 0.34375,1.890625 0.22923,0.541684 0.54688,0.99478 0.95313,1.359375 0.41669,0.364597 0.90947,0.640618 1.48242,0.828125 0.57292,0.177076 1.19985,0.265625 1.87695,0.265625 0.57293,0 1.09179,-0.04883 1.56055,-0.142578 0.46877,-0.09375 0.91143,-0.232423 1.32812,-0.419922 0.41669,-0.187506 0.81771,-0.41666 1.20313,-0.6875 0.39585,-0.281258 0.79882,-0.606109 1.20508,-0.970703 l 0.34375,1.144531 c 0.10407,0.333344 0.26235,0.553384 0.4707,0.667969 0.20836,0.104159 0.49089,0.15625 0.85547,0.15625 h 1.73633 v -10.121094 c 0,-0.90629 -0.13743,-1.743473 -0.40821,-2.503906 -0.26043,-0.760433 -0.64385,-1.40949 -1.15429,-1.951172 -0.51044,-0.552113 -1.13734,-0.979154 -1.87696,-1.28125 -0.72919,-0.312503 -1.56051,-0.466797 -2.49804,-0.466797 z m -46.78125,0.04492 c -0.98962,2.3e-5 -1.86652,0.13742 -2.62696,0.408203 -0.75002,0.260423 -1.3802,0.61457 -1.89062,1.0625 -0.50003,0.437499 -0.88021,0.953111 -1.14063,1.546875 -0.26042,0.593786 -0.38867,1.216773 -0.38867,1.873047 0,0.708352 0.10537,1.312489 0.32422,1.8125 0.22922,0.500009 0.52799,0.923807 0.89258,1.267578 0.37501,0.34375 0.7949,0.626296 1.26367,0.855469 0.47917,0.218749 0.96743,0.415359 1.45703,0.582031 0.50001,0.16667 0.9824,0.320959 1.45117,0.466797 0.47918,0.135426 0.90297,0.289709 1.26758,0.466797 0.37502,0.177099 0.66797,0.387364 0.88672,0.626953 0.22923,0.239591 0.34375,0.544908 0.34375,0.919922 0,0.250006 -0.0503,0.49869 -0.1543,0.738281 -0.0938,0.22918 -0.25,0.430334 -0.46875,0.607422 -0.20837,0.177099 -0.48109,0.320961 -0.81445,0.435547 -0.32291,0.104159 -0.71353,0.160156 -1.17187,0.160156 -0.58334,0 -1.06573,-0.06965 -1.45118,-0.205078 -0.37501,-0.135427 -0.70311,-0.27929 -0.98437,-0.435547 -0.28126,-0.156263 -0.53125,-0.304032 -0.75,-0.439453 -0.20837,-0.135426 -0.43424,-0.201172 -0.67383,-0.201172 -0.23959,0 -0.4336,0.04296 -0.58984,0.136719 -0.15633,0.09375 -0.29362,0.231107 -0.40821,0.408203 l -0.89257,1.46875 c 0.3125,0.281257 0.67574,0.543612 1.08203,0.783203 0.41666,0.239592 0.86067,0.445958 1.33984,0.623047 0.4896,0.177075 0.99478,0.312496 1.51563,0.40625 0.53124,0.104159 1.07289,0.15625 1.625,0.15625 1.03128,0 1.94658,-0.128261 2.73828,-0.388672 0.80211,-0.270842 1.47198,-0.644516 2.01367,-1.113281 0.54168,-0.479181 0.95507,-1.03774 1.23633,-1.683594 0.28126,-0.656271 0.42187,-1.37172 0.42187,-2.142578 0,-0.645855 -0.11457,-1.199858 -0.34375,-1.658203 -0.21868,-0.458348 -0.51757,-0.848949 -0.89258,-1.171875 -0.36461,-0.33334 -0.78125,-0.602205 -1.25,-0.810547 -0.46876,-0.21868 -0.9479,-0.409502 -1.4375,-0.576172 -0.48959,-0.166646 -0.96874,-0.317699 -1.4375,-0.453125 -0.46877,-0.145787 -0.88866,-0.307275 -1.26367,-0.484375 -0.36461,-0.17696 -0.6634,-0.380218 -0.89258,-0.609375 -0.21868,-0.239586 -0.33007,-0.535161 -0.33007,-0.878906 0,-0.520847 0.22267,-0.940763 0.66015,-1.263672 0.4375,-0.322934 1.03449,-0.486328 1.79492,-0.486328 0.4896,0 0.9134,0.05218 1.26758,0.15625 0.36458,0.104065 0.68359,0.225855 0.96485,0.361328 0.28125,0.124927 0.52994,0.23959 0.73828,0.34375 0.21869,0.104066 0.41991,0.15625 0.60742,0.15625 0.17719,0 0.32488,-0.02922 0.43945,-0.0918 0.11461,-0.07289 0.22192,-0.194682 0.32617,-0.361328 l 0.87305,-1.392578 c -0.60416,-0.593764 -1.35936,-1.072918 -2.26562,-1.4375 -0.90629,-0.364608 -1.90752,-0.544899 -3.01172,-0.544922 z m 15.17187,0 c -1.19796,0 -2.27994,0.206478 -3.23828,0.623047 -0.94796,0.416686 -1.75322,0.984365 -2.41992,1.703125 -0.65628,0.708353 -1.16146,1.548802 -1.51563,2.517578 -0.35418,0.958369 -0.53125,1.982399 -0.53125,3.076172 0,1.406296 0.20305,2.649705 0.60938,3.722656 0.40628,1.062533 0.96546,1.95831 1.67383,2.6875 0.70833,0.718773 1.54164,1.263661 2.5,1.638672 0.95836,0.364594 1.99476,0.548828 3.10937,0.548828 0.56251,0 1.14062,-0.04556 1.73438,-0.128906 0.60419,-0.08335 1.19465,-0.221993 1.76757,-0.419922 0.58335,-0.208343 1.13865,-0.477203 1.66993,-0.810547 0.53125,-0.343761 1.0104,-0.767562 1.4375,-1.267578 l -1.125,-1.40625 c -0.0834,-0.11459 -0.18434,-0.203114 -0.29883,-0.265625 -0.11462,-0.06251 -0.25,-0.0918 -0.40625,-0.0918 -0.23958,0 -0.48567,0.06899 -0.7461,0.214844 -0.25,0.145833 -0.55078,0.309239 -0.89453,0.486328 -0.33334,0.177099 -0.72721,0.338537 -1.18554,0.484375 -0.44793,0.145832 -0.98632,0.220703 -1.61133,0.220703 -1.27087,0 -2.29164,-0.387345 -3.0625,-1.158203 -0.77087,-0.770859 -1.21158,-1.981068 -1.32617,-3.626953 h 9.90625 c 0.17719,0 0.32488,-0.01689 0.43945,-0.05859 0.11461,-0.05208 0.20307,-0.134118 0.26562,-0.238281 0.0729,-0.11459 0.11586,-0.265621 0.13672,-0.453125 0.0312,-0.197819 0.0508,-0.440733 0.0508,-0.732422 0,-1.156282 -0.17373,-2.180289 -0.51757,-3.076172 -0.34377,-0.906266 -0.8229,-1.670533 -1.4375,-2.285156 -0.61459,-0.625007 -1.347,-1.09506 -2.20118,-1.417969 -0.84377,-0.322934 -1.77276,-0.486328 -2.7832,-0.486328 z m 16.78125,0 c -1.26045,0 -2.37693,0.206478 -3.3457,0.623047 -0.96878,0.416686 -1.7793,0.994779 -2.43555,1.734375 -0.65628,0.72919 -1.15818,1.598926 -1.50195,2.609375 -0.33334,1.000019 -0.5,2.092419 -0.5,3.269531 0,1.166703 0.15306,2.220022 0.45508,3.167969 0.3021,0.93753 0.71678,1.755188 1.24804,2.453125 0.53128,0.687523 1.1582,1.251936 1.87696,1.689453 0.72919,0.427094 1.5104,0.71549 2.34375,0.861328 l -0.59375,1.966797 c 0.78127,0.104161 1.35936,0.218744 1.73437,0.34375 0.37501,0.135426 0.5625,0.352204 0.5625,0.654297 0,0.187506 -0.0885,0.347653 -0.26562,0.472656 -0.16665,0.135427 -0.41991,0.201172 -0.76368,0.201172 -0.16664,0 -0.31443,-0.01046 -0.43945,-0.03125 -0.11462,-0.02086 -0.22596,-0.04687 -0.33008,-0.07813 -0.0937,-0.03124 -0.18223,-0.05729 -0.26562,-0.07813 -0.0729,-0.02086 -0.14586,-0.0332 -0.21875,-0.0332 -0.22923,0 -0.37304,0.123701 -0.43555,0.363281 l -0.36133,1.185547 c 0.3646,0.114591 0.72914,0.203112 1.09375,0.265625 0.37504,0.06251 0.77798,0.0957 1.20508,0.0957 0.56252,0 1.07812,-0.05924 1.54688,-0.173828 0.46877,-0.10416 0.86978,-0.255201 1.20312,-0.453125 0.33334,-0.197913 0.58858,-0.437493 0.76563,-0.71875 0.1875,-0.28126 0.2832,-0.595693 0.2832,-0.939453 0,-0.531268 -0.18739,-0.990872 -0.5625,-1.386719 -0.37501,-0.385429 -1.02798,-0.694656 -1.95508,-0.923828 l 0.1875,-0.6875 c 0.95837,-0.08335 1.88735,-0.31965 2.7832,-0.705078 0.89588,-0.395846 1.7031,-1.013645 2.42188,-1.857422 l -1.11328,-1.40625 c -0.1875,-0.239592 -0.41796,-0.357422 -0.69922,-0.357422 -0.23958,0 -0.46224,0.07812 -0.66016,0.234375 -0.18751,0.145834 -0.40752,0.31054 -0.66797,0.498047 -0.26041,0.177075 -0.58525,0.343743 -0.9707,0.5 -0.37501,0.145832 -0.86781,0.21875 -1.48242,0.21875 -0.6146,0 -1.16859,-0.114583 -1.6582,-0.34375 -0.4896,-0.23959 -0.90626,-0.581365 -1.25,-1.029297 -0.34377,-0.458348 -0.60742,-1.022764 -0.79493,-1.689453 -0.17696,-0.666687 -0.26562,-1.425104 -0.26562,-2.279297 0,-0.822928 0.0795,-1.561165 0.24609,-2.207031 0.16665,-0.656274 0.41861,-1.211586 0.75196,-1.669922 0.34376,-0.458337 0.77081,-0.809218 1.28125,-1.048828 0.51042,-0.249993 1.10411,-0.375 1.78125,-0.375 0.53127,0 0.97199,0.06234 1.32617,0.1875 0.36458,0.114612 0.67902,0.25001 0.93945,0.40625 0.26042,0.145785 0.48438,0.283207 0.67188,0.408203 0.18751,0.114614 0.3802,0.169921 0.57812,0.169922 0.20837,0 0.36654,-0.03985 0.4707,-0.123047 0.11462,-0.08344 0.22913,-0.198012 0.34375,-0.34375 l 1.01172,-1.40625 c -0.71879,-0.718784 -1.52928,-1.270831 -2.43554,-1.65625 -0.89587,-0.385444 -1.94267,-0.578125 -3.14063,-0.578125 z m 31.4082,0 c -1.19794,0 -2.28836,0.192565 -3.26757,0.578125 -0.97919,0.385419 -1.81576,0.930318 -2.51368,1.638672 -0.68753,0.708352 -1.2259,1.574848 -1.61132,2.595703 -0.37501,1.020856 -0.56446,2.163369 -0.56446,3.423828 0,1.270872 0.18936,2.416635 0.56446,3.4375 0.38542,1.020866 0.92379,1.890601 1.61132,2.609375 0.69792,0.718774 1.53449,1.266915 2.51368,1.652344 0.97921,0.385429 2.06963,0.582031 3.26757,0.582031 1.19796,0 2.28124,-0.196596 3.25,-0.582031 0.97921,-0.385429 1.81249,-0.93357 2.5,-1.652344 0.68753,-0.718774 1.21877,-1.588509 1.59375,-2.609375 0.37504,-1.020865 0.5625,-2.166628 0.5625,-3.4375 0,-1.260459 -0.18741,-2.402972 -0.5625,-3.423828 -0.375,-1.020855 -0.90624,-1.887351 -1.59375,-2.595703 -0.68751,-0.708354 -1.52079,-1.253253 -2.5,-1.638672 -0.96873,-0.385443 -2.05204,-0.578125 -3.25,-0.578125 z m -104.3789,0.248047 v 10.189453 c 0,0.895862 0.11458,1.718728 0.34375,2.46875 0.23962,0.739608 0.58461,1.380192 1.04297,1.921875 0.45834,0.541682 1.02277,0.961579 1.68945,1.263672 0.67711,0.291675 1.45506,0.439453 2.33008,0.439453 0.53128,0 1.02604,-0.05533 1.48437,-0.169922 0.46877,-0.10416 0.89907,-0.25195 1.29493,-0.439453 0.40626,-0.197913 0.78644,-0.434235 1.14062,-0.705078 0.3542,-0.281258 0.69986,-0.586578 1.0332,-0.919922 l 0.26563,1.28125 c 0.15633,0.468766 0.48434,0.701172 0.98437,0.701172 h 2.35743 v -16.03125 h -3.85938 v 11.595703 c -0.52085,0.52085 -1.07292,0.934236 -1.65625,1.236328 -0.58339,0.291675 -1.20637,0.433594 -1.87305,0.433594 -0.90628,0 -1.58656,-0.263656 -2.04492,-0.794922 -0.44793,-0.541684 -0.67383,-1.302054 -0.67383,-2.28125 v -10.189453 z m 56.26562,2.517578 c 0.57293,0 1.07487,0.09891 1.50196,0.296875 0.42711,0.187506 0.78124,0.445957 1.0625,0.779297 0.28126,0.333339 0.48764,0.723945 0.62304,1.171875 0.13547,0.437499 0.20508,0.910146 0.20508,1.410156 h -7.25195 c 0.1772,-1.166713 0.58332,-2.069642 1.21875,-2.705078 0.63544,-0.635436 1.51558,-0.953125 2.64062,-0.953125 z m 48.11328,0.1875 c 1.33339,0 2.31769,0.453086 2.95313,1.359375 0.64584,0.906266 0.96484,2.221949 0.96484,3.951172 0,1.72922 -0.319,3.045544 -0.96484,3.941406 -0.63544,0.895862 -1.61974,1.341797 -2.95313,1.341797 -1.35418,0 -2.35804,-0.445935 -3.0039,-1.341797 -0.64585,-0.906277 -0.96485,-2.222604 -0.96485,-3.941406 0,-1.718817 0.319,-3.031234 0.96485,-3.9375 0.64586,-0.916697 1.64972,-1.373047 3.0039,-1.373047 z m -78.73828,0.04687 c 0.51043,0 0.96352,0.09569 1.35938,0.283203 0.40625,0.187507 0.74998,0.482415 1.03125,0.888672 0.28125,0.406256 0.49479,0.935524 0.64062,1.591797 0.15634,0.645843 0.23243,1.43942 0.23243,2.376953 0,0.927114 -0.0885,1.734354 -0.26563,2.421875 -0.1772,0.677105 -0.43033,1.239568 -0.76367,1.6875 -0.32294,0.44793 -0.71678,0.77929 -1.18555,0.998047 -0.46877,0.21875 -0.99673,0.330078 -1.58008,0.330078 -0.6042,0 -1.16858,-0.102197 -1.68945,-0.310547 -0.51044,-0.21875 -0.98047,-0.598942 -1.41797,-1.140625 v -7.191406 c 0.48961,-0.6146 1.0117,-1.08656 1.57422,-1.419922 0.57295,-0.343747 1.26234,-0.515625 2.06445,-0.515625 z m 64.33203,6.435547 v 2.705078 c -0.28125,0.291677 -0.56639,0.546868 -0.84765,0.765625 -0.27083,0.208342 -0.5534,0.383459 -0.85547,0.529297 -0.29169,0.145833 -0.60415,0.257159 -0.9375,0.330078 -0.33336,0.07292 -0.69985,0.109375 -1.0957,0.109375 -0.64586,0 -1.17186,-0.147787 -1.57813,-0.439453 -0.39584,-0.291676 -0.5957,-0.774067 -0.5957,-1.451172 0,-0.34376 0.0957,-0.659497 0.2832,-0.951172 0.19782,-0.291676 0.52604,-0.550775 0.98438,-0.769531 0.45833,-0.21875 1.06442,-0.395832 1.81445,-0.53125 0.76043,-0.145834 1.70308,-0.244791 2.82812,-0.296875 z m 51.45899,18.128906 v 8.46875 c -0.50003,-0.479183 -1.06769,-0.859368 -1.70313,-1.140625 -0.63544,-0.291676 -1.3971,-0.439453 -2.29296,-0.439453 -1.05212,0 -2.00388,0.213538 -2.84766,0.640625 -0.84376,0.416679 -1.56572,0.999976 -2.16992,1.75 -0.60417,0.750024 -1.06964,1.637338 -1.39258,2.658203 -0.32291,1.020865 -0.48438,2.12301 -0.48438,3.310547 0,1.312541 0.14444,2.481088 0.42579,3.501953 0.29169,1.020865 0.69595,1.878232 1.21679,2.576172 0.53128,0.68752 1.16141,1.215483 1.89063,1.580078 0.72919,0.364594 1.52926,0.544922 2.40429,0.544922 0.5625,0 1.08724,-0.06251 1.56641,-0.1875 0.4896,-0.11459 0.94272,-0.281244 1.35938,-0.5 0.42708,-0.21875 0.82096,-0.479159 1.18554,-0.78125 0.36461,-0.302095 0.94959,-1.503554 1.04883,-1.011719 l 0.31055,1.542969 c 0.15633,0.468765 0.48436,0.703125 0.98437,0.703125 h 2.36133 v -23.216797 z m -125.25391,0.04492 c -0.33334,0 -0.64907,0.06965 -0.95117,0.205078 -0.29167,0.124996 -0.54687,0.294915 -0.76562,0.513672 -0.21868,0.218749 -0.39387,0.481109 -0.5293,0.783203 -0.12493,0.302092 -0.18945,0.621083 -0.18945,0.964844 0,0.333344 0.0645,0.647777 0.18945,0.939453 0.13547,0.291675 0.31055,0.544915 0.5293,0.763672 0.21868,0.218749 0.47395,0.399736 0.76562,0.535156 0.3021,0.124996 0.61783,0.189453 0.95117,0.189453 0.34377,0 0.66861,-0.06443 0.97071,-0.189453 0.30207,-0.135427 0.56051,-0.3164 0.77929,-0.535156 0.22922,-0.21875 0.4134,-0.471997 0.54883,-0.763672 0.13547,-0.291676 0.20117,-0.606109 0.20117,-0.939453 0,-0.343761 -0.0659,-0.662752 -0.20117,-0.964844 -0.13548,-0.302094 -0.31968,-0.564445 -0.54883,-0.783203 -0.21869,-0.21875 -0.47722,-0.388666 -0.77929,-0.513672 -0.3021,-0.135427 -0.62694,-0.205078 -0.97071,-0.205078 z m -72.72656,0.130859 c -0.15629,0 -0.24597,0.0019 -0.30664,0.0059 0.10225,-0.0018 0.20323,-0.0059 0.30664,-0.0059 z m -0.30664,0.0059 c -1.67957,0.03028 -3.20544,0.305708 -4.57031,0.835938 -1.44795,0.562519 -2.68228,1.354141 -3.70313,2.375 -1.01045,1.020869 -1.79166,2.241484 -2.34375,3.658203 l 0.0195,0.0078 c -0.0304,0.07245 -0.0763,0.131569 -0.10547,0.205078 -0.5625,1.406294 -0.84179,2.95828 -0.84179,4.65625 0,1.677135 0.24998,3.225867 0.75,4.642578 0.51044,1.416709 1.23956,2.635384 2.1875,3.65625 0.94796,1.020865 2.08654,1.817689 3.41992,2.390625 1.34379,0.572935 2.85607,0.859375 4.5332,0.859375 1.87507,0 3.47717,-0.302064 4.81055,-0.90625 1.34379,-0.604186 4.38126,-1.536022 3.39258,-2.609375 l -1.65821,-1.798828 c -0.16665,-0.177077 -0.36457,-0.265625 -0.59375,-0.265625 -0.13548,0 -0.2565,0.0332 -0.37109,0.0957 -0.11461,0.05208 -0.22597,0.123044 -0.33008,0.216797 -0.34377,0.312507 -0.69466,0.576165 -1.04883,0.794922 -0.34377,0.208343 -0.71157,0.382158 -1.10742,0.517578 -0.38542,0.135426 -0.81249,0.236325 -1.28125,0.298828 -0.45836,0.06251 -0.97392,0.0918 -1.54687,0.0918 -0.95837,0 -1.85415,-0.177069 -2.6875,-0.53125 -0.83337,-0.364595 -1.56118,-0.885395 -2.17578,-1.5625 -0.6146,-0.677105 -1.10025,-1.508435 -1.46485,-2.498047 -0.35418,-0.989615 -0.52929,-2.121707 -0.52929,-3.392578 0,-1.229204 0.175,-2.331351 0.52929,-3.310547 l -0.0723,-0.226563 0.15429,0.05469 c 0.34377,-0.979199 0.83527,-1.815733 1.47071,-2.513672 0.63543,-0.697939 1.40101,-1.236319 2.29687,-1.611328 0.90627,-0.37501 1.91661,-0.5625 3.03125,-0.5625 0.68751,0 1.29166,0.04886 1.8125,0.142578 0.53128,0.0937 1.00323,0.215478 1.41992,0.361328 0.42709,0.14583 0.81446,0.313799 1.15821,0.511719 0.35418,0.19791 0.69593,0.397773 1.02929,0.595703 0.26042,0.16667 0.51366,0.251953 0.76368,0.251953 0.39585,0 0.71254,-0.199682 0.95703,-0.582031 l 1.21875,-1.904297 c -0.93753,-0.875029 -2.08328,-1.581368 -3.4375,-2.123047 -1.22988,-0.505301 -5.74097,-0.779373 -5.08594,-0.822266 z m 130.13281,0.19336 c -0.31557,0 -0.3666,0.0092 -0.32031,0.02539 0.1109,-0.0022 0.20804,-0.02539 0.32031,-0.02539 z m -0.32031,0.02539 c -1.66918,0.0327 -3.19693,0.288934 -4.55469,0.816407 -1.44795,0.562516 -2.68227,1.354134 -3.70312,2.375 -1.01045,1.020865 -1.79166,2.241489 -2.34375,3.658203 -0.55211,1.416709 -0.83008,2.971952 -0.83008,4.669922 0,1.677135 0.28125,3.225867 0.84375,4.642578 0.57294,1.416709 1.36455,2.635384 2.375,3.65625 1.01045,1.020865 2.20829,1.817689 3.59375,2.390625 1.38549,0.572935 2.89903,0.859375 4.54492,0.859375 0.92713,0 1.79357,-0.05011 2.5957,-0.154297 0.80211,-0.09375 1.55011,-0.24153 2.24805,-0.439453 0.70835,-0.197913 1.37171,-0.449862 1.98633,-0.751953 0.625,-0.31251 1.79492,-0.385324 1.79492,-1.09375 v -9.142578 h -7.51172 v 2.376953 c 0,0.218749 0.078,0.406246 0.23438,0.5625 0.15634,0.145832 0.36977,0.220703 0.64062,0.220703 h 2.82422 v 4.109375 c -0.63544,0.302091 -1.30531,0.541662 -2.01367,0.71875 -0.69792,0.16667 -1.52081,0.248047 -2.46875,0.248047 -1.07296,0 -2.06441,-0.180334 -2.9707,-0.544922 -0.90629,-0.375011 -1.68748,-0.913389 -2.34375,-1.611328 -0.65627,-0.697938 -1.16472,-1.552051 -1.5293,-2.5625 -0.36461,-1.020865 -0.54883,-2.182252 -0.54883,-3.484375 0,-1.208372 0.17374,-2.304007 0.51758,-3.283203 0.34377,-0.9792 0.83331,-1.81378 1.46875,-2.511719 0.63543,-0.697939 1.40297,-1.236317 2.29883,-1.611328 0.90627,-0.375013 1.91466,-0.564453 3.02929,-0.564453 0.68751,-2e-6 1.29362,0.04883 1.81446,0.142578 0.53128,0.09375 1.00128,0.215478 1.41797,0.361328 0.42709,0.145833 0.81445,0.315749 1.1582,0.513672 0.35418,0.197912 0.69594,0.395825 1.0293,0.59375 0.26042,0.166669 0.5156,0.251953 0.76562,0.251953 0.39585,0 0.71254,-0.197736 0.95703,-0.580078 l 1.2168,-1.904297 c -0.93753,-0.875027 -2.08328,-1.583316 -3.4375,-2.125 -1.1138,-0.457608 -4.87543,-0.724314 -5.09961,-0.802735 z m -67.81055,6.488282 c -1.12504,0 -2.10934,0.229145 -2.95312,0.6875 -0.83338,0.458347 -1.56898,1.059219 -2.21485,1.798828 l -0.3164,-1.484375 c -0.0511,-0.2398 -0.16658,-0.416666 -0.34375,-0.53125 -0.17719,-0.114591 -0.39064,-0.173828 -0.64063,-0.173828 h -2.35742 v 21.269531 h 3.85938 v -6.564453 c 0,-0.699798 1.06444,0.876943 1.68945,1.158203 0.63546,0.270842 1.40428,0.402344 2.31055,0.402344 1.05212,0 1.99999,-0.206373 2.84375,-0.623047 0.85421,-0.427097 1.57616,-1.015602 2.16992,-1.765625 0.6042,-0.750024 1.06769,-1.635385 1.39062,-2.65625 0.32291,-1.020866 0.48633,-2.130169 0.48633,-3.328125 0,-1.312541 -0.14788,-2.473925 -0.43945,-3.484375 -0.28126,-1.020865 -0.68749,-1.874977 -1.21875,-2.5625 -0.52086,-0.697937 -1.14191,-1.229156 -1.8711,-1.59375 -0.71879,-0.364595 -1.51948,-0.54883 -2.39453,-0.548828 z m 88.31836,0 c 0.94531,0.157552 -1.82483,0.288394 -2.5957,0.861328 -0.77086,0.572935 -1.44074,1.354137 -2.01367,2.34375 l -0.23828,-1.9375 c -0.0521,-0.354177 -0.15419,-0.604162 -0.31055,-0.75 -0.15633,-0.145833 -0.4323,-0.220703 -0.82813,-0.220703 h -2.26757 v 16.03125 h 3.85937 v -9.982422 c 0,-0.941459 0.88407,-1.499987 1.45703,-1.9375 0.57292,-0.44793 1.25649,-0.671875 2.0586,-0.671875 0.44793,0 0.80924,0.03646 1.08007,0.109375 0.27085,0.07292 0.48631,0.109375 0.64258,0.109375 0.17696,0 0.31574,-0.03646 0.41992,-0.109375 0.10406,-0.08335 0.17001,-0.220703 0.20118,-0.408203 l 0.5039,-2.888672 c 0.10922,-0.626329 -1.17705,-0.548828 -1.96875,-0.548828 z m -115.55273,0.04492 c 0.4791,0.0096 -0.91991,0.06119 -1.32617,0.175781 -0.39583,0.10416 -0.77278,0.251947 -1.12696,0.439453 -0.34377,0.187507 -0.67184,0.407543 -0.98437,0.667969 -0.30207,0.260424 -0.78767,1.270643 -0.875,0.859375 l -0.25196,-1.185547 c -0.10265,-0.483369 -0.48239,-0.705078 -0.98242,-0.705078 h -2.35937 v 16.03125 h 3.85937 v -11.732422 c 0.41669,-0.47918 0.86263,-0.854157 1.3418,-1.125 0.48961,-0.281258 1.01432,-0.421875 1.56641,-0.421875 0.84378,0 1.4772,0.242824 1.90429,0.732422 0.43752,0.489598 0.65821,1.2708 0.65821,2.34375 v 10.203125 h 3.87304 v -10.203125 c 0,-0.500017 0.0749,-0.942697 0.22071,-1.328125 0.14579,-0.38543 0.34378,-0.701166 0.59375,-0.951172 0.26043,-0.260426 0.5553,-0.460282 0.88867,-0.595703 0.34374,-0.135426 0.71155,-0.201172 1.10742,-0.201172 0.8646,0 1.52473,0.256495 1.97266,0.777344 0.44793,0.510432 0.66992,1.277963 0.66992,2.298828 v 10.203125 h 3.85742 v -10.203125 c 0,-0.96878 -0.12503,-1.828104 -0.375,-2.578125 -0.23959,-0.750024 -0.59374,-1.383448 -1.0625,-1.904297 -0.46877,-0.520851 -1.04295,-0.918612 -1.73047,-1.189453 -0.68752,-0.270842 -1.47587,-0.408203 -2.36133,-0.408203 -0.51044,0 -1.01885,0.06119 -1.52929,0.175781 -0.50001,0.114589 -0.9759,0.289706 -1.42383,0.529297 -0.44793,0.23959 -0.86131,0.554023 -1.23633,0.939453 -0.37501,0.37501 -0.68357,0.828108 -0.93359,1.359375 -0.32293,-0.906277 -0.81248,-1.632145 -1.46875,-2.173828 -0.64587,-0.552101 -1.47587,-0.830078 -2.48633,-0.830078 z m 53.11133,0 c -0.54168,0 -1.04163,0.056 -1.5,0.160156 -0.45836,0.10416 -0.89063,0.257156 -1.29688,0.455078 -0.39586,0.197914 -0.77406,0.428378 -1.13867,0.699219 -0.3542,0.270842 -0.69467,0.572906 -1.01758,0.90625 l -0.26562,-1.263672 c -0.15632,-0.468765 -0.4824,-0.705078 -0.98243,-0.705078 h -2.36328 v 16.03125 h 3.85938 v -11.59375 c 0.52085,-0.520849 1.0729,-0.930328 1.65625,-1.232422 0.58334,-0.302091 1.21027,-0.453125 1.87695,-0.453125 0.90629,0 1.58529,0.268863 2.0332,0.810547 0.45836,0.531266 0.6875,1.286429 0.6875,2.265625 v 10.203125 h 3.85938 v -10.203125 c 0,-0.895861 -0.12374,-1.71352 -0.36328,-2.453125 -0.22923,-0.750024 -0.57096,-1.392564 -1.0293,-1.923828 -0.44792,-0.541686 -1.01237,-0.958325 -1.68945,-1.25 -0.67709,-0.302092 -1.45112,-0.453123 -2.32617,-0.453125 z m 91.42382,0 c -0.54168,0 -1.03775,0.056 -1.49609,0.160156 -0.45836,0.10416 -0.8945,0.257156 -1.30078,0.455078 -0.39583,0.197914 -0.776,0.428378 -1.14063,0.699219 -0.35417,0.270842 -0.69273,0.572906 -1.01562,0.90625 l -0.26563,-1.263672 c -0.15633,-0.468765 -0.48434,-0.705078 -0.98437,-0.705078 h -2.35742 v 16.03125 h 3.85937 v -11.59375 c 0.52085,-0.520849 1.07487,-0.930328 1.65821,-1.232422 0.58334,-0.302091 1.20439,-0.453125 1.87109,-0.453125 0.90627,0 1.58524,0.268863 2.0332,0.810547 0.45836,0.531266 0.68555,1.286429 0.68555,2.265625 v 10.203125 h 3.85937 v -10.203125 c 0,-0.895861 -0.11777,-1.71352 -0.35742,-2.453125 -0.22923,-0.750024 -0.57486,-1.392564 -1.0332,-1.923828 -0.44791,-0.541686 -1.00844,-0.958325 -1.68555,-1.25 -0.67709,-0.302092 -1.45506,-0.453123 -2.33008,-0.453125 z m 33.64258,0 c -1.19796,0 -2.27407,0.212223 -3.23242,0.628906 -0.94796,0.416678 -1.75518,0.982398 -2.42187,1.701172 -0.65627,0.708355 -1.16536,1.55075 -1.51954,2.519531 -0.35419,0.958365 -0.53125,1.982388 -0.53125,3.076172 0,1.406294 0.20303,2.643846 0.60938,3.716797 0.40626,1.062534 0.96742,1.95831 1.67578,2.6875 0.70833,0.718774 1.54161,1.267567 2.5,1.642578 0.95837,0.364594 1.99281,0.544922 3.10742,0.544922 0.56252,0 1.14059,-0.03973 1.73438,-0.123047 0.60417,-0.08335 1.19466,-0.223942 1.76758,-0.421875 0.58335,-0.208343 1.14062,-0.481109 1.67187,-0.814453 0.53128,-0.34376 1.01041,-0.763657 1.4375,-1.263672 l -1.12695,-1.40625 c -0.0834,-0.11459 -0.18237,-0.203113 -0.29688,-0.265625 -0.11462,-0.06251 -0.24805,-0.0957 -0.40429,-0.0957 -0.23958,0 -0.48956,0.07487 -0.75,0.220703 -0.25,0.145834 -0.54883,0.307286 -0.89258,0.484375 -0.33336,0.177099 -0.72721,0.34049 -1.18555,0.486328 -0.44793,0.145833 -0.98633,0.214844 -1.61133,0.214844 -1.27088,0 -2.29166,-0.383439 -3.0625,-1.154297 -0.77086,-0.770857 -2.97799,-3.625 -1.32812,-3.625 h 9.90625 c 0.17719,0 0.32486,-0.02287 0.43945,-0.06445 0.11462,-0.05208 0.20312,-0.128261 0.26563,-0.232422 0.0729,-0.114589 0.11584,-0.267575 0.13671,-0.455078 0.0311,-0.197937 0.0508,-0.440747 0.0508,-0.732422 0,-1.156287 -0.17372,-2.184216 -0.51758,-3.080078 -0.34375,-0.906277 -0.82292,-1.664695 -1.4375,-2.279297 -0.61462,-0.625021 -1.347,-1.1009 -2.20117,-1.423828 -0.84378,-0.322927 -1.77275,-0.486328 -2.78321,-0.486328 z m -141.84765,0.251953 v 16.03125 h 3.85937 v -16.03125 z m 141.92578,2.517578 c 0.57292,0 1.07485,0.09503 1.50195,0.292969 0.42709,0.187506 0.77929,0.449858 1.06055,0.783203 0.28126,0.333344 0.49154,0.723946 0.62695,1.171875 0.13547,0.437514 0.20313,0.906235 0.20313,1.40625 h -7.25196 c -1.18008,0 0.58136,-2.065736 1.2168,-2.701172 0.63543,-0.635439 1.51753,-0.953125 2.64258,-0.953125 z m -17.82617,0.125 c 0.59375,0 1.1419,0.111315 1.65234,0.330078 0.52085,0.218749 0.99998,0.589827 1.4375,1.121094 v 7.1875 c -0.50003,0.614601 -1.03123,1.08853 -1.59375,1.421875 -0.56252,0.333341 -1.24281,0.5 -2.04492,0.5 -0.50001,0 -0.95311,-0.08854 -1.35938,-0.265625 -0.40627,-0.187507 -0.74999,-0.48241 -1.03125,-0.888672 -0.28127,-0.416681 -0.49803,-0.945944 -0.65429,-1.591797 -0.14578,-0.65627 -0.21875,-1.457 -0.21875,-2.394531 0,-0.927111 0.0885,-1.727192 0.26562,-2.404297 0.17719,-0.687521 0.42707,-1.25194 0.75,-1.689453 0.33334,-0.44793 0.73045,-0.777337 1.19922,-0.996094 0.47917,-0.21875 1.0143,-0.330078 1.59766,-0.330078 z m -134.52344,0.109375 c 0.51042,0 0.96355,0.09179 1.35937,0.279297 0.40628,0.187506 0.75,0.486314 1.03125,0.892578 0.28126,0.406262 0.4948,0.937479 0.64063,1.59375 0.15633,0.645854 0.23828,1.437472 0.23828,2.375 0,0.927114 -0.0885,1.734351 -0.26563,2.421875 -0.1772,0.677102 -0.43619,1.237615 -0.76953,1.685547 -0.32293,0.44793 -0.72003,0.783196 -1.19922,1.001953 -0.46877,0.21875 -0.99672,0.330078 -1.58007,0.330078 -0.59376,0 -1.14906,-0.108073 -1.66993,-0.316406 -0.51042,-0.21875 -0.98629,-0.598943 -1.42382,-1.140625 v -7.1875 c 0.4896,-0.614603 1.01559,-1.088531 1.57812,-1.421875 0.57293,-0.34376 1.25845,-0.513672 2.06055,-0.513672 z"
           sodipodi:nodetypes="ccsccccscsccsscccsccccssccscssscccscscccsccccccscccscccccscscccscccscccsssccccccscsssccccccssccssccssscsscscsccssccsssccccscscccssccsscccccccscccscscsscccccscccscccscccssscccscccssscccscccscccccsscccsscscccscccsscccsccccccscscccscccscscsccccccscccscccscccscccsccccsscccsccsscssscscscscscscccccscccccscsccscscccssscscscscsscscsccssccccsccccsscscscccccscsssccssccsccscccscscscscsccsscccsccccsccccscscscccscccccscscscccscsccccsccccccccscsscssscccsccscscccscscssscsccccsccccscccsscccscsccsscccscsccsscccscsssccccccccccscccccscsccssscscsccscssscsccccssccccsccccsscsccscccsssccccsccccsscsccscccsscccscccscccccsscccsssscccscccscccccscsccsssscccsscccscccsscscscccsccccs" /><path
           d="m 352.08601,-144.01591 c -0.3681,0 -0.67923,0.0164 -0.93693,0.0539 -0.2578,0.0164 -0.48505,0.0767 -0.68753,0.16852 -0.20251,0.0736 -0.41093,0.18282 -0.61339,0.33027 -0.18399,0.14743 -0.38574,0.33201 -0.60663,0.55272 l -5.40591,5.57439 h 5.35198 c 0.2578,0 0.4765,-0.007 0.66056,-0.0277 0.20251,-0.0164 0.38706,-0.0527 0.55272,-0.10758 0.184,-0.0553 0.36011,-0.13055 0.52577,-0.2222 0.18399,-0.0921 0.37722,-0.21024 0.5797,-0.35726 l 8.17623,-5.96532 z m -152.34909,9.52434 v 39.924075 h 7.42808 v -14.053965 h 5.58111 c 2.59526,0 4.85507,-0.31958 6.7877,-0.9639 1.93266,-0.64422 3.54453,-1.55012 4.83296,-2.7097 1.2884,-1.15959 2.25421,-2.53735 2.89843,-4.13868 0.64418,-1.61973 0.97063,-3.39237 0.97063,-5.32502 0,-1.85899 -0.30922,-3.57172 -0.91672,-5.13626 -0.6074,-1.56451 -1.54077,-2.90804 -2.81079,-4.03083 -1.27001,-1.12277 -2.88191,-1.99624 -4.83295,-2.62205 -1.95105,-0.6258 -4.26036,-0.94367 -6.92926,-0.94367 z m 41.80467,0 -15.68517,39.924075 h 5.76989 c 0.6258,0 1.15393,-0.176022 1.57728,-0.525769 0.44174,-0.349724 0.73575,-0.73601 0.88301,-1.159377 l 2.9793,-8.142549 h 16.54123 l 2.97929,8.142549 c 0.184,0.478587 0.4781,0.881984 0.88302,1.213286 0.42334,0.313018 0.96004,0.47186 1.60421,0.47186 h 5.74291 l -15.68517,-39.924075 z m 27.63612,0 v 39.924075 h 7.42803 v -15.597565 h 3.17477 c 0.73627,0 1.29005,0.10079 1.65817,0.30336 0.38655,0.20251 0.73189,0.53927 1.04481,1.01781 l 8.39193,12.786771 c 0.31303,0.478565 0.69064,0.847765 1.13238,1.105423 0.46014,0.257798 1.01397,0.384225 1.65819,0.384225 h 6.67986 l -9.98944,-14.741499 c -0.68105,-0.99393 -1.49462,-1.758 -2.43333,-2.2918 1.39885,-0.44175 2.64153,-1.02974 3.7275,-1.76599 1.10436,-0.73624 2.02734,-1.59261 2.76361,-2.56816 0.75463,-0.9755 1.32556,-2.066 1.71208,-3.26241 0.40492,-1.19636 0.60663,-2.46472 0.60663,-3.80835 0,-1.69338 -0.29404,-3.23862 -0.88299,-4.63749 -0.57059,-1.41727 -1.48503,-2.63429 -2.73666,-3.64661 -1.23319,-1.01235 -2.82125,-1.79352 -4.77228,-2.34571 -1.93264,-0.5706 -4.26583,-0.85606 -6.9899,-0.85606 z m 47.7363,0 -15.68517,39.924075 h 5.76986 c 0.62581,0 1.15397,-0.176022 1.57729,-0.525769 0.44174,-0.349724 0.73577,-0.73601 0.88301,-1.159377 l 2.9793,-8.142549 h 16.54123 l 2.9793,8.142549 c 0.18398,0.478587 0.47809,0.881984 0.88301,1.213286 0.42334,0.313018 0.96003,0.47186 1.60426,0.47186 h 5.74291 l -15.68517,-39.924075 z m 28.29669,0 v 39.924075 h 7.45498 v -39.924075 z m 16.42662,0 v 39.924075 h 15.07851 c 2.31918,0 4.37726,-0.294057 6.18107,-0.883016 1.80377,-0.589005 3.32339,-1.395847 4.55657,-2.426571 1.23322,-1.049147 2.17333,-2.291828 2.81755,-3.727518 0.64421,-1.43567 0.96388,-3.00477 0.96388,-4.69815 0,-4.69355 -2.73842,-7.65751 -8.22341,-8.89072 1.23319,-0.42335 2.29128,-0.9362 3.17477,-1.54361 0.9019,-0.60738 1.63356,-1.27914 2.20416,-2.01539 0.58899,-0.75466 1.02482,-1.55293 1.30093,-2.39962 0.27608,-0.86508 0.41115,-1.77097 0.41115,-2.70968 0,-1.63816 -0.27022,-3.10821 -0.82233,-4.41506 -0.55219,-1.3068 -1.43239,-2.42298 -2.6288,-3.34329 -1.17799,-0.92028 -2.69082,-1.62629 -4.54985,-2.12326 -1.84059,-0.49696 -4.07293,-0.74819 -6.68659,-0.74819 z m 47.79698,0 -15.68517,39.924075 h 5.76989 c 0.6258,0 1.15391,-0.176022 1.57728,-0.525769 0.44174,-0.349724 0.73575,-0.73601 0.88302,-1.159377 l 2.97929,-8.142549 h 16.54123 l 2.9793,8.142549 c 0.18399,0.478587 0.47805,0.881984 0.88301,1.213286 0.42333,0.313018 0.95999,0.47186 1.60422,0.47186 h 5.74291 L 417.0241,-134.49157 Z m -202.2693,5.74291 h 5.58111 c 1.36205,0 2.54667,0.16734 3.559,0.49881 1.01234,0.31302 1.8516,0.7744 2.5142,1.38181 0.66263,0.6074 1.15835,1.33905 1.48968,2.20414 0.33129,0.86506 0.49878,1.83762 0.49878,2.90514 0,1.12281 -0.16734,2.13992 -0.49878,3.0602 -0.33133,0.90193 -0.82705,1.67453 -1.48968,2.31876 -0.6626,0.6258 -1.50186,1.11297 -2.5142,1.46269 -1.01233,0.33132 -2.19695,0.49879 -3.559,0.49879 H 207.165 Z m 69.44074,0 h 4.74533 c 2.74252,0 4.77493,0.54524 6.10015,1.63121 1.34366,1.08597 2.01542,2.63976 2.01542,4.66442 0,1.01237 -0.16079,1.94391 -0.49206,2.79059 -0.33133,0.84669 -0.84233,1.58509 -1.52336,2.21089 -0.6626,0.60739 -1.51224,1.086 -2.56139,1.43574 -1.03074,0.3497 -2.24776,0.51902 -3.64662,0.51902 h -4.63747 z m 92.45963,0 h 6.34956 c 2.50322,0 4.34923,0.44439 5.52721,1.3279 1.17802,0.88348 1.76601,2.36209 1.76601,4.44198 0,2.00626 -0.65463,3.47453 -1.96148,4.39483 -1.30681,0.92029 -3.22128,1.37504 -5.74291,1.37504 h -5.93839 z m -123.74233,1.13242 c 0.25779,0.93871 0.51745,1.81218 0.77515,2.62205 0.2761,0.79146 0.52057,1.48709 0.74145,2.0761 l 4.85989,13.27878 h -12.72608 l 4.85994,-13.22488 c 0.23917,-0.6074 0.47519,-1.32014 0.71447,-2.13 0.2578,-0.80987 0.51747,-1.68334 0.77518,-2.62205 z m 75.3724,0 c 0.2578,0.93871 0.51747,1.81218 0.77515,2.62205 0.27611,0.79146 0.52059,1.48709 0.74145,2.0761 l 4.85994,13.27878 H 314.3459 l 4.85989,-13.22488 c 0.23916,-0.6074 0.47521,-1.32014 0.7145,-2.13 0.2578,-0.80987 0.51744,-1.68334 0.77515,-2.62205 z m 92.52026,0 c 0.2578,0.93871 0.51075,1.81218 0.76845,2.62205 0.27608,0.79146 0.52732,1.48709 0.7482,2.0761 l 4.85989,13.27878 h -12.72608 l 4.8599,-13.22488 c 0.23916,-0.6074 0.47523,-1.32014 0.71451,-2.13 0.2578,-0.80987 0.51747,-1.68334 0.77513,-2.62205 z m -44.15033,15.54363 h 7.50894 c 1.30681,-2e-5 2.42296,0.13313 3.34329,0.39095 0.92029,0.2578 1.6758,0.63541 2.26481,1.1324 0.58898,0.47856 1.01809,1.06656 1.29419,1.76601 0.27608,0.68102 0.41788,1.45364 0.41788,2.31875 0,0.82824 -0.13313,1.60944 -0.39093,2.34567 -0.23916,0.73627 -0.64273,1.38237 -1.21328,1.93455 -0.55218,0.55219 -1.29916,0.98983 -2.23787,1.32113 -0.92031,0.3313 -2.07069,0.49879 -3.45113,0.49879 h -7.5359 z"
           style="font-weight:bold;font-size:16px;font-family:Lato;-inkscape-font-specification:'Lato, Bold';text-align:center;text-anchor:middle;fill:#ffffff;stroke-width:3.45113"
           id="path1-6" /><path
           d="m 398.53289,-70.833064 c -2.60424,0 -4.82603,0.8394 -6.66985,2.52696 l 0.70041,1.236 c 0.11461,0.19782 0.2657,0.36357 0.4532,0.49898 0.18751,0.13547 0.41252,0.20602 0.67294,0.20602 0.31251,0 0.60018,-0.0738 0.86063,-0.21962 0.26043,-0.14578 0.54021,-0.30814 0.8423,-0.48524 0.31251,-0.18751 0.67742,-0.35314 1.09411,-0.49898 0.41666,-0.14578 0.93601,-0.21962 1.56101,-0.21962 0.86462,0 1.52054,0.26195 1.96847,0.78282 0.45834,0.51042 0.69125,1.30292 0.69125,2.37588 v 0.93387 c -1.82299,0.0417 -3.34859,0.21845 -4.57781,0.53102 -1.22921,0.3125 -2.21765,0.71104 -2.95726,1.19023 -0.7396,0.46876 -1.27015,0.9993 -1.59306,1.59307 -0.31253,0.58335 -0.46694,1.17658 -0.46694,1.78076 0,0.71878 0.11414,1.34895 0.34332,1.89064 0.22923,0.54168 0.54593,0.99501 0.95218,1.3596 0.41669,0.3646 0.91028,0.64108 1.48323,0.82858 0.57292,0.17708 1.19979,0.26552 1.87689,0.26552 0.57293,0 1.09226,-0.0482 1.56102,-0.14192 0.46877,-0.0937 0.91088,-0.23366 1.32757,-0.42116 0.41669,-0.18751 0.81854,-0.41583 1.20396,-0.68667 0.39585,-0.28126 0.7977,-0.6059 1.20396,-0.97049 l 0.34334,1.14445 c 0.10407,0.33334 0.26317,0.55377 0.47152,0.66836 0.20836,0.10416 0.49145,0.15565 0.85603,0.15565 h 1.735 v -10.12151 c 0,-0.9063 -0.13664,-1.74363 -0.40742,-2.50406 -0.26043,-0.76044 -0.64318,-1.40846 -1.15362,-1.95014 -0.51044,-0.55212 -1.13727,-0.9797 -1.87689,-1.2818 -0.72919,-0.3125 -1.56196,-0.46694 -2.49949,-0.46694 z m 2.17447,9.48054 v 2.70547 c -0.28126,0.29168 -0.56564,0.54574 -0.8469,0.7645 -0.27083,0.20834 -0.55397,0.38518 -0.85604,0.53102 -0.29169,0.14584 -0.6051,0.25669 -0.93845,0.3296 -0.33336,0.0729 -0.69825,0.10986 -1.0941,0.10986 -0.64586,0 -1.17308,-0.1478 -1.57935,-0.43947 -0.39584,-0.29168 -0.59512,-0.77406 -0.59512,-1.45116 0,-0.34376 0.0963,-0.66051 0.28384,-0.95219 0.19782,-0.29167 0.52589,-0.55031 0.98423,-0.76907 0.45833,-0.21875 1.06278,-0.3956 1.81281,-0.53102 0.76043,-0.14583 1.70403,-0.24547 2.82908,-0.29756 z"
           style="font-weight:bold;font-size:16px;font-family:Lato;-inkscape-font-specification:'Lato, Bold';text-align:center;text-anchor:middle;fill:#ffffff;stroke-width:2.34384"
           id="path1"
           sodipodi:nodetypes="cccssscsscscsccssccsssccccscscccccccccsscscscsc" /></g><path
         id="path30"
         style="fill:#ffffff;stroke:none;stroke-width:1.98496"
         d="m 91.42375,1.5326177 c -35.64931,0 -66.41278,20.8821203 -80.751774,51.0760903 60.610944,-5.77824 113.099634,5.50206 169.464724,48.851742 0.40934,-3.469842 0.64551,-6.992362 0.64551,-10.572292 0,-49.35015 -40.00826,-89.3555403 -89.35846,-89.3555403 z M 180.1367,101.46045 c -0.5564,4.70773 -1.47741,9.29841 -2.73612,13.75327 1.25787,-4.45391 2.18082,-9.04602 2.73612,-13.75327 z M 10.671976,52.608708 c -0.8709493,1.83399 -1.6662563,3.70875 -2.4133593,5.6089 0.744215,-1.90044 1.54247,-3.77468 2.4133593,-5.6089 z m 108.144914,1.9656 1.55269,3.08212 3.41361,0.4565 -2.44535,2.43081 0.62514,3.39035 -3.06467,-1.57596 -3.03852,1.63701 0.54954,-3.40197 -2.48895,-2.38429 3.40778,-0.52337 z M 7.8660847,59.212028 c -0.344223,0.90747 -0.66756,1.82353 -0.982797,2.74484 0.314076,-0.92125 0.640018,-1.8374 0.982797,-2.74484 z m -1.192142,3.36418 c -0.335529,1.00476 -0.656186,2.01529 -0.956626,3.0356 0.300529,-1.02064 0.62205,-2.03046 0.956626,-3.0356 z m 28.3904693,0.97406 c -9.670691,0.0592 -19.462936,0.74921 -29.3558193,2.09062 -2.355284,8.00855 -3.640412,16.4762 -3.640412,25.24727 0,49.352172 40.0053793,89.355572 89.3555693,89.355572 40.88467,0 75.33263,-27.46678 85.95648,-64.9486 C 135.93526,81.356678 87.2861,63.230028 35.064412,63.550268 Z m -16.23642,7.51632 1.509077,3.09958 3.407784,0.50884 -2.483151,2.39591 0.575721,3.39908 -3.044326,-1.61957 -3.061774,1.59049 0.598974,-3.39325 -2.451158,-2.41918 3.410687,-0.47395 z m 93.603658,10.63625 1.07002,2.18947 2.40756,0.35183 -1.74752,1.69809 0.41289,2.39882 -2.15458,-1.13981 -2.16041,1.13109 0.41581,-2.39593 -1.73587,-1.70679 2.41045,-0.34311 z m -55.80688,8.6067 1.33461,2.52095 2.82916,0.32275 -1.98011,2.0499 0.57281,2.79427 -2.56165,-1.2532 -2.48606,1.40149 0.39836,-2.82044 -2.09644,-1.92778 2.8059,-0.4914 z m 35.56079,11.941802 1.27936,2.52095 2.80591,0.36636 -2.00338,2.00338 0.52047,2.77973 -2.51804,-1.28518 -2.48897,1.35206 0.44197,-2.79427 -2.047,-1.94814 2.79427,-0.43906 z m -57.676517,2.60235 0.753087,1.57597 1.724243,0.26749 -1.261919,1.20379 0.276218,1.72424 -1.535249,-0.83159 -1.555599,0.79669 0.314031,-1.71552 -1.232858,-1.23285 1.730063,-0.2297 z m -8.347913,3.59097 1.468375,2.91058 3.227514,0.43325 -2.311605,2.29705 0.587347,3.20426 -2.898936,-1.48873 -2.869877,1.54978 0.51757,-3.21879 -2.349403,-2.25052 3.218789,-0.49722 z m 74.15427,1.4364 1.28227,2.54711 2.82626,0.3809 -2.02373,2.0063 0.51175,2.80881 -2.5355,-1.30555 -2.51513,1.35498 0.45651,-2.81754 -2.05572,-1.9714 2.81753,-0.43323 z m -20.46418,1.62538 1.06712,2.16912 2.39591,0.3402 -1.73296,1.69227 0.4187,2.38138 -2.14295,-1.12237 -2.14294,1.12817 0.40706,-2.38428 -1.72715,-1.68645 2.39011,-0.34601 z m -62.831807,5.30068 1.264837,2.50641 2.782638,0.3751 -1.991752,1.98011 0.508846,2.76228 -2.500598,-1.28228 -2.474427,1.33172 0.447779,-2.77101 -2.026632,-1.93942 2.773913,-0.43033 z m 136.788357,0.39253 1.48291,2.90768 3.23333,0.42161 -2.30288,2.31159 0.60189,3.20716 -2.90767,-1.48 -2.86986,1.56432 0.50592,-3.22459 -2.36393,-2.24474 3.21879,-0.51174 z m -67.37358,0.26751 0.72692,1.54106 1.68354,0.26751 -1.24159,1.17179 0.26461,1.68064 -1.49455,-0.81706 -1.5207,0.77344 0.31403,-1.67482 -1.20378,-1.20959 1.68936,-0.21807 z m -42.29785,0.1512 1.22704,2.41628 2.68377,0.35183 -1.91325,1.91905 0.50012,2.66342 -2.41626,-1.23284 -2.38138,1.29681 0.4216,-2.67796 -1.96267,-1.86381 2.67796,-0.42161 z m 122.74139,1.97722 1.05259,2.01791 2.25925,0.27043 -1.5934,1.62537 0.43615,2.23019 -2.03537,-1.01187 -1.98593,1.11074 0.33146,-2.25054 -1.66609,-1.5527 2.24181,-0.378 z m -9.40629,7.46398 1.10782,2.34939 2.56455,0.4158 -1.89288,1.78241 0.40125,2.57037 -2.27961,-1.2503 -2.32613,1.17179 0.48557,-2.55293 -1.82601,-1.84928 2.5791,-0.32566 z m -116.43467,0.41871 1.04385,2.11677 2.33776,0.33438 -1.68935,1.64865 0.40416,2.32613 -2.0877,-1.09617 -2.09062,1.09909 0.39544,-2.32613 -1.689351,-1.64574 2.334861,-0.33729 z m 50.63413,0.16574 1.47418,2.92801 3.24205,0.43905 -2.32322,2.30579 0.58735,3.22461 -2.91348,-1.50036 -2.88733,1.54978 0.52339,-3.23332 -2.35812,-2.26508 3.23333,-0.4943 z m 61.44193,6.4114 1.15435,2.42209 2.64889,0.41288 -1.94233,1.85218 0.42743,2.6489 -2.35811,-1.27937 -2.39303,1.22412 0.48268,-2.64017 -1.89289,-1.89579 2.66052,-0.35183 z m -99.07298,1.5527 1.42476,2.82044 3.13156,0.4187 -2.24181,2.23017 0.5699,3.1083 -2.81171,-1.4422 -2.78264,1.50327 0.50012,-3.11993 -2.28253,-2.18366 3.12284,-0.48267 z m 56.08892,2.5035 1.01769,2.08188 2.29415,0.3373 -1.6661,1.61375 0.39254,2.28543 -2.04991,-1.08456 -2.05572,1.07584 0.39835,-2.28253 -1.65446,-1.62247 2.29416,-0.32566 z m 25.91024,0.27041 1.01187,2.08771 2.29124,0.3402 -1.66609,1.61085 0.3838,2.28541 -2.04408,-1.09037 -2.06154,1.07293 0.40416,-2.28252 -1.64865,-1.62829 2.29416,-0.31984 z m 8.74917,0.12208 1.00897,1.95395 2.18074,0.26751 -1.54397,1.56723 0.42162,2.16039 -1.96559,-0.9857 -1.92779,1.06712 0.32566,-2.17784 -1.60212,-1.50035 2.16912,-0.36056 z m -19.2604,1.85218 1.04967,2.0819 2.30579,0.30821 -1.65157,1.64282 0.42453,2.29124 -2.07317,-1.0642 -2.05281,1.10782 0.37219,-2.29996 -1.68355,-1.60794 2.30287,-0.35764 z m 10.86596,5.87931 1.20379,2.53548 2.77391,0.43906 -2.03537,1.9336 0.44196,2.77391 -2.46571,-1.34043 -2.5064,1.27646 0.51175,-2.76227 -1.98303,-1.98595 2.78264,-0.36345 z m -19.02778,2.29124 1.22122,2.36393 2.64016,0.32276 -1.86671,1.89579 0.50883,2.61109 -2.37846,-1.18924 -2.33196,1.28811 0.39544,-2.63145 -1.93941,-1.81728 2.62562,-0.43035 z m 18.78354,7.87396 1.07293,2.07608 2.31741,0.28786 -1.63992,1.66609 0.44197,2.29416 -2.08772,-1.04677 -2.0499,1.12818 0.35183,-2.3087 -1.70099,-1.60212 2.30287,-0.37508 z m -44.16166,3.01525 0.69784,1.32009 1.48581,0.17156 -1.04095,1.07292 0.29658,1.46256 -1.34043,-0.65422 -1.30264,0.73272 0.20936,-1.47709 -1.09909,-1.01187 1.47128,-0.25588 z" /><path
         id="path35"
         d="m 0,0 0.801,1.033 0.06,-1.309 z m 0.708,1.875 -2.239,-2.759 0.676,-0.217 0.489,0.633 1.26,-0.404 0.046,-0.805 0.693,-0.222 -0.252,3.558 z m -12.761,1.693 c -0.049,-0.252 -0.109,-0.446 -0.181,-0.584 -0.072,-0.137 -0.149,-0.232 -0.231,-0.281 -0.084,-0.05 -0.18,-0.078 -0.291,-0.084 -0.086,-0.006 -0.22,0.01 -0.404,0.044 l -0.49,0.094 0.411,2.154 0.294,-0.057 c 0.268,-0.051 0.445,-0.095 0.533,-0.133 0.118,-0.05 0.21,-0.12 0.276,-0.211 0.065,-0.091 0.107,-0.208 0.126,-0.351 0.018,-0.143 0.004,-0.34 -0.043,-0.591 m 0.502,1.216 c -0.108,0.171 -0.252,0.301 -0.433,0.393 -0.134,0.069 -0.336,0.129 -0.607,0.18 l -1.201,0.229 -0.619,-3.253 1.236,-0.235 c 0.243,-0.047 0.441,-0.06 0.595,-0.042 0.205,0.026 0.375,0.082 0.51,0.173 0.179,0.117 0.332,0.286 0.457,0.507 0.105,0.181 0.182,0.406 0.233,0.673 0.058,0.305 0.071,0.568 0.04,0.79 -0.032,0.22 -0.102,0.416 -0.211,0.585 M 7.933,-2.506 C 7.796,-2.865 7.614,-3.104 7.387,-3.222 7.16,-3.342 6.92,-3.354 6.671,-3.26 6.422,-3.165 6.25,-2.996 6.157,-2.754 c -0.093,0.242 -0.074,0.539 0.06,0.89 0.136,0.357 0.316,0.593 0.54,0.709 0.225,0.116 0.466,0.127 0.724,0.028 0.257,-0.097 0.431,-0.263 0.52,-0.497 0.088,-0.233 0.066,-0.527 -0.068,-0.882 M 8.611,-1.43 C 8.445,-1.042 8.134,-0.763 7.677,-0.589 7.424,-0.494 7.187,-0.45 6.963,-0.459 6.795,-0.465 6.627,-0.507 6.457,-0.585 6.288,-0.665 6.138,-0.77 6.008,-0.9 5.833,-1.079 5.686,-1.325 5.565,-1.642 5.378,-2.134 5.367,-2.572 5.533,-2.956 5.698,-3.339 6.01,-3.619 6.471,-3.794 c 0.454,-0.173 0.871,-0.169 1.25,0.009 0.379,0.18 0.663,0.519 0.853,1.019 0.191,0.504 0.204,0.95 0.037,1.336 M -5.367,1.978 C -5.465,1.606 -5.622,1.35 -5.834,1.208 -6.049,1.065 -6.286,1.028 -6.543,1.097 -6.8,1.165 -6.988,1.314 -7.107,1.545 c -0.118,0.231 -0.13,0.529 -0.034,0.892 0.098,0.368 0.252,0.622 0.463,0.761 0.212,0.14 0.45,0.175 0.717,0.105 0.266,-0.071 0.457,-0.218 0.57,-0.44 0.113,-0.224 0.12,-0.518 0.024,-0.885 M -5.822,3.857 C -6.083,3.926 -6.323,3.944 -6.545,3.912 -6.712,3.889 -6.875,3.83 -7.035,3.734 -7.196,3.637 -7.333,3.517 -7.449,3.373 -7.605,3.177 -7.726,2.917 -7.812,2.59 -7.947,2.081 -7.912,1.644 -7.708,1.279 -7.502,0.915 -7.163,0.67 -6.687,0.543 c 0.471,-0.123 0.885,-0.076 1.243,0.141 0.358,0.218 0.605,0.585 0.742,1.102 0.138,0.521 0.103,0.965 -0.103,1.333 -0.206,0.367 -0.545,0.613 -1.017,0.738 M -2.687,1.333 -2.839,0.795 -2.103,0.587 -2.217,0.183 C -2.335,0.135 -2.47,0.104 -2.62,0.089 -2.771,0.075 -2.914,0.086 -3.048,0.125 -3.32,0.201 -3.514,0.357 -3.628,0.595 -3.743,0.832 -3.746,1.14 -3.64,1.517 c 0.099,0.351 0.256,0.592 0.473,0.723 0.217,0.131 0.465,0.157 0.746,0.078 0.186,-0.052 0.327,-0.141 0.426,-0.267 0.098,-0.126 0.147,-0.273 0.148,-0.443 L -1.174,1.547 C -1.155,1.858 -1.233,2.128 -1.409,2.357 -1.584,2.585 -1.87,2.756 -2.265,2.868 -2.569,2.954 -2.839,2.973 -3.073,2.924 -3.38,2.863 -3.64,2.723 -3.852,2.504 -4.064,2.285 -4.216,2.01 -4.31,1.678 -4.397,1.372 -4.415,1.073 -4.363,0.777 c 0.051,-0.296 0.18,-0.548 0.388,-0.758 0.209,-0.21 0.48,-0.361 0.813,-0.456 0.263,-0.074 0.535,-0.098 0.819,-0.071 0.284,0.028 0.511,0.087 0.683,0.179 l 0.359,1.269 z m -5.77,3.174 -1.293,-2.234 -0.319,2.57 -0.711,0.148 0.483,-3.483 0.698,-0.145 1.838,2.999 z m 19.329,-6.468 c -0.233,0.103 -0.447,0.154 -0.643,0.157 -0.195,0.002 -0.367,-0.044 -0.513,-0.14 -0.147,-0.096 -0.254,-0.221 -0.322,-0.375 -0.106,-0.24 -0.102,-0.485 0.01,-0.733 0.08,-0.177 0.266,-0.379 0.558,-0.604 0.227,-0.176 0.371,-0.292 0.432,-0.348 0.088,-0.083 0.143,-0.159 0.162,-0.229 0.019,-0.068 0.014,-0.138 -0.017,-0.21 -0.049,-0.112 -0.143,-0.187 -0.279,-0.226 -0.137,-0.04 -0.304,-0.016 -0.501,0.07 -0.187,0.082 -0.313,0.195 -0.382,0.336 -0.068,0.142 -0.076,0.321 -0.023,0.537 l -0.621,0.204 c -0.11,-0.356 -0.101,-0.668 0.026,-0.936 0.128,-0.268 0.383,-0.484 0.766,-0.654 0.264,-0.116 0.499,-0.176 0.709,-0.18 0.208,-0.004 0.394,0.049 0.558,0.158 0.163,0.108 0.283,0.25 0.359,0.424 0.084,0.191 0.115,0.369 0.093,0.535 -0.024,0.167 -0.091,0.318 -0.201,0.456 -0.109,0.137 -0.297,0.308 -0.563,0.509 -0.267,0.201 -0.425,0.352 -0.474,0.451 -0.038,0.077 -0.042,0.151 -0.009,0.223 0.034,0.079 0.095,0.127 0.18,0.145 0.132,0.03 0.288,0.004 0.466,-0.074 0.172,-0.076 0.286,-0.167 0.341,-0.274 0.057,-0.105 0.064,-0.242 0.022,-0.409 l 0.623,-0.243 c 0.113,0.283 0.11,0.549 -0.008,0.801 -0.119,0.252 -0.368,0.461 -0.749,0.629 M 4.493,-1.208 C 4.407,-1.449 4.316,-1.632 4.224,-1.756 4.13,-1.881 4.039,-1.961 3.951,-1.998 3.861,-2.035 3.761,-2.047 3.65,-2.036 3.565,-2.028 3.434,-1.992 3.258,-1.928 L 2.79,-1.76 3.531,0.304 3.813,0.203 C 4.07,0.11 4.239,0.039 4.318,-0.014 4.428,-0.081 4.507,-0.165 4.558,-0.265 4.609,-0.364 4.632,-0.486 4.628,-0.631 4.624,-0.775 4.579,-0.967 4.493,-1.208 m 0.32,1.579 C 4.691,0.46 4.501,0.55 4.242,0.644 L 3.092,1.057 1.971,-2.059 3.155,-2.484 c 0.232,-0.084 0.427,-0.129 0.58,-0.134 0.207,-0.008 0.384,0.022 0.532,0.09 0.194,0.088 0.372,0.231 0.531,0.429 0.13,0.163 0.243,0.372 0.335,0.629 0.105,0.293 0.159,0.55 0.163,0.774 0.003,0.223 -0.035,0.426 -0.117,0.611 -0.08,0.184 -0.202,0.336 -0.366,0.456 m 27.767,-15.189 -1.983,-2.652 0.536,-0.4 1.982,2.652 z m 1.546,-1.244 -0.535,0.399 -1.966,-2.629 1.866,-1.396 0.334,0.447 -1.331,0.995 z m -3.203,0.236 c 0.012,0.167 -0.022,0.329 -0.1,0.487 -0.078,0.157 -0.227,0.363 -0.446,0.615 -0.219,0.252 -0.342,0.432 -0.369,0.539 -0.022,0.084 -0.009,0.158 0.037,0.222 0.05,0.068 0.119,0.104 0.206,0.104 0.135,10e-4 0.283,-0.057 0.44,-0.17 0.153,-0.111 0.246,-0.223 0.278,-0.339 0.033,-0.115 0.012,-0.25 -0.065,-0.405 l 0.56,-0.367 c 0.169,0.253 0.222,0.515 0.158,0.785 -0.064,0.272 -0.264,0.528 -0.602,0.771 -0.207,0.149 -0.405,0.244 -0.596,0.288 -0.19,0.042 -0.367,0.032 -0.531,-0.031 -0.164,-0.063 -0.294,-0.163 -0.393,-0.299 -0.154,-0.214 -0.201,-0.453 -0.142,-0.72 0.041,-0.189 0.181,-0.425 0.42,-0.706 0.186,-0.219 0.303,-0.363 0.349,-0.431 0.07,-0.1 0.107,-0.185 0.111,-0.257 0.006,-0.071 -0.013,-0.138 -0.059,-0.202 -0.072,-0.1 -0.179,-0.154 -0.321,-0.163 -0.141,-0.011 -0.3,0.047 -0.474,0.172 -0.165,0.12 -0.266,0.256 -0.303,0.408 -0.039,0.154 -0.009,0.33 0.088,0.531 l -0.565,0.328 c -0.182,-0.325 -0.237,-0.633 -0.168,-0.92 0.068,-0.289 0.272,-0.555 0.612,-0.8 0.233,-0.168 0.452,-0.276 0.656,-0.323 0.202,-0.048 0.396,-0.035 0.578,0.039 0.182,0.071 0.329,0.185 0.44,0.338 0.122,0.17 0.189,0.338 0.201,0.506 m -6.789,5.163 0.442,0.714 0.443,-0.275 c 0.231,-0.143 0.367,-0.232 0.409,-0.266 0.083,-0.073 0.131,-0.155 0.146,-0.244 0.014,-0.089 -0.008,-0.182 -0.066,-0.276 -0.052,-0.085 -0.116,-0.143 -0.188,-0.177 -0.074,-0.031 -0.153,-0.039 -0.234,-0.02 -0.082,0.02 -0.259,0.114 -0.532,0.283 z m 0.951,-2.078 c 0,0.303 -0.013,0.521 -0.039,0.657 -0.027,0.135 -0.08,0.276 -0.159,0.425 0.269,-0.117 0.509,-0.146 0.718,-0.086 0.209,0.061 0.38,0.197 0.511,0.409 0.103,0.166 0.153,0.339 0.152,0.52 -0.002,0.179 -0.056,0.337 -0.161,0.472 -0.105,0.135 -0.307,0.295 -0.608,0.482 l -1.197,0.741 -1.744,-2.815 0.569,-0.352 0.728,1.175 0.115,-0.071 c 0.131,-0.081 0.219,-0.15 0.267,-0.209 0.047,-0.058 0.08,-0.133 0.098,-0.223 0.019,-0.091 0.033,-0.29 0.043,-0.599 l 0.031,-0.868 0.68,-0.421 z m -6.781,5.266 c -0.179,-0.34 -0.389,-0.554 -0.63,-0.645 -0.24,-0.09 -0.479,-0.073 -0.714,0.051 -0.236,0.125 -0.385,0.312 -0.449,0.564 -0.063,0.252 -0.007,0.545 0.168,0.876 0.177,0.337 0.386,0.549 0.622,0.638 0.238,0.089 0.478,0.069 0.722,-0.06 0.244,-0.128 0.396,-0.313 0.457,-0.556 0.059,-0.243 0,-0.533 -0.176,-0.868 m -0.02,1.933 c -0.24,0.126 -0.47,0.198 -0.693,0.217 -0.167,0.015 -0.34,-0.007 -0.517,-0.064 -0.178,-0.059 -0.34,-0.144 -0.485,-0.258 -0.195,-0.156 -0.373,-0.382 -0.529,-0.681 -0.247,-0.466 -0.311,-0.9 -0.194,-1.301 0.118,-0.401 0.394,-0.717 0.83,-0.947 0.429,-0.226 0.844,-0.273 1.241,-0.142 0.398,0.132 0.722,0.434 0.972,0.907 0.251,0.477 0.318,0.917 0.199,1.322 -0.118,0.404 -0.392,0.719 -0.824,0.947 m -3.069,0.333 c -0.02,-0.144 -0.084,-0.33 -0.195,-0.56 -0.112,-0.23 -0.221,-0.403 -0.325,-0.517 -0.106,-0.113 -0.204,-0.185 -0.298,-0.212 -0.092,-0.027 -0.192,-0.029 -0.302,-0.006 -0.084,0.017 -0.21,0.067 -0.378,0.148 l -0.449,0.217 0.954,1.974 0.27,-0.13 c 0.245,-0.12 0.405,-0.208 0.48,-0.267 0.101,-0.08 0.172,-0.17 0.212,-0.276 0.039,-0.103 0.049,-0.227 0.031,-0.371 m 0.605,0.484 c -0.06,0.192 -0.166,0.357 -0.317,0.493 -0.111,0.102 -0.291,0.211 -0.539,0.33 l -1.101,0.532 -1.439,-2.982 1.132,-0.546 c 0.223,-0.108 0.41,-0.173 0.564,-0.195 0.204,-0.029 0.383,-0.017 0.537,0.034 0.203,0.067 0.395,0.192 0.573,0.372 0.147,0.148 0.281,0.345 0.399,0.591 0.135,0.28 0.216,0.529 0.243,0.752 0.027,0.221 0.01,0.428 -0.052,0.619 m 11.725,-8.903 -0.751,0.503 1.055,0.772 z m 0.446,2.109 -2.913,-2.035 0.589,-0.394 0.645,0.473 1.101,-0.736 -0.178,-0.786 0.604,-0.405 0.74,3.49 z m -5.597,2.165 c -0.09,-0.024 -0.189,-0.011 -0.292,0.036 -0.06,0.026 -0.2,0.106 -0.424,0.239 l -0.376,0.224 0.392,0.658 0.329,-0.197 c 0.27,-0.161 0.433,-0.262 0.485,-0.302 0.089,-0.069 0.141,-0.144 0.158,-0.229 0.015,-0.084 -0.004,-0.169 -0.056,-0.257 -0.055,-0.092 -0.127,-0.15 -0.216,-0.172 m -0.391,-1.086 c -0.06,-0.101 -0.135,-0.165 -0.225,-0.194 -0.089,-0.028 -0.181,-0.025 -0.276,0.01 -0.063,0.022 -0.196,0.095 -0.404,0.219 l -0.531,0.316 0.453,0.76 0.463,-0.276 c 0.262,-0.155 0.423,-0.27 0.486,-0.344 0.062,-0.073 0.095,-0.153 0.101,-0.237 0.006,-0.085 -0.016,-0.169 -0.067,-0.254 m 0.693,0.131 c -0.02,0.177 -0.103,0.343 -0.246,0.496 0.156,-0.017 0.304,0.008 0.442,0.077 0.137,0.068 0.247,0.17 0.325,0.302 0.074,0.123 0.11,0.251 0.111,0.385 0.002,0.134 -0.025,0.256 -0.076,0.367 -0.052,0.112 -0.127,0.21 -0.227,0.294 -0.099,0.086 -0.262,0.195 -0.487,0.329 l -1.138,0.678 -1.694,-2.845 0.968,-0.577 c 0.368,-0.216 0.603,-0.346 0.704,-0.393 0.164,-0.075 0.319,-0.106 0.467,-0.095 0.147,0.011 0.287,0.06 0.421,0.146 0.133,0.086 0.238,0.194 0.314,0.324 0.098,0.164 0.137,0.335 0.116,0.512 m -39.348,14.372 0.629,1.146 0.264,-1.284 z m 0.405,1.962 -1.78,-3.075 0.701,-0.109 0.384,0.703 1.309,-0.203 0.171,-0.787 0.719,-0.112 -0.804,3.475 z M -26.533,5.702 C -26.549,5.447 -26.585,5.245 -26.641,5.1 -26.695,4.956 -26.76,4.853 -26.836,4.792 -26.912,4.733 -27.004,4.694 -27.114,4.674 -27.198,4.658 -27.334,4.657 -27.521,4.669 l -0.497,0.033 0.145,2.188 0.299,-0.02 c 0.272,-0.018 0.454,-0.04 0.546,-0.068 0.122,-0.035 0.223,-0.093 0.299,-0.177 0.076,-0.08 0.131,-0.191 0.168,-0.331 0.035,-0.14 0.046,-0.337 0.028,-0.592 m 0.351,1.268 c -0.128,0.155 -0.287,0.268 -0.478,0.337 -0.141,0.053 -0.349,0.087 -0.624,0.105 l -1.219,0.081 -0.218,-3.304 1.254,-0.083 c 0.247,-0.017 0.446,-0.006 0.596,0.031 0.2,0.05 0.362,0.128 0.485,0.232 0.164,0.139 0.295,0.326 0.393,0.561 0.08,0.192 0.13,0.424 0.148,0.695 0.02,0.312 0.002,0.574 -0.056,0.789 -0.058,0.216 -0.152,0.401 -0.281,0.556 M -36.25,6 l 1.662,-0.023 0.007,0.557 -1.662,0.023 0.01,0.734 1.786,-0.024 0.008,0.56 -2.455,0.033 -0.044,-3.31 2.517,-0.035 0.008,0.558 -1.85,0.026 z m -2,-0.386 c -0.048,-0.147 -0.107,-0.253 -0.18,-0.317 -0.072,-0.064 -0.163,-0.108 -0.271,-0.133 -0.084,-0.02 -0.219,-0.029 -0.405,-0.026 l -0.499,0.007 0.03,2.192 0.299,-0.004 c 0.273,-0.004 0.456,-0.016 0.548,-0.039 0.125,-0.029 0.228,-0.082 0.309,-0.16 0.08,-0.078 0.142,-0.186 0.185,-0.323 0.043,-0.139 0.064,-0.334 0.06,-0.59 -0.004,-0.256 -0.03,-0.459 -0.076,-0.607 m 0.359,1.891 c -0.135,0.149 -0.3,0.253 -0.494,0.313 -0.145,0.045 -0.354,0.068 -0.629,0.072 l -1.222,0.016 -0.045,-3.311 1.257,-0.017 c 0.248,-0.003 0.445,0.017 0.593,0.063 0.198,0.06 0.356,0.146 0.473,0.257 0.156,0.147 0.277,0.34 0.363,0.58 0.07,0.196 0.108,0.431 0.112,0.703 0.003,0.311 -0.029,0.571 -0.098,0.785 -0.069,0.212 -0.172,0.392 -0.31,0.539 m -4.607,-1.055 -0.493,-0.011 -0.018,0.84 0.521,0.011 c 0.271,0.005 0.434,0.005 0.488,-0.001 0.109,-0.016 0.194,-0.058 0.255,-0.124 0.06,-0.068 0.092,-0.157 0.095,-0.269 0.002,-0.099 -0.019,-0.182 -0.062,-0.25 -0.045,-0.067 -0.106,-0.115 -0.185,-0.144 -0.08,-0.028 -0.28,-0.045 -0.601,-0.052 m 1.045,-0.706 c -0.096,0.099 -0.217,0.189 -0.364,0.27 0.29,0.048 0.506,0.155 0.649,0.32 0.142,0.165 0.21,0.372 0.206,0.621 -0.005,0.195 -0.057,0.367 -0.156,0.518 -0.1,0.15 -0.231,0.253 -0.392,0.308 -0.161,0.056 -0.419,0.081 -0.773,0.073 l -1.407,-0.03 0.07,-3.31 0.67,0.014 -0.03,1.383 0.135,0.003 c 0.154,0.003 0.265,-0.007 0.337,-0.03 0.072,-0.024 0.14,-0.069 0.205,-0.134 0.064,-0.066 0.185,-0.226 0.362,-0.479 l 0.499,-0.711 0.799,0.017 -0.419,0.638 c -0.164,0.254 -0.295,0.43 -0.391,0.529 m -3.673,-0.521 c -0.164,-0.199 -0.379,-0.303 -0.645,-0.314 -0.266,-0.01 -0.49,0.078 -0.67,0.264 -0.181,0.187 -0.278,0.468 -0.293,0.843 -0.015,0.38 0.059,0.669 0.22,0.864 0.161,0.195 0.379,0.298 0.655,0.308 0.275,0.012 0.5,-0.073 0.673,-0.253 0.173,-0.181 0.267,-0.461 0.281,-0.84 0.015,-0.384 -0.059,-0.674 -0.221,-0.872 m -0.763,2.537 c -0.269,-0.01 -0.505,-0.063 -0.708,-0.159 -0.152,-0.071 -0.29,-0.176 -0.416,-0.314 -0.124,-0.14 -0.221,-0.295 -0.29,-0.466 -0.093,-0.233 -0.132,-0.517 -0.118,-0.854 0.02,-0.527 0.181,-0.935 0.483,-1.224 0.303,-0.288 0.699,-0.423 1.191,-0.404 0.487,0.018 0.868,0.184 1.147,0.497 0.279,0.312 0.408,0.736 0.388,1.271 -0.021,0.539 -0.184,0.953 -0.488,1.245 -0.305,0.291 -0.701,0.426 -1.189,0.408 m 13.677,-2.29 -0.491,2.285 -0.999,0.048 -0.161,-3.306 0.62,-0.031 0.126,2.604 0.529,-2.635 0.643,-0.032 0.782,2.572 -0.126,-2.604 0.62,-0.03 0.161,3.307 -1.002,0.049 z m 8.971,-0.94 c -0.186,-0.179 -0.412,-0.255 -0.677,-0.233 -0.266,0.022 -0.478,0.137 -0.634,0.344 -0.156,0.207 -0.219,0.498 -0.188,0.871 0.032,0.381 0.14,0.657 0.323,0.831 0.185,0.174 0.414,0.25 0.688,0.227 0.275,-0.022 0.488,-0.134 0.638,-0.334 0.15,-0.2 0.209,-0.489 0.177,-0.867 -0.032,-0.384 -0.141,-0.662 -0.327,-0.839 m -0.446,2.611 c -0.27,0.022 -0.509,-0.002 -0.723,-0.072 -0.159,-0.051 -0.31,-0.139 -0.451,-0.261 -0.141,-0.123 -0.256,-0.266 -0.345,-0.427 -0.119,-0.22 -0.193,-0.497 -0.222,-0.834 -0.044,-0.524 0.067,-0.949 0.331,-1.273 0.264,-0.323 0.642,-0.505 1.134,-0.546 0.484,-0.041 0.883,0.077 1.198,0.353 0.315,0.277 0.495,0.682 0.539,1.214 0.045,0.538 -0.065,0.969 -0.332,1.295 -0.266,0.326 -0.643,0.51 -1.129,0.551 m 2.903,-1.05 c 0.119,0.064 0.277,0.083 0.469,0.057 0.187,-0.025 0.321,-0.082 0.404,-0.168 0.083,-0.086 0.128,-0.216 0.133,-0.389 l 0.666,-0.061 c 0.031,0.303 -0.045,0.558 -0.228,0.768 -0.184,0.209 -0.481,0.341 -0.894,0.398 -0.252,0.034 -0.473,0.025 -0.661,-0.026 -0.188,-0.052 -0.34,-0.144 -0.455,-0.276 -0.114,-0.133 -0.183,-0.283 -0.206,-0.45 -0.035,-0.259 0.035,-0.493 0.212,-0.701 0.125,-0.148 0.36,-0.29 0.703,-0.427 0.266,-0.107 0.437,-0.178 0.511,-0.216 0.108,-0.056 0.18,-0.114 0.218,-0.175 0.038,-0.06 0.053,-0.128 0.042,-0.207 -0.016,-0.121 -0.085,-0.218 -0.206,-0.294 -0.12,-0.076 -0.288,-0.099 -0.501,-0.07 -0.201,0.027 -0.354,0.101 -0.458,0.217 -0.106,0.118 -0.163,0.288 -0.171,0.511 l -0.653,0.024 c -0.008,-0.373 0.087,-0.67 0.283,-0.893 0.196,-0.221 0.501,-0.36 0.916,-0.418 0.285,-0.038 0.529,-0.03 0.731,0.023 0.201,0.053 0.366,0.156 0.492,0.305 0.128,0.149 0.204,0.319 0.229,0.507 0.029,0.206 0.009,0.387 -0.059,0.54 -0.068,0.153 -0.173,0.281 -0.317,0.383 -0.144,0.103 -0.371,0.214 -0.683,0.334 -0.311,0.12 -0.505,0.221 -0.579,0.302 -0.057,0.065 -0.081,0.136 -0.071,0.214 0.012,0.084 0.057,0.148 0.133,0.188"
         style="fill:#ffffff;fill-opacity:1;fill-rule:nonzero;stroke:none"
         transform="matrix(1.9849682,0,0,-1.9849682,107.44632,70.030778)"
         clip-path="url(#clipPath36)" /><path
         id="path37"
         d="M 315.98192,1.8195477 V 180.5322 h 84.41276 c 0,0 42.67085,-13.51368 42.67085,-51.55162 v 0 c 0,-37.079212 -41.05112,-50.964052 -41.05112,-50.964052 v 0 c 0,0 11.26468,-12.07258 11.26468,-29.55419 v 0 c 0,-32.09693 -33.538,-46.6427903 -33.538,-46.6427903 v 0 z"
         style="fill:#ffffff;stroke:none;stroke-width:1.98496" /><path
         id="path42"
         d="M 159.58826,180.5322 H 310.97185 L 235.27906,1.8195477 Z"
         style="fill:#ffffff;stroke:none;stroke-width:1.98496" /><path
         d="m 278.0626,302.98112 c -2.60424,0 -4.82603,0.8394 -6.66985,2.52696 l 0.70041,1.236 c 0.11461,0.19782 0.2657,0.36357 0.4532,0.49898 0.18751,0.13547 0.41252,0.20602 0.67294,0.20602 0.31251,0 0.60018,-0.0738 0.86063,-0.21962 0.26043,-0.14578 0.54021,-0.30814 0.8423,-0.48524 0.31251,-0.18751 0.67742,-0.35314 1.09411,-0.49898 0.41666,-0.14578 0.93601,-0.21962 1.56101,-0.21962 0.86462,0 1.52054,0.26195 1.96847,0.78282 0.45834,0.51042 0.69125,1.30292 0.69125,2.37588 v 0.93387 c -1.82299,0.0417 -3.34859,0.21845 -4.57781,0.53102 -1.22921,0.3125 -2.21765,0.71104 -2.95726,1.19023 -0.7396,0.46876 -1.27015,0.9993 -1.59306,1.59307 -0.31253,0.58335 -0.46694,1.17658 -0.46694,1.78076 0,0.71878 0.11414,1.34895 0.34332,1.89064 0.22923,0.54168 0.54593,0.99501 0.95218,1.3596 0.41669,0.3646 0.91028,0.64108 1.48323,0.82858 0.57292,0.17708 1.19979,0.26552 1.87689,0.26552 0.57293,0 1.09226,-0.0482 1.56102,-0.14192 0.46877,-0.0937 0.91088,-0.23366 1.32757,-0.42116 0.41669,-0.18751 0.81854,-0.41583 1.20396,-0.68667 0.39585,-0.28126 0.7977,-0.6059 1.20396,-0.97049 l 0.34334,1.14445 c 0.10407,0.33334 0.26317,0.55377 0.47152,0.66836 0.20836,0.10416 0.49145,0.15565 0.85603,0.15565 h 1.735 v -10.12151 c 0,-0.9063 -0.13664,-1.74363 -0.40742,-2.50406 -0.26043,-0.76044 -0.64318,-1.40846 -1.15362,-1.95014 -0.51044,-0.55212 -1.13727,-0.9797 -1.87689,-1.2818 -0.72919,-0.3125 -1.56196,-0.46694 -2.49949,-0.46694 z m 2.17447,9.48054 v 2.70547 c -0.28126,0.29168 -0.56564,0.54574 -0.8469,0.7645 -0.27083,0.20834 -0.55397,0.38518 -0.85604,0.53102 -0.29169,0.14584 -0.6051,0.25669 -0.93845,0.3296 -0.33336,0.0729 -0.69825,0.10986 -1.0941,0.10986 -0.64586,0 -1.17308,-0.1478 -1.57935,-0.43947 -0.39584,-0.29168 -0.59512,-0.77406 -0.59512,-1.45116 0,-0.34376 0.0963,-0.66051 0.28384,-0.95219 0.19782,-0.29167 0.52589,-0.55031 0.98423,-0.76907 0.45833,-0.21875 1.06278,-0.3956 1.81281,-0.53102 0.76043,-0.14583 1.70403,-0.24547 2.82908,-0.29756 z"
         style="font-weight:bold;font-size:16px;font-family:Lato;-inkscape-font-specification:'Lato, Bold';text-align:center;text-anchor:middle;fill:#ffffff;stroke-width:2.34384"
         id="path1-7"
         sodipodi:nodetypes="cccssscsscscsccssccsssccccscscccccccccsscscscsc" /><path
         d="m 220.73157,303.15675 c -2.60424,0 -4.82603,0.8394 -6.66985,2.52696 l 0.70041,1.236 c 0.11461,0.19782 0.2657,0.36357 0.4532,0.49898 0.18751,0.13547 0.41252,0.20602 0.67294,0.20602 0.31251,0 0.60018,-0.0738 0.86063,-0.21962 0.26043,-0.14578 0.54021,-0.30814 0.8423,-0.48524 0.31251,-0.18751 0.67742,-0.35314 1.09411,-0.49898 0.41666,-0.14578 0.93601,-0.21962 1.56101,-0.21962 0.86462,0 1.52054,0.26195 1.96847,0.78282 0.45834,0.51042 0.69125,1.30292 0.69125,2.37588 v 0.93387 c -1.82299,0.0417 -3.34859,0.21845 -4.57781,0.53102 -1.22921,0.3125 -2.21765,0.71104 -2.95726,1.19023 -0.7396,0.46876 -1.27015,0.9993 -1.59306,1.59307 -0.31253,0.58335 -0.46694,1.17658 -0.46694,1.78076 0,0.71878 0.11414,1.34895 0.34332,1.89064 0.22923,0.54168 0.54593,0.99501 0.95218,1.3596 0.41669,0.3646 0.91028,0.64108 1.48323,0.82858 0.57292,0.17708 1.19979,0.26552 1.87689,0.26552 0.57293,0 1.09226,-0.0482 1.56102,-0.14192 0.46877,-0.0937 0.91088,-0.23366 1.32757,-0.42116 0.41669,-0.18751 0.81854,-0.41583 1.20396,-0.68667 0.39585,-0.28126 0.7977,-0.6059 1.20396,-0.97049 l 0.34334,1.14445 c 0.10407,0.33334 0.26317,0.55377 0.47152,0.66836 0.20836,0.10416 0.49145,0.15565 0.85603,0.15565 h 1.735 v -10.12151 c 0,-0.9063 -0.13664,-1.74363 -0.40742,-2.50406 -0.26043,-0.76044 -0.64318,-1.40846 -1.15362,-1.95014 -0.51044,-0.55212 -1.13727,-0.9797 -1.87689,-1.2818 -0.72919,-0.3125 -1.56196,-0.46694 -2.49949,-0.46694 z m 2.17447,9.48054 v 2.70547 c -0.28126,0.29168 -0.56564,0.54574 -0.8469,0.7645 -0.27083,0.20834 -0.55397,0.38518 -0.85604,0.53102 -0.29169,0.14584 -0.6051,0.25669 -0.93845,0.3296 -0.33336,0.0729 -0.69825,0.10986 -1.0941,0.10986 -0.64586,0 -1.17308,-0.1478 -1.57935,-0.43947 -0.39584,-0.29168 -0.59512,-0.77406 -0.59512,-1.45116 0,-0.34376 0.0963,-0.66051 0.28384,-0.95219 0.19782,-0.29167 0.52589,-0.55031 0.98423,-0.76907 0.45833,-0.21875 1.06278,-0.3956 1.81281,-0.53102 0.76043,-0.14583 1.70403,-0.24547 2.82908,-0.29756 z"
         style="font-weight:bold;font-size:16px;font-family:Lato;-inkscape-font-specification:'Lato, Bold';text-align:center;text-anchor:middle;fill:#ffffff;stroke-width:2.34384"
         id="path1-7-5"
         sodipodi:nodetypes="cccssscsscscsccssccsssccccscscccccccccsscscscsc" /><path
         d="m 134.20806,302.93983 c -2.60424,0 -4.82603,0.8394 -6.66985,2.52696 l 0.70041,1.236 c 0.11461,0.19782 0.2657,0.36357 0.4532,0.49898 0.18751,0.13547 0.41252,0.20602 0.67294,0.20602 0.31251,0 0.60018,-0.0738 0.86063,-0.21962 0.26043,-0.14578 0.54021,-0.30814 0.8423,-0.48524 0.31251,-0.18751 0.67742,-0.35314 1.09411,-0.49898 0.41666,-0.14578 0.93601,-0.21962 1.56101,-0.21962 0.86462,0 1.52054,0.26195 1.96847,0.78282 0.45834,0.51042 0.69125,1.30292 0.69125,2.37588 v 0.93387 c -1.82299,0.0417 -3.34859,0.21845 -4.57781,0.53102 -1.22921,0.3125 -2.21765,0.71104 -2.95726,1.19023 -0.7396,0.46876 -1.27015,0.9993 -1.59306,1.59307 -0.31253,0.58335 -0.46694,1.17658 -0.46694,1.78076 0,0.71878 0.11414,1.34895 0.34332,1.89064 0.22923,0.54168 0.54593,0.99501 0.95218,1.3596 0.41669,0.3646 0.91028,0.64108 1.48323,0.82858 0.57292,0.17708 1.19979,0.26552 1.87689,0.26552 0.57293,0 1.09226,-0.0482 1.56102,-0.14192 0.46877,-0.0937 0.91088,-0.23366 1.32757,-0.42116 0.41669,-0.18751 0.81854,-0.41583 1.20396,-0.68667 0.39585,-0.28126 0.7977,-0.6059 1.20396,-0.97049 l 0.34334,1.14445 c 0.10407,0.33334 0.26317,0.55377 0.47152,0.66836 0.20836,0.10416 0.49145,0.15565 0.85603,0.15565 h 1.735 v -10.12151 c 0,-0.9063 -0.13664,-1.74363 -0.40742,-2.50406 -0.26043,-0.76044 -0.64318,-1.40846 -1.15362,-1.95014 -0.51044,-0.55212 -1.13727,-0.9797 -1.87689,-1.2818 -0.72919,-0.3125 -1.56196,-0.46694 -2.49949,-0.46694 z m 2.17447,9.48054 v 2.70547 c -0.28126,0.29168 -0.56564,0.54574 -0.8469,0.7645 -0.27083,0.20834 -0.55397,0.38518 -0.85604,0.53102 -0.29169,0.14584 -0.6051,0.25669 -0.93845,0.3296 -0.33336,0.0729 -0.69825,0.10986 -1.0941,0.10986 -0.64586,0 -1.17308,-0.1478 -1.57935,-0.43947 -0.39584,-0.29168 -0.59512,-0.77406 -0.59512,-1.45116 0,-0.34376 0.0963,-0.66051 0.28384,-0.95219 0.19782,-0.29167 0.52589,-0.55031 0.98423,-0.76907 0.45833,-0.21875 1.06278,-0.3956 1.81281,-0.53102 0.76043,-0.14583 1.70403,-0.24547 2.82908,-0.29756 z"
         style="font-weight:bold;font-size:16px;font-family:Lato;-inkscape-font-specification:'Lato, Bold';text-align:center;text-anchor:middle;fill:#ffffff;stroke-width:2.34384"
         id="path1-7-6"
         sodipodi:nodetypes="cccssscsscscsccssccsssccccscscccccccccsscscscsc" /></g></g></svg>
