<?xml version="1.0" encoding="UTF-8" standalone="no"?>
<!-- Created with Inkscape (http://www.inkscape.org/) -->

<svg
   width="800"
   height="800"
   viewBox="0 0 211.66667 211.66667"
   version="1.1"
   id="svg1"
   xml:space="preserve"
   inkscape:version="1.3.2 (091e20e, 2023-11-25, custom)"
   sodipodi:docname="oi.svg"
   xmlns:inkscape="http://www.inkscape.org/namespaces/inkscape"
   xmlns:sodipodi="http://sodipodi.sourceforge.net/DTD/sodipodi-0.dtd"
   xmlns="http://www.w3.org/2000/svg"
   xmlns:svg="http://www.w3.org/2000/svg"><sodipodi:namedview
     id="namedview1"
     pagecolor="#000000"
     bordercolor="#000000"
     borderopacity="0.25"
     inkscape:showpageshadow="2"
     inkscape:pageopacity="0.0"
     inkscape:pagecheckerboard="0"
     inkscape:deskcolor="#d1d1d1"
     inkscape:document-units="mm"
     inkscape:export-bgcolor="#00000000"
     inkscape:zoom="0.51213161"
     inkscape:cx="568.21332"
     inkscape:cy="403.21667"
     inkscape:window-width="1920"
     inkscape:window-height="1009"
     inkscape:window-x="-8"
     inkscape:window-y="-8"
     inkscape:window-maximized="1"
     inkscape:current-layer="layer1" /><defs
     id="defs1"><clipPath
       clipPathUnits="userSpaceOnUse"
       id="clipPath3011"><path
         inkscape:connector-curvature="0"
         d="M -2.2e-8,1.2207e-4 H 720 V 540.00012 H -2.2e-8 Z"
         clip-rule="evenodd"
         id="path3013" /></clipPath><clipPath
       clipPathUnits="userSpaceOnUse"
       id="clipPath3021"><path
         inkscape:connector-curvature="0"
         d="M 0,0 H 843.56 V 87.998 H 0 Z"
         id="path3023" /></clipPath><clipPath
       clipPathUnits="userSpaceOnUse"
       id="clipPath3945"><path
         inkscape:connector-curvature="0"
         d="M 0,1.2207e-4 H 720 V 540.00012 H 0 Z"
         clip-rule="evenodd"
         id="path3947" /></clipPath><clipPath
       clipPathUnits="userSpaceOnUse"
       id="clipPath36"><path
         d="M 0,595.276 H 841.89 V 0 H 0 Z"
         transform="translate(-130.8096,-476.27511)"
         id="path36" /></clipPath><style
       type="text/css"
       id="style2989" /></defs><g
     inkscape:label="Camada 1"
     inkscape:groupmode="layer"
     id="layer1"
     transform="translate(-67.583023,162.56458)"><g
       id="Camada_x0020_1"
       inkscape:label="Camada 1"
       transform="matrix(2.0757274,0,0,2.0757274,-87.07606,-335.39698)"
       style="fill-rule:evenodd"
       inkscape:groupmode="layer"><metadata
         id="CorelCorpID_0Corel-Layer" /><path
         d="m 108.283,137.925 c -2.883,0.1051 -3.6768,14.3633 0,15.2577 3.8372,-0.398 3.4402,-15.5822 0,-15.2577 z"
         id="path2993"
         style="fill:none" /><ellipse
         cx="108.349"
         cy="133.493"
         rx="2.5136001"
         ry="2.5576501"
         id="ellipse2995"
         style="fill:none" /><path
         id="path2997"
         style="fill:#ffffff"
         d="m 131.37889,108.71439 c -8.32401,0.12323 -17.2106,3.05418 -22.78283,7.68614 -2.00709,1.6684 -2.95128,2.81485 -4.37058,4.51225 -2.8471,3.4048 -4.538523,9.18913 -4.363423,13.34713 0.660903,15.69348 16.127453,21.81985 16.127453,21.81985 6.5778,3.009 11.06786,3.30185 15.23835,3.66944 7.02479,0.4124 9.4773,-2.3617 7.62221,-9.16009 -0.2452,-1.364 -0.41672,-2.73899 -0.41672,-2.73899 -0.8699,-2.9316 -0.44208,-7.51527 -0.44208,-7.51527 0,-3.8806 6.87917,-8.02569 6.87917,-8.02569 10.58329,-8.4667 4.56461,-16.60316 4.56461,-16.60316 -3.80474,-5.02326 -10.71144,-7.10035 -18.05616,-6.99161 z m -1.69994,22.86716 c 1.38819,0 2.51354,1.14504 2.51354,2.55764 0,1.4127 -1.12535,2.55764 -2.51354,2.55764 -1.3882,0 -2.51355,-1.14494 -2.51355,-2.55764 0,-1.4126 1.12535,-2.55764 2.51355,-2.55764 z m -11.79601,6.90122 c 8.99549,-0.1037 10.37718,14.94814 0.17639,15.25764 -10.31829,-0.7779 -8.34868,-15.12414 -0.17639,-15.25764 z m 11.72986,0.0882 c 3.4402,-0.3245 3.8372,14.85964 0,15.25764 -3.6768,-0.8944 -2.883,-15.15254 0,-15.25764 z m -11.57387,3.73669 c -0.0658,-7e-4 -0.13265,4.6e-4 -0.20064,0.004 -3.6161,0.1512 -4.0129,8.01529 0.13229,8.02569 4.02304,0.061 4.21405,-7.98535 0.0683,-8.02955 z" /></g></g></svg>
