<?xml version="1.0" encoding="UTF-8" standalone="no"?>
<!-- Created with Inkscape (http://www.inkscape.org/) -->

<svg
   width="800"
   height="800"
   viewBox="0 0 211.66667 211.66667"
   version="1.1"
   id="svg1"
   xml:space="preserve"
   inkscape:version="1.3.2 (091e20e, 2023-11-25, custom)"
   sodipodi:docname="pefisa.svg"
   xmlns:inkscape="http://www.inkscape.org/namespaces/inkscape"
   xmlns:sodipodi="http://sodipodi.sourceforge.net/DTD/sodipodi-0.dtd"
   xmlns="http://www.w3.org/2000/svg"
   xmlns:svg="http://www.w3.org/2000/svg"><sodipodi:namedview
     id="namedview1"
     pagecolor="#000000"
     bordercolor="#000000"
     borderopacity="0.25"
     inkscape:showpageshadow="2"
     inkscape:pageopacity="0.0"
     inkscape:pagecheckerboard="0"
     inkscape:deskcolor="#d1d1d1"
     inkscape:document-units="mm"
     inkscape:export-bgcolor="#00000000"
     inkscape:zoom="0.51213161"
     inkscape:cx="568.21332"
     inkscape:cy="403.21667"
     inkscape:window-width="1920"
     inkscape:window-height="1009"
     inkscape:window-x="-8"
     inkscape:window-y="-8"
     inkscape:window-maximized="1"
     inkscape:current-layer="Camada_x0020_1" /><defs
     id="defs1"><clipPath
       clipPathUnits="userSpaceOnUse"
       id="clipPath3011"><path
         inkscape:connector-curvature="0"
         d="M -2.2e-8,1.2207e-4 H 720 V 540.00012 H -2.2e-8 Z"
         clip-rule="evenodd"
         id="path3013" /></clipPath><clipPath
       clipPathUnits="userSpaceOnUse"
       id="clipPath3021"><path
         inkscape:connector-curvature="0"
         d="M 0,0 H 843.56 V 87.998 H 0 Z"
         id="path3023" /></clipPath><clipPath
       clipPathUnits="userSpaceOnUse"
       id="clipPath3945"><path
         inkscape:connector-curvature="0"
         d="M 0,1.2207e-4 H 720 V 540.00012 H 0 Z"
         clip-rule="evenodd"
         id="path3947" /></clipPath><clipPath
       clipPathUnits="userSpaceOnUse"
       id="clipPath36"><path
         d="M 0,595.276 H 841.89 V 0 H 0 Z"
         transform="translate(-130.8096,-476.27511)"
         id="path36" /></clipPath><style
       type="text/css"
       id="style2989" /></defs><g
     inkscape:label="Camada 1"
     inkscape:groupmode="layer"
     id="layer1"
     transform="translate(-67.583023,162.56458)"><g
       id="Camada_x0020_1"
       inkscape:label="Camada 1"
       transform="matrix(2.0757274,0,0,2.0757274,-87.07606,-335.39698)"
       style="fill-rule:evenodd"
       inkscape:groupmode="layer"><metadata
         id="CorelCorpID_0Corel-Layer" /><path
         d="m 108.283,137.925 c -2.883,0.1051 -3.6768,14.3633 0,15.2577 3.8372,-0.398 3.4402,-15.5822 0,-15.2577 z"
         id="path2993"
         style="fill:none" /><ellipse
         cx="108.349"
         cy="133.493"
         rx="2.5136001"
         ry="2.5576501"
         id="ellipse2995"
         style="fill:none" /><path
         d="m 158.90381,113.76146 c -0.007,0.0177 -0.12747,0.0358 -0.26735,0.0402 -0.13988,0.005 -0.28906,0.029 -0.33151,0.0547 -0.0428,0.0259 -0.17893,0.0467 -0.30577,0.0467 -0.12575,0 -0.26528,0.0174 -0.31008,0.0387 -0.0448,0.0212 -0.20646,0.0464 -0.35933,0.0557 -0.15286,0.009 -0.29649,0.0305 -0.31919,0.0468 -0.0227,0.0163 -0.15748,0.0368 -0.29951,0.0454 -0.14199,0.009 -0.29071,0.0311 -0.33041,0.0498 -0.0397,0.0188 -0.19181,0.0422 -0.33798,0.0521 -0.14617,0.0102 -0.28718,0.0338 -0.31336,0.0531 -0.0261,0.0193 -0.17066,0.0382 -0.32111,0.0422 -0.15043,0.003 -0.30975,0.0269 -0.35405,0.0512 -0.0443,0.0244 -0.21151,0.0497 -0.3717,0.0565 -0.16111,0.007 -0.30865,0.0308 -0.3303,0.0538 -0.0215,0.0228 -0.15356,0.0446 -0.29344,0.0486 -0.13987,0.005 -0.30185,0.0283 -0.35996,0.0541 -0.0581,0.0259 -0.19242,0.0469 -0.29845,0.0469 -0.10601,0 -0.25252,0.0221 -0.32548,0.0493 -0.073,0.027 -0.23798,0.053 -0.3667,0.0578 -0.12868,0.005 -0.26876,0.0295 -0.31121,0.055 -0.0443,0.0267 -0.18599,0.0469 -0.33256,0.0475 -0.16226,6e-4 -0.28308,0.0197 -0.33133,0.0521 -0.0496,0.0333 -0.16886,0.0511 -0.34371,0.0511 -0.16601,0 -0.30073,0.0189 -0.35445,0.0499 -0.0478,0.0275 -0.20075,0.0531 -0.34098,0.0573 -0.13988,0.005 -0.27572,0.0223 -0.30186,0.0404 -0.0261,0.0181 -0.16608,0.0394 -0.31101,0.0475 -0.14492,0.008 -0.27321,0.0261 -0.28507,0.0402 -0.0276,0.0328 -0.0579,0.0374 -0.372,0.0565 -0.1432,0.009 -0.28141,0.0313 -0.30707,0.0503 -0.0258,0.0189 -0.16996,0.0406 -0.3206,0.0483 -0.15064,0.008 -0.3091,0.031 -0.35214,0.0515 -0.0431,0.0207 -0.20485,0.0444 -0.35956,0.0526 -0.15474,0.008 -0.3049,0.0324 -0.33375,0.0537 -0.0288,0.0212 -0.16268,0.0422 -0.29743,0.0465 -0.13475,0.005 -0.29031,0.0288 -0.34567,0.0542 -0.0554,0.0254 -0.19344,0.0463 -0.30687,0.0463 -0.11343,0 -0.25667,0.0234 -0.31833,0.0519 -0.0616,0.0285 -0.2177,0.0525 -0.34682,0.0533 -0.1291,5.9e-4 -0.27877,0.0238 -0.33257,0.0511 -0.0544,0.0276 -0.2038,0.0502 -0.33631,0.051 -0.1312,6e-4 -0.28966,0.0236 -0.35214,0.051 -0.0625,0.0273 -0.22807,0.0531 -0.36795,0.0571 -0.13986,0.005 -0.28072,0.0274 -0.313,0.0519 -0.0323,0.0244 -0.17298,0.0485 -0.31262,0.0535 -0.13968,0.005 -0.29814,0.0295 -0.35213,0.0546 -0.054,0.025 -0.20471,0.0456 -0.33493,0.0458 -0.13017,8e-5 -0.25501,0.0165 -0.27739,0.0364 -0.0224,0.0199 -0.17117,0.0448 -0.33062,0.0554 -0.15947,0.0102 -0.30752,0.0319 -0.32904,0.0475 -0.0215,0.0155 -0.16813,0.0366 -0.32577,0.0469 -0.15768,0.0102 -0.30734,0.0336 -0.33257,0.052 -0.0252,0.0183 -0.18502,0.0417 -0.35503,0.0519 -0.17004,0.0102 -0.31986,0.0339 -0.33296,0.0528 -0.0131,0.0188 -0.13807,0.0379 -0.27776,0.0422 -0.13968,0.005 -0.29951,0.0281 -0.35522,0.0529 -0.0557,0.0247 -0.21046,0.0484 -0.344,0.0527 -0.13353,0.005 -0.28804,0.0286 -0.34341,0.0542 -0.0553,0.0254 -0.19273,0.0463 -0.30533,0.0463 -0.11257,0 -0.25581,0.0224 -0.31829,0.0498 -0.0625,0.0274 -0.22807,0.0535 -0.36795,0.058 -0.13987,0.005 -0.28952,0.0279 -0.33257,0.0521 -0.0431,0.0242 -0.19269,0.0476 -0.33257,0.0519 -0.13987,0.005 -0.28906,0.0288 -0.33151,0.0545 -0.0427,0.0259 -0.18236,0.0471 -0.31301,0.0478 -0.13017,5.9e-4 -0.27963,0.0235 -0.33362,0.051 -0.0545,0.0277 -0.20396,0.0502 -0.33758,0.051 -0.13185,6e-4 -0.30296,0.0246 -0.38024,0.0533 -0.0772,0.0286 -0.22141,0.0521 -0.32035,0.0521 -0.0989,0 -0.21461,0.0165 -0.25702,0.0366 -0.0424,0.0201 -0.20412,0.0451 -0.35933,0.0553 -0.15522,0.0102 -0.29983,0.0314 -0.32134,0.047 -0.0215,0.0155 -0.16812,0.0367 -0.32577,0.0469 -0.15768,0.0102 -0.30733,0.033 -0.33257,0.0509 -0.0252,0.0179 -0.18459,0.0418 -0.35405,0.0536 -0.16945,0.0116 -0.32796,0.0358 -0.35217,0.0537 -0.0243,0.0179 -0.1497,0.0362 -0.27877,0.0407 -0.12912,0.005 -0.27948,0.028 -0.33414,0.0522 -0.0547,0.0242 -0.20408,0.0483 -0.33194,0.0535 -0.12787,0.006 -0.27679,0.0292 -0.33094,0.053 -0.0542,0.0238 -0.20912,0.0469 -0.34438,0.0512 -0.13525,0.005 -0.27612,0.0281 -0.31301,0.053 -0.0388,0.0261 -0.17492,0.0458 -0.32248,0.0463 -0.15579,5.9e-4 -0.28643,0.0205 -0.33495,0.0506 -0.0468,0.0292 -0.19144,0.0523 -0.35108,0.0564 -0.1493,0.003 -0.30843,0.0272 -0.35354,0.0521 -0.0451,0.0249 -0.19466,0.0492 -0.33222,0.0542 -0.13757,0.005 -0.2943,0.0295 -0.34829,0.0546 -0.054,0.025 -0.19595,0.0457 -0.31536,0.0458 -0.11945,7e-5 -0.23554,0.0165 -0.25804,0.0365 -0.0225,0.02 -0.17129,0.0456 -0.33061,0.0569 -0.15936,0.0113 -0.30918,0.034 -0.33289,0.0505 -0.0237,0.0165 -0.1822,0.0393 -0.35212,0.0506 -0.16997,0.0113 -0.3266,0.0332 -0.34811,0.0487 -0.0215,0.0155 -0.16997,0.038 -0.32988,0.0498 -0.1599,0.012 -0.30956,0.0349 -0.33256,0.0511 -0.0229,0.0162 -0.17044,0.0391 -0.32764,0.051 -0.15722,0.0119 -0.31611,0.0359 -0.35303,0.0536 -0.037,0.0176 -0.16367,0.0358 -0.28152,0.0405 -0.11784,0.005 -0.25913,0.0283 -0.31398,0.0523 -0.0548,0.0241 -0.21261,0.0479 -0.35066,0.053 -0.13807,0.005 -0.29567,0.0286 -0.35029,0.0526 -0.0546,0.0238 -0.2137,0.0471 -0.35357,0.0515 -0.13988,0.005 -0.28954,0.0279 -0.33258,0.0521 -0.0431,0.0242 -0.19269,0.0476 -0.33257,0.0519 -0.13988,0.005 -0.28906,0.0288 -0.33151,0.0545 -0.0427,0.0259 -0.18237,0.0471 -0.31301,0.0478 -0.13018,5.8e-4 -0.27964,0.0235 -0.33363,0.051 -0.0538,0.0273 -0.20345,0.0507 -0.33257,0.0521 -0.12911,0.001 -0.27878,0.0249 -0.33257,0.0521 -0.0541,0.0275 -0.20357,0.0502 -0.33452,0.051 -0.13022,5.9e-4 -0.25582,0.0182 -0.27914,0.0389 -0.0234,0.0207 -0.18087,0.0461 -0.35017,0.0564 -0.16926,0.0102 -0.32658,0.0321 -0.34959,0.0483 -0.0229,0.0162 -0.17265,0.0392 -0.33257,0.0512 -0.15991,0.0119 -0.30835,0.0341 -0.32987,0.0494 -0.0215,0.0153 -0.16867,0.0366 -0.32697,0.0476 -0.15834,0.0113 -0.30801,0.0341 -0.33257,0.0516 -0.0246,0.0174 -0.15917,0.0407 -0.29905,0.0515 -0.28652,0.0223 -0.3544,0.033 -0.4116,0.0648 -0.0219,0.0122 -0.1452,0.0261 -0.27388,0.0311 -0.12869,0.005 -0.26919,0.0286 -0.31223,0.0527 -0.0431,0.0241 -0.19269,0.0475 -0.33257,0.0519 -0.13988,0.005 -0.28953,0.0279 -0.33257,0.0521 -0.0431,0.0242 -0.19269,0.047 -0.33257,0.0509 -0.13987,0.003 -0.29181,0.0273 -0.33762,0.0526 -0.0458,0.0251 -0.20874,0.0489 -0.36203,0.0529 -0.1774,0.005 -0.2947,0.0243 -0.32256,0.0541 -0.0284,0.0304 -0.13475,0.0472 -0.30306,0.048 -0.1506,6e-4 -0.30034,0.022 -0.35715,0.051 -0.0538,0.0273 -0.18584,0.0504 -0.29344,0.0514 -0.1076,10e-4 -0.26606,0.0243 -0.35214,0.0519 -0.0861,0.0276 -0.25423,0.0507 -0.37364,0.0515 -0.11946,6e-4 -0.23625,0.0184 -0.25957,0.0392 -0.0233,0.0207 -0.18087,0.0461 -0.35018,0.0565 -0.16926,0.0102 -0.32912,0.0339 -0.35521,0.0525 -0.0261,0.0184 -0.18437,0.0411 -0.35168,0.0504 -0.16734,0.009 -0.31328,0.0296 -0.32427,0.0452 -0.0113,0.0156 -0.13671,0.0363 -0.2794,0.046 -0.14266,0.0102 -0.29231,0.0332 -0.33257,0.0523 -0.0402,0.0191 -0.18761,0.0414 -0.32749,0.0496 -0.13987,0.008 -0.29004,0.0319 -0.33374,0.0528 -0.0436,0.0209 -0.18452,0.0416 -0.31301,0.0461 -0.12845,0.005 -0.27842,0.028 -0.33327,0.0522 -0.0548,0.0243 -0.21328,0.0472 -0.35214,0.0512 -0.13881,0.005 -0.28944,0.0275 -0.33464,0.0523 -0.0452,0.0249 -0.20369,0.0484 -0.35214,0.0525 -0.15134,0.005 -0.2957,0.027 -0.32861,0.052 -0.0323,0.0245 -0.17313,0.0482 -0.313,0.0524 -0.13988,0.005 -0.30187,0.029 -0.35997,0.0548 -0.0581,0.0259 -0.19242,0.0469 -0.29845,0.0469 -0.10602,0 -0.256,0.0235 -0.33327,0.0521 -0.0772,0.0287 -0.23586,0.0521 -0.35246,0.0521 -0.11655,0 -0.26237,0.0234 -0.32404,0.052 -0.0616,0.0285 -0.21116,0.052 -0.33225,0.0521 -0.1211,7e-5 -0.27955,0.0214 -0.35214,0.0472 -0.0726,0.0259 -0.23753,0.0506 -0.36665,0.0552 -0.12907,0.005 -0.25611,0.0237 -0.28225,0.0431 -0.0262,0.0193 -0.14942,0.0415 -0.27393,0.0493 -0.23826,0.015 -0.30658,0.0251 -0.40244,0.0592 -0.0323,0.0115 -0.1671,0.0281 -0.29962,0.0371 -0.13252,0.009 -0.27338,0.0315 -0.31301,0.0503 -0.0396,0.0189 -0.18651,0.0408 -0.32639,0.0491 -0.13988,0.008 -0.29016,0.032 -0.33398,0.0528 -0.0437,0.0209 -0.19344,0.0418 -0.33257,0.0466 -0.1391,0.005 -0.28813,0.0285 -0.33117,0.0529 -0.0431,0.0244 -0.18905,0.0478 -0.32442,0.0521 -0.13542,0.005 -0.28899,0.0275 -0.34127,0.0515 -0.0523,0.0241 -0.19679,0.0474 -0.32114,0.0516 -0.12434,0.005 -0.27361,0.029 -0.33171,0.0547 -0.0581,0.0258 -0.2078,0.0474 -0.33257,0.048 -0.12481,5.9e-4 -0.27095,0.0236 -0.32475,0.051 -0.0546,0.0277 -0.204,0.0502 -0.33788,0.051 -0.13417,6e-4 -0.2895,0.0241 -0.35214,0.0531 -0.0616,0.0285 -0.20237,0.052 -0.3127,0.0521 -0.11031,8e-5 -0.26045,0.0224 -0.33362,0.0495 -0.0731,0.0271 -0.24696,0.0532 -0.38625,0.058 -0.13929,0.005 -0.28848,0.0274 -0.33152,0.0505 -0.0431,0.0231 -0.182557,0.0449 -0.310067,0.0484 -0.12751,0.003 -0.26422,0.0218 -0.30381,0.0406 -0.0396,0.0188 -0.19935,0.043 -0.35507,0.0538 -0.15568,0.0102 -0.30166,0.0329 -0.32436,0.0493 -0.0227,0.0163 -0.16174,0.0371 -0.30902,0.046 -0.14727,0.009 -0.278336,0.0301 -0.291276,0.0469 -0.0129,0.0168 -0.11156,0.0357 -0.21919,0.0419 -0.1076,0.007 -0.24266,0.0142 -0.30017,0.0174 -0.0574,0.003 -0.12791,0.0227 -0.1565,0.0433 -0.0286,0.0205 -0.19008,0.0444 -0.35891,0.0532 -0.16883,0.009 -0.31887,0.0332 -0.33343,0.054 -0.0146,0.0209 -0.14543,0.0415 -0.29082,0.0457 -0.14544,0.005 -0.30749,0.0275 -0.36016,0.0518 -0.0527,0.0242 -0.206193,0.0478 -0.341217,0.0524 -0.135023,0.005 -0.280689,0.0283 -0.323728,0.0527 -0.04304,0.0244 -0.197077,0.0478 -0.342352,0.0519 -0.145275,0.005 -0.2641,0.0193 -0.2641,0.0339 0,0.0353 -0.16652,0.063 -0.430385,0.0715 -0.118356,0.003 -0.249937,0.0278 -0.292388,0.0532 -0.04402,0.0263 -0.186827,0.0467 -0.332571,0.0474 -0.162256,6e-4 -0.283077,0.0197 -0.331319,0.0521 -0.04911,0.033 -0.167968,0.0511 -0.336327,0.0511 -0.146799,0 -0.309956,0.0217 -0.374004,0.0496 -0.06248,0.0273 -0.219263,0.0532 -0.348379,0.0574 -0.129115,0.005 -0.253887,0.0207 -0.277246,0.0367 -0.02336,0.0159 -0.146605,0.0373 -0.273881,0.0476 -0.127277,0.0102 -0.27979,0.0273 -0.338987,0.038 l -0.107599,0.0194 v 15.35631 15.3563 l 33.990676,-0.009 33.99066,-0.009 0.0123,-10.2162 c 0.007,-5.61892 1.5e-4,-14.84867 -0.0147,-20.5106 l -0.0269,-10.29438 h -0.26579 c -0.14616,0 -0.2716,0.0145 -0.2788,0.0321 m -1.83239,2.63171 c -0.0538,0.008 -0.17,0.0284 -0.25823,0.0466 -0.0883,0.0182 -0.28194,0.0432 -0.43039,0.0556 -0.14848,0.0123 -0.28756,0.0345 -0.30909,0.0492 -0.0215,0.0147 -0.14477,0.034 -0.27388,0.0428 -0.12912,0.009 -0.3492,0.0336 -0.48907,0.0549 -0.62822,0.096 -0.77975,0.11672 -1.03684,0.14262 -0.15064,0.0151 -0.37072,0.0446 -0.48908,0.0657 -0.35104,0.0622 -0.70493,0.11201 -1.01727,0.14335 -0.1614,0.0162 -0.35495,0.0467 -0.43011,0.0677 -0.0752,0.021 -0.22486,0.039 -0.33257,0.0398 -0.10772,6e-4 -0.26633,0.0241 -0.35241,0.0515 -0.0861,0.0275 -0.23574,0.0505 -0.33257,0.0511 -0.0969,5.3e-4 -0.27291,0.024 -0.39127,0.0522 -0.11835,0.0283 -0.29998,0.0515 -0.40362,0.0516 -0.10364,2.3e-4 -0.22333,0.0171 -0.26601,0.0373 -0.0427,0.0202 -0.19559,0.0452 -0.33977,0.0553 -0.14422,0.0102 -0.3325,0.0342 -0.41845,0.0536 -0.086,0.0193 -0.27963,0.0486 -0.43039,0.0651 -0.45359,0.0495 -0.85071,0.10184 -1.03708,0.13666 -0.0969,0.0181 -0.29012,0.0425 -0.42952,0.0541 -0.13937,0.0118 -0.28359,0.0356 -0.32043,0.0531 -0.0368,0.0175 -0.16931,0.0336 -0.29435,0.0357 -0.12502,0.002 -0.28011,0.0227 -0.34467,0.0457 -0.0645,0.0229 -0.21421,0.0457 -0.33257,0.0505 -0.11836,0.005 -0.28561,0.0249 -0.3717,0.0446 -0.086,0.0198 -0.28855,0.0471 -0.44994,0.0607 -0.16139,0.0136 -0.32866,0.0409 -0.3717,0.0608 -0.0431,0.0198 -0.18983,0.0394 -0.32623,0.0437 -0.1364,0.005 -0.33007,0.0297 -0.43038,0.0568 -0.10037,0.027 -0.26164,0.0501 -0.35848,0.051 -0.0969,0.001 -0.23883,0.0218 -0.31552,0.0461 -0.0766,0.0244 -0.25212,0.0484 -0.38984,0.0533 -0.13772,0.005 -0.28179,0.024 -0.32009,0.0422 -0.0383,0.0182 -0.2256,0.0459 -0.41622,0.0615 -0.19058,0.0156 -0.3681,0.0402 -0.39439,0.0547 -0.0263,0.0145 -0.18299,0.0394 -0.34814,0.0555 -0.16515,0.0161 -0.41473,0.0463 -0.55461,0.067 -0.68447,0.10184 -0.99737,0.14386 -1.56504,0.21041 -0.1614,0.019 -0.34627,0.0488 -0.41082,0.0665 -0.0645,0.0176 -0.24822,0.0417 -0.40809,0.0535 -0.15991,0.0118 -0.30956,0.0322 -0.33256,0.0453 -0.0231,0.0131 -0.15632,0.0335 -0.29619,0.0451 -0.2729,0.0227 -0.72004,0.0831 -1.03684,0.13977 -0.1076,0.0192 -0.32768,0.0488 -0.48907,0.0656 -0.1614,0.0168 -0.35496,0.0471 -0.43012,0.0675 -0.0752,0.0203 -0.21828,0.037 -0.31801,0.037 -0.0997,0 -0.24071,0.0211 -0.31329,0.047 -0.0726,0.0259 -0.23757,0.0503 -0.36668,0.0542 -0.12912,0.005 -0.32158,0.0297 -0.42773,0.0572 -0.10613,0.0275 -0.27556,0.0501 -0.37654,0.0501 -0.10093,0 -0.25186,0.0207 -0.33524,0.046 -0.0834,0.0253 -0.23804,0.0501 -0.34368,0.055 -0.10557,0.005 -0.30807,0.031 -0.44995,0.0577 -0.14183,0.0267 -0.3251,0.0488 -0.40722,0.0492 -0.0821,3.1e-4 -0.17892,0.0145 -0.2152,0.0314 -0.0362,0.017 -0.18913,0.0414 -0.33976,0.0543 -0.15064,0.0129 -0.33648,0.038 -0.41301,0.0556 -0.0765,0.0176 -0.26008,0.0411 -0.40786,0.0521 -0.14781,0.0113 -0.29974,0.0346 -0.33761,0.0526 -0.0379,0.018 -0.1454,0.0328 -0.23895,0.0328 -0.0936,0 -0.25819,0.0203 -0.36579,0.0451 -0.10759,0.0249 -0.28942,0.0495 -0.40393,0.0549 -0.11456,0.006 -0.29004,0.0319 -0.38997,0.0588 -0.0999,0.0269 -0.27298,0.0492 -0.38457,0.0493 -0.11156,2.4e-4 -0.25244,0.0189 -0.31301,0.0414 -0.0606,0.0226 -0.24219,0.0516 -0.40358,0.0648 -0.16139,0.013 -0.33746,0.035 -0.39126,0.0487 -0.0538,0.0137 -0.23131,0.0367 -0.39446,0.0512 -0.16313,0.0145 -0.32103,0.0397 -0.35088,0.0559 -0.0298,0.0164 -0.18688,0.0416 -0.34893,0.0561 -0.30253,0.027 -0.65407,0.0754 -0.99897,0.13761 -0.1076,0.0194 -0.31888,0.0439 -0.46951,0.0544 -0.15063,0.0102 -0.3003,0.0314 -0.33258,0.0465 -0.0323,0.015 -0.18193,0.0385 -0.33257,0.0521 -0.15062,0.0136 -0.37951,0.0462 -0.50863,0.0726 -0.12912,0.0263 -0.31074,0.0482 -0.40363,0.0484 -0.0928,3.1e-4 -0.19848,0.0145 -0.23475,0.0315 -0.0362,0.0171 -0.18913,0.04 -0.33977,0.051 -0.15063,0.0113 -0.3355,0.0352 -0.41082,0.0538 -0.0753,0.0187 -0.26688,0.0432 -0.42569,0.0545 -0.15878,0.0114 -0.32048,0.0357 -0.35934,0.0543 -0.0389,0.0184 -0.14671,0.0336 -0.23972,0.0336 -0.093,0 -0.2306,0.0165 -0.30581,0.0366 -0.0752,0.0201 -0.25991,0.0501 -0.41055,0.0663 -0.31828,0.0345 -0.73067,0.0928 -1.03683,0.14664 -0.11836,0.0208 -0.33845,0.0486 -0.48908,0.0617 -0.15063,0.0131 -0.3179,0.0398 -0.3717,0.0592 -0.0538,0.0194 -0.20051,0.039 -0.32604,0.0435 -0.12551,0.005 -0.32446,0.0304 -0.44208,0.0576 -0.11761,0.0272 -0.29336,0.0495 -0.39058,0.0495 -0.0972,0 -0.21204,0.0168 -0.25522,0.0373 -0.0432,0.0205 -0.18726,0.0447 -0.32021,0.0536 -0.13296,0.009 -0.28575,0.0259 -0.33955,0.0376 -0.18619,0.0407 -0.21652,0.0454 -0.50863,0.0794 -0.58176,0.0675 -1.00119,0.12676 -1.03821,0.14663 -0.0208,0.0113 -0.16981,0.0296 -0.33119,0.0411 -0.1614,0.0115 -0.33747,0.0304 -0.39127,0.0422 -0.0538,0.0116 -0.22106,0.0353 -0.37169,0.0524 -0.15064,0.0172 -0.31434,0.0469 -0.36375,0.0659 -0.0494,0.0191 -0.18147,0.0348 -0.29345,0.035 -0.112,2.3e-4 -0.30041,0.0235 -0.41877,0.0517 -0.11835,0.0282 -0.28574,0.0515 -0.37197,0.0517 -0.0861,2.4e-4 -0.21824,0.0176 -0.29344,0.0388 -0.0752,0.0211 -0.26872,0.0515 -0.43012,0.0677 -0.28545,0.0287 -0.57691,0.0693 -1.01727,0.14171 -0.11836,0.0194 -0.33844,0.046 -0.48907,0.059 -0.15063,0.013 -0.29904,0.038 -0.3298,0.0555 -0.0307,0.0175 -0.1716,0.038 -0.313,0.0456 -0.14141,0.008 -0.31872,0.0298 -0.39404,0.0495 -0.0753,0.0197 -0.26899,0.0484 -0.43038,0.0636 -0.30856,0.0293 -0.72149,0.0867 -1.01728,0.14171 -0.0969,0.018 -0.2729,0.0405 -0.39126,0.05 -0.11836,0.009 -0.30323,0.032 -0.41083,0.0503 -0.31045,0.0526 -0.71901,0.10772 -1.03683,0.13991 -0.1614,0.0164 -0.34302,0.0467 -0.40359,0.0674 -0.0606,0.0207 -0.18451,0.0375 -0.27545,0.0375 -0.0909,0 -0.26668,0.0235 -0.39063,0.0521 -0.12391,0.0286 -0.31034,0.0521 -0.41426,0.0521 -0.10387,0 -0.24829,0.021 -0.32088,0.0468 -0.0726,0.0258 -0.22876,0.0503 -0.34712,0.0545 -0.11835,0.005 -0.28562,0.0241 -0.3717,0.044 -0.0861,0.02 -0.27974,0.0462 -0.43038,0.0586 -0.15064,0.0123 -0.29583,0.0349 -0.32267,0.0502 -0.0268,0.0153 -0.16765,0.0363 -0.31301,0.0466 -0.14531,0.0102 -0.3636,0.0407 -0.48505,0.0675 -0.12148,0.0268 -0.28886,0.0488 -0.37196,0.0488 -0.0831,0 -0.21262,0.0169 -0.28782,0.0376 -0.0752,0.0207 -0.24231,0.0451 -0.37142,0.0541 -0.12911,0.009 -0.28749,0.0316 -0.35194,0.0503 -0.0645,0.0186 -0.24935,0.0434 -0.41082,0.0549 -0.16151,0.0115 -0.32048,0.0331 -0.35331,0.048 -0.0328,0.0148 -0.18244,0.0373 -0.33257,0.0498 -0.15009,0.0126 -0.30812,0.0326 -0.351157,0.0443 -0.11386,0.0312 -0.16882,0.0387 -0.43798,0.0593 -0.1333,0.0102 -0.2885,0.0343 -0.34489,0.0533 -0.0564,0.0191 -0.17621,0.035 -0.26628,0.0355 -0.0901,4.6e-4 -0.23417,0.018 -0.32025,0.0389 -0.0861,0.0209 -0.288546,0.0509 -0.449946,0.0665 -0.27826,0.027 -0.52914,0.0618 -1.01727,0.14114 -0.11836,0.0192 -0.33845,0.0476 -0.48908,0.0631 -0.15063,0.0154 -0.3179,0.0433 -0.3717,0.0618 -0.0538,0.0185 -0.202708,0.0375 -0.330884,0.0422 -0.128177,0.005 -0.304244,0.029 -0.39126,0.0542 -0.08702,0.0252 -0.290236,0.055 -0.451632,0.0663 -0.161394,0.0113 -0.434298,0.0423 -0.606452,0.0688 -0.268247,0.0414 4.195474,0.0476 31.213041,0.0437 l 31.52606,-0.005 -1.6e-4,-4.33494 c -8e-5,-2.38423 -2.3e-4,-4.35057 -3e-4,-4.36968 -8e-5,-0.0191 -0.0134,-0.0327 -0.0295,-0.0301 -0.0162,0.002 -0.0734,0.0113 -0.12717,0.0182 m -65.555716,23.01602 c 0,8.45704 0.0045,11.91676 0.0099,7.68821 0.0054,-4.22853 0.0054,-11.14792 0,-15.37642 -0.0054,-4.22853 -0.0099,-0.76882 -0.0099,7.68821 m 2.189175,-12.30281 c -0.02328,0.0207 -0.03341,4.8084 -0.02719,12.83969 l 0.0098,12.80674 h 31.770191 31.77016 v -12.81866 c 0,-11.66774 -0.006,-12.82057 -0.062,-12.83979 -0.10636,-0.0363 -63.420204,-0.0242 -63.461013,0.012 m 41.964613,6.6561 c -0.0307,0.0329 -0.1171,0.0521 -0.23475,0.0521 -0.11766,0 -0.20397,0.0192 -0.23476,0.0521 -0.0268,0.0286 -0.10602,0.0521 -0.17607,0.0521 -0.0701,0 -0.14926,0.0235 -0.17607,0.0521 -0.0268,0.0286 -0.0773,0.0522 -0.11234,0.0522 -0.0821,1.5e-4 -0.43418,0.15787 -0.70927,0.31764 -0.18174,0.10557 -0.8312,0.671 -0.95859,0.8346 -0.0886,0.11377 -0.13867,0.1883 -0.15959,0.23758 -0.0122,0.0286 -0.0385,0.0756 -0.0588,0.10421 -0.0201,0.0286 -0.0464,0.0756 -0.0587,0.1042 -0.0122,0.0286 -0.0386,0.0756 -0.0587,0.10421 -0.0201,0.0287 -0.0461,0.0756 -0.0579,0.10421 -0.0118,0.0286 -0.0468,0.0964 -0.078,0.1505 -0.0312,0.054 -0.0567,0.15776 -0.0567,0.23031 0,0.0726 -0.0251,0.15042 -0.0558,0.17302 -0.0596,0.0438 -0.0812,0.23025 -0.13076,1.12823 -0.0214,0.3871 -0.0166,0.53197 0.019,0.57336 0.0262,0.0305 0.0483,0.15793 0.0489,0.28331 5.9e-4,0.14507 0.0222,0.25241 0.0587,0.29536 0.0317,0.0371 0.058,0.11635 0.0587,0.17615 5.9e-4,0.0598 0.0277,0.12811 0.0599,0.15191 0.0323,0.0239 0.0588,0.0782 0.0588,0.12101 0,0.18881 0.50774,0.86576 0.8569,1.14241 0.0516,0.0409 0.15728,0.12516 0.23475,0.18719 0.0774,0.062 0.16286,0.11291 0.18973,0.11291 0.0269,8e-5 0.0489,0.0133 0.0489,0.0293 0,0.0161 0.0396,0.0475 0.0881,0.0699 0.0484,0.0224 0.14085,0.0713 0.20541,0.10862 0.0645,0.0373 0.1878,0.10002 0.27388,0.13924 0.0861,0.0392 0.18291,0.0856 0.21519,0.10296 0.0323,0.0174 0.0851,0.0405 0.11738,0.0513 0.0323,0.0113 0.0851,0.0331 0.11737,0.0495 0.11922,0.0607 0.33566,0.13911 0.44017,0.15947 0.0592,0.0115 0.1076,0.0363 0.1076,0.055 0,0.0188 0.0407,0.034 0.0903,0.034 0.0496,0 0.12449,0.0229 0.16628,0.051 0.0417,0.0282 0.12219,0.0515 0.17877,0.0521 0.0565,5.9e-4 0.1247,0.0245 0.1515,0.0532 0.0268,0.0286 0.0961,0.0521 0.1538,0.0521 0.0579,0 0.13929,0.0229 0.18107,0.051 0.0417,0.028 0.11122,0.052 0.1542,0.0532 0.0431,0.001 0.11246,0.0251 0.15419,0.0532 0.0418,0.028 0.11223,0.0515 0.1565,0.0521 0.0443,6e-4 0.11477,0.0241 0.15652,0.0521 0.0418,0.028 0.10567,0.0511 0.14194,0.0511 0.0363,0 0.0878,0.0235 0.11468,0.0521 0.0268,0.0286 0.0818,0.0521 0.12215,0.0521 0.0405,0 0.0735,0.0139 0.0735,0.0311 0,0.0171 0.0483,0.0417 0.10726,0.0548 0.059,0.0131 0.11616,0.0346 0.12716,0.0475 0.0113,0.013 0.0971,0.068 0.19147,0.12243 0.22628,0.13033 0.51319,0.36701 0.51319,0.42329 0,0.0246 0.0132,0.0501 0.0294,0.0564 0.0571,0.0225 0.16629,0.24438 0.16629,0.33786 0,0.0521 0.0259,0.12514 0.0574,0.16225 0.0797,0.0935 0.0806,0.76079 10e-4,0.88405 -0.0307,0.0478 -0.0565,0.1237 -0.0573,0.16871 -5.9e-4,0.045 -0.0542,0.15132 -0.11874,0.23628 -0.0645,0.085 -0.11738,0.16153 -0.11738,0.1701 0,0.0235 -0.15291,0.15464 -0.18022,0.15464 -0.013,0 -0.0904,0.0469 -0.17192,0.10421 -0.0815,0.0573 -0.16565,0.10421 -0.18702,0.10421 -0.0214,0 -0.0892,0.0234 -0.15086,0.052 -0.16316,0.0756 -1.3517,0.0757 -1.43675,0 -0.0323,-0.0287 -0.077,-0.0521 -0.0995,-0.0521 -0.0973,0 -0.36824,-0.1579 -0.49295,-0.28731 -0.13154,-0.13645 -0.31272,-0.40766 -0.27235,-0.40766 0.0113,0 -0.005,-0.043 -0.0352,-0.0956 -0.0303,-0.0526 -0.0678,-0.22465 -0.0833,-0.38245 -0.0156,-0.15775 -0.044,-0.2955 -0.0633,-0.30609 -0.0192,-0.0102 -0.035,-0.18716 -0.035,-0.39247 0,-0.24397 -0.0163,-0.38768 -0.0469,-0.41493 -0.0348,-0.031 -0.41716,-0.0417 -1.47805,-0.0417 -1.232,0 -1.44324,0.008 -1.51809,0.0541 -0.0819,0.051 -0.0869,0.0791 -0.0869,0.48445 0,0.24938 0.0164,0.43935 0.0391,0.4518 0.0217,0.0119 0.0392,0.17144 0.0393,0.35822 1.5e-4,0.23078 0.0187,0.36807 0.0587,0.43628 0.0321,0.0547 0.0584,0.14949 0.0584,0.21054 0,0.061 0.0259,0.14137 0.0574,0.17847 0.0317,0.0371 0.058,0.10138 0.0587,0.14282 5.9e-4,0.0415 0.0268,0.11965 0.058,0.17374 0.0312,0.0541 0.067,0.12184 0.0798,0.1505 0.0127,0.0287 0.0444,0.0838 0.0705,0.12232 0.026,0.0386 0.0979,0.14611 0.15951,0.23894 0.16742,0.25193 0.42762,0.50684 0.7299,0.71505 0.0964,0.0665 0.18405,0.13116 0.19481,0.14391 0.0113,0.0128 0.09,0.057 0.17606,0.0982 0.40797,0.19577 0.53001,0.24525 0.60485,0.24525 0.0386,0 0.0922,0.0235 0.11898,0.0521 0.0268,0.0286 0.10489,0.0521 0.17338,0.0521 0.0686,0 0.15884,0.023 0.20063,0.0511 0.0417,0.028 0.15607,0.0515 0.25396,0.0521 0.0979,6e-4 0.20002,0.0207 0.2269,0.0445 0.0368,0.0328 0.39395,0.046 1.44919,0.0537 1.2251,0.009 1.40661,0.003 1.45051,-0.0434 0.0336,-0.0358 0.11781,-0.0537 0.25315,-0.0537 0.11785,0 0.23479,-0.0214 0.27888,-0.051 0.0417,-0.028 0.13758,-0.052 0.2129,-0.0532 0.0753,-0.001 0.17112,-0.0251 0.21288,-0.0532 0.0418,-0.028 0.11444,-0.0511 0.16151,-0.0511 0.047,0 0.10748,-0.0235 0.13423,-0.0521 0.0268,-0.0286 0.0796,-0.0521 0.11738,-0.0521 0.0377,0 0.0906,-0.0235 0.11739,-0.0521 0.0268,-0.0287 0.0796,-0.0521 0.11737,-0.0521 0.0377,0 0.0905,-0.0235 0.11738,-0.0521 0.0268,-0.0286 0.0818,-0.0521 0.12215,-0.0521 0.0405,0 0.0735,-0.0146 0.0735,-0.0324 0,-0.0177 0.0332,-0.0417 0.0739,-0.0532 0.0406,-0.0114 0.11608,-0.0555 0.16765,-0.0979 0.0515,-0.0424 0.16543,-0.12739 0.253,-0.1889 0.0875,-0.0616 0.23651,-0.20226 0.33103,-0.31273 0.0946,-0.11054 0.18167,-0.20873 0.19357,-0.2183 0.0479,-0.0385 0.26382,-0.37421 0.29176,-0.45364 0.0165,-0.0468 0.0539,-0.11583 0.0833,-0.15353 0.0294,-0.0376 0.0535,-0.10285 0.0535,-0.14476 0,-0.0419 0.017,-0.0815 0.0377,-0.0878 0.0207,-0.007 0.0461,-0.0724 0.0564,-0.14682 0.0102,-0.0744 0.0373,-0.15179 0.0601,-0.17201 0.0227,-0.0202 0.0422,-0.11571 0.0432,-0.21225 0.001,-0.0965 0.0271,-0.23802 0.0581,-0.31447 0.0703,-0.17322 0.0831,-1.44031 0.0151,-1.50061 -0.0234,-0.0207 -0.0521,-0.13721 -0.0639,-0.25887 -0.0118,-0.12166 -0.0347,-0.23685 -0.0509,-0.25596 -0.0162,-0.0191 -0.0425,-0.089 -0.0584,-0.15522 -0.0159,-0.0662 -0.0429,-0.14445 -0.06,-0.17375 -0.0171,-0.0293 -0.0703,-0.12364 -0.11831,-0.20964 -0.18116,-0.32431 -0.16969,-0.31042 -0.52543,-0.63771 -0.25819,-0.23755 -0.53496,-0.4395 -0.6023,-0.4395 -0.0237,0 -0.0433,-0.016 -0.0433,-0.0356 0,-0.0196 -0.0396,-0.0507 -0.0881,-0.0694 -0.10692,-0.0411 -0.23716,-0.11223 -0.26488,-0.14473 -0.0113,-0.0132 -0.0641,-0.0405 -0.11737,-0.0607 -0.0533,-0.0202 -0.12345,-0.0513 -0.15573,-0.0688 -0.0617,-0.0337 -0.666,-0.28555 -0.89989,-0.37508 -0.0753,-0.0288 -0.16336,-0.0665 -0.19563,-0.0835 -0.0323,-0.0172 -0.0851,-0.0397 -0.11738,-0.0501 -0.0323,-0.0102 -0.1085,-0.0416 -0.16946,-0.0693 -0.0609,-0.0277 -0.15391,-0.0504 -0.20661,-0.0504 -0.0527,0 -0.10602,-0.0235 -0.1184,-0.0521 -0.0124,-0.0286 -0.0625,-0.0521 -0.11144,-0.0521 -0.0488,0 -0.11076,-0.0235 -0.13753,-0.0521 -0.0268,-0.0287 -0.0884,-0.0521 -0.13694,-0.0521 -0.0485,0 -0.11008,-0.0235 -0.13693,-0.0521 -0.0268,-0.0286 -0.0884,-0.0521 -0.13694,-0.0521 -0.0486,0 -0.1102,-0.0235 -0.13696,-0.0521 -0.0268,-0.0287 -0.0884,-0.0521 -0.13693,-0.0521 -0.0485,0 -0.11009,-0.0235 -0.13694,-0.0521 -0.0268,-0.0286 -0.0891,-0.0521 -0.13847,-0.0521 -0.0494,0 -0.0956,-0.0118 -0.10285,-0.0261 -0.007,-0.0144 -0.13627,-0.0799 -0.28691,-0.14566 -0.15064,-0.0658 -0.30385,-0.14397 -0.34047,-0.17375 -0.12815,-0.10421 -0.18468,-0.14101 -0.21654,-0.14101 -0.10952,0 -0.44071,-0.50629 -0.44071,-0.67365 0,-0.0477 -0.0176,-0.0964 -0.0391,-0.10816 -0.0224,-0.0123 -0.0391,-0.19147 -0.0391,-0.41904 0,-0.24189 0.0153,-0.39756 0.0391,-0.39756 0.0215,0 0.0391,-0.049 0.0391,-0.10906 0,-0.23917 0.3773,-0.69585 0.61663,-0.74633 0.059,-0.0124 0.13862,-0.0469 0.177,-0.0765 0.10602,-0.0818 1.24859,-0.0771 1.35153,0.006 0.0394,0.0316 0.10161,0.0575 0.13823,0.0575 0.0367,0 0.0767,0.0235 0.0892,0.0521 0.0124,0.0286 0.0393,0.0521 0.06,0.0521 0.11718,0 0.46277,0.50463 0.46277,0.67577 0,0.0606 0.0259,0.14052 0.0574,0.17764 0.04,0.0469 0.0579,0.15886 0.0587,0.36725 10e-4,0.21131 0.0172,0.31153 0.0551,0.33957 0.0384,0.0284 0.46338,0.0391 1.48136,0.0374 l 1.42735,-0.002 0.0447,-0.0868 c 0.0551,-0.10748 0.0555,-0.63682 5.3e-4,-0.84813 -0.0224,-0.086 -0.053,-0.25019 -0.0682,-0.36486 -0.0152,-0.11468 -0.0489,-0.24265 -0.0751,-0.28438 -0.0261,-0.0417 -0.0475,-0.11412 -0.0475,-0.16082 0,-0.0467 -0.0263,-0.10432 -0.0587,-0.12816 -0.0323,-0.0238 -0.0587,-0.0785 -0.0587,-0.12162 0,-0.0431 -0.0265,-0.0978 -0.0587,-0.12162 -0.0323,-0.0239 -0.0587,-0.0643 -0.0587,-0.0901 0,-0.0708 -0.22795,-0.35354 -0.46951,-0.58243 -0.22423,-0.21245 -0.63087,-0.50894 -0.69805,-0.50894 -0.0214,0 -0.0446,-0.0117 -0.0519,-0.0261 -0.0183,-0.0366 -0.49941,-0.24418 -0.62961,-0.27163 -0.0593,-0.0125 -0.11766,-0.0366 -0.12948,-0.0537 -0.0119,-0.017 -0.0601,-0.031 -0.10726,-0.0311 -0.0471,-1.5e-4 -0.13616,-0.0236 -0.19778,-0.0521 -0.0617,-0.0286 -0.18593,-0.052 -0.2762,-0.052 -0.0903,0 -0.19829,-0.0229 -0.24007,-0.0511 -0.11468,-0.0771 -2.60591,-0.0781 -2.67783,-0.001 m -38.257343,0.0938 c -0.0683,0.0607 -0.0683,13.06055 0,13.12122 0.0349,0.031 0.43648,0.0417 1.565026,0.0417 1.419457,0 1.518127,-0.005 1.518827,-0.0608 3.8e-4,-0.0335 8e-5,-1.21403 -5.9e-4,-2.62355 l -10e-4,-2.56275 h 1.33228 c 1.09572,0 1.3572,-0.009 1.4727,-0.0521 0.0773,-0.0286 0.20537,-0.0521 0.28472,-0.0521 0.0793,0 0.17841,-0.023 0.2202,-0.051 0.0417,-0.028 0.12097,-0.0515 0.17607,-0.0521 0.055,-5.9e-4 0.13428,-0.0241 0.17607,-0.0521 0.0417,-0.028 0.11337,-0.0515 0.15919,-0.0521 0.0458,-6e-4 0.10511,-0.0245 0.13193,-0.0532 0.0268,-0.0287 0.0796,-0.0521 0.11738,-0.0521 0.0378,0 0.0906,-0.0235 0.11738,-0.0521 0.0268,-0.0287 0.0797,-0.0521 0.11738,-0.0521 0.0378,0 0.0905,-0.0235 0.11737,-0.0521 0.0268,-0.0286 0.0654,-0.0521 0.0859,-0.0521 0.0205,0 0.0607,-0.0196 0.0896,-0.0434 0.0289,-0.0239 0.11122,-0.0823 0.18308,-0.12986 0.20779,-0.1376 0.63305,-0.52484 0.76432,-0.69602 0.16597,-0.21642 0.40304,-0.61141 0.40304,-0.67156 0,-0.0274 0.0262,-0.0944 0.0584,-0.14918 0.0321,-0.0547 0.0585,-0.13156 0.0587,-0.17076 1.5e-4,-0.0392 0.0183,-0.0872 0.0405,-0.10692 0.022,-0.0197 0.0455,-0.1235 0.0521,-0.23084 0.007,-0.10726 0.033,-0.21781 0.0589,-0.2455 0.0348,-0.0373 0.0433,-0.27938 0.0324,-0.93155 -0.0139,-0.83088 -0.0581,-1.25503 -0.14544,-1.39319 -0.021,-0.0331 -0.0382,-0.0957 -0.0383,-0.13899 -1.5e-4,-0.0433 -0.0249,-0.12062 -0.055,-0.17191 -0.0302,-0.0513 -0.0666,-0.14118 -0.0811,-0.19981 -0.0146,-0.0587 -0.0426,-0.10658 -0.0624,-0.10658 -0.0198,0 -0.0361,-0.0302 -0.0361,-0.067 0,-0.0368 -0.0263,-0.0904 -0.0587,-0.11913 -0.0323,-0.0286 -0.0587,-0.0687 -0.0587,-0.0891 0,-0.0466 -0.32256,-0.46672 -0.46232,-0.60227 -0.2864,-0.27776 -0.59361,-0.52044 -0.75434,-0.5958 -0.0518,-0.0243 -0.19344,-0.0917 -0.31492,-0.14964 -0.12149,-0.058 -0.28438,-0.11603 -0.36191,-0.12894 -0.0777,-0.0129 -0.14107,-0.0384 -0.14107,-0.0567 0,-0.0182 -0.0572,-0.0333 -0.12715,-0.0335 -0.07,-1.4e-4 -0.17759,-0.0236 -0.23922,-0.0521 -0.0966,-0.0448 -0.54033,-0.052 -3.22984,-0.052 -2.372793,0 -3.129023,0.0102 -3.164733,0.0417 m 10.574333,0.002 c -0.0102,0.024 -0.0142,2.99119 -0.009,6.59379 l 0.0102,6.5502 h 4.28428 4.2843 v -1.07723 -1.07721 l -2.72903,-0.009 -2.72904,-0.009 v -1.78933 -1.78933 h 2.46263 c 1.57203,0 2.47123,-0.0124 2.48641,-0.0341 0.031,-0.0445 0.0307,-2.07653 -1.5e-4,-2.12105 -0.015,-0.0215 -0.92505,-0.0339 -2.48626,-0.0339 h -2.46263 v -1.52851 -1.52873 l 2.61165,-0.009 2.61166,-0.009 v -1.07723 -1.07722 l -4.15831,-0.009 c -3.30599,-0.007 -4.1621,8e-5 -4.17693,0.0348 m 9.89879,1.6e-4 c -0.0102,0.0238 -0.0141,2.99101 -0.009,6.59362 l 0.0102,6.55019 1.55525,0.009 1.55526,0.009 v -2.88459 -2.88454 h 2.45711 c 1.85891,0 2.46853,-0.0102 2.50406,-0.0417 0.067,-0.0596 0.067,-2.04626 0,-2.10579 -0.0356,-0.0315 -0.64515,-0.0417 -2.50406,-0.0417 H 120.997 v -1.52869 -1.52871 l 2.61165,-0.009 2.61166,-0.009 0.0102,-1.08591 0.0102,-1.08591 h -4.16867 c -3.29899,0 -4.17259,0.009 -4.1873,0.0434 m 9.64603,6.55849 v 6.60268 l 1.51613,-5.9e-4 c 0.83389,0 1.5382,-0.013 1.56516,-0.0281 0.039,-0.0219 0.047,-1.36366 0.0391,-6.59309 l -0.0102,-6.56545 -1.55526,-0.009 -1.55526,-0.009 v 6.60273 m 18.58639,-6.53504 c -0.0224,0.0372 -0.0413,0.1194 -0.0419,0.18275 -6e-4,0.0634 -0.0271,0.14559 -0.0587,0.18268 -0.0315,0.0371 -0.058,0.1231 -0.0587,0.19111 -6e-4,0.068 -0.0271,0.15405 -0.0587,0.19112 -0.0315,0.0371 -0.0581,0.12312 -0.0588,0.19111 -6e-4,0.068 -0.0266,0.16278 -0.0573,0.21055 -0.0308,0.0478 -0.0565,0.1446 -0.0573,0.21513 -5.8e-4,0.0705 -0.018,0.13737 -0.0382,0.14849 -0.0202,0.0113 -0.0489,0.0942 -0.0636,0.18448 -0.0148,0.0903 -0.0397,0.17989 -0.0556,0.199 -0.0158,0.0191 -0.0403,0.10184 -0.0545,0.18397 -0.0141,0.0821 -0.042,0.17587 -0.062,0.2085 -0.02,0.0325 -0.0471,0.13318 -0.0602,0.22353 -0.013,0.0903 -0.0405,0.17333 -0.0607,0.18448 -0.0202,0.0113 -0.0375,0.0701 -0.0382,0.13111 -6e-4,0.061 -0.0266,0.14998 -0.0573,0.19776 -0.0307,0.0478 -0.0565,0.14251 -0.0573,0.21055 -5.9e-4,0.068 -0.0272,0.154 -0.0588,0.19111 -0.0317,0.0371 -0.058,0.13198 -0.0588,0.21089 -6e-4,0.084 -0.0257,0.16138 -0.0599,0.18668 -0.0344,0.0253 -0.0592,0.10274 -0.0599,0.18666 -6e-4,0.0789 -0.0271,0.17382 -0.0587,0.2109 -0.0315,0.0371 -0.058,0.12312 -0.0587,0.19112 -5.9e-4,0.068 -0.0271,0.15405 -0.0587,0.19112 -0.0315,0.0371 -0.0574,0.11742 -0.0574,0.17847 0,0.061 -0.0262,0.15577 -0.0584,0.21054 -0.0321,0.0547 -0.0585,0.14856 -0.0587,0.2085 -1.4e-4,0.0599 -0.0264,0.15373 -0.0587,0.20849 -0.0321,0.0547 -0.0586,0.14723 -0.0587,0.2055 -1.6e-4,0.0583 -0.0179,0.12166 -0.0395,0.14081 -0.0216,0.0191 -0.05,0.10432 -0.063,0.18938 -0.013,0.085 -0.039,0.17131 -0.0576,0.19181 -0.0186,0.0205 -0.0426,0.11315 -0.0535,0.2059 -0.0113,0.0928 -0.0349,0.17764 -0.0537,0.18861 -0.0188,0.0113 -0.0458,0.0975 -0.06,0.19234 -0.0144,0.0947 -0.0434,0.18782 -0.0648,0.20675 -0.0212,0.0189 -0.0389,0.0821 -0.039,0.1404 -1.5e-4,0.0582 -0.0266,0.15077 -0.0587,0.2055 -0.0322,0.0548 -0.0584,0.14948 -0.0584,0.21055 0,0.061 -0.0259,0.14135 -0.0574,0.17846 -0.0317,0.0371 -0.0587,0.12999 -0.0599,0.20645 -0.001,0.0764 -0.0284,0.16936 -0.0599,0.20644 -0.0315,0.0371 -0.0574,0.1329 -0.0574,0.21294 0,0.0869 -0.0236,0.16288 -0.0588,0.18872 -0.0323,0.0239 -0.0592,0.0999 -0.0599,0.1693 -5.9e-4,0.0694 -0.0271,0.15644 -0.0587,0.19352 -0.0315,0.0371 -0.0574,0.13291 -0.0574,0.21294 0,0.0869 -0.0236,0.16287 -0.0587,0.18871 -0.0331,0.0244 -0.0587,0.10026 -0.0587,0.17404 0,0.0719 -0.0263,0.17555 -0.0584,0.23031 -0.0321,0.0547 -0.0585,0.14723 -0.0587,0.20551 -1.5e-4,0.0583 -0.0179,0.12166 -0.0394,0.14079 -0.0216,0.0192 -0.05,0.10432 -0.063,0.18939 -0.013,0.085 -0.039,0.17131 -0.0576,0.19182 -0.0186,0.0204 -0.0426,0.1131 -0.0535,0.20585 -0.0113,0.0928 -0.0376,0.18469 -0.0597,0.20429 -0.022,0.0196 -0.0402,0.0833 -0.0403,0.14159 -1.5e-4,0.0583 -0.0266,0.15079 -0.0588,0.20551 -0.0322,0.0547 -0.0584,0.14949 -0.0584,0.21056 0,0.061 -0.0259,0.14134 -0.0574,0.17846 -0.0317,0.0371 -0.058,0.13089 -0.0587,0.20848 -5.9e-4,0.0775 -0.0271,0.17139 -0.0587,0.20851 -0.0316,0.0371 -0.058,0.12307 -0.0587,0.19112 -6e-4,0.068 -0.0271,0.15401 -0.0587,0.19111 -0.0316,0.0371 -0.058,0.13198 -0.0587,0.21091 -6e-4,0.0839 -0.0257,0.16136 -0.0599,0.18666 -0.0388,0.0287 -0.0587,0.10635 -0.0587,0.2301 v 0.18689 h 1.60232 1.60233 l 0.0407,-0.13031 c 0.0224,-0.0717 0.0408,-0.1802 0.041,-0.24119 1.4e-4,-0.061 0.0179,-0.12055 0.0393,-0.13236 0.0215,-0.0118 0.0397,-0.0948 0.0405,-0.18449 6e-4,-0.0896 0.0266,-0.2021 0.0573,-0.24988 0.0308,-0.0478 0.0565,-0.16596 0.0573,-0.26266 6e-4,-0.099 0.0264,-0.20527 0.0588,-0.24324 0.0316,-0.0371 0.0581,-0.13782 0.0589,-0.22382 6e-4,-0.086 0.0278,-0.20117 0.0599,-0.2559 0.0321,-0.0547 0.0591,-0.16422 0.0598,-0.24324 5.8e-4,-0.0791 0.0266,-0.18281 0.0573,-0.2306 0.0307,-0.0478 0.0565,-0.16116 0.0573,-0.25193 l 10e-4,-0.16505 h 1.89762 1.8976 l 0.001,0.14769 c 5.9e-4,0.0811 0.0271,0.17805 0.0587,0.21512 0.0331,0.0389 0.0574,0.14271 0.0574,0.24529 0,0.10263 0.0243,0.20637 0.0574,0.2453 0.0324,0.0381 0.058,0.1441 0.0588,0.24324 6e-4,0.0991 0.0262,0.20519 0.0587,0.24325 0.0316,0.0371 0.058,0.13993 0.0587,0.22853 6e-4,0.0886 0.0275,0.20586 0.0597,0.26062 0.0321,0.0547 0.0585,0.17066 0.0587,0.25764 1.5e-4,0.0869 0.02,0.17565 0.0442,0.19712 0.0241,0.0215 0.0509,0.12889 0.0593,0.23873 0.009,0.10986 0.035,0.22069 0.059,0.2463 0.0354,0.0379 0.34208,0.0449 1.63281,0.0375 l 1.58921,-0.009 -0.0141,-0.19089 c -0.008,-0.105 -0.0387,-0.22183 -0.0685,-0.25964 -0.0298,-0.0379 -0.0542,-0.12597 -0.0542,-0.19581 0,-0.0705 -0.0261,-0.14625 -0.0587,-0.17027 -0.0371,-0.0273 -0.0587,-0.10398 -0.0587,-0.2085 0,-0.10454 -0.0216,-0.18114 -0.0587,-0.20848 -0.0343,-0.0253 -0.0592,-0.10274 -0.0599,-0.18668 -5.9e-4,-0.0789 -0.0271,-0.17382 -0.0588,-0.21089 -0.0315,-0.0371 -0.0574,-0.11741 -0.0574,-0.17848 0,-0.061 -0.0263,-0.15577 -0.0584,-0.21053 -0.0321,-0.0547 -0.0585,-0.15725 -0.0587,-0.22778 -1.6e-4,-0.0705 -0.0156,-0.13664 -0.0341,-0.14692 -0.0186,-0.0102 -0.0457,-0.0965 -0.0598,-0.19171 -0.0142,-0.0952 -0.0429,-0.18252 -0.0639,-0.19398 -0.0209,-0.0115 -0.038,-0.0717 -0.038,-0.13378 0,-0.062 -0.0259,-0.14327 -0.0574,-0.18038 -0.0317,-0.0371 -0.058,-0.1309 -0.0588,-0.20849 -6e-4,-0.0775 -0.0271,-0.17139 -0.0587,-0.2085 -0.0316,-0.0371 -0.0585,-0.12999 -0.0599,-0.20645 -0.001,-0.0764 -0.0284,-0.16936 -0.0599,-0.20643 -0.0315,-0.0371 -0.058,-0.12312 -0.0587,-0.19113 -6e-4,-0.068 -0.0271,-0.15404 -0.0587,-0.19111 -0.0315,-0.0371 -0.058,-0.12311 -0.0587,-0.19112 -5.8e-4,-0.068 -0.0271,-0.15404 -0.0587,-0.19112 -0.0315,-0.0371 -0.058,-0.13094 -0.0587,-0.2085 -5.9e-4,-0.0775 -0.0271,-0.17142 -0.0588,-0.20849 -0.0315,-0.0371 -0.0574,-0.1251 -0.0574,-0.19557 0,-0.0714 -0.0259,-0.14719 -0.0587,-0.17135 -0.0344,-0.0253 -0.0592,-0.10274 -0.0599,-0.18666 -5.9e-4,-0.0789 -0.0271,-0.17382 -0.0588,-0.2109 -0.0315,-0.0371 -0.0574,-0.11741 -0.0574,-0.17847 0,-0.061 -0.0263,-0.15578 -0.0584,-0.21055 -0.0321,-0.0547 -0.0585,-0.15723 -0.0587,-0.22778 -1.4e-4,-0.0705 -0.0156,-0.13662 -0.0342,-0.14692 -0.0187,-0.0102 -0.0457,-0.0965 -0.0598,-0.19171 -0.0142,-0.0952 -0.0429,-0.1825 -0.0639,-0.19397 -0.0209,-0.0114 -0.0381,-0.0708 -0.0382,-0.13173 -1.6e-4,-0.061 -0.0266,-0.15568 -0.0587,-0.2104 -0.0321,-0.0547 -0.0584,-0.15838 -0.0584,-0.23032 0,-0.0738 -0.0255,-0.14959 -0.0587,-0.17403 -0.035,-0.0259 -0.0587,-0.10183 -0.0587,-0.18871 0,-0.08 -0.0259,-0.17583 -0.0574,-0.21295 -0.0317,-0.0371 -0.058,-0.12307 -0.0587,-0.19111 -6e-4,-0.068 -0.0271,-0.15401 -0.0587,-0.19112 -0.0316,-0.0371 -0.058,-0.12309 -0.0587,-0.19113 -6e-4,-0.068 -0.0271,-0.154 -0.0587,-0.19111 -0.0316,-0.0371 -0.0587,-0.13 -0.0599,-0.20645 -0.001,-0.0764 -0.0284,-0.16936 -0.0599,-0.20644 -0.0315,-0.0371 -0.0574,-0.12509 -0.0574,-0.19557 0,-0.0714 -0.026,-0.14719 -0.0587,-0.17135 -0.0344,-0.0253 -0.0592,-0.10273 -0.0599,-0.18667 -5.9e-4,-0.0789 -0.0271,-0.17381 -0.0588,-0.21089 -0.0315,-0.0371 -0.0574,-0.11742 -0.0574,-0.17847 0,-0.061 -0.0262,-0.15577 -0.0584,-0.21054 -0.0321,-0.0547 -0.0585,-0.15724 -0.0587,-0.22778 -1.5e-4,-0.0705 -0.0155,-0.13663 -0.0341,-0.14692 -0.0187,-0.0102 -0.0457,-0.0965 -0.0598,-0.19171 -0.0142,-0.0952 -0.043,-0.1825 -0.0639,-0.19397 -0.0209,-0.0115 -0.038,-0.0795 -0.038,-0.15116 0,-0.0717 -0.0259,-0.16064 -0.0574,-0.19776 -0.0316,-0.0371 -0.058,-0.1309 -0.0587,-0.20849 -6e-4,-0.0775 -0.0271,-0.17138 -0.0587,-0.2085 -0.0316,-0.0371 -0.058,-0.12307 -0.0587,-0.19111 -5.9e-4,-0.068 -0.0271,-0.154 -0.0587,-0.19112 -0.0317,-0.0371 -0.058,-0.1226 -0.0587,-0.19001 -6e-4,-0.0675 -0.0265,-0.1546 -0.0573,-0.19373 -0.0309,-0.0391 -0.0617,-0.14034 -0.0685,-0.22492 l -0.0124,-0.15376 -1.92539,-0.009 c -1.87217,-0.009 -1.92648,-0.007 -1.96607,0.0585 m -45.59635,1.93698 c -0.0144,0.0128 -0.0261,0.90403 -0.0261,1.98069 v 1.95752 h 0.61819 c 0.34001,0 0.63493,-0.0148 0.65537,-0.0328 0.0204,-0.0181 0.17261,-0.0359 0.33815,-0.0398 0.2832,-0.007 0.37905,-0.029 0.68471,-0.1605 0.19825,-0.0852 0.59889,-0.44774 0.59889,-0.54184 0,-0.0252 0.0259,-0.0762 0.0574,-0.11325 0.0316,-0.0371 0.0581,-0.10658 0.0589,-0.15432 5.9e-4,-0.0478 0.0278,-0.13166 0.0599,-0.18639 0.0858,-0.14609 0.0856,-1.38356 -2.3e-4,-1.44681 -0.0323,-0.0239 -0.0587,-0.0942 -0.0587,-0.15637 0,-0.0622 -0.0263,-0.13257 -0.0587,-0.15637 -0.0323,-0.0238 -0.0587,-0.0708 -0.0587,-0.10421 0,-0.0336 -0.0264,-0.0805 -0.0587,-0.1042 -0.0323,-0.0239 -0.0587,-0.0616 -0.0587,-0.0839 0,-0.0819 -0.39136,-0.38578 -0.58688,-0.4556 -0.0323,-0.0115 -0.11156,-0.0433 -0.17607,-0.0705 -0.0645,-0.0273 -0.26703,-0.0549 -0.44995,-0.0614 -0.18291,-0.007 -0.37103,-0.0301 -0.41802,-0.0525 -0.0912,-0.0434 -1.07448,-0.0588 -1.12092,-0.0174 m 47.49891,0.69497 c -0.0144,0.0128 -0.0262,0.087 -0.0263,0.16506 -1.5e-4,0.0781 -0.0266,0.18667 -0.0587,0.2414 -0.0322,0.0548 -0.0584,0.16082 -0.0584,0.23567 0,0.0749 -0.0263,0.1923 -0.0587,0.26089 -0.0323,0.0686 -0.0593,0.18932 -0.06,0.2682 -5.9e-4,0.0789 -0.0266,0.18253 -0.0573,0.23032 -0.0307,0.0478 -0.0572,0.15724 -0.0587,0.24324 -0.002,0.086 -0.0279,0.19546 -0.0587,0.24324 -0.0307,0.0478 -0.0565,0.16704 -0.0573,0.26507 -6e-4,0.11471 -0.0223,0.19355 -0.06,0.22141 -0.0391,0.0288 -0.0591,0.1085 -0.0599,0.2388 -5.9e-4,0.11658 -0.0244,0.22281 -0.0587,0.26302 -0.0315,0.0371 -0.0581,0.13875 -0.0588,0.22586 -6e-4,0.0871 -0.0266,0.19752 -0.0573,0.2453 -0.0308,0.0478 -0.0565,0.15144 -0.0573,0.23032 -6e-4,0.0789 -0.0278,0.19955 -0.06,0.26819 -0.0323,0.0686 -0.0587,0.19369 -0.0587,0.27796 0,0.086 -0.0231,0.17026 -0.0527,0.19205 -0.0309,0.0227 -0.0556,0.12047 -0.0599,0.23657 -0.005,0.10873 -0.0219,0.21441 -0.04,0.23474 -0.018,0.0203 -0.0443,0.11818 -0.0585,0.21742 -0.0141,0.0992 -0.0516,0.23552 -0.0834,0.30294 -0.0317,0.0674 -0.0576,0.13082 -0.0576,0.14101 0,0.0102 0.60743,0.0184 1.34985,0.0184 0.74241,0 1.34984,-0.007 1.34984,-0.0162 0,-0.009 -0.0252,-0.0832 -0.0559,-0.16506 -0.0307,-0.0819 -0.065,-0.22546 -0.0761,-0.319 -0.0113,-0.0936 -0.0387,-0.1866 -0.0614,-0.20675 -0.0227,-0.0201 -0.0412,-0.11655 -0.0412,-0.21421 0,-0.10228 -0.0243,-0.20608 -0.0574,-0.24496 -0.0342,-0.0402 -0.058,-0.14644 -0.0587,-0.26302 -6e-4,-0.13031 -0.0208,-0.20995 -0.0599,-0.2388 -0.0379,-0.0279 -0.0592,-0.10669 -0.06,-0.22142 -6e-4,-0.098 -0.0266,-0.21729 -0.0573,-0.26507 -0.0307,-0.0478 -0.0572,-0.15723 -0.0587,-0.24323 -0.002,-0.086 -0.0279,-0.19547 -0.0587,-0.24325 -0.0307,-0.0478 -0.0565,-0.15815 -0.0573,-0.24529 -5.9e-4,-0.0871 -0.0272,-0.18876 -0.0588,-0.22588 -0.0333,-0.0392 -0.0584,-0.1475 -0.0599,-0.25856 -0.001,-0.1111 -0.0266,-0.21937 -0.0599,-0.25856 -0.0315,-0.0371 -0.0574,-0.13292 -0.0574,-0.21295 0,-0.08 -0.0264,-0.20161 -0.0587,-0.27024 -0.0323,-0.0686 -0.059,-0.17608 -0.0592,-0.2388 -3.1e-4,-0.0627 -0.026,-0.1766 -0.057,-0.25304 -0.0311,-0.0764 -0.0572,-0.19671 -0.0581,-0.26725 -0.001,-0.0705 -0.018,-0.13716 -0.0379,-0.14807 -0.0198,-0.0113 -0.0483,-0.12123 -0.0632,-0.24529 -0.0258,-0.21318 -0.0488,-0.25606 -0.10941,-0.20231"
         stroke="none"
         fill="#040404"
         fill-rule="evenodd"
         id="path1"
         style="fill:#ffffff;stroke-width:0.0368726" /></g></g></svg>
