<?xml version="1.0" encoding="UTF-8" standalone="no"?>
<!-- Created with Inkscape (http://www.inkscape.org/) -->

<svg
   width="800"
   height="800"
   viewBox="0 0 211.66667 211.66667"
   version="1.1"
   id="svg1"
   xml:space="preserve"
   inkscape:version="1.3.2 (091e20e, 2023-11-25, custom)"
   sodipodi:docname="rd.svg"
   xmlns:inkscape="http://www.inkscape.org/namespaces/inkscape"
   xmlns:sodipodi="http://sodipodi.sourceforge.net/DTD/sodipodi-0.dtd"
   xmlns="http://www.w3.org/2000/svg"
   xmlns:svg="http://www.w3.org/2000/svg"><sodipodi:namedview
     id="namedview1"
     pagecolor="#000000"
     bordercolor="#000000"
     borderopacity="0.25"
     inkscape:showpageshadow="2"
     inkscape:pageopacity="0.0"
     inkscape:pagecheckerboard="0"
     inkscape:deskcolor="#d1d1d1"
     inkscape:document-units="mm"
     inkscape:export-bgcolor="#00000000"
     inkscape:zoom="0.51213161"
     inkscape:cx="568.21332"
     inkscape:cy="403.21667"
     inkscape:window-width="1920"
     inkscape:window-height="1009"
     inkscape:window-x="-8"
     inkscape:window-y="-8"
     inkscape:window-maximized="1"
     inkscape:current-layer="Camada_x0020_1" /><defs
     id="defs1"><clipPath
       clipPathUnits="userSpaceOnUse"
       id="clipPath3011"><path
         inkscape:connector-curvature="0"
         d="M -2.2e-8,1.2207e-4 H 720 V 540.00012 H -2.2e-8 Z"
         clip-rule="evenodd"
         id="path3013" /></clipPath><clipPath
       clipPathUnits="userSpaceOnUse"
       id="clipPath3021"><path
         inkscape:connector-curvature="0"
         d="M 0,0 H 843.56 V 87.998 H 0 Z"
         id="path3023" /></clipPath><clipPath
       clipPathUnits="userSpaceOnUse"
       id="clipPath3945"><path
         inkscape:connector-curvature="0"
         d="M 0,1.2207e-4 H 720 V 540.00012 H 0 Z"
         clip-rule="evenodd"
         id="path3947" /></clipPath><clipPath
       clipPathUnits="userSpaceOnUse"
       id="clipPath36"><path
         d="M 0,595.276 H 841.89 V 0 H 0 Z"
         transform="translate(-130.8096,-476.27511)"
         id="path36" /></clipPath><style
       type="text/css"
       id="style2989" /></defs><g
     inkscape:label="Camada 1"
     inkscape:groupmode="layer"
     id="layer1"
     transform="translate(-67.583023,162.56458)"><g
       id="Camada_x0020_1"
       inkscape:label="Camada 1"
       transform="matrix(2.0757274,0,0,2.0757274,-87.07606,-335.39698)"
       style="fill-rule:evenodd"
       inkscape:groupmode="layer"><metadata
         id="CorelCorpID_0Corel-Layer" /><path
         d="m 108.283,137.925 c -2.883,0.1051 -3.6768,14.3633 0,15.2577 3.8372,-0.398 3.4402,-15.5822 0,-15.2577 z"
         id="path2993"
         style="fill:none" /><ellipse
         cx="108.349"
         cy="133.493"
         rx="2.5136001"
         ry="2.5576501"
         id="ellipse2995"
         style="fill:none" /><g
         id="g1"
         transform="matrix(0.06723522,0,0,0.06723522,91.875978,109.6666)"><path
           d="m 646.7,0 c 35.2,0 70.3,1 105.5,3.1 104.4,10.4 178.5,63 222.3,157.9 33.7,76.6 34,153.4 1.1,230.4 -37.3,79.6 -98.3,131.5 -183,155.6 -32.6,8.2 -65.7,11.4 -99.4,9.4 C 604.6,551.1 522.8,525 447.9,478.1 428.7,464.4 408.7,451.8 388,440.4 332.6,412.2 273.7,398 211.5,397.7 c -17.1,-1.4 -26.8,-10.5 -29.1,-27.5 -1.1,-22.6 -1.1,-45.1 0,-67.7 2.1,-16.5 11.4,-25.5 28,-26.9 35.8,0.1 64,-14.2 84.6,-43 14.8,-23.3 17.5,-47.9 8.3,-73.8 -10.7,-23.8 -29.1,-37.3 -55.2,-40.2 -37.5,-0.1 -74.9,-0.4 -112.4,-0.8 -2.7,0.2 -5.4,0.7 -8,1.4 -2.4,1.2 -4,3.2 -4.7,5.8 -0.5,4.1 -0.8,8.1 -0.8,12.2 0.6,127.5 0.7,255 0.3,382.4 -0.1,10 -3.9,18.2 -11.4,24.7 -6,3.5 -12.5,5.3 -19.4,5.6 -20.9,0.4 -41.8,0.4 -62.7,0 C 13,548.4 3.7,539.8 1,524.1 0.7,469.4 0.5,414.8 0,360.2 0.4,249.7 0.7,139 0.8,28.3 2.4,14.3 10.1,5.7 23.8,2.5 68,1.6 112.2,1.1 156.5,1.1 193,1 229.4,1.5 265.9,2.5 318.3,9.8 360,34.7 391.1,77.2 418,115.5 429.3,158 425,204.9 c -0.2,19.4 -4.3,37.9 -12.2,55.5 -7.2,16.1 -14.9,32 -23,47.7 20.3,8.2 39.9,17.7 58.8,28.6 26,16.1 51.7,32.5 77.2,49.4 66.3,40.3 138.3,57.5 215.9,51.6 53.6,-6.9 93.5,-33.8 119.6,-80.8 35.9,-66.3 29.8,-128.3 -18.3,-186 -28.4,-32.2 -64.2,-49.7 -107.4,-52.5 -38.2,-0.1 -76.4,-0.4 -114.6,-0.8 -3.1,0.1 -6.2,0.6 -9.2,1.4 -3.2,1.7 -5,4.4 -5.3,8 -0.2,33.2 -0.1,66.4 0.3,99.6 -0.1,30.8 -0.4,61.6 -0.8,92.4 -0.8,10.7 -5.5,19.1 -14.2,25.3 -10,4.7 -19.9,4.7 -30,0 -11.8,-6.7 -23.3,-13.9 -34.4,-21.6 -13,-9.2 -26.2,-18.3 -39.4,-27.2 -1.4,-1.1 -2.5,-2.5 -3.1,-4.2 -0.9,-85.3 -1.1,-170.6 -0.6,-255.9 -0.9,-10.9 2.5,-20 10.3,-27.5 4.8,-3.3 10.2,-5.4 16.1,-6.1 45.4,-0.5 90.7,-1.2 136,-1.8 z"
           style="clip-rule:evenodd;opacity:0.996;fill:#ffffff;fill-rule:evenodd;enable-background:new"
           id="path1-9" /><path
           class="st1"
           d="m 158.8,603.4 c 10.1,0.2 13.7,5.2 10.8,15 -2.5,4.1 -6.1,5.5 -10.8,4.2 -6.1,-1.6 -8.6,-5.6 -7.5,-11.9 1,-4.2 3.5,-6.6 7.5,-7.3 z"
           id="path2"
           style="fill:#ffffff" /><path
           d="m 697.2,603.4 c 9.1,1.1 12.3,6.1 9.7,15 -1,2 -2.6,3.4 -4.7,4.2 -8.2,1.9 -12.9,-1.2 -13.9,-9.4 0.6,-5.6 3.5,-8.8 8.9,-9.8 z"
           style="clip-rule:evenodd;opacity:0.944;fill:#ffffff;fill-rule:evenodd;enable-background:new"
           id="path3" /><path
           d="m 733.8,603.4 c 3.2,-0.2 6.1,0.4 8.9,1.9 1.4,1.5 2.2,3.3 2.5,5.3 0.4,28.1 0.4,56.2 0,84.4 -0.6,5.2 -3.6,8 -8.9,8.3 -5.7,0 -9,-2.8 -10,-8.3 -0.4,-27.8 -0.4,-55.5 0,-83.3 0.5,-4.7 3,-7.4 7.5,-8.3 z"
           style="clip-rule:evenodd;opacity:0.97;fill:#ffffff;fill-rule:evenodd;enable-background:new"
           id="path4" /><path
           d="m 14.4,608.4 c 8.1,-0.1 16.3,0 24.4,0.3 20.1,1.5 29.3,12.3 27.5,32.5 -0.5,4.7 -2.5,8.7 -5.8,11.9 -3.1,2 -6.2,3.8 -9.4,5.6 -3.4,2.1 -4.1,4.8 -1.9,8 6.2,5.6 11.7,11.7 16.7,18.3 2,7.8 -1.1,12.2 -9.2,13.3 -2.9,-0.2 -5.5,-1.3 -7.8,-3.1 -5.3,-5.3 -10.2,-11 -14.7,-16.9 -3.2,-3.6 -6.7,-6.7 -10.5,-9.4 -0.7,1.4 -1.2,2.9 -1.7,4.4 -0.1,5.2 -0.5,10.4 -1.1,15.5 -2.4,8.8 -7.8,11.5 -16.4,8 -1.4,-0.6 -2.4,-1.7 -3.1,-3.1 -0.6,-12 -1.1,-24 -1.4,-36.1 0.5,-14.4 0.7,-28.9 0.8,-43.3 0.6,-2.6 2.2,-4.4 4.7,-5.3 3.1,0.1 6.1,-0.2 8.9,-0.6 z m 12.2,18.3 c 3.9,0 7.8,0.5 11.7,1.4 5.2,2.6 6.9,6.8 5.3,12.5 -0.8,1.9 -2,3.5 -3.6,4.7 -5.3,1.9 -10.6,2.3 -16.1,1.1 -2.3,-1.1 -3.6,-2.8 -3.9,-5.3 0.3,-3.7 0.8,-7.4 1.4,-11.1 1.4,-1.8 3.1,-2.9 5.2,-3.3 z"
           style="clip-rule:evenodd;opacity:0.979;fill:#ffffff;fill-rule:evenodd;enable-background:new"
           id="path5" /><path
           class="st5"
           d="m 282.5,608.4 c 12.2,-0.4 23.9,1.9 35,6.9 12.2,7.2 19.5,17.9 21.9,31.9 3,41 -16,59.7 -57.2,56.1 -4,-0.1 -8,-0.6 -11.9,-1.4 -2.3,-0.8 -3.9,-2.4 -4.7,-4.7 -0.5,-2 -0.9,-4 -1.1,-6.1 -0.4,-17.6 -0.4,-35.2 0,-52.7 0.1,-8.1 2.1,-15.7 6.1,-22.8 3.1,-3.9 7.1,-6.3 11.9,-7.2 z m 12.2,20.5 c 11.4,1 19.1,6.9 23,17.8 2.5,10.4 1.1,20.2 -4.4,29.4 -7.4,7.9 -16.2,10 -26.4,6.4 -2.2,-2.2 -3.1,-4.9 -2.8,-8 l 0.3,-40.5 c 0.6,-1.4 1.7,-2.4 3.1,-3.1 2.4,-0.9 4.9,-1.6 7.2,-2 z"
           id="path6"
           style="fill:#ffffff" /><path
           d="m 812.6,608.4 c 8.6,-0.8 16.8,0.8 24.4,4.7 5.1,3.9 6.3,8.8 3.6,14.7 -1.8,2.5 -4.3,3.8 -7.5,3.9 -4.4,-0.6 -8.6,-1.6 -12.8,-3.1 -7.5,-1.2 -11,2.1 -10.3,9.7 0.7,2.1 2.1,3.5 4.2,4.2 9.3,1.7 17.8,5.2 25.5,10.5 9.5,9.2 11.9,20 6.9,32.5 -3.7,8.3 -9.8,13.5 -18.6,15.8 -11.5,3 -22.8,2.4 -33.9,-1.7 -6.6,-3.5 -8.6,-8.8 -5.8,-15.8 1.9,-2.8 4.6,-4.3 8,-4.4 6.7,1.4 13.4,2.8 20,4.4 8.3,-1.3 11.1,-6 8.6,-13.9 L 823,668 c -8.8,-3.3 -17.5,-6.8 -26.1,-10.5 -4.9,-3.5 -8,-8.2 -9.2,-14.2 -2.3,-15 3.3,-25.9 16.9,-32.5 2.9,-0.8 5.5,-1.7 8,-2.4 z"
           style="clip-rule:evenodd;opacity:0.973;fill:#ffffff;fill-rule:evenodd;enable-background:new"
           id="path7" /><path
           class="st7"
           d="m 927.5,608.4 c 9,-1.7 15.2,1.7 18.6,10 8.5,22.3 16.8,44.7 25,67.2 1.9,5.7 0.2,9.7 -5.3,11.9 -6.6,2.1 -11.1,0 -13.6,-6.4 -0.4,-2.8 -1.3,-5.4 -2.8,-7.8 -1.3,-1.1 -2.6,-1.9 -4.2,-2.5 -6.5,-0.2 -13,-0.4 -19.4,-0.8 -5.3,-0.2 -9.6,1.6 -13,5.6 -1.6,3.2 -2.9,6.5 -3.9,10 -4.9,3.6 -10,3.7 -15.3,0.3 -1.8,-1.7 -2.8,-3.8 -2.8,-6.4 8.7,-24.4 17.8,-48.6 27.5,-72.7 2.2,-4 5.2,-6.8 9.2,-8.4 z m 4.5,25.5 c 0.7,0 1.2,0.4 1.4,1.1 2.6,7.3 4.9,14.7 6.9,22.2 0.1,1.3 -0.3,2.4 -1.1,3.3 -5.1,2.7 -10.3,2.8 -15.5,0.3 -1,-0.7 -1.6,-1.6 -1.7,-2.8 2.5,-6.1 4.6,-12.3 6.4,-18.6 1,-1.9 2.2,-3.8 3.6,-5.5 z M 97.1,631.7 c 6.2,-0.3 12.2,0.9 17.8,3.6 5,0.7 10,1.7 15,2.8 4.2,1.4 6.5,4.3 6.9,8.6 0.8,14 1,28.1 0.6,42.2 -0.1,2.9 -0.6,5.8 -1.4,8.6 -2.1,4.5 -5.6,6 -10.5,4.4 -2.6,-0.9 -5.2,-1.7 -7.8,-2.5 -9.6,4.2 -19.5,4.7 -29.4,1.4 -10.1,-6.1 -15.7,-15 -16.9,-26.9 -1.9,-14 2,-25.9 11.9,-35.8 4.1,-3.4 8.7,-5.5 13.8,-6.4 z m 4.5,18.8 c 8,-0.6 12.9,2.9 14.7,10.5 1.5,6.6 0.8,12.9 -2.2,18.9 -3.7,3.9 -8.2,5.3 -13.6,4.2 -3.9,-1.1 -6.6,-3.6 -8,-7.5 -3.2,-8.6 -2,-16.4 3.6,-23.6 1.8,-1 3.6,-1.8 5.5,-2.5 z"
           id="path8"
           style="fill:#ffffff" /><path
           class="st8"
           d="m 159.3,631.7 c 3.5,-0.4 6.3,0.7 8.6,3.3 1.3,2.6 2,5.4 2.2,8.3 0.5,17.8 0.3,35.5 -0.6,53.3 -1.4,4.3 -4.3,6.5 -8.9,6.7 -4.6,-0.1 -7.5,-2.3 -8.9,-6.7 -0.8,-18.5 -1,-37 -0.6,-55.5 0.6,-5.1 3.3,-8.3 8.2,-9.4 z"
           id="path9"
           style="fill:#ffffff" /><path
           class="st5"
           d="m 210.4,631.7 c 6.8,-0.4 13.2,1.1 19.2,4.4 5.5,-2.4 11.1,-3 16.9,-1.9 1,0.4 1.8,1.1 2.5,1.9 1,2.4 1.7,4.9 1.9,7.5 -0.6,4 -1,8.1 -1.1,12.2 0.6,12.3 0.7,24.6 0.3,36.9 0.3,5.7 -2.3,9 -7.8,10 -3.9,-0.7 -7.6,-1.8 -11.1,-3.3 -9.1,4 -18.5,4.6 -28,1.9 -10.9,-5.4 -17.1,-14.2 -18.6,-26.4 -2.3,-14.4 1.7,-26.7 11.9,-36.9 4.2,-3.2 8.8,-5.3 13.9,-6.3 z m 3.3,19.4 c 9,-1.4 14.5,2.3 16.4,11.1 1.2,5.5 0.7,10.9 -1.7,16.1 -5,6.3 -11.2,7.7 -18.6,4.2 -2.9,-1.9 -4.6,-4.6 -5.3,-8 -0.6,-5.4 -0.2,-10.8 1.1,-16.1 1.8,-3.6 4.5,-6 8.1,-7.3 z"
           id="path10"
           style="fill:#ffffff" /><path
           d="m 382.4,631.7 c 9.1,-0.4 13.8,3.8 14.2,12.8 -0.3,1.7 -1.2,3.1 -2.5,4.2 -5,1.5 -9.6,3.7 -13.9,6.7 -4.9,6.2 -7.1,13.3 -6.7,21.4 0.9,6.6 1.2,13.3 0.8,20 -1.8,4.6 -5.2,6.9 -10.3,6.7 -7.2,-0.1 -10.7,-3.7 -10.5,-10.8 0.1,-18.2 0.5,-36.5 1.4,-54.7 1.4,-3.9 4.1,-5.6 8,-5.3 2,1.1 4.1,1.7 6.4,1.9 4.6,-0.8 8.9,-1.7 13.1,-2.9 z"
           style="clip-rule:evenodd;opacity:0.976;fill:#ffffff;fill-rule:evenodd;enable-background:new"
           id="path11" /><path
           class="st7"
           d="m 425.7,631.7 c 18.6,-0.5 30.6,8.2 35.8,26.1 2.8,12.2 0.8,23.5 -6.1,33.9 -9.9,10.3 -21.8,13.7 -35.8,10.3 -13.4,-4 -21.1,-13 -23,-26.9 -2.3,-15.5 2.6,-28.2 14.7,-38 4.6,-2.8 9.4,-4.5 14.4,-5.4 z m 1.7,18.8 c 9.6,-0.1 14.7,4.7 15.3,14.4 0.5,4.8 -0.2,9.5 -2.2,13.9 -3.7,4.8 -8.6,6.5 -14.7,5.3 -3.9,-1.1 -6.6,-3.6 -8,-7.5 -3.2,-7.5 -2.4,-14.8 2.2,-21.6 1.9,-2.4 4.4,-3.9 7.4,-4.5 z m 150.4,-18.8 c 7,-0.1 13.8,1.2 20.3,3.9 4.7,-2.2 9.6,-3 14.7,-2.5 1.2,0.6 2.2,1.5 3.1,2.5 0.9,2.1 1.5,4.4 1.7,6.7 0.8,11.4 1.1,22.8 0.8,34.1 0,6.8 -0.5,13.5 -1.4,20.3 -1,5.1 -4.1,7 -9.2,5.8 -3.3,-1.1 -6.4,-2.5 -9.4,-4.2 -10.8,6.4 -21.7,6.5 -32.7,0.3 -9.5,-7.6 -14.2,-17.6 -13.9,-30 -0.2,-12.2 4.1,-22.6 12.8,-31.1 3.9,-3 8.4,-5 13.2,-5.8 z m 4.5,18.8 c 8.1,-0.7 13,2.8 14.7,10.5 1.2,5.7 0.9,11.2 -1.1,16.7 -2.9,5.5 -7.4,7.6 -13.6,6.4 -6.8,-1.6 -10.4,-6 -10.8,-13 -0.5,-5.4 0.5,-10.6 2.8,-15.5 2,-2.8 4.7,-4.5 8,-5.1 z"
           id="path12"
           style="fill:#ffffff" /><path
           d="m 652.8,631.7 c 10,-1.1 18.1,2.2 24.1,10 1.9,5.4 0.3,9.4 -4.7,11.9 -1.7,0.4 -3.3,0.4 -5,0 -3.7,-1.2 -7.5,-2.3 -11.4,-3.1 -5.5,0.8 -6.4,3.1 -2.5,6.9 6.5,2.5 12.8,5.5 18.9,8.9 7.6,6.7 9.3,14.7 5.3,24.1 -2.4,5.3 -6.4,8.9 -11.9,10.8 -11.4,3 -22.3,1.7 -32.7,-3.9 -5.9,-3.7 -7.1,-8.6 -3.6,-14.7 0.9,-0.9 1.9,-1.5 3.1,-1.9 2.8,-0.4 5.6,-0.4 8.3,0 4.3,1.8 8.7,3.6 13,5.3 2.3,-0.3 3.8,-1.6 4.4,-3.9 0.5,-1.8 0.3,-3.3 -0.8,-4.7 -3.9,-1.9 -8,-3.4 -12.2,-4.4 -5.9,-2.4 -10.6,-6.2 -14.2,-11.4 -3.2,-9 -1.7,-17 4.7,-24.1 5.2,-3.4 11,-5.3 17.2,-5.8 z"
           style="clip-rule:evenodd;opacity:0.969;fill:#ffffff;fill-rule:evenodd;enable-background:new"
           id="path13" /><path
           class="st8"
           d="m 696.1,631.7 c 6.1,-0.6 9.9,2 11.4,7.8 0.4,18.5 0.4,37 0,55.5 -0.7,5.5 -3.8,8.3 -9.4,8.3 -5.6,-0.1 -8.7,-2.8 -9.4,-8.3 -0.5,-19.1 -0.3,-38.1 0.6,-57.2 0.9,-3.5 3.2,-5.6 6.8,-6.1 z"
           id="path14"
           style="fill:#ffffff" /><path
           d="m 499,632.2 c 2.4,-0.1 4.8,0 7.2,0.3 5.1,1.1 10.3,1.9 15.5,2.5 4.2,-0.8 8.5,-1.2 12.8,-1.4 2.5,1.7 4,4 4.7,6.9 0.4,20.5 0.4,41.1 0,61.6 -1.2,14.3 -8.7,23.5 -22.5,27.5 -14.2,3.7 -27.3,1.2 -39.1,-7.5 -2.5,-5.6 -1.3,-10.1 3.6,-13.6 2,-0.4 4.1,-0.4 6.1,0 4.1,2 8.3,3.4 12.8,4.4 4.4,0.6 8.5,-0.3 12.2,-2.8 2.3,-1.8 4.3,-3.8 6.1,-6.1 -4.6,0.4 -9.2,0.7 -13.9,0.8 -11.4,0.6 -19.8,-4 -25.3,-13.9 -7.8,-16.4 -6.8,-32.3 2.8,-47.7 4.5,-5.5 10.2,-9.2 17,-11 z m 6.1,18.9 c 6.7,-0.4 11,2.5 13,8.9 3.2,7.7 2.5,15.1 -2.2,22.2 -5.8,4.9 -11.7,5.1 -17.8,0.6 -5.8,-8.8 -6.1,-17.9 -1.1,-27.2 2.4,-2.4 5,-3.8 8.1,-4.5 z"
           style="clip-rule:evenodd;opacity:0.977;fill:#ffffff;fill-rule:evenodd;enable-background:new"
           id="path15" /><path
           class="st1"
           d="m 864.8,678.9 c 9.4,-0.3 13.4,4.1 11.9,13.3 -2.4,5.4 -6.6,7.4 -12.5,5.8 -4.5,-1.4 -6.5,-4.5 -6.1,-9.2 -0.1,-4.9 2.1,-8.3 6.7,-9.9 z"
           id="path16"
           style="fill:#ffffff" /><path
           d="m 988,678.9 c 9.7,-0.3 13.5,4.3 11.4,13.9 -0.6,2 -1.8,3.6 -3.6,4.7 -11.9,2.7 -16.6,-1.8 -14.2,-13.6 1.5,-2.6 3.7,-4.3 6.4,-5 z"
           style="clip-rule:evenodd;opacity:0.954;fill:#ffffff;fill-rule:evenodd;enable-background:new"
           id="path17" /></g></g></g><style
     id="style1">.st1,.st5,.st7,.st8{opacity:.943;fill-rule:evenodd;clip-rule:evenodd;fill:#92958b;enable-background:new}.st5,.st7,.st8{opacity:.975}.st7,.st8{opacity:.974}.st8{opacity:.965}</style></svg>
