<?xml version="1.0" encoding="UTF-8" standalone="no"?>
<!-- Created with Inkscape (http://www.inkscape.org/) -->

<svg
   width="800"
   height="800"
   viewBox="0 0 211.66667 211.66667"
   version="1.1"
   id="svg1"
   xml:space="preserve"
   inkscape:version="1.3.2 (091e20e, 2023-11-25, custom)"
   sodipodi:docname="stoledo.svg"
   xmlns:inkscape="http://www.inkscape.org/namespaces/inkscape"
   xmlns:sodipodi="http://sodipodi.sourceforge.net/DTD/sodipodi-0.dtd"
   xmlns="http://www.w3.org/2000/svg"
   xmlns:svg="http://www.w3.org/2000/svg"><sodipodi:namedview
     id="namedview1"
     pagecolor="#000000"
     bordercolor="#000000"
     borderopacity="0.25"
     inkscape:showpageshadow="2"
     inkscape:pageopacity="0.0"
     inkscape:pagecheckerboard="0"
     inkscape:deskcolor="#d1d1d1"
     inkscape:document-units="mm"
     inkscape:export-bgcolor="#00000000"
     inkscape:zoom="0.2560658"
     inkscape:cx="-105.44165"
     inkscape:cy="-689.27595"
     inkscape:window-width="1920"
     inkscape:window-height="1009"
     inkscape:window-x="-8"
     inkscape:window-y="-8"
     inkscape:window-maximized="1"
     inkscape:current-layer="layer1"
     showguides="true"><sodipodi:guide
       position="705.05537,707.032"
       orientation="0,-1"
       id="guide87"
       inkscape:locked="false" /><sodipodi:guide
       position="713.8229,631.77738"
       orientation="0,-1"
       id="guide88"
       inkscape:locked="false" /><sodipodi:guide
       position="706.23531,692.65063"
       orientation="1,0"
       id="guide89"
       inkscape:locked="false" /><sodipodi:guide
       position="692.28625,669.40466"
       orientation="1,0"
       id="guide90"
       inkscape:locked="false" /><sodipodi:guide
       position="759.57752,692.52147"
       orientation="0,-1"
       id="guide91"
       inkscape:locked="false" /><sodipodi:guide
       position="1007.1763,631.77105"
       orientation="1,0"
       id="guide108"
       inkscape:locked="false" /></sodipodi:namedview><defs
     id="defs1"><inkscape:path-effect
       effect="fillet_chamfer"
       id="path-effect85"
       is_visible="true"
       lpeversion="1"
       nodesatellites_param="F,0,0,1,0,0,0,1 @ F,0,0,1,0,0,0,1 @ F,0,0,1,0,0,0,1 @ F,0,0,1,0,0,0,1 @ F,0,0,1,0,0,0,1 @ F,0,0,1,0,0,0,1 @ F,0,0,1,0,0,0,1"
       radius="0"
       unit="px"
       method="auto"
       mode="F"
       chamfer_steps="1"
       flexible="false"
       use_knot_distance="true"
       apply_no_radius="true"
       apply_with_radius="true"
       only_selected="false"
       hide_knots="false" /></defs><g
     inkscape:label="Camada 1"
     inkscape:groupmode="layer"
     id="layer1"
     transform="translate(-67.583023,162.56458)"><g
       id="g108"
       transform="translate(0,430.65761)"><path
         id="path85"
         style="fill:#ffffff;fill-opacity:1;stroke:none;stroke-width:0.72153;stroke-linecap:round;stroke-linejoin:round;paint-order:stroke fill markers"
         d="m 174.75343,-568.23574 c 0,0 -25.53093,18.31189 -27.20365,28.52423 -1.17345,7.16413 2.7294,13.9049 8.61515,15.40487 7.99759,2.03815 21.17103,-1.23926 28.62461,-0.87599 1.76361,0.086 3.11883,0.38414 4.14706,0.92431 6.84164,-1.82094 17.44848,-1.01544 20.86227,-0.40948 0.0529,-0.20018 0.1238,-0.40874 0.16962,-0.6055 5.65848,-24.29646 -20.94001,-12.34552 -36.53837,-11.66529 -5.39493,0.23528 -9.63641,-1.09414 -11.08995,-5.23799 -3.23456,-9.22132 12.41326,-26.05916 12.41326,-26.05916 z m -7.68687,1.80303 c -0.0384,0.0188 -0.0681,0.0378 -0.10682,0.0565 -9.34675,4.51608 -22.72949,13.35871 -30.96789,23.76073 -8.1326,10.26844 -9.56038,17.08266 -9.62838,21.87924 -0.0587,4.13942 1.67932,6.96161 4.66264,8.83957 14.2465,8.96802 60.40636,-8.43332 69.66746,4.48928 6.81296,9.50658 -9.83632,31.50893 -24.6696,48.2769 34.81382,-23.23093 45.034,-38.46943 44.42101,-49.85577 -1.1498,-21.3578 -28.51984,-14.38563 -46.03749,-11.92782 -36.84251,3.98382 -46.36518,-18.0675 -7.3409,-45.51867 z m 22.684,55.97198 c -0.39109,1.42731 -0.83452,2.95379 -1.35147,4.6437 -2.70209,8.83318 -20.95294,35.03897 -20.95294,35.03897 -0.0785,-0.10984 19.65278,-18.43802 32.39034,-35.7954 -2.6891,-3.04769 -7.43742,-3.74477 -10.08593,-3.88727 z" /><path
         id="rect88"
         style="fill:#ffffff;fill-opacity:1;stroke:none;stroke-width:0.745421;stroke-linecap:round;stroke-linejoin:round;paint-order:stroke fill markers"
         d="m 95.017696,-459.1305 v 7.52454 9.34789 13.07543 c 0,3.97318 3.05061,7.20087 6.945834,7.49545 v 0.0291 c 2.60041,0.0502 6.38108,-0.48709 8.42489,-1.85321 l -0.9647,-5.30748 c -3.20847,1.35351 -6.64207,2.46825 -7.46019,-2.18464 v -11.25464 -3.73524 h 7.78339 v -5.91192 h -7.78339 v -7.19619 -0.0291 z m 51.086904,0 v 37.47239 h 6.94582 v -36.99094 -0.48145 z m 65.50529,0.003 v 10.24131 c -2.45374,-1.89541 -5.50218,-3.01886 -8.80574,-3.01887 -8.11245,-2e-5 -14.68886,6.77183 -14.68881,15.12523 8e-5,8.35331 6.57645,15.12499 14.68881,15.12498 3.30352,-10e-6 6.35201,-1.12324 8.80574,-3.01862 v 3.01862 h 6.97025 v -36.99096 -0.48169 z m -83.81227,7.22244 a 14.688871,15.125134 0 0 0 -14.68882,15.12523 14.688871,15.125134 0 0 0 14.68882,15.12498 14.688871,15.125134 0 0 0 14.68907,-15.12498 14.688871,15.125134 0 0 0 -14.68907,-15.12523 z m 42.81614,0 c -8.15911,-2e-5 -14.77353,6.77184 -14.77348,15.12523 8e-5,8.35329 6.61446,15.12499 14.77348,15.12498 5.02522,1e-5 9.4615,-2.57105 12.13029,-6.49604 l -4.76787,-3.90378 c -1.41469,2.65036 -4.03756,4.44474 -7.36242,4.44467 -5.06324,1.1e-4 -8.51755,-4.14772 -8.51727,-9.17034 3e-5,-5.02242 3.45423,-9.69642 8.51727,-9.69631 3.63581,-7e-5 6.43337,2.41475 7.72653,5.63349 h -11.80633 v 5.65949 h 12.47022 v 2.5e-4 l 6.30046,-2.5e-4 c 0.0538,-0.52465 0.0823,-1.05695 0.0824,-1.59616 6e-5,-8.35339 -6.61409,-15.12525 -14.77321,-15.12523 z m 66.51243,0 a 14.688871,15.125134 0 0 0 -14.68908,15.12523 14.688871,15.125134 0 0 0 14.68908,15.12498 14.688871,15.125134 0 0 0 14.68883,-15.12498 14.688871,15.125134 0 0 0 -14.68883,-15.12523 z m -109.32857,5.42841 c 5.03408,-1.1e-4 9.51667,4.67388 9.5167,9.69631 2.8e-4,5.02262 -4.48242,9.69743 -9.5167,9.69734 -5.0343,9e-5 -9.51673,-4.67472 -9.51645,-9.69734 3e-5,-5.02243 4.48236,-9.69642 9.51645,-9.69631 z m 75.00653,0 c 5.03409,-1.1e-4 8.72619,4.67389 8.72622,9.69631 2.8e-4,5.02262 -3.69193,9.69743 -8.72622,9.69734 -5.03429,9e-5 -8.72623,-4.67472 -8.72595,-9.69734 4e-5,-5.02242 3.69187,-9.69642 8.72595,-9.69631 z m 34.32204,0 c 5.03411,-1.1e-4 9.51664,4.67388 9.51669,9.69631 2.5e-4,5.02262 -4.48238,9.69743 -9.51669,9.69734 -5.03431,9e-5 -9.51674,-4.67472 -9.51644,-9.69734 0,-5.02243 4.48233,-9.69642 9.51644,-9.69631 z m -65.07813,31.91558 c -0.78088,0 -1.48677,0.17259 -2.11748,0.51798 -0.63071,0.34538 -1.12639,0.82607 -1.48679,1.44177 -0.3529,0.60817 -0.52931,1.29144 -0.52931,2.0498 0,0.75836 0.17641,1.44543 0.52931,2.06113 0.3604,0.60818 0.85226,1.08479 1.47546,1.43017 0.63071,0.3454 1.3366,0.51825 2.11749,0.51825 0.58566,0 1.12633,-0.0976 1.62188,-0.29283 0.50307,-0.20273 0.92731,-0.492 1.2727,-0.86742 l -0.5293,-0.52931 c -0.60819,0.63071 -1.38552,0.94617 -2.33158,0.94617 -0.6232,0 -1.19004,-0.14261 -1.70062,-0.42793 -0.51057,-0.28532 -0.91219,-0.67576 -1.20503,-1.17131 -0.28532,-0.49556 -0.42817,-1.05123 -0.42817,-1.66692 0,-0.6157 0.14285,-1.17135 0.42817,-1.66692 0.29284,-0.49556 0.69446,-0.88599 1.20503,-1.17131 0.51058,-0.28532 1.07742,-0.42793 1.70062,-0.42793 0.93856,0 1.71588,0.31138 2.33158,0.93459 l 0.5293,-0.52931 c -0.34539,-0.37541 -0.76581,-0.66062 -1.26138,-0.85584 -0.49555,-0.19523 -1.03622,-0.29283 -1.62188,-0.29283 z m -77.030364,0.0674 v 7.88401 h 0.83346 v -2.48905 h 2.11748 c 1.00613,0 1.79438,-0.23666 2.365024,-0.70969 0.57065,-0.48055 0.85611,-1.14118 0.85611,-1.98213 0,-0.84096 -0.28546,-1.50159 -0.85611,-1.98214 -0.570644,-0.48053 -1.358894,-0.721 -2.365024,-0.721 z m 15.687734,0 v 4.51647 c 0,1.11876 0.28546,1.97106 0.85611,2.55672 0.57063,0.58566 1.36651,0.87849 2.38766,0.87849 1.02115,0 1.81321,-0.29283 2.37635,-0.87849 0.57064,-0.58566 0.8561,-1.43796 0.8561,-2.55672 v -4.51647 h -0.81107 v 4.48275 c 0,0.91605 -0.2064,1.5993 -0.61937,2.04981 -0.41297,0.45052 -1.01362,0.67573 -1.80201,0.67573 -0.78088,0 -1.37798,-0.22521 -1.79094,-0.67573 -0.41297,-0.45051 -0.61937,-1.13376 -0.61937,-2.04981 v -4.48275 z m 15.99163,0 v 7.88401 h 3.62666 c 0.97611,0 1.71198,-0.18022 2.20754,-0.54064 0.50307,-0.36791 0.75447,-0.88976 0.75447,-1.56553 0,-0.52559 -0.14261,-0.95365 -0.42793,-1.28402 -0.27781,-0.33788 -0.67561,-0.56309 -1.1937,-0.67572 0.37542,-0.15017 0.66825,-0.37538 0.87849,-0.67572 0.21774,-0.30785 0.32653,-0.67947 0.32653,-1.11496 0,-0.64574 -0.24402,-1.14496 -0.73207,-1.49786 -0.48055,-0.3529 -1.16,-0.52956 -2.03848,-0.52956 z m 16.10433,0 v 7.88401 h 5.24855 v -0.72075 h -4.41509 v -7.16326 z m 14.76396,0 v 7.88401 h 0.83346 v -7.88401 z m 26.88165,0 v 7.88401 h 0.83344 v -7.88401 z m 10.34886,0 v 7.88401 h 3.2098 c 0.83345,0 1.56933,-0.16525 2.20755,-0.49561 0.63822,-0.33787 1.13364,-0.8033 1.48653,-1.39647 0.3529,-0.60067 0.52957,-1.28394 0.52957,-2.0498 0,-0.76587 -0.17667,-1.44557 -0.52957,-2.03875 -0.35289,-0.60067 -0.84831,-1.0661 -1.48653,-1.39647 -0.63822,-0.33788 -1.3741,-0.50691 -2.20755,-0.50691 z m 20.55337,0 -3.60426,7.88401 h 0.86744 l 0.94589,-2.10617 h 4.39243 l 0.9462,2.10617 h 0.87847 l -3.60401,-7.88401 z m 13.94182,0 v 7.88401 h 3.20985 c 0.83346,0 1.56906,-0.16525 2.20728,-0.49561 0.63822,-0.33787 1.13412,-0.8033 1.487,-1.39647 0.3529,-0.60067 0.52932,-1.28394 0.52932,-2.0498 0,-0.76587 -0.17642,-1.44557 -0.52932,-2.03875 -0.35288,-0.60067 -0.84878,-1.0661 -1.487,-1.39647 -0.63822,-0.33788 -1.37382,-0.50691 -2.20728,-0.50691 z m 16.9489,0 v 7.88401 h 5.57507 v -0.72075 h -4.74161 v -2.9283 h 4.07695 v -0.70969 h -4.07695 v -2.80427 h 4.57256 v -0.721 z m -118.70944,0.68704 h 2.5117 c 0.63822,0 1.13008,0.12404 1.47548,0.37183 0.34538,0.24026 0.51797,0.59309 0.51797,1.05861 0,0.46552 -0.17259,0.82215 -0.51797,1.06993 -0.3454,0.24028 -0.83726,0.36051 -1.47548,0.36051 h -2.5117 z m -31.679354,0.034 h 2.09484 c 0.78087,0 1.37797,0.17261 1.79094,0.51799 0.412974,0.33788 0.619374,0.82593 0.619374,1.46415 0,0.62321 -0.2064,1.10743 -0.619374,1.45282 -0.41297,0.33789 -1.01007,0.50693 -1.79094,0.50693 h -2.09484 z m 99.778164,0 h 2.33131 c 0.69079,0 1.29526,0.1388 1.81333,0.41661 0.51809,0.27031 0.91971,0.64956 1.20503,1.1376 0.28532,0.48056 0.42793,1.03621 0.42793,1.66692 0,0.63072 -0.14261,1.18994 -0.42793,1.67798 -0.28532,0.48055 -0.68694,0.8598 -1.20503,1.13761 -0.51807,0.2703 -1.12254,0.40554 -1.81333,0.40554 h -2.33131 z m 34.49519,0 h 2.33156 c 0.69076,0 1.29471,0.1388 1.81282,0.41661 0.51806,0.27031 0.92001,0.64956 1.20533,1.1376 0.28532,0.48056 0.42788,1.03621 0.42788,1.66692 0,0.63072 -0.14256,1.18994 -0.42788,1.67798 -0.28532,0.48055 -0.68727,0.8598 -1.20533,1.13761 -0.51811,0.2703 -1.12206,0.40554 -1.81282,0.40554 h -2.33156 z m -14.37,0.14643 1.89233,4.2347 h -3.78438 z m -88.224,3.36754 h 2.78189 c 1.42661,0 2.13987,0.49185 2.13987,1.47546 0,0.51057 -0.17997,0.88576 -0.54037,1.12604 -0.36042,0.24026 -0.89371,0.36049 -1.5995,0.36049 h -2.78189 z" /></g></g></svg>
