<?xml version="1.0" encoding="UTF-8" standalone="no"?>
<!-- Created with Inkscape (http://www.inkscape.org/) -->

<svg
   width="800"
   height="800"
   viewBox="0 0 211.66667 211.66667"
   version="1.1"
   id="svg1"
   xml:space="preserve"
   inkscape:version="1.3.2 (091e20e, 2023-11-25, custom)"
   sodipodi:docname="tudo.svg"
   xmlns:inkscape="http://www.inkscape.org/namespaces/inkscape"
   xmlns:sodipodi="http://sodipodi.sourceforge.net/DTD/sodipodi-0.dtd"
   xmlns="http://www.w3.org/2000/svg"
   xmlns:svg="http://www.w3.org/2000/svg"><sodipodi:namedview
     id="namedview1"
     pagecolor="#000000"
     bordercolor="#000000"
     borderopacity="0.25"
     inkscape:showpageshadow="2"
     inkscape:pageopacity="0.0"
     inkscape:pagecheckerboard="0"
     inkscape:deskcolor="#d1d1d1"
     inkscape:document-units="mm"
     inkscape:export-bgcolor="#00000000"
     inkscape:zoom="0.5121316"
     inkscape:cx="488.15578"
     inkscape:cy="207.95436"
     inkscape:window-width="1920"
     inkscape:window-height="1009"
     inkscape:window-x="-8"
     inkscape:window-y="-8"
     inkscape:window-maximized="1"
     inkscape:current-layer="layer1"
     showguides="true" /><defs
     id="defs1"><inkscape:path-effect
   effect="fillet_chamfer"
   id="path-effect85"
   is_visible="true"
   lpeversion="1"
   nodesatellites_param="F,0,0,1,0,0,0,1 @ F,0,0,1,0,0,0,1 @ F,0,0,1,0,0,0,1 @ F,0,0,1,0,0,0,1 @ F,0,0,1,0,0,0,1 @ F,0,0,1,0,0,0,1 @ F,0,0,1,0,0,0,1"
   radius="0"
   unit="px"
   method="auto"
   mode="F"
   chamfer_steps="1"
   flexible="false"
   use_knot_distance="true"
   apply_no_radius="true"
   apply_with_radius="true"
   only_selected="false"
   hide_knots="false" />
	
	
	
	
	
	
	
	
	
	
	
	
	
<inkscape:path-effect
   effect="fillet_chamfer"
   id="path-effect85-0"
   is_visible="true"
   lpeversion="1"
   nodesatellites_param="F,0,0,1,0,0,0,1 @ F,0,0,1,0,0,0,1 @ F,0,0,1,0,0,0,1 @ F,0,0,1,0,0,0,1 @ F,0,0,1,0,0,0,1 @ F,0,0,1,0,0,0,1 @ F,0,0,1,0,0,0,1"
   radius="0"
   unit="px"
   method="auto"
   mode="F"
   chamfer_steps="1"
   flexible="false"
   use_knot_distance="true"
   apply_no_radius="true"
   apply_with_radius="true"
   only_selected="false"
   hide_knots="false" /></defs><g
     inkscape:label="Camada 1"
     inkscape:groupmode="layer"
     id="layer1"
     transform="translate(-67.583023,162.56458)"><path
       id="path118"
       style="fill:#ffffff;fill-opacity:1;stroke:none;stroke-width:6.54544;stroke-linecap:round;stroke-linejoin:round;paint-order:stroke fill markers"
       d="m 138.56631,-123.7343 v 34.635099 c 0,3.107234 0.5047,5.934425 1.43648,8.467268 h -9.44051 v -15.925655 l -14.88562,-0.0023 v 15.927904 h -5.16007 c -1.17786,0 -2.12684,0.946777 -2.12684,2.124636 v 7.823624 c 0,1.177858 0.94898,2.126838 2.12684,2.126838 h 5.16007 v 22.08124 c 0,11.341779 6.63867,19.006503 16.78306,21.880796 a 29.083406,29.083406 0 0 0 -0.65252,5.783631 29.083406,29.083406 0 0 0 29.08531,29.083106 29.083406,29.083406 0 0 0 16.83653,-5.4495926 v 5.4495926 h 14.88341 v -39.298561 a 29.083406,29.083406 0 0 0 16.74745,5.38054 29.083406,29.083406 0 0 0 29.08306,-29.083107 29.083406,29.083406 0 0 0 -29.08306,-29.085301 29.083406,29.083406 0 0 0 -16.74745,5.38279 v -47.302628 h -14.88341 v 31.757785 c 0,7.576563 -3.31302,13.580536 -13.74314,13.580536 -10.42999,0 -10.53398,-10.70322 -10.53398,-10.70322 v -34.635101 z m 39.16273,52.447114 v 28.769067 a 29.083406,29.083406 0 0 0 -16.83653,-5.378355 29.083406,29.083406 0 0 0 -23.20588,11.674219 c -7.04337,-2.030813 -7.12435,-10.251137 -7.12435,-10.251137 v -22.083443 h 21.06792 c 4.36624,1.940231 9.60996,2.836457 15.40453,2.558871 4.35927,-0.208844 7.87306,-2.317144 10.69431,-5.289222 z m 31.62637,1.812788 c 8.76705,-0.0016 16.7491,7.97597 16.7497,16.743014 -6e-4,8.767001 -7.98265,16.742714 -16.7497,16.740729 -8.76544,-5.58e-4 -16.7424,-7.975364 -16.74296,-16.740729 6e-4,-8.765447 7.97756,-16.742409 16.74296,-16.743014 z m -48.46734,33.918024 c 8.76704,-0.0016 16.74908,7.975968 16.74969,16.743005 -6.1e-4,8.766997 -7.98265,16.742711 -16.74969,16.7407261 -8.76545,-5.582e-4 -16.74241,-7.9753651 -16.74297,-16.7407261 6e-4,-8.765447 7.97757,-16.7424 16.74297,-16.743005 z" /></g></svg>
